%TF.GenerationSoftware,KiCad,Pcbnew,8.0.0*%
%TF.CreationDate,2024-03-18T20:56:23+01:00*%
%TF.ProjectId,power_switch,706f7765-725f-4737-9769-7463682e6b69,rev?*%
%TF.SameCoordinates,Original*%
%TF.FileFunction,Soldermask,Top*%
%TF.FilePolarity,Negative*%
%FSLAX46Y46*%
G04 Gerber Fmt 4.6, Leading zero omitted, Abs format (unit mm)*
G04 Created by KiCad (PCBNEW 8.0.0) date 2024-03-18 20:56:23*
%MOMM*%
%LPD*%
G01*
G04 APERTURE LIST*
G04 Aperture macros list*
%AMRoundRect*
0 Rectangle with rounded corners*
0 $1 Rounding radius*
0 $2 $3 $4 $5 $6 $7 $8 $9 X,Y pos of 4 corners*
0 Add a 4 corners polygon primitive as box body*
4,1,4,$2,$3,$4,$5,$6,$7,$8,$9,$2,$3,0*
0 Add four circle primitives for the rounded corners*
1,1,$1+$1,$2,$3*
1,1,$1+$1,$4,$5*
1,1,$1+$1,$6,$7*
1,1,$1+$1,$8,$9*
0 Add four rect primitives between the rounded corners*
20,1,$1+$1,$2,$3,$4,$5,0*
20,1,$1+$1,$4,$5,$6,$7,0*
20,1,$1+$1,$6,$7,$8,$9,0*
20,1,$1+$1,$8,$9,$2,$3,0*%
G04 Aperture macros list end*
%ADD10RoundRect,0.250000X0.450000X-0.262500X0.450000X0.262500X-0.450000X0.262500X-0.450000X-0.262500X0*%
%ADD11RoundRect,0.150000X-0.725000X-0.150000X0.725000X-0.150000X0.725000X0.150000X-0.725000X0.150000X0*%
%ADD12RoundRect,0.075000X0.075000X-0.662500X0.075000X0.662500X-0.075000X0.662500X-0.075000X-0.662500X0*%
%ADD13RoundRect,0.075000X0.662500X-0.075000X0.662500X0.075000X-0.662500X0.075000X-0.662500X-0.075000X0*%
%ADD14RoundRect,0.250000X0.475000X-0.250000X0.475000X0.250000X-0.475000X0.250000X-0.475000X-0.250000X0*%
%ADD15RoundRect,0.250000X-0.450000X0.262500X-0.450000X-0.262500X0.450000X-0.262500X0.450000X0.262500X0*%
%ADD16C,1.524000*%
%ADD17RoundRect,0.317500X0.317500X-1.157500X0.317500X1.157500X-0.317500X1.157500X-0.317500X-1.157500X0*%
%ADD18RoundRect,0.243750X0.456250X-0.243750X0.456250X0.243750X-0.456250X0.243750X-0.456250X-0.243750X0*%
%ADD19RoundRect,0.250000X-0.250000X-0.475000X0.250000X-0.475000X0.250000X0.475000X-0.250000X0.475000X0*%
%ADD20RoundRect,0.250000X-0.475000X0.250000X-0.475000X-0.250000X0.475000X-0.250000X0.475000X0.250000X0*%
%ADD21RoundRect,0.250000X0.500000X0.250000X-0.500000X0.250000X-0.500000X-0.250000X0.500000X-0.250000X0*%
%ADD22RoundRect,0.250000X-0.500000X-0.250000X0.500000X-0.250000X0.500000X0.250000X-0.500000X0.250000X0*%
%ADD23C,2.200000*%
%ADD24RoundRect,0.150000X-0.825000X-0.150000X0.825000X-0.150000X0.825000X0.150000X-0.825000X0.150000X0*%
%ADD25RoundRect,0.250000X0.262500X0.450000X-0.262500X0.450000X-0.262500X-0.450000X0.262500X-0.450000X0*%
%ADD26RoundRect,0.250000X0.250000X0.475000X-0.250000X0.475000X-0.250000X-0.475000X0.250000X-0.475000X0*%
%ADD27RoundRect,0.248400X0.651600X0.651600X-0.651600X0.651600X-0.651600X-0.651600X0.651600X-0.651600X0*%
%ADD28C,1.800000*%
%ADD29RoundRect,0.150000X0.587500X0.150000X-0.587500X0.150000X-0.587500X-0.150000X0.587500X-0.150000X0*%
%ADD30R,1.800000X1.100000*%
%ADD31R,2.400000X0.740000*%
%ADD32R,1.700000X1.700000*%
%ADD33O,1.700000X1.700000*%
%ADD34R,1.905000X2.000000*%
%ADD35O,1.905000X2.000000*%
%ADD36C,1.600000*%
%ADD37O,1.600000X1.600000*%
%ADD38C,2.000000*%
%ADD39C,3.000000*%
%ADD40R,1.600000X1.600000*%
%ADD41R,3.000000X3.000000*%
G04 APERTURE END LIST*
D10*
%TO.C,R12*%
X107950000Y-51712500D03*
X107950000Y-49887500D03*
%TD*%
D11*
%TO.C,U7*%
X117440000Y-54610000D03*
X117440000Y-55880000D03*
X117440000Y-57150000D03*
X117440000Y-58420000D03*
X122590000Y-58420000D03*
X122590000Y-57150000D03*
X122590000Y-55880000D03*
X122590000Y-54610000D03*
%TD*%
D12*
%TO.C,U1*%
X116630000Y-45437500D03*
X117130000Y-45437500D03*
X117630000Y-45437500D03*
X118130000Y-45437500D03*
X118630000Y-45437500D03*
X119130000Y-45437500D03*
X119630000Y-45437500D03*
X120130000Y-45437500D03*
X120630000Y-45437500D03*
X121130000Y-45437500D03*
X121630000Y-45437500D03*
X122130000Y-45437500D03*
D13*
X123542500Y-44025000D03*
X123542500Y-43525000D03*
X123542500Y-43025000D03*
X123542500Y-42525000D03*
X123542500Y-42025000D03*
X123542500Y-41525000D03*
X123542500Y-41025000D03*
X123542500Y-40525000D03*
X123542500Y-40025000D03*
X123542500Y-39525000D03*
X123542500Y-39025000D03*
X123542500Y-38525000D03*
D12*
X122130000Y-37112500D03*
X121630000Y-37112500D03*
X121130000Y-37112500D03*
X120630000Y-37112500D03*
X120130000Y-37112500D03*
X119630000Y-37112500D03*
X119130000Y-37112500D03*
X118630000Y-37112500D03*
X118130000Y-37112500D03*
X117630000Y-37112500D03*
X117130000Y-37112500D03*
X116630000Y-37112500D03*
D13*
X115217500Y-38525000D03*
X115217500Y-39025000D03*
X115217500Y-39525000D03*
X115217500Y-40025000D03*
X115217500Y-40525000D03*
X115217500Y-41025000D03*
X115217500Y-41525000D03*
X115217500Y-42025000D03*
X115217500Y-42525000D03*
X115217500Y-43025000D03*
X115217500Y-43525000D03*
X115217500Y-44025000D03*
%TD*%
D14*
%TO.C,C13*%
X116840000Y-34605000D03*
X116840000Y-32705000D03*
%TD*%
%TO.C,C6*%
X120650000Y-34605000D03*
X120650000Y-32705000D03*
%TD*%
D15*
%TO.C,R7*%
X113030000Y-32742500D03*
X113030000Y-34567500D03*
%TD*%
D16*
%TO.C,U9*%
X138430000Y-62230000D03*
X140970000Y-62230000D03*
X143510000Y-62230000D03*
X146050000Y-62230000D03*
%TD*%
D15*
%TO.C,R1*%
X106680000Y-62587500D03*
X106680000Y-64412500D03*
%TD*%
D17*
%TO.C,U4*%
X132700000Y-48800000D03*
X134700000Y-48800000D03*
X136700000Y-48800000D03*
X138700000Y-48800000D03*
X140700000Y-48800000D03*
X142700000Y-48800000D03*
X144700000Y-48800000D03*
X146700000Y-48800000D03*
X146700000Y-33750000D03*
X144700000Y-33750000D03*
X142700000Y-33750000D03*
X140700000Y-33750000D03*
X138700000Y-33750000D03*
X136700000Y-33750000D03*
X134700000Y-33750000D03*
X132700000Y-33750000D03*
%TD*%
D18*
%TO.C,D1*%
X106850000Y-71937500D03*
X106850000Y-70062500D03*
%TD*%
D19*
%TO.C,C8*%
X138750000Y-30480000D03*
X140650000Y-30480000D03*
%TD*%
D15*
%TO.C,R9*%
X102235000Y-55602500D03*
X102235000Y-57427500D03*
%TD*%
D20*
%TO.C,C12*%
X113665000Y-55565000D03*
X113665000Y-57465000D03*
%TD*%
D21*
%TO.C,U10*%
X121560000Y-84730000D03*
X121560000Y-87270000D03*
D22*
X127360000Y-87270000D03*
D21*
X127360000Y-84730000D03*
%TD*%
D23*
%TO.C,H1*%
X103000000Y-32000000D03*
%TD*%
D20*
%TO.C,C4*%
X121920000Y-49850000D03*
X121920000Y-51750000D03*
%TD*%
D16*
%TO.C,U8*%
X125730000Y-62230000D03*
X123190000Y-62230000D03*
X120650000Y-62230000D03*
X118110000Y-62230000D03*
X115570000Y-62230000D03*
%TD*%
D24*
%TO.C,U5*%
X132780000Y-54610000D03*
X132780000Y-55880000D03*
X132780000Y-57150000D03*
X132780000Y-58420000D03*
X137730000Y-58420000D03*
X137730000Y-57150000D03*
X137730000Y-55880000D03*
X137730000Y-54610000D03*
%TD*%
D10*
%TO.C,R11*%
X110490000Y-51712500D03*
X110490000Y-49887500D03*
%TD*%
D20*
%TO.C,C11*%
X142875000Y-55565000D03*
X142875000Y-57465000D03*
%TD*%
D25*
%TO.C,R10*%
X123467500Y-69215000D03*
X121642500Y-69215000D03*
%TD*%
D10*
%TO.C,R5*%
X109220000Y-64412500D03*
X109220000Y-62587500D03*
%TD*%
D19*
%TO.C,C14*%
X121605000Y-73025000D03*
X123505000Y-73025000D03*
%TD*%
D20*
%TO.C,C10*%
X140335000Y-55565000D03*
X140335000Y-57465000D03*
%TD*%
D26*
%TO.C,C7*%
X115250000Y-46355000D03*
X113350000Y-46355000D03*
%TD*%
D27*
%TO.C,U11*%
X127000000Y-78785000D03*
D28*
X124460000Y-78785000D03*
X121920000Y-78785000D03*
%TD*%
D15*
%TO.C,R8*%
X154305000Y-55602500D03*
X154305000Y-57427500D03*
%TD*%
D29*
%TO.C,U3*%
X119682500Y-51750000D03*
X119682500Y-49850000D03*
X117807500Y-50800000D03*
%TD*%
D23*
%TO.C,H4*%
X103000000Y-109000000D03*
%TD*%
%TO.C,H3*%
X153600000Y-109000000D03*
%TD*%
D30*
%TO.C,SW2*%
X145450000Y-54650000D03*
X151750000Y-54650000D03*
X145450000Y-58350000D03*
X151750000Y-58350000D03*
%TD*%
D20*
%TO.C,C9*%
X125095000Y-55565000D03*
X125095000Y-57465000D03*
%TD*%
D23*
%TO.C,H2*%
X153600000Y-32000000D03*
%TD*%
D31*
%TO.C,J2*%
X106045000Y-46355000D03*
X102145000Y-46355000D03*
X106045000Y-45085000D03*
X102145000Y-45085000D03*
X106045000Y-43815000D03*
X102145000Y-43815000D03*
X106045000Y-42545000D03*
X102145000Y-42545000D03*
X106045000Y-41275000D03*
X102145000Y-41275000D03*
%TD*%
D10*
%TO.C,R6*%
X105410000Y-51712500D03*
X105410000Y-49887500D03*
%TD*%
D30*
%TO.C,SW1*%
X104850000Y-54650000D03*
X111150000Y-54650000D03*
X104850000Y-58350000D03*
X111150000Y-58350000D03*
%TD*%
D14*
%TO.C,C3*%
X115570000Y-51750000D03*
X115570000Y-49850000D03*
%TD*%
D32*
%TO.C,J3*%
X101600000Y-36830000D03*
D33*
X104140000Y-36830000D03*
X106680000Y-36830000D03*
X109220000Y-36830000D03*
%TD*%
D34*
%TO.C,Q1*%
X113030000Y-99060000D03*
D35*
X110490000Y-99060000D03*
X107950000Y-99060000D03*
%TD*%
D28*
%TO.C,RV1*%
X142240000Y-71120000D03*
X149740000Y-68920000D03*
%TD*%
D36*
%TO.C,R2*%
X114300000Y-85090000D03*
D37*
X104140000Y-85090000D03*
%TD*%
D38*
%TO.C,AE1*%
X148590000Y-33655000D03*
%TD*%
D36*
%TO.C,R4*%
X104140000Y-92710000D03*
D37*
X114300000Y-92710000D03*
%TD*%
D36*
%TO.C,C5*%
X114140000Y-80010000D03*
X104140000Y-80010000D03*
%TD*%
D39*
%TO.C,F1*%
X125730000Y-105410000D03*
X148330000Y-105410000D03*
%TD*%
D40*
%TO.C,C2*%
X111760000Y-63500000D03*
D36*
X111760000Y-61000000D03*
%TD*%
%TO.C,R3*%
X104140000Y-88900000D03*
D37*
X114300000Y-88900000D03*
%TD*%
D41*
%TO.C,J1*%
X120650000Y-107950000D03*
D39*
X115570000Y-107950000D03*
X110490000Y-107950000D03*
%TD*%
D40*
%TO.C,U2*%
X106670000Y-67320000D03*
D37*
X109210000Y-67320000D03*
X111750000Y-67320000D03*
X111750000Y-74940000D03*
X109210000Y-74940000D03*
X106670000Y-74940000D03*
%TD*%
D38*
%TO.C,C1*%
X140970000Y-77470000D03*
X150970000Y-77470000D03*
%TD*%
%TO.C,PS1*%
X133350000Y-96300000D03*
X130500000Y-95250000D03*
X122650000Y-96300000D03*
X125500000Y-95250000D03*
X135700000Y-65850000D03*
X132050000Y-64800000D03*
X120300000Y-65850000D03*
X123950000Y-64800000D03*
%TD*%
%TO.C,FL1*%
X143690000Y-95250000D03*
X148590000Y-95250000D03*
X148590000Y-85250000D03*
X143690000Y-85250000D03*
%TD*%
M02*
