%TF.GenerationSoftware,KiCad,Pcbnew,8.0.0*%
%TF.CreationDate,2024-03-18T20:56:23+01:00*%
%TF.ProjectId,power_switch,706f7765-725f-4737-9769-7463682e6b69,rev?*%
%TF.SameCoordinates,Original*%
%TF.FileFunction,Legend,Top*%
%TF.FilePolarity,Positive*%
%FSLAX46Y46*%
G04 Gerber Fmt 4.6, Leading zero omitted, Abs format (unit mm)*
G04 Created by KiCad (PCBNEW 8.0.0) date 2024-03-18 20:56:23*
%MOMM*%
%LPD*%
G01*
G04 APERTURE LIST*
%ADD10C,0.200000*%
%ADD11C,0.150000*%
%ADD12C,0.120000*%
%ADD13C,1.330000*%
G04 APERTURE END LIST*
D10*
X129300000Y-56500000D02*
G75*
G02*
X127300000Y-56500000I-1000000J0D01*
G01*
X127300000Y-56500000D02*
G75*
G02*
X129300000Y-56500000I1000000J0D01*
G01*
D11*
X107467856Y-48714819D02*
X107217856Y-48238628D01*
X107039285Y-48714819D02*
X107039285Y-47714819D01*
X107039285Y-47714819D02*
X107324999Y-47714819D01*
X107324999Y-47714819D02*
X107396428Y-47762438D01*
X107396428Y-47762438D02*
X107432142Y-47810057D01*
X107432142Y-47810057D02*
X107467856Y-47905295D01*
X107467856Y-47905295D02*
X107467856Y-48048152D01*
X107467856Y-48048152D02*
X107432142Y-48143390D01*
X107432142Y-48143390D02*
X107396428Y-48191009D01*
X107396428Y-48191009D02*
X107324999Y-48238628D01*
X107324999Y-48238628D02*
X107039285Y-48238628D01*
X108182142Y-48714819D02*
X107753571Y-48714819D01*
X107967856Y-48714819D02*
X107967856Y-47714819D01*
X107967856Y-47714819D02*
X107896428Y-47857676D01*
X107896428Y-47857676D02*
X107824999Y-47952914D01*
X107824999Y-47952914D02*
X107753571Y-48000533D01*
X108467857Y-47810057D02*
X108503571Y-47762438D01*
X108503571Y-47762438D02*
X108575000Y-47714819D01*
X108575000Y-47714819D02*
X108753571Y-47714819D01*
X108753571Y-47714819D02*
X108825000Y-47762438D01*
X108825000Y-47762438D02*
X108860714Y-47810057D01*
X108860714Y-47810057D02*
X108896428Y-47905295D01*
X108896428Y-47905295D02*
X108896428Y-48000533D01*
X108896428Y-48000533D02*
X108860714Y-48143390D01*
X108860714Y-48143390D02*
X108432142Y-48714819D01*
X108432142Y-48714819D02*
X108896428Y-48714819D01*
X119443571Y-52569819D02*
X119443571Y-53379342D01*
X119443571Y-53379342D02*
X119479285Y-53474580D01*
X119479285Y-53474580D02*
X119515000Y-53522200D01*
X119515000Y-53522200D02*
X119586428Y-53569819D01*
X119586428Y-53569819D02*
X119729285Y-53569819D01*
X119729285Y-53569819D02*
X119800714Y-53522200D01*
X119800714Y-53522200D02*
X119836428Y-53474580D01*
X119836428Y-53474580D02*
X119872142Y-53379342D01*
X119872142Y-53379342D02*
X119872142Y-52569819D01*
X120157856Y-52569819D02*
X120657856Y-52569819D01*
X120657856Y-52569819D02*
X120336428Y-53569819D01*
X114234819Y-37753928D02*
X115044342Y-37753928D01*
X115044342Y-37753928D02*
X115139580Y-37718214D01*
X115139580Y-37718214D02*
X115187200Y-37682500D01*
X115187200Y-37682500D02*
X115234819Y-37611071D01*
X115234819Y-37611071D02*
X115234819Y-37468214D01*
X115234819Y-37468214D02*
X115187200Y-37396785D01*
X115187200Y-37396785D02*
X115139580Y-37361071D01*
X115139580Y-37361071D02*
X115044342Y-37325357D01*
X115044342Y-37325357D02*
X114234819Y-37325357D01*
X115234819Y-36575357D02*
X115234819Y-37003928D01*
X115234819Y-36789643D02*
X114234819Y-36789643D01*
X114234819Y-36789643D02*
X114377676Y-36861071D01*
X114377676Y-36861071D02*
X114472914Y-36932500D01*
X114472914Y-36932500D02*
X114520533Y-37003928D01*
X116357856Y-31474580D02*
X116322142Y-31522200D01*
X116322142Y-31522200D02*
X116214999Y-31569819D01*
X116214999Y-31569819D02*
X116143571Y-31569819D01*
X116143571Y-31569819D02*
X116036428Y-31522200D01*
X116036428Y-31522200D02*
X115964999Y-31426961D01*
X115964999Y-31426961D02*
X115929285Y-31331723D01*
X115929285Y-31331723D02*
X115893571Y-31141247D01*
X115893571Y-31141247D02*
X115893571Y-30998390D01*
X115893571Y-30998390D02*
X115929285Y-30807914D01*
X115929285Y-30807914D02*
X115964999Y-30712676D01*
X115964999Y-30712676D02*
X116036428Y-30617438D01*
X116036428Y-30617438D02*
X116143571Y-30569819D01*
X116143571Y-30569819D02*
X116214999Y-30569819D01*
X116214999Y-30569819D02*
X116322142Y-30617438D01*
X116322142Y-30617438D02*
X116357856Y-30665057D01*
X117072142Y-31569819D02*
X116643571Y-31569819D01*
X116857856Y-31569819D02*
X116857856Y-30569819D01*
X116857856Y-30569819D02*
X116786428Y-30712676D01*
X116786428Y-30712676D02*
X116714999Y-30807914D01*
X116714999Y-30807914D02*
X116643571Y-30855533D01*
X117322142Y-30569819D02*
X117786428Y-30569819D01*
X117786428Y-30569819D02*
X117536428Y-30950771D01*
X117536428Y-30950771D02*
X117643571Y-30950771D01*
X117643571Y-30950771D02*
X117715000Y-30998390D01*
X117715000Y-30998390D02*
X117750714Y-31046009D01*
X117750714Y-31046009D02*
X117786428Y-31141247D01*
X117786428Y-31141247D02*
X117786428Y-31379342D01*
X117786428Y-31379342D02*
X117750714Y-31474580D01*
X117750714Y-31474580D02*
X117715000Y-31522200D01*
X117715000Y-31522200D02*
X117643571Y-31569819D01*
X117643571Y-31569819D02*
X117429285Y-31569819D01*
X117429285Y-31569819D02*
X117357857Y-31522200D01*
X117357857Y-31522200D02*
X117322142Y-31474580D01*
X120524999Y-31474580D02*
X120489285Y-31522200D01*
X120489285Y-31522200D02*
X120382142Y-31569819D01*
X120382142Y-31569819D02*
X120310714Y-31569819D01*
X120310714Y-31569819D02*
X120203571Y-31522200D01*
X120203571Y-31522200D02*
X120132142Y-31426961D01*
X120132142Y-31426961D02*
X120096428Y-31331723D01*
X120096428Y-31331723D02*
X120060714Y-31141247D01*
X120060714Y-31141247D02*
X120060714Y-30998390D01*
X120060714Y-30998390D02*
X120096428Y-30807914D01*
X120096428Y-30807914D02*
X120132142Y-30712676D01*
X120132142Y-30712676D02*
X120203571Y-30617438D01*
X120203571Y-30617438D02*
X120310714Y-30569819D01*
X120310714Y-30569819D02*
X120382142Y-30569819D01*
X120382142Y-30569819D02*
X120489285Y-30617438D01*
X120489285Y-30617438D02*
X120524999Y-30665057D01*
X121167857Y-30569819D02*
X121024999Y-30569819D01*
X121024999Y-30569819D02*
X120953571Y-30617438D01*
X120953571Y-30617438D02*
X120917857Y-30665057D01*
X120917857Y-30665057D02*
X120846428Y-30807914D01*
X120846428Y-30807914D02*
X120810714Y-30998390D01*
X120810714Y-30998390D02*
X120810714Y-31379342D01*
X120810714Y-31379342D02*
X120846428Y-31474580D01*
X120846428Y-31474580D02*
X120882142Y-31522200D01*
X120882142Y-31522200D02*
X120953571Y-31569819D01*
X120953571Y-31569819D02*
X121096428Y-31569819D01*
X121096428Y-31569819D02*
X121167857Y-31522200D01*
X121167857Y-31522200D02*
X121203571Y-31474580D01*
X121203571Y-31474580D02*
X121239285Y-31379342D01*
X121239285Y-31379342D02*
X121239285Y-31141247D01*
X121239285Y-31141247D02*
X121203571Y-31046009D01*
X121203571Y-31046009D02*
X121167857Y-30998390D01*
X121167857Y-30998390D02*
X121096428Y-30950771D01*
X121096428Y-30950771D02*
X120953571Y-30950771D01*
X120953571Y-30950771D02*
X120882142Y-30998390D01*
X120882142Y-30998390D02*
X120846428Y-31046009D01*
X120846428Y-31046009D02*
X120810714Y-31141247D01*
X112904999Y-31569819D02*
X112654999Y-31093628D01*
X112476428Y-31569819D02*
X112476428Y-30569819D01*
X112476428Y-30569819D02*
X112762142Y-30569819D01*
X112762142Y-30569819D02*
X112833571Y-30617438D01*
X112833571Y-30617438D02*
X112869285Y-30665057D01*
X112869285Y-30665057D02*
X112904999Y-30760295D01*
X112904999Y-30760295D02*
X112904999Y-30903152D01*
X112904999Y-30903152D02*
X112869285Y-30998390D01*
X112869285Y-30998390D02*
X112833571Y-31046009D01*
X112833571Y-31046009D02*
X112762142Y-31093628D01*
X112762142Y-31093628D02*
X112476428Y-31093628D01*
X113154999Y-30569819D02*
X113654999Y-30569819D01*
X113654999Y-30569819D02*
X113333571Y-31569819D01*
X140398571Y-63589819D02*
X140398571Y-64399342D01*
X140398571Y-64399342D02*
X140434285Y-64494580D01*
X140434285Y-64494580D02*
X140470000Y-64542200D01*
X140470000Y-64542200D02*
X140541428Y-64589819D01*
X140541428Y-64589819D02*
X140684285Y-64589819D01*
X140684285Y-64589819D02*
X140755714Y-64542200D01*
X140755714Y-64542200D02*
X140791428Y-64494580D01*
X140791428Y-64494580D02*
X140827142Y-64399342D01*
X140827142Y-64399342D02*
X140827142Y-63589819D01*
X141219999Y-64589819D02*
X141362856Y-64589819D01*
X141362856Y-64589819D02*
X141434285Y-64542200D01*
X141434285Y-64542200D02*
X141469999Y-64494580D01*
X141469999Y-64494580D02*
X141541428Y-64351723D01*
X141541428Y-64351723D02*
X141577142Y-64161247D01*
X141577142Y-64161247D02*
X141577142Y-63780295D01*
X141577142Y-63780295D02*
X141541428Y-63685057D01*
X141541428Y-63685057D02*
X141505714Y-63637438D01*
X141505714Y-63637438D02*
X141434285Y-63589819D01*
X141434285Y-63589819D02*
X141291428Y-63589819D01*
X141291428Y-63589819D02*
X141219999Y-63637438D01*
X141219999Y-63637438D02*
X141184285Y-63685057D01*
X141184285Y-63685057D02*
X141148571Y-63780295D01*
X141148571Y-63780295D02*
X141148571Y-64018390D01*
X141148571Y-64018390D02*
X141184285Y-64113628D01*
X141184285Y-64113628D02*
X141219999Y-64161247D01*
X141219999Y-64161247D02*
X141291428Y-64208866D01*
X141291428Y-64208866D02*
X141434285Y-64208866D01*
X141434285Y-64208866D02*
X141505714Y-64161247D01*
X141505714Y-64161247D02*
X141541428Y-64113628D01*
X141541428Y-64113628D02*
X141577142Y-64018390D01*
X106554999Y-61414819D02*
X106304999Y-60938628D01*
X106126428Y-61414819D02*
X106126428Y-60414819D01*
X106126428Y-60414819D02*
X106412142Y-60414819D01*
X106412142Y-60414819D02*
X106483571Y-60462438D01*
X106483571Y-60462438D02*
X106519285Y-60510057D01*
X106519285Y-60510057D02*
X106554999Y-60605295D01*
X106554999Y-60605295D02*
X106554999Y-60748152D01*
X106554999Y-60748152D02*
X106519285Y-60843390D01*
X106519285Y-60843390D02*
X106483571Y-60891009D01*
X106483571Y-60891009D02*
X106412142Y-60938628D01*
X106412142Y-60938628D02*
X106126428Y-60938628D01*
X107269285Y-61414819D02*
X106840714Y-61414819D01*
X107054999Y-61414819D02*
X107054999Y-60414819D01*
X107054999Y-60414819D02*
X106983571Y-60557676D01*
X106983571Y-60557676D02*
X106912142Y-60652914D01*
X106912142Y-60652914D02*
X106840714Y-60700533D01*
X129954819Y-41846428D02*
X130764342Y-41846428D01*
X130764342Y-41846428D02*
X130859580Y-41810714D01*
X130859580Y-41810714D02*
X130907200Y-41775000D01*
X130907200Y-41775000D02*
X130954819Y-41703571D01*
X130954819Y-41703571D02*
X130954819Y-41560714D01*
X130954819Y-41560714D02*
X130907200Y-41489285D01*
X130907200Y-41489285D02*
X130859580Y-41453571D01*
X130859580Y-41453571D02*
X130764342Y-41417857D01*
X130764342Y-41417857D02*
X129954819Y-41417857D01*
X130288152Y-40739286D02*
X130954819Y-40739286D01*
X129907200Y-40917857D02*
X130621485Y-41096428D01*
X130621485Y-41096428D02*
X130621485Y-40632143D01*
X105654819Y-71553571D02*
X104654819Y-71553571D01*
X104654819Y-71553571D02*
X104654819Y-71375000D01*
X104654819Y-71375000D02*
X104702438Y-71267857D01*
X104702438Y-71267857D02*
X104797676Y-71196428D01*
X104797676Y-71196428D02*
X104892914Y-71160714D01*
X104892914Y-71160714D02*
X105083390Y-71125000D01*
X105083390Y-71125000D02*
X105226247Y-71125000D01*
X105226247Y-71125000D02*
X105416723Y-71160714D01*
X105416723Y-71160714D02*
X105511961Y-71196428D01*
X105511961Y-71196428D02*
X105607200Y-71267857D01*
X105607200Y-71267857D02*
X105654819Y-71375000D01*
X105654819Y-71375000D02*
X105654819Y-71553571D01*
X105654819Y-70410714D02*
X105654819Y-70839285D01*
X105654819Y-70625000D02*
X104654819Y-70625000D01*
X104654819Y-70625000D02*
X104797676Y-70696428D01*
X104797676Y-70696428D02*
X104892914Y-70767857D01*
X104892914Y-70767857D02*
X104940533Y-70839285D01*
X139574999Y-29159580D02*
X139539285Y-29207200D01*
X139539285Y-29207200D02*
X139432142Y-29254819D01*
X139432142Y-29254819D02*
X139360714Y-29254819D01*
X139360714Y-29254819D02*
X139253571Y-29207200D01*
X139253571Y-29207200D02*
X139182142Y-29111961D01*
X139182142Y-29111961D02*
X139146428Y-29016723D01*
X139146428Y-29016723D02*
X139110714Y-28826247D01*
X139110714Y-28826247D02*
X139110714Y-28683390D01*
X139110714Y-28683390D02*
X139146428Y-28492914D01*
X139146428Y-28492914D02*
X139182142Y-28397676D01*
X139182142Y-28397676D02*
X139253571Y-28302438D01*
X139253571Y-28302438D02*
X139360714Y-28254819D01*
X139360714Y-28254819D02*
X139432142Y-28254819D01*
X139432142Y-28254819D02*
X139539285Y-28302438D01*
X139539285Y-28302438D02*
X139574999Y-28350057D01*
X140003571Y-28683390D02*
X139932142Y-28635771D01*
X139932142Y-28635771D02*
X139896428Y-28588152D01*
X139896428Y-28588152D02*
X139860714Y-28492914D01*
X139860714Y-28492914D02*
X139860714Y-28445295D01*
X139860714Y-28445295D02*
X139896428Y-28350057D01*
X139896428Y-28350057D02*
X139932142Y-28302438D01*
X139932142Y-28302438D02*
X140003571Y-28254819D01*
X140003571Y-28254819D02*
X140146428Y-28254819D01*
X140146428Y-28254819D02*
X140217857Y-28302438D01*
X140217857Y-28302438D02*
X140253571Y-28350057D01*
X140253571Y-28350057D02*
X140289285Y-28445295D01*
X140289285Y-28445295D02*
X140289285Y-28492914D01*
X140289285Y-28492914D02*
X140253571Y-28588152D01*
X140253571Y-28588152D02*
X140217857Y-28635771D01*
X140217857Y-28635771D02*
X140146428Y-28683390D01*
X140146428Y-28683390D02*
X140003571Y-28683390D01*
X140003571Y-28683390D02*
X139932142Y-28731009D01*
X139932142Y-28731009D02*
X139896428Y-28778628D01*
X139896428Y-28778628D02*
X139860714Y-28873866D01*
X139860714Y-28873866D02*
X139860714Y-29064342D01*
X139860714Y-29064342D02*
X139896428Y-29159580D01*
X139896428Y-29159580D02*
X139932142Y-29207200D01*
X139932142Y-29207200D02*
X140003571Y-29254819D01*
X140003571Y-29254819D02*
X140146428Y-29254819D01*
X140146428Y-29254819D02*
X140217857Y-29207200D01*
X140217857Y-29207200D02*
X140253571Y-29159580D01*
X140253571Y-29159580D02*
X140289285Y-29064342D01*
X140289285Y-29064342D02*
X140289285Y-28873866D01*
X140289285Y-28873866D02*
X140253571Y-28778628D01*
X140253571Y-28778628D02*
X140217857Y-28731009D01*
X140217857Y-28731009D02*
X140146428Y-28683390D01*
X102109999Y-54429819D02*
X101859999Y-53953628D01*
X101681428Y-54429819D02*
X101681428Y-53429819D01*
X101681428Y-53429819D02*
X101967142Y-53429819D01*
X101967142Y-53429819D02*
X102038571Y-53477438D01*
X102038571Y-53477438D02*
X102074285Y-53525057D01*
X102074285Y-53525057D02*
X102109999Y-53620295D01*
X102109999Y-53620295D02*
X102109999Y-53763152D01*
X102109999Y-53763152D02*
X102074285Y-53858390D01*
X102074285Y-53858390D02*
X102038571Y-53906009D01*
X102038571Y-53906009D02*
X101967142Y-53953628D01*
X101967142Y-53953628D02*
X101681428Y-53953628D01*
X102467142Y-54429819D02*
X102609999Y-54429819D01*
X102609999Y-54429819D02*
X102681428Y-54382200D01*
X102681428Y-54382200D02*
X102717142Y-54334580D01*
X102717142Y-54334580D02*
X102788571Y-54191723D01*
X102788571Y-54191723D02*
X102824285Y-54001247D01*
X102824285Y-54001247D02*
X102824285Y-53620295D01*
X102824285Y-53620295D02*
X102788571Y-53525057D01*
X102788571Y-53525057D02*
X102752857Y-53477438D01*
X102752857Y-53477438D02*
X102681428Y-53429819D01*
X102681428Y-53429819D02*
X102538571Y-53429819D01*
X102538571Y-53429819D02*
X102467142Y-53477438D01*
X102467142Y-53477438D02*
X102431428Y-53525057D01*
X102431428Y-53525057D02*
X102395714Y-53620295D01*
X102395714Y-53620295D02*
X102395714Y-53858390D01*
X102395714Y-53858390D02*
X102431428Y-53953628D01*
X102431428Y-53953628D02*
X102467142Y-54001247D01*
X102467142Y-54001247D02*
X102538571Y-54048866D01*
X102538571Y-54048866D02*
X102681428Y-54048866D01*
X102681428Y-54048866D02*
X102752857Y-54001247D01*
X102752857Y-54001247D02*
X102788571Y-53953628D01*
X102788571Y-53953628D02*
X102824285Y-53858390D01*
X113182856Y-54334580D02*
X113147142Y-54382200D01*
X113147142Y-54382200D02*
X113039999Y-54429819D01*
X113039999Y-54429819D02*
X112968571Y-54429819D01*
X112968571Y-54429819D02*
X112861428Y-54382200D01*
X112861428Y-54382200D02*
X112789999Y-54286961D01*
X112789999Y-54286961D02*
X112754285Y-54191723D01*
X112754285Y-54191723D02*
X112718571Y-54001247D01*
X112718571Y-54001247D02*
X112718571Y-53858390D01*
X112718571Y-53858390D02*
X112754285Y-53667914D01*
X112754285Y-53667914D02*
X112789999Y-53572676D01*
X112789999Y-53572676D02*
X112861428Y-53477438D01*
X112861428Y-53477438D02*
X112968571Y-53429819D01*
X112968571Y-53429819D02*
X113039999Y-53429819D01*
X113039999Y-53429819D02*
X113147142Y-53477438D01*
X113147142Y-53477438D02*
X113182856Y-53525057D01*
X113897142Y-54429819D02*
X113468571Y-54429819D01*
X113682856Y-54429819D02*
X113682856Y-53429819D01*
X113682856Y-53429819D02*
X113611428Y-53572676D01*
X113611428Y-53572676D02*
X113539999Y-53667914D01*
X113539999Y-53667914D02*
X113468571Y-53715533D01*
X114182857Y-53525057D02*
X114218571Y-53477438D01*
X114218571Y-53477438D02*
X114290000Y-53429819D01*
X114290000Y-53429819D02*
X114468571Y-53429819D01*
X114468571Y-53429819D02*
X114540000Y-53477438D01*
X114540000Y-53477438D02*
X114575714Y-53525057D01*
X114575714Y-53525057D02*
X114611428Y-53620295D01*
X114611428Y-53620295D02*
X114611428Y-53715533D01*
X114611428Y-53715533D02*
X114575714Y-53858390D01*
X114575714Y-53858390D02*
X114147142Y-54429819D01*
X114147142Y-54429819D02*
X114611428Y-54429819D01*
X123531428Y-82004819D02*
X123531428Y-82814342D01*
X123531428Y-82814342D02*
X123567142Y-82909580D01*
X123567142Y-82909580D02*
X123602857Y-82957200D01*
X123602857Y-82957200D02*
X123674285Y-83004819D01*
X123674285Y-83004819D02*
X123817142Y-83004819D01*
X123817142Y-83004819D02*
X123888571Y-82957200D01*
X123888571Y-82957200D02*
X123924285Y-82909580D01*
X123924285Y-82909580D02*
X123959999Y-82814342D01*
X123959999Y-82814342D02*
X123959999Y-82004819D01*
X124709999Y-83004819D02*
X124281428Y-83004819D01*
X124495713Y-83004819D02*
X124495713Y-82004819D01*
X124495713Y-82004819D02*
X124424285Y-82147676D01*
X124424285Y-82147676D02*
X124352856Y-82242914D01*
X124352856Y-82242914D02*
X124281428Y-82290533D01*
X125174285Y-82004819D02*
X125245714Y-82004819D01*
X125245714Y-82004819D02*
X125317142Y-82052438D01*
X125317142Y-82052438D02*
X125352857Y-82100057D01*
X125352857Y-82100057D02*
X125388571Y-82195295D01*
X125388571Y-82195295D02*
X125424285Y-82385771D01*
X125424285Y-82385771D02*
X125424285Y-82623866D01*
X125424285Y-82623866D02*
X125388571Y-82814342D01*
X125388571Y-82814342D02*
X125352857Y-82909580D01*
X125352857Y-82909580D02*
X125317142Y-82957200D01*
X125317142Y-82957200D02*
X125245714Y-83004819D01*
X125245714Y-83004819D02*
X125174285Y-83004819D01*
X125174285Y-83004819D02*
X125102857Y-82957200D01*
X125102857Y-82957200D02*
X125067142Y-82909580D01*
X125067142Y-82909580D02*
X125031428Y-82814342D01*
X125031428Y-82814342D02*
X124995714Y-82623866D01*
X124995714Y-82623866D02*
X124995714Y-82385771D01*
X124995714Y-82385771D02*
X125031428Y-82195295D01*
X125031428Y-82195295D02*
X125067142Y-82100057D01*
X125067142Y-82100057D02*
X125102857Y-82052438D01*
X125102857Y-82052438D02*
X125174285Y-82004819D01*
X121794999Y-48619580D02*
X121759285Y-48667200D01*
X121759285Y-48667200D02*
X121652142Y-48714819D01*
X121652142Y-48714819D02*
X121580714Y-48714819D01*
X121580714Y-48714819D02*
X121473571Y-48667200D01*
X121473571Y-48667200D02*
X121402142Y-48571961D01*
X121402142Y-48571961D02*
X121366428Y-48476723D01*
X121366428Y-48476723D02*
X121330714Y-48286247D01*
X121330714Y-48286247D02*
X121330714Y-48143390D01*
X121330714Y-48143390D02*
X121366428Y-47952914D01*
X121366428Y-47952914D02*
X121402142Y-47857676D01*
X121402142Y-47857676D02*
X121473571Y-47762438D01*
X121473571Y-47762438D02*
X121580714Y-47714819D01*
X121580714Y-47714819D02*
X121652142Y-47714819D01*
X121652142Y-47714819D02*
X121759285Y-47762438D01*
X121759285Y-47762438D02*
X121794999Y-47810057D01*
X122437857Y-48048152D02*
X122437857Y-48714819D01*
X122259285Y-47667200D02*
X122080714Y-48381485D01*
X122080714Y-48381485D02*
X122544999Y-48381485D01*
X117959887Y-63589819D02*
X117959887Y-64399342D01*
X117959887Y-64399342D02*
X117995601Y-64494580D01*
X117995601Y-64494580D02*
X118031316Y-64542200D01*
X118031316Y-64542200D02*
X118102744Y-64589819D01*
X118102744Y-64589819D02*
X118245601Y-64589819D01*
X118245601Y-64589819D02*
X118317030Y-64542200D01*
X118317030Y-64542200D02*
X118352744Y-64494580D01*
X118352744Y-64494580D02*
X118388458Y-64399342D01*
X118388458Y-64399342D02*
X118388458Y-63589819D01*
X118852744Y-64018390D02*
X118781315Y-63970771D01*
X118781315Y-63970771D02*
X118745601Y-63923152D01*
X118745601Y-63923152D02*
X118709887Y-63827914D01*
X118709887Y-63827914D02*
X118709887Y-63780295D01*
X118709887Y-63780295D02*
X118745601Y-63685057D01*
X118745601Y-63685057D02*
X118781315Y-63637438D01*
X118781315Y-63637438D02*
X118852744Y-63589819D01*
X118852744Y-63589819D02*
X118995601Y-63589819D01*
X118995601Y-63589819D02*
X119067030Y-63637438D01*
X119067030Y-63637438D02*
X119102744Y-63685057D01*
X119102744Y-63685057D02*
X119138458Y-63780295D01*
X119138458Y-63780295D02*
X119138458Y-63827914D01*
X119138458Y-63827914D02*
X119102744Y-63923152D01*
X119102744Y-63923152D02*
X119067030Y-63970771D01*
X119067030Y-63970771D02*
X118995601Y-64018390D01*
X118995601Y-64018390D02*
X118852744Y-64018390D01*
X118852744Y-64018390D02*
X118781315Y-64066009D01*
X118781315Y-64066009D02*
X118745601Y-64113628D01*
X118745601Y-64113628D02*
X118709887Y-64208866D01*
X118709887Y-64208866D02*
X118709887Y-64399342D01*
X118709887Y-64399342D02*
X118745601Y-64494580D01*
X118745601Y-64494580D02*
X118781315Y-64542200D01*
X118781315Y-64542200D02*
X118852744Y-64589819D01*
X118852744Y-64589819D02*
X118995601Y-64589819D01*
X118995601Y-64589819D02*
X119067030Y-64542200D01*
X119067030Y-64542200D02*
X119102744Y-64494580D01*
X119102744Y-64494580D02*
X119138458Y-64399342D01*
X119138458Y-64399342D02*
X119138458Y-64208866D01*
X119138458Y-64208866D02*
X119102744Y-64113628D01*
X119102744Y-64113628D02*
X119067030Y-64066009D01*
X119067030Y-64066009D02*
X118995601Y-64018390D01*
X127107744Y-78758990D02*
X127000601Y-78711371D01*
X127000601Y-78711371D02*
X126964887Y-78663752D01*
X126964887Y-78663752D02*
X126929173Y-78568514D01*
X126929173Y-78568514D02*
X126929173Y-78425657D01*
X126929173Y-78425657D02*
X126964887Y-78330419D01*
X126964887Y-78330419D02*
X127000601Y-78282800D01*
X127000601Y-78282800D02*
X127072030Y-78235180D01*
X127072030Y-78235180D02*
X127357744Y-78235180D01*
X127357744Y-78235180D02*
X127357744Y-79235180D01*
X127357744Y-79235180D02*
X127107744Y-79235180D01*
X127107744Y-79235180D02*
X127036316Y-79187561D01*
X127036316Y-79187561D02*
X127000601Y-79139942D01*
X127000601Y-79139942D02*
X126964887Y-79044704D01*
X126964887Y-79044704D02*
X126964887Y-78949466D01*
X126964887Y-78949466D02*
X127000601Y-78854228D01*
X127000601Y-78854228D02*
X127036316Y-78806609D01*
X127036316Y-78806609D02*
X127107744Y-78758990D01*
X127107744Y-78758990D02*
X127357744Y-78758990D01*
X126607744Y-78235180D02*
X126607744Y-79235180D01*
X126607744Y-78758990D02*
X126179173Y-78758990D01*
X126179173Y-78235180D02*
X126179173Y-79235180D01*
X125429173Y-78235180D02*
X125857744Y-78235180D01*
X125643459Y-78235180D02*
X125643459Y-79235180D01*
X125643459Y-79235180D02*
X125714887Y-79092323D01*
X125714887Y-79092323D02*
X125786316Y-78997085D01*
X125786316Y-78997085D02*
X125857744Y-78949466D01*
X125179173Y-79235180D02*
X124679173Y-79235180D01*
X124679173Y-79235180D02*
X125000601Y-78235180D01*
X124036315Y-79235180D02*
X124393458Y-79235180D01*
X124393458Y-79235180D02*
X124429172Y-78758990D01*
X124429172Y-78758990D02*
X124393458Y-78806609D01*
X124393458Y-78806609D02*
X124322030Y-78854228D01*
X124322030Y-78854228D02*
X124143458Y-78854228D01*
X124143458Y-78854228D02*
X124072030Y-78806609D01*
X124072030Y-78806609D02*
X124036315Y-78758990D01*
X124036315Y-78758990D02*
X124000601Y-78663752D01*
X124000601Y-78663752D02*
X124000601Y-78425657D01*
X124000601Y-78425657D02*
X124036315Y-78330419D01*
X124036315Y-78330419D02*
X124072030Y-78282800D01*
X124072030Y-78282800D02*
X124143458Y-78235180D01*
X124143458Y-78235180D02*
X124322030Y-78235180D01*
X124322030Y-78235180D02*
X124393458Y-78282800D01*
X124393458Y-78282800D02*
X124429172Y-78330419D01*
X123536315Y-79235180D02*
X123464886Y-79235180D01*
X123464886Y-79235180D02*
X123393458Y-79187561D01*
X123393458Y-79187561D02*
X123357744Y-79139942D01*
X123357744Y-79139942D02*
X123322029Y-79044704D01*
X123322029Y-79044704D02*
X123286315Y-78854228D01*
X123286315Y-78854228D02*
X123286315Y-78616133D01*
X123286315Y-78616133D02*
X123322029Y-78425657D01*
X123322029Y-78425657D02*
X123357744Y-78330419D01*
X123357744Y-78330419D02*
X123393458Y-78282800D01*
X123393458Y-78282800D02*
X123464886Y-78235180D01*
X123464886Y-78235180D02*
X123536315Y-78235180D01*
X123536315Y-78235180D02*
X123607744Y-78282800D01*
X123607744Y-78282800D02*
X123643458Y-78330419D01*
X123643458Y-78330419D02*
X123679172Y-78425657D01*
X123679172Y-78425657D02*
X123714886Y-78616133D01*
X123714886Y-78616133D02*
X123714886Y-78854228D01*
X123714886Y-78854228D02*
X123679172Y-79044704D01*
X123679172Y-79044704D02*
X123643458Y-79139942D01*
X123643458Y-79139942D02*
X123607744Y-79187561D01*
X123607744Y-79187561D02*
X123536315Y-79235180D01*
X134683571Y-52569819D02*
X134683571Y-53379342D01*
X134683571Y-53379342D02*
X134719285Y-53474580D01*
X134719285Y-53474580D02*
X134755000Y-53522200D01*
X134755000Y-53522200D02*
X134826428Y-53569819D01*
X134826428Y-53569819D02*
X134969285Y-53569819D01*
X134969285Y-53569819D02*
X135040714Y-53522200D01*
X135040714Y-53522200D02*
X135076428Y-53474580D01*
X135076428Y-53474580D02*
X135112142Y-53379342D01*
X135112142Y-53379342D02*
X135112142Y-52569819D01*
X135826428Y-52569819D02*
X135469285Y-52569819D01*
X135469285Y-52569819D02*
X135433571Y-53046009D01*
X135433571Y-53046009D02*
X135469285Y-52998390D01*
X135469285Y-52998390D02*
X135540714Y-52950771D01*
X135540714Y-52950771D02*
X135719285Y-52950771D01*
X135719285Y-52950771D02*
X135790714Y-52998390D01*
X135790714Y-52998390D02*
X135826428Y-53046009D01*
X135826428Y-53046009D02*
X135862142Y-53141247D01*
X135862142Y-53141247D02*
X135862142Y-53379342D01*
X135862142Y-53379342D02*
X135826428Y-53474580D01*
X135826428Y-53474580D02*
X135790714Y-53522200D01*
X135790714Y-53522200D02*
X135719285Y-53569819D01*
X135719285Y-53569819D02*
X135540714Y-53569819D01*
X135540714Y-53569819D02*
X135469285Y-53522200D01*
X135469285Y-53522200D02*
X135433571Y-53474580D01*
X110007856Y-48714819D02*
X109757856Y-48238628D01*
X109579285Y-48714819D02*
X109579285Y-47714819D01*
X109579285Y-47714819D02*
X109864999Y-47714819D01*
X109864999Y-47714819D02*
X109936428Y-47762438D01*
X109936428Y-47762438D02*
X109972142Y-47810057D01*
X109972142Y-47810057D02*
X110007856Y-47905295D01*
X110007856Y-47905295D02*
X110007856Y-48048152D01*
X110007856Y-48048152D02*
X109972142Y-48143390D01*
X109972142Y-48143390D02*
X109936428Y-48191009D01*
X109936428Y-48191009D02*
X109864999Y-48238628D01*
X109864999Y-48238628D02*
X109579285Y-48238628D01*
X110722142Y-48714819D02*
X110293571Y-48714819D01*
X110507856Y-48714819D02*
X110507856Y-47714819D01*
X110507856Y-47714819D02*
X110436428Y-47857676D01*
X110436428Y-47857676D02*
X110364999Y-47952914D01*
X110364999Y-47952914D02*
X110293571Y-48000533D01*
X111436428Y-48714819D02*
X111007857Y-48714819D01*
X111222142Y-48714819D02*
X111222142Y-47714819D01*
X111222142Y-47714819D02*
X111150714Y-47857676D01*
X111150714Y-47857676D02*
X111079285Y-47952914D01*
X111079285Y-47952914D02*
X111007857Y-48000533D01*
X142392856Y-54334580D02*
X142357142Y-54382200D01*
X142357142Y-54382200D02*
X142249999Y-54429819D01*
X142249999Y-54429819D02*
X142178571Y-54429819D01*
X142178571Y-54429819D02*
X142071428Y-54382200D01*
X142071428Y-54382200D02*
X141999999Y-54286961D01*
X141999999Y-54286961D02*
X141964285Y-54191723D01*
X141964285Y-54191723D02*
X141928571Y-54001247D01*
X141928571Y-54001247D02*
X141928571Y-53858390D01*
X141928571Y-53858390D02*
X141964285Y-53667914D01*
X141964285Y-53667914D02*
X141999999Y-53572676D01*
X141999999Y-53572676D02*
X142071428Y-53477438D01*
X142071428Y-53477438D02*
X142178571Y-53429819D01*
X142178571Y-53429819D02*
X142249999Y-53429819D01*
X142249999Y-53429819D02*
X142357142Y-53477438D01*
X142357142Y-53477438D02*
X142392856Y-53525057D01*
X143107142Y-54429819D02*
X142678571Y-54429819D01*
X142892856Y-54429819D02*
X142892856Y-53429819D01*
X142892856Y-53429819D02*
X142821428Y-53572676D01*
X142821428Y-53572676D02*
X142749999Y-53667914D01*
X142749999Y-53667914D02*
X142678571Y-53715533D01*
X143821428Y-54429819D02*
X143392857Y-54429819D01*
X143607142Y-54429819D02*
X143607142Y-53429819D01*
X143607142Y-53429819D02*
X143535714Y-53572676D01*
X143535714Y-53572676D02*
X143464285Y-53667914D01*
X143464285Y-53667914D02*
X143392857Y-53715533D01*
X122072856Y-67764819D02*
X121822856Y-67288628D01*
X121644285Y-67764819D02*
X121644285Y-66764819D01*
X121644285Y-66764819D02*
X121929999Y-66764819D01*
X121929999Y-66764819D02*
X122001428Y-66812438D01*
X122001428Y-66812438D02*
X122037142Y-66860057D01*
X122037142Y-66860057D02*
X122072856Y-66955295D01*
X122072856Y-66955295D02*
X122072856Y-67098152D01*
X122072856Y-67098152D02*
X122037142Y-67193390D01*
X122037142Y-67193390D02*
X122001428Y-67241009D01*
X122001428Y-67241009D02*
X121929999Y-67288628D01*
X121929999Y-67288628D02*
X121644285Y-67288628D01*
X122787142Y-67764819D02*
X122358571Y-67764819D01*
X122572856Y-67764819D02*
X122572856Y-66764819D01*
X122572856Y-66764819D02*
X122501428Y-66907676D01*
X122501428Y-66907676D02*
X122429999Y-67002914D01*
X122429999Y-67002914D02*
X122358571Y-67050533D01*
X123251428Y-66764819D02*
X123322857Y-66764819D01*
X123322857Y-66764819D02*
X123394285Y-66812438D01*
X123394285Y-66812438D02*
X123430000Y-66860057D01*
X123430000Y-66860057D02*
X123465714Y-66955295D01*
X123465714Y-66955295D02*
X123501428Y-67145771D01*
X123501428Y-67145771D02*
X123501428Y-67383866D01*
X123501428Y-67383866D02*
X123465714Y-67574342D01*
X123465714Y-67574342D02*
X123430000Y-67669580D01*
X123430000Y-67669580D02*
X123394285Y-67717200D01*
X123394285Y-67717200D02*
X123322857Y-67764819D01*
X123322857Y-67764819D02*
X123251428Y-67764819D01*
X123251428Y-67764819D02*
X123180000Y-67717200D01*
X123180000Y-67717200D02*
X123144285Y-67669580D01*
X123144285Y-67669580D02*
X123108571Y-67574342D01*
X123108571Y-67574342D02*
X123072857Y-67383866D01*
X123072857Y-67383866D02*
X123072857Y-67145771D01*
X123072857Y-67145771D02*
X123108571Y-66955295D01*
X123108571Y-66955295D02*
X123144285Y-66860057D01*
X123144285Y-66860057D02*
X123180000Y-66812438D01*
X123180000Y-66812438D02*
X123251428Y-66764819D01*
X109094999Y-61414819D02*
X108844999Y-60938628D01*
X108666428Y-61414819D02*
X108666428Y-60414819D01*
X108666428Y-60414819D02*
X108952142Y-60414819D01*
X108952142Y-60414819D02*
X109023571Y-60462438D01*
X109023571Y-60462438D02*
X109059285Y-60510057D01*
X109059285Y-60510057D02*
X109094999Y-60605295D01*
X109094999Y-60605295D02*
X109094999Y-60748152D01*
X109094999Y-60748152D02*
X109059285Y-60843390D01*
X109059285Y-60843390D02*
X109023571Y-60891009D01*
X109023571Y-60891009D02*
X108952142Y-60938628D01*
X108952142Y-60938628D02*
X108666428Y-60938628D01*
X109773571Y-60414819D02*
X109416428Y-60414819D01*
X109416428Y-60414819D02*
X109380714Y-60891009D01*
X109380714Y-60891009D02*
X109416428Y-60843390D01*
X109416428Y-60843390D02*
X109487857Y-60795771D01*
X109487857Y-60795771D02*
X109666428Y-60795771D01*
X109666428Y-60795771D02*
X109737857Y-60843390D01*
X109737857Y-60843390D02*
X109773571Y-60891009D01*
X109773571Y-60891009D02*
X109809285Y-60986247D01*
X109809285Y-60986247D02*
X109809285Y-61224342D01*
X109809285Y-61224342D02*
X109773571Y-61319580D01*
X109773571Y-61319580D02*
X109737857Y-61367200D01*
X109737857Y-61367200D02*
X109666428Y-61414819D01*
X109666428Y-61414819D02*
X109487857Y-61414819D01*
X109487857Y-61414819D02*
X109416428Y-61367200D01*
X109416428Y-61367200D02*
X109380714Y-61319580D01*
X122072856Y-71704580D02*
X122037142Y-71752200D01*
X122037142Y-71752200D02*
X121929999Y-71799819D01*
X121929999Y-71799819D02*
X121858571Y-71799819D01*
X121858571Y-71799819D02*
X121751428Y-71752200D01*
X121751428Y-71752200D02*
X121679999Y-71656961D01*
X121679999Y-71656961D02*
X121644285Y-71561723D01*
X121644285Y-71561723D02*
X121608571Y-71371247D01*
X121608571Y-71371247D02*
X121608571Y-71228390D01*
X121608571Y-71228390D02*
X121644285Y-71037914D01*
X121644285Y-71037914D02*
X121679999Y-70942676D01*
X121679999Y-70942676D02*
X121751428Y-70847438D01*
X121751428Y-70847438D02*
X121858571Y-70799819D01*
X121858571Y-70799819D02*
X121929999Y-70799819D01*
X121929999Y-70799819D02*
X122037142Y-70847438D01*
X122037142Y-70847438D02*
X122072856Y-70895057D01*
X122787142Y-71799819D02*
X122358571Y-71799819D01*
X122572856Y-71799819D02*
X122572856Y-70799819D01*
X122572856Y-70799819D02*
X122501428Y-70942676D01*
X122501428Y-70942676D02*
X122429999Y-71037914D01*
X122429999Y-71037914D02*
X122358571Y-71085533D01*
X123430000Y-71133152D02*
X123430000Y-71799819D01*
X123251428Y-70752200D02*
X123072857Y-71466485D01*
X123072857Y-71466485D02*
X123537142Y-71466485D01*
X139852856Y-54334580D02*
X139817142Y-54382200D01*
X139817142Y-54382200D02*
X139709999Y-54429819D01*
X139709999Y-54429819D02*
X139638571Y-54429819D01*
X139638571Y-54429819D02*
X139531428Y-54382200D01*
X139531428Y-54382200D02*
X139459999Y-54286961D01*
X139459999Y-54286961D02*
X139424285Y-54191723D01*
X139424285Y-54191723D02*
X139388571Y-54001247D01*
X139388571Y-54001247D02*
X139388571Y-53858390D01*
X139388571Y-53858390D02*
X139424285Y-53667914D01*
X139424285Y-53667914D02*
X139459999Y-53572676D01*
X139459999Y-53572676D02*
X139531428Y-53477438D01*
X139531428Y-53477438D02*
X139638571Y-53429819D01*
X139638571Y-53429819D02*
X139709999Y-53429819D01*
X139709999Y-53429819D02*
X139817142Y-53477438D01*
X139817142Y-53477438D02*
X139852856Y-53525057D01*
X140567142Y-54429819D02*
X140138571Y-54429819D01*
X140352856Y-54429819D02*
X140352856Y-53429819D01*
X140352856Y-53429819D02*
X140281428Y-53572676D01*
X140281428Y-53572676D02*
X140209999Y-53667914D01*
X140209999Y-53667914D02*
X140138571Y-53715533D01*
X141031428Y-53429819D02*
X141102857Y-53429819D01*
X141102857Y-53429819D02*
X141174285Y-53477438D01*
X141174285Y-53477438D02*
X141210000Y-53525057D01*
X141210000Y-53525057D02*
X141245714Y-53620295D01*
X141245714Y-53620295D02*
X141281428Y-53810771D01*
X141281428Y-53810771D02*
X141281428Y-54048866D01*
X141281428Y-54048866D02*
X141245714Y-54239342D01*
X141245714Y-54239342D02*
X141210000Y-54334580D01*
X141210000Y-54334580D02*
X141174285Y-54382200D01*
X141174285Y-54382200D02*
X141102857Y-54429819D01*
X141102857Y-54429819D02*
X141031428Y-54429819D01*
X141031428Y-54429819D02*
X140960000Y-54382200D01*
X140960000Y-54382200D02*
X140924285Y-54334580D01*
X140924285Y-54334580D02*
X140888571Y-54239342D01*
X140888571Y-54239342D02*
X140852857Y-54048866D01*
X140852857Y-54048866D02*
X140852857Y-53810771D01*
X140852857Y-53810771D02*
X140888571Y-53620295D01*
X140888571Y-53620295D02*
X140924285Y-53525057D01*
X140924285Y-53525057D02*
X140960000Y-53477438D01*
X140960000Y-53477438D02*
X141031428Y-53429819D01*
X110999999Y-46714580D02*
X110964285Y-46762200D01*
X110964285Y-46762200D02*
X110857142Y-46809819D01*
X110857142Y-46809819D02*
X110785714Y-46809819D01*
X110785714Y-46809819D02*
X110678571Y-46762200D01*
X110678571Y-46762200D02*
X110607142Y-46666961D01*
X110607142Y-46666961D02*
X110571428Y-46571723D01*
X110571428Y-46571723D02*
X110535714Y-46381247D01*
X110535714Y-46381247D02*
X110535714Y-46238390D01*
X110535714Y-46238390D02*
X110571428Y-46047914D01*
X110571428Y-46047914D02*
X110607142Y-45952676D01*
X110607142Y-45952676D02*
X110678571Y-45857438D01*
X110678571Y-45857438D02*
X110785714Y-45809819D01*
X110785714Y-45809819D02*
X110857142Y-45809819D01*
X110857142Y-45809819D02*
X110964285Y-45857438D01*
X110964285Y-45857438D02*
X110999999Y-45905057D01*
X111249999Y-45809819D02*
X111749999Y-45809819D01*
X111749999Y-45809819D02*
X111428571Y-46809819D01*
X123531428Y-80489819D02*
X123531428Y-81299342D01*
X123531428Y-81299342D02*
X123567142Y-81394580D01*
X123567142Y-81394580D02*
X123602857Y-81442200D01*
X123602857Y-81442200D02*
X123674285Y-81489819D01*
X123674285Y-81489819D02*
X123817142Y-81489819D01*
X123817142Y-81489819D02*
X123888571Y-81442200D01*
X123888571Y-81442200D02*
X123924285Y-81394580D01*
X123924285Y-81394580D02*
X123959999Y-81299342D01*
X123959999Y-81299342D02*
X123959999Y-80489819D01*
X124709999Y-81489819D02*
X124281428Y-81489819D01*
X124495713Y-81489819D02*
X124495713Y-80489819D01*
X124495713Y-80489819D02*
X124424285Y-80632676D01*
X124424285Y-80632676D02*
X124352856Y-80727914D01*
X124352856Y-80727914D02*
X124281428Y-80775533D01*
X125424285Y-81489819D02*
X124995714Y-81489819D01*
X125209999Y-81489819D02*
X125209999Y-80489819D01*
X125209999Y-80489819D02*
X125138571Y-80632676D01*
X125138571Y-80632676D02*
X125067142Y-80727914D01*
X125067142Y-80727914D02*
X124995714Y-80775533D01*
X154179999Y-54429819D02*
X153929999Y-53953628D01*
X153751428Y-54429819D02*
X153751428Y-53429819D01*
X153751428Y-53429819D02*
X154037142Y-53429819D01*
X154037142Y-53429819D02*
X154108571Y-53477438D01*
X154108571Y-53477438D02*
X154144285Y-53525057D01*
X154144285Y-53525057D02*
X154179999Y-53620295D01*
X154179999Y-53620295D02*
X154179999Y-53763152D01*
X154179999Y-53763152D02*
X154144285Y-53858390D01*
X154144285Y-53858390D02*
X154108571Y-53906009D01*
X154108571Y-53906009D02*
X154037142Y-53953628D01*
X154037142Y-53953628D02*
X153751428Y-53953628D01*
X154608571Y-53858390D02*
X154537142Y-53810771D01*
X154537142Y-53810771D02*
X154501428Y-53763152D01*
X154501428Y-53763152D02*
X154465714Y-53667914D01*
X154465714Y-53667914D02*
X154465714Y-53620295D01*
X154465714Y-53620295D02*
X154501428Y-53525057D01*
X154501428Y-53525057D02*
X154537142Y-53477438D01*
X154537142Y-53477438D02*
X154608571Y-53429819D01*
X154608571Y-53429819D02*
X154751428Y-53429819D01*
X154751428Y-53429819D02*
X154822857Y-53477438D01*
X154822857Y-53477438D02*
X154858571Y-53525057D01*
X154858571Y-53525057D02*
X154894285Y-53620295D01*
X154894285Y-53620295D02*
X154894285Y-53667914D01*
X154894285Y-53667914D02*
X154858571Y-53763152D01*
X154858571Y-53763152D02*
X154822857Y-53810771D01*
X154822857Y-53810771D02*
X154751428Y-53858390D01*
X154751428Y-53858390D02*
X154608571Y-53858390D01*
X154608571Y-53858390D02*
X154537142Y-53906009D01*
X154537142Y-53906009D02*
X154501428Y-53953628D01*
X154501428Y-53953628D02*
X154465714Y-54048866D01*
X154465714Y-54048866D02*
X154465714Y-54239342D01*
X154465714Y-54239342D02*
X154501428Y-54334580D01*
X154501428Y-54334580D02*
X154537142Y-54382200D01*
X154537142Y-54382200D02*
X154608571Y-54429819D01*
X154608571Y-54429819D02*
X154751428Y-54429819D01*
X154751428Y-54429819D02*
X154822857Y-54382200D01*
X154822857Y-54382200D02*
X154858571Y-54334580D01*
X154858571Y-54334580D02*
X154894285Y-54239342D01*
X154894285Y-54239342D02*
X154894285Y-54048866D01*
X154894285Y-54048866D02*
X154858571Y-53953628D01*
X154858571Y-53953628D02*
X154822857Y-53906009D01*
X154822857Y-53906009D02*
X154751428Y-53858390D01*
X118173571Y-47714819D02*
X118173571Y-48524342D01*
X118173571Y-48524342D02*
X118209285Y-48619580D01*
X118209285Y-48619580D02*
X118245000Y-48667200D01*
X118245000Y-48667200D02*
X118316428Y-48714819D01*
X118316428Y-48714819D02*
X118459285Y-48714819D01*
X118459285Y-48714819D02*
X118530714Y-48667200D01*
X118530714Y-48667200D02*
X118566428Y-48619580D01*
X118566428Y-48619580D02*
X118602142Y-48524342D01*
X118602142Y-48524342D02*
X118602142Y-47714819D01*
X118887856Y-47714819D02*
X119352142Y-47714819D01*
X119352142Y-47714819D02*
X119102142Y-48095771D01*
X119102142Y-48095771D02*
X119209285Y-48095771D01*
X119209285Y-48095771D02*
X119280714Y-48143390D01*
X119280714Y-48143390D02*
X119316428Y-48191009D01*
X119316428Y-48191009D02*
X119352142Y-48286247D01*
X119352142Y-48286247D02*
X119352142Y-48524342D01*
X119352142Y-48524342D02*
X119316428Y-48619580D01*
X119316428Y-48619580D02*
X119280714Y-48667200D01*
X119280714Y-48667200D02*
X119209285Y-48714819D01*
X119209285Y-48714819D02*
X118994999Y-48714819D01*
X118994999Y-48714819D02*
X118923571Y-48667200D01*
X118923571Y-48667200D02*
X118887856Y-48619580D01*
X147600000Y-53747200D02*
X147707143Y-53794819D01*
X147707143Y-53794819D02*
X147885714Y-53794819D01*
X147885714Y-53794819D02*
X147957143Y-53747200D01*
X147957143Y-53747200D02*
X147992857Y-53699580D01*
X147992857Y-53699580D02*
X148028571Y-53604342D01*
X148028571Y-53604342D02*
X148028571Y-53509104D01*
X148028571Y-53509104D02*
X147992857Y-53413866D01*
X147992857Y-53413866D02*
X147957143Y-53366247D01*
X147957143Y-53366247D02*
X147885714Y-53318628D01*
X147885714Y-53318628D02*
X147742857Y-53271009D01*
X147742857Y-53271009D02*
X147671428Y-53223390D01*
X147671428Y-53223390D02*
X147635714Y-53175771D01*
X147635714Y-53175771D02*
X147600000Y-53080533D01*
X147600000Y-53080533D02*
X147600000Y-52985295D01*
X147600000Y-52985295D02*
X147635714Y-52890057D01*
X147635714Y-52890057D02*
X147671428Y-52842438D01*
X147671428Y-52842438D02*
X147742857Y-52794819D01*
X147742857Y-52794819D02*
X147921428Y-52794819D01*
X147921428Y-52794819D02*
X148028571Y-52842438D01*
X148278571Y-52794819D02*
X148457143Y-53794819D01*
X148457143Y-53794819D02*
X148600000Y-53080533D01*
X148600000Y-53080533D02*
X148742857Y-53794819D01*
X148742857Y-53794819D02*
X148921429Y-52794819D01*
X149171429Y-52890057D02*
X149207143Y-52842438D01*
X149207143Y-52842438D02*
X149278572Y-52794819D01*
X149278572Y-52794819D02*
X149457143Y-52794819D01*
X149457143Y-52794819D02*
X149528572Y-52842438D01*
X149528572Y-52842438D02*
X149564286Y-52890057D01*
X149564286Y-52890057D02*
X149600000Y-52985295D01*
X149600000Y-52985295D02*
X149600000Y-53080533D01*
X149600000Y-53080533D02*
X149564286Y-53223390D01*
X149564286Y-53223390D02*
X149135714Y-53794819D01*
X149135714Y-53794819D02*
X149600000Y-53794819D01*
X124969999Y-54334580D02*
X124934285Y-54382200D01*
X124934285Y-54382200D02*
X124827142Y-54429819D01*
X124827142Y-54429819D02*
X124755714Y-54429819D01*
X124755714Y-54429819D02*
X124648571Y-54382200D01*
X124648571Y-54382200D02*
X124577142Y-54286961D01*
X124577142Y-54286961D02*
X124541428Y-54191723D01*
X124541428Y-54191723D02*
X124505714Y-54001247D01*
X124505714Y-54001247D02*
X124505714Y-53858390D01*
X124505714Y-53858390D02*
X124541428Y-53667914D01*
X124541428Y-53667914D02*
X124577142Y-53572676D01*
X124577142Y-53572676D02*
X124648571Y-53477438D01*
X124648571Y-53477438D02*
X124755714Y-53429819D01*
X124755714Y-53429819D02*
X124827142Y-53429819D01*
X124827142Y-53429819D02*
X124934285Y-53477438D01*
X124934285Y-53477438D02*
X124969999Y-53525057D01*
X125327142Y-54429819D02*
X125469999Y-54429819D01*
X125469999Y-54429819D02*
X125541428Y-54382200D01*
X125541428Y-54382200D02*
X125577142Y-54334580D01*
X125577142Y-54334580D02*
X125648571Y-54191723D01*
X125648571Y-54191723D02*
X125684285Y-54001247D01*
X125684285Y-54001247D02*
X125684285Y-53620295D01*
X125684285Y-53620295D02*
X125648571Y-53525057D01*
X125648571Y-53525057D02*
X125612857Y-53477438D01*
X125612857Y-53477438D02*
X125541428Y-53429819D01*
X125541428Y-53429819D02*
X125398571Y-53429819D01*
X125398571Y-53429819D02*
X125327142Y-53477438D01*
X125327142Y-53477438D02*
X125291428Y-53525057D01*
X125291428Y-53525057D02*
X125255714Y-53620295D01*
X125255714Y-53620295D02*
X125255714Y-53858390D01*
X125255714Y-53858390D02*
X125291428Y-53953628D01*
X125291428Y-53953628D02*
X125327142Y-54001247D01*
X125327142Y-54001247D02*
X125398571Y-54048866D01*
X125398571Y-54048866D02*
X125541428Y-54048866D01*
X125541428Y-54048866D02*
X125612857Y-54001247D01*
X125612857Y-54001247D02*
X125648571Y-53953628D01*
X125648571Y-53953628D02*
X125684285Y-53858390D01*
X103890000Y-38824819D02*
X103890000Y-39539104D01*
X103890000Y-39539104D02*
X103854285Y-39681961D01*
X103854285Y-39681961D02*
X103782857Y-39777200D01*
X103782857Y-39777200D02*
X103675714Y-39824819D01*
X103675714Y-39824819D02*
X103604285Y-39824819D01*
X104211429Y-38920057D02*
X104247143Y-38872438D01*
X104247143Y-38872438D02*
X104318572Y-38824819D01*
X104318572Y-38824819D02*
X104497143Y-38824819D01*
X104497143Y-38824819D02*
X104568572Y-38872438D01*
X104568572Y-38872438D02*
X104604286Y-38920057D01*
X104604286Y-38920057D02*
X104640000Y-39015295D01*
X104640000Y-39015295D02*
X104640000Y-39110533D01*
X104640000Y-39110533D02*
X104604286Y-39253390D01*
X104604286Y-39253390D02*
X104175714Y-39824819D01*
X104175714Y-39824819D02*
X104640000Y-39824819D01*
X105284999Y-48714819D02*
X105034999Y-48238628D01*
X104856428Y-48714819D02*
X104856428Y-47714819D01*
X104856428Y-47714819D02*
X105142142Y-47714819D01*
X105142142Y-47714819D02*
X105213571Y-47762438D01*
X105213571Y-47762438D02*
X105249285Y-47810057D01*
X105249285Y-47810057D02*
X105284999Y-47905295D01*
X105284999Y-47905295D02*
X105284999Y-48048152D01*
X105284999Y-48048152D02*
X105249285Y-48143390D01*
X105249285Y-48143390D02*
X105213571Y-48191009D01*
X105213571Y-48191009D02*
X105142142Y-48238628D01*
X105142142Y-48238628D02*
X104856428Y-48238628D01*
X105927857Y-47714819D02*
X105784999Y-47714819D01*
X105784999Y-47714819D02*
X105713571Y-47762438D01*
X105713571Y-47762438D02*
X105677857Y-47810057D01*
X105677857Y-47810057D02*
X105606428Y-47952914D01*
X105606428Y-47952914D02*
X105570714Y-48143390D01*
X105570714Y-48143390D02*
X105570714Y-48524342D01*
X105570714Y-48524342D02*
X105606428Y-48619580D01*
X105606428Y-48619580D02*
X105642142Y-48667200D01*
X105642142Y-48667200D02*
X105713571Y-48714819D01*
X105713571Y-48714819D02*
X105856428Y-48714819D01*
X105856428Y-48714819D02*
X105927857Y-48667200D01*
X105927857Y-48667200D02*
X105963571Y-48619580D01*
X105963571Y-48619580D02*
X105999285Y-48524342D01*
X105999285Y-48524342D02*
X105999285Y-48286247D01*
X105999285Y-48286247D02*
X105963571Y-48191009D01*
X105963571Y-48191009D02*
X105927857Y-48143390D01*
X105927857Y-48143390D02*
X105856428Y-48095771D01*
X105856428Y-48095771D02*
X105713571Y-48095771D01*
X105713571Y-48095771D02*
X105642142Y-48143390D01*
X105642142Y-48143390D02*
X105606428Y-48191009D01*
X105606428Y-48191009D02*
X105570714Y-48286247D01*
X107000000Y-53747200D02*
X107107143Y-53794819D01*
X107107143Y-53794819D02*
X107285714Y-53794819D01*
X107285714Y-53794819D02*
X107357143Y-53747200D01*
X107357143Y-53747200D02*
X107392857Y-53699580D01*
X107392857Y-53699580D02*
X107428571Y-53604342D01*
X107428571Y-53604342D02*
X107428571Y-53509104D01*
X107428571Y-53509104D02*
X107392857Y-53413866D01*
X107392857Y-53413866D02*
X107357143Y-53366247D01*
X107357143Y-53366247D02*
X107285714Y-53318628D01*
X107285714Y-53318628D02*
X107142857Y-53271009D01*
X107142857Y-53271009D02*
X107071428Y-53223390D01*
X107071428Y-53223390D02*
X107035714Y-53175771D01*
X107035714Y-53175771D02*
X107000000Y-53080533D01*
X107000000Y-53080533D02*
X107000000Y-52985295D01*
X107000000Y-52985295D02*
X107035714Y-52890057D01*
X107035714Y-52890057D02*
X107071428Y-52842438D01*
X107071428Y-52842438D02*
X107142857Y-52794819D01*
X107142857Y-52794819D02*
X107321428Y-52794819D01*
X107321428Y-52794819D02*
X107428571Y-52842438D01*
X107678571Y-52794819D02*
X107857143Y-53794819D01*
X107857143Y-53794819D02*
X108000000Y-53080533D01*
X108000000Y-53080533D02*
X108142857Y-53794819D01*
X108142857Y-53794819D02*
X108321429Y-52794819D01*
X109000000Y-53794819D02*
X108571429Y-53794819D01*
X108785714Y-53794819D02*
X108785714Y-52794819D01*
X108785714Y-52794819D02*
X108714286Y-52937676D01*
X108714286Y-52937676D02*
X108642857Y-53032914D01*
X108642857Y-53032914D02*
X108571429Y-53080533D01*
X115444999Y-48619580D02*
X115409285Y-48667200D01*
X115409285Y-48667200D02*
X115302142Y-48714819D01*
X115302142Y-48714819D02*
X115230714Y-48714819D01*
X115230714Y-48714819D02*
X115123571Y-48667200D01*
X115123571Y-48667200D02*
X115052142Y-48571961D01*
X115052142Y-48571961D02*
X115016428Y-48476723D01*
X115016428Y-48476723D02*
X114980714Y-48286247D01*
X114980714Y-48286247D02*
X114980714Y-48143390D01*
X114980714Y-48143390D02*
X115016428Y-47952914D01*
X115016428Y-47952914D02*
X115052142Y-47857676D01*
X115052142Y-47857676D02*
X115123571Y-47762438D01*
X115123571Y-47762438D02*
X115230714Y-47714819D01*
X115230714Y-47714819D02*
X115302142Y-47714819D01*
X115302142Y-47714819D02*
X115409285Y-47762438D01*
X115409285Y-47762438D02*
X115444999Y-47810057D01*
X115694999Y-47714819D02*
X116159285Y-47714819D01*
X116159285Y-47714819D02*
X115909285Y-48095771D01*
X115909285Y-48095771D02*
X116016428Y-48095771D01*
X116016428Y-48095771D02*
X116087857Y-48143390D01*
X116087857Y-48143390D02*
X116123571Y-48191009D01*
X116123571Y-48191009D02*
X116159285Y-48286247D01*
X116159285Y-48286247D02*
X116159285Y-48524342D01*
X116159285Y-48524342D02*
X116123571Y-48619580D01*
X116123571Y-48619580D02*
X116087857Y-48667200D01*
X116087857Y-48667200D02*
X116016428Y-48714819D01*
X116016428Y-48714819D02*
X115802142Y-48714819D01*
X115802142Y-48714819D02*
X115730714Y-48667200D01*
X115730714Y-48667200D02*
X115694999Y-48619580D01*
D12*
%TO.C,R12*%
X107215000Y-51027064D02*
X107215000Y-50572936D01*
X108685000Y-51027064D02*
X108685000Y-50572936D01*
%TO.C,U7*%
X120015000Y-53955000D02*
X116565000Y-53955000D01*
X120015000Y-53955000D02*
X121965000Y-53955000D01*
X120015000Y-59075000D02*
X118065000Y-59075000D01*
X120015000Y-59075000D02*
X121965000Y-59075000D01*
%TO.C,U1*%
X115770000Y-37665000D02*
X116220000Y-37665000D01*
X115770000Y-38115000D02*
X115770000Y-37665000D01*
X115770000Y-44435000D02*
X115770000Y-44885000D01*
X115770000Y-44885000D02*
X116220000Y-44885000D01*
X116220000Y-44885000D02*
X116220000Y-46175000D01*
X122990000Y-37665000D02*
X122540000Y-37665000D01*
X122990000Y-38115000D02*
X122990000Y-37665000D01*
X122990000Y-44435000D02*
X122990000Y-44885000D01*
X122990000Y-44885000D02*
X122540000Y-44885000D01*
%TO.C,C13*%
X116105000Y-33916252D02*
X116105000Y-33393748D01*
X117575000Y-33916252D02*
X117575000Y-33393748D01*
%TO.C,C6*%
X119915000Y-33916252D02*
X119915000Y-33393748D01*
X121385000Y-33916252D02*
X121385000Y-33393748D01*
%TO.C,R7*%
X112295000Y-33427936D02*
X112295000Y-33882064D01*
X113765000Y-33427936D02*
X113765000Y-33882064D01*
%TO.C,U9*%
X128240000Y-60930000D02*
X156240000Y-60930000D01*
X128240000Y-88930000D02*
X128240000Y-60930000D01*
X128240000Y-88930000D02*
X156240000Y-88930000D01*
X156240000Y-60930000D02*
X156240000Y-88930000D01*
%TO.C,R1*%
X105945000Y-63272936D02*
X105945000Y-63727064D01*
X107415000Y-63272936D02*
X107415000Y-63727064D01*
%TO.C,U4*%
X131600000Y-33175000D02*
X132000000Y-33175000D01*
X131600000Y-49375000D02*
X131600000Y-33175000D01*
X131600000Y-49375000D02*
X131950000Y-49375000D01*
X131950000Y-49375000D02*
X131950000Y-50275000D01*
X147400000Y-49375000D02*
X147800000Y-49375000D01*
X147800000Y-33175000D02*
X147400000Y-33175000D01*
X147800000Y-49375000D02*
X147800000Y-33175000D01*
%TO.C,D1*%
X105890000Y-70000000D02*
X105890000Y-72685000D01*
X105890000Y-72685000D02*
X107810000Y-72685000D01*
X107810000Y-72685000D02*
X107810000Y-70000000D01*
%TO.C,C8*%
X139438748Y-29745000D02*
X139961252Y-29745000D01*
X139438748Y-31215000D02*
X139961252Y-31215000D01*
%TO.C,R9*%
X101500000Y-56287936D02*
X101500000Y-56742064D01*
X102970000Y-56287936D02*
X102970000Y-56742064D01*
%TO.C,C12*%
X112930000Y-56253748D02*
X112930000Y-56776252D01*
X114400000Y-56253748D02*
X114400000Y-56776252D01*
%TO.C,U10*%
X122460000Y-88540000D02*
X126460000Y-88540000D01*
X126460000Y-83460000D01*
X122460000Y-83460000D01*
X122460000Y-88540000D01*
D13*
X125125000Y-84730000D02*
G75*
G02*
X123795000Y-84730000I-665000J0D01*
G01*
X123795000Y-84730000D02*
G75*
G02*
X125125000Y-84730000I665000J0D01*
G01*
D12*
%TO.C,C4*%
X121185000Y-50538748D02*
X121185000Y-51061252D01*
X122655000Y-50538748D02*
X122655000Y-51061252D01*
%TO.C,U8*%
X113030000Y-60960000D02*
X128270000Y-60960000D01*
X113030000Y-81280000D02*
X113030000Y-60960000D01*
X113030000Y-81280000D02*
X128270000Y-81280000D01*
X128270000Y-81280000D02*
X128270000Y-60960000D01*
%TO.C,U5*%
X135255000Y-53955000D02*
X131805000Y-53955000D01*
X135255000Y-53955000D02*
X137205000Y-53955000D01*
X135255000Y-59075000D02*
X133305000Y-59075000D01*
X135255000Y-59075000D02*
X137205000Y-59075000D01*
%TO.C,R11*%
X109755000Y-51027064D02*
X109755000Y-50572936D01*
X111225000Y-51027064D02*
X111225000Y-50572936D01*
%TO.C,C11*%
X142140000Y-56253748D02*
X142140000Y-56776252D01*
X143610000Y-56253748D02*
X143610000Y-56776252D01*
%TO.C,R10*%
X122782064Y-68480000D02*
X122327936Y-68480000D01*
X122782064Y-69950000D02*
X122327936Y-69950000D01*
%TO.C,R5*%
X108485000Y-63727064D02*
X108485000Y-63272936D01*
X109955000Y-63727064D02*
X109955000Y-63272936D01*
%TO.C,C14*%
X122293748Y-72290000D02*
X122816252Y-72290000D01*
X122293748Y-73760000D02*
X122816252Y-73760000D01*
%TO.C,C10*%
X139600000Y-56253748D02*
X139600000Y-56776252D01*
X141070000Y-56253748D02*
X141070000Y-56776252D01*
%TO.C,C7*%
X114561252Y-45620000D02*
X114038748Y-45620000D01*
X114561252Y-47090000D02*
X114038748Y-47090000D01*
%TO.C,U11*%
X121300000Y-76485000D02*
X121300000Y-77685000D01*
X121300000Y-76485000D02*
X121760000Y-76485000D01*
X121380000Y-80145000D02*
X124460000Y-80145000D01*
X126960000Y-76485000D02*
X127180000Y-76485000D01*
X121760001Y-76485000D02*
G75*
G02*
X126959999Y-76485000I2599999J-1100000D01*
G01*
%TO.C,R8*%
X153570000Y-56287936D02*
X153570000Y-56742064D01*
X155040000Y-56287936D02*
X155040000Y-56742064D01*
%TO.C,U3*%
X118745000Y-49240000D02*
X118095000Y-49240000D01*
X118745000Y-49240000D02*
X119395000Y-49240000D01*
X118745000Y-52360000D02*
X118095000Y-52360000D01*
X118745000Y-52360000D02*
X120420000Y-52360000D01*
D11*
%TO.C,SW2*%
X146600000Y-54500000D02*
X150600000Y-54500000D01*
X146600000Y-58500000D02*
X146600000Y-54500000D01*
X150600000Y-54500000D02*
X150600000Y-58500000D01*
X150600000Y-58500000D02*
X146600000Y-58500000D01*
X149600000Y-56500000D02*
G75*
G02*
X147600000Y-56500000I-1000000J0D01*
G01*
X147600000Y-56500000D02*
G75*
G02*
X149600000Y-56500000I1000000J0D01*
G01*
D12*
%TO.C,C9*%
X124360000Y-56253748D02*
X124360000Y-56776252D01*
X125830000Y-56253748D02*
X125830000Y-56776252D01*
%TO.C,J2*%
X102330000Y-40645000D02*
X102330000Y-40580000D01*
X102330000Y-47050000D02*
X102330000Y-46985000D01*
X105860000Y-40580000D02*
X102330000Y-40580000D01*
X105860000Y-40645000D02*
X105860000Y-40580000D01*
X105860000Y-47050000D02*
X102330000Y-47050000D01*
X105860000Y-47050000D02*
X105860000Y-46985000D01*
X107185000Y-46985000D02*
X105860000Y-46985000D01*
%TO.C,R6*%
X104675000Y-51027064D02*
X104675000Y-50572936D01*
X106145000Y-51027064D02*
X106145000Y-50572936D01*
D11*
%TO.C,SW1*%
X106000000Y-54500000D02*
X110000000Y-54500000D01*
X106000000Y-58500000D02*
X106000000Y-54500000D01*
X110000000Y-54500000D02*
X110000000Y-58500000D01*
X110000000Y-58500000D02*
X106000000Y-58500000D01*
X109000000Y-56500000D02*
G75*
G02*
X107000000Y-56500000I-1000000J0D01*
G01*
X107000000Y-56500000D02*
G75*
G02*
X109000000Y-56500000I1000000J0D01*
G01*
D12*
%TO.C,C3*%
X114835000Y-51061252D02*
X114835000Y-50538748D01*
X116305000Y-51061252D02*
X116305000Y-50538748D01*
%TD*%
M02*
