M48
; DRILL file {KiCad 8.0.0} date 2024-03-18T20:56:25+0100
; FORMAT={-:-/ absolute / inch / decimal}
; #@! TF.CreationDate,2024-03-18T20:56:25+01:00
; #@! TF.GenerationSoftware,Kicad,Pcbnew,8.0.0
; #@! TF.FileFunction,Plated,1,2,PTH
FMAT,2
INCH
; #@! TA.AperFunction,Plated,PTH,ViaDrill
T1C0.0157
; #@! TA.AperFunction,Plated,PTH,ComponentDrill
T2C0.0300
; #@! TA.AperFunction,Plated,PTH,ComponentDrill
T3C0.0315
; #@! TA.AperFunction,Plated,PTH,ComponentDrill
T4C0.0354
; #@! TA.AperFunction,Plated,PTH,ComponentDrill
T5C0.0394
; #@! TA.AperFunction,Plated,PTH,ComponentDrill
T6C0.0433
; #@! TA.AperFunction,Plated,PTH,ComponentDrill
T7C0.0591
; #@! TA.AperFunction,Plated,PTH,ComponentDrill
T8C0.0598
%
G90
G05
T1
X4.025Y-1.625
X4.025Y-1.675
X4.025Y-1.725
X4.025Y-1.775
X4.025Y-1.825
X4.0923Y-1.8923
X4.125Y-2.15
X4.175Y-1.625
X4.175Y-1.8535
X4.25Y-1.55
X4.25Y-1.95
X4.3Y-2.4641
X4.325Y-1.575
X4.35Y-1.55
X4.35Y-1.95
X4.375Y-1.525
X4.375Y-2.15
X4.4Y-1.4
X4.45Y-1.3
X4.45Y-1.35
X4.45Y-1.525
X4.4505Y-1.5649
X4.4535Y-1.8772
X4.4535Y-1.9165
X4.475Y-1.75
X4.475Y-1.825
X4.475Y-2.2
X4.475Y-2.275
X4.5Y-1.4
X4.5888Y-1.6345
X4.5972Y-1.5222
X4.6Y-1.275
X4.6Y-1.3624
X4.6236Y-2.15
X4.6236Y-2.2
X4.625Y-1.55
X4.65Y-1.4
X4.7207Y-1.8705
X4.725Y-1.525
X4.7356Y-1.675
X4.775Y-1.675
X4.8Y-1.225
X4.8Y-1.95
X4.8Y-2.025
X4.825Y-1.2
X4.85Y-1.3
X4.85Y-3.275
X4.875Y-1.275
X4.875Y-2.35
X4.925Y-1.75
X4.925Y-2.3
X4.925Y-2.35
X4.9535Y-1.8
X4.9535Y-2.125
X4.975Y-1.525
X5.025Y-1.45
X5.025Y-1.975
X5.025Y-2.125
X5.025Y-2.175
X5.025Y-2.3
X5.025Y-2.35
X5.075Y-1.45
X5.075Y-1.975
X5.075Y-2.175
X5.075Y-2.35
X5.1Y-2.45
X5.125Y-1.45
X5.125Y-1.975
X5.15Y-2.45
X5.2Y-2.45
X5.225Y-1.925
X5.25Y-2.3
X5.25Y-2.45
X5.3Y-1.675
X5.3Y-2.45
X5.3031Y-1.9213
X5.375Y-1.5472
X5.375Y-1.675
X5.3819Y-1.3287
X5.3819Y-1.9213
X5.45Y-1.7
X5.4606Y-1.9213
X5.525Y-1.75
X5.525Y-2.275
X5.5394Y-1.9213
X5.55Y-1.2
X5.55Y-2.3
X5.575Y-2.075
X5.575Y-2.325
X5.6181Y-1.9213
X5.625Y-1.2
X5.625Y-1.575
X5.675Y-1.2
X5.7Y-1.325
X5.725Y-1.2
X5.725Y-2.15
X5.775Y-1.925
X5.975Y-2.15
T2
X4.55Y-2.45
X4.65Y-2.45
X4.75Y-2.45
X4.85Y-2.45
X4.95Y-2.45
X5.45Y-2.45
X5.55Y-2.45
X5.65Y-2.45
X5.75Y-2.45
T3
X4.1Y-3.15
X4.1Y-3.35
X4.1Y-3.5
X4.1Y-3.65
X4.1996Y-2.6504
X4.1996Y-2.9504
X4.2996Y-2.6504
X4.2996Y-2.9504
X4.3996Y-2.6504
X4.3996Y-2.9504
X4.4Y-2.4016
X4.4Y-2.5
X4.4937Y-3.15
X4.5Y-3.35
X4.5Y-3.5
X4.5Y-3.65
X5.6Y-2.8
X5.8953Y-2.7134
T4
X4.8Y-3.1018
X4.9Y-3.1018
X5.0Y-3.1018
T5
X4.0Y-1.45
X4.1Y-1.45
X4.2Y-1.45
X4.3Y-1.45
X4.7362Y-2.5925
X4.8287Y-3.7913
X4.8799Y-2.5512
X4.9409Y-3.75
X5.1378Y-3.75
X5.1988Y-2.5512
X5.25Y-3.7913
X5.3425Y-2.5925
X5.55Y-3.05
X5.6571Y-3.3563
X5.6571Y-3.75
X5.85Y-1.325
X5.85Y-3.3563
X5.85Y-3.75
X5.9437Y-3.05
T6
X4.25Y-3.9
X4.35Y-3.9
X4.45Y-3.9
T7
X4.95Y-4.15
X5.8398Y-4.15
T8
X4.35Y-4.25
X4.55Y-4.25
X4.75Y-4.25
M30
