%TF.GenerationSoftware,KiCad,Pcbnew,8.0.0*%
%TF.CreationDate,2024-03-18T20:56:23+01:00*%
%TF.ProjectId,power_switch,706f7765-725f-4737-9769-7463682e6b69,rev?*%
%TF.SameCoordinates,Original*%
%TF.FileFunction,Paste,Top*%
%TF.FilePolarity,Positive*%
%FSLAX46Y46*%
G04 Gerber Fmt 4.6, Leading zero omitted, Abs format (unit mm)*
G04 Created by KiCad (PCBNEW 8.0.0) date 2024-03-18 20:56:23*
%MOMM*%
%LPD*%
G01*
G04 APERTURE LIST*
G04 Aperture macros list*
%AMRoundRect*
0 Rectangle with rounded corners*
0 $1 Rounding radius*
0 $2 $3 $4 $5 $6 $7 $8 $9 X,Y pos of 4 corners*
0 Add a 4 corners polygon primitive as box body*
4,1,4,$2,$3,$4,$5,$6,$7,$8,$9,$2,$3,0*
0 Add four circle primitives for the rounded corners*
1,1,$1+$1,$2,$3*
1,1,$1+$1,$4,$5*
1,1,$1+$1,$6,$7*
1,1,$1+$1,$8,$9*
0 Add four rect primitives between the rounded corners*
20,1,$1+$1,$2,$3,$4,$5,0*
20,1,$1+$1,$4,$5,$6,$7,0*
20,1,$1+$1,$6,$7,$8,$9,0*
20,1,$1+$1,$8,$9,$2,$3,0*%
G04 Aperture macros list end*
%ADD10RoundRect,0.250000X0.450000X-0.262500X0.450000X0.262500X-0.450000X0.262500X-0.450000X-0.262500X0*%
%ADD11RoundRect,0.150000X-0.725000X-0.150000X0.725000X-0.150000X0.725000X0.150000X-0.725000X0.150000X0*%
%ADD12RoundRect,0.075000X0.075000X-0.662500X0.075000X0.662500X-0.075000X0.662500X-0.075000X-0.662500X0*%
%ADD13RoundRect,0.075000X0.662500X-0.075000X0.662500X0.075000X-0.662500X0.075000X-0.662500X-0.075000X0*%
%ADD14RoundRect,0.250000X0.475000X-0.250000X0.475000X0.250000X-0.475000X0.250000X-0.475000X-0.250000X0*%
%ADD15RoundRect,0.250000X-0.450000X0.262500X-0.450000X-0.262500X0.450000X-0.262500X0.450000X0.262500X0*%
%ADD16RoundRect,0.317500X0.317500X-1.157500X0.317500X1.157500X-0.317500X1.157500X-0.317500X-1.157500X0*%
%ADD17RoundRect,0.243750X0.456250X-0.243750X0.456250X0.243750X-0.456250X0.243750X-0.456250X-0.243750X0*%
%ADD18RoundRect,0.250000X-0.250000X-0.475000X0.250000X-0.475000X0.250000X0.475000X-0.250000X0.475000X0*%
%ADD19RoundRect,0.250000X-0.475000X0.250000X-0.475000X-0.250000X0.475000X-0.250000X0.475000X0.250000X0*%
%ADD20RoundRect,0.250000X0.500000X0.250000X-0.500000X0.250000X-0.500000X-0.250000X0.500000X-0.250000X0*%
%ADD21RoundRect,0.250000X-0.500000X-0.250000X0.500000X-0.250000X0.500000X0.250000X-0.500000X0.250000X0*%
%ADD22RoundRect,0.150000X-0.825000X-0.150000X0.825000X-0.150000X0.825000X0.150000X-0.825000X0.150000X0*%
%ADD23RoundRect,0.250000X0.262500X0.450000X-0.262500X0.450000X-0.262500X-0.450000X0.262500X-0.450000X0*%
%ADD24RoundRect,0.250000X0.250000X0.475000X-0.250000X0.475000X-0.250000X-0.475000X0.250000X-0.475000X0*%
%ADD25RoundRect,0.150000X0.587500X0.150000X-0.587500X0.150000X-0.587500X-0.150000X0.587500X-0.150000X0*%
%ADD26R,1.800000X1.100000*%
%ADD27R,2.400000X0.740000*%
G04 APERTURE END LIST*
D10*
%TO.C,R12*%
X107950000Y-51712500D03*
X107950000Y-49887500D03*
%TD*%
D11*
%TO.C,U7*%
X117440000Y-54610000D03*
X117440000Y-55880000D03*
X117440000Y-57150000D03*
X117440000Y-58420000D03*
X122590000Y-58420000D03*
X122590000Y-57150000D03*
X122590000Y-55880000D03*
X122590000Y-54610000D03*
%TD*%
D12*
%TO.C,U1*%
X116630000Y-45437500D03*
X117130000Y-45437500D03*
X117630000Y-45437500D03*
X118130000Y-45437500D03*
X118630000Y-45437500D03*
X119130000Y-45437500D03*
X119630000Y-45437500D03*
X120130000Y-45437500D03*
X120630000Y-45437500D03*
X121130000Y-45437500D03*
X121630000Y-45437500D03*
X122130000Y-45437500D03*
D13*
X123542500Y-44025000D03*
X123542500Y-43525000D03*
X123542500Y-43025000D03*
X123542500Y-42525000D03*
X123542500Y-42025000D03*
X123542500Y-41525000D03*
X123542500Y-41025000D03*
X123542500Y-40525000D03*
X123542500Y-40025000D03*
X123542500Y-39525000D03*
X123542500Y-39025000D03*
X123542500Y-38525000D03*
D12*
X122130000Y-37112500D03*
X121630000Y-37112500D03*
X121130000Y-37112500D03*
X120630000Y-37112500D03*
X120130000Y-37112500D03*
X119630000Y-37112500D03*
X119130000Y-37112500D03*
X118630000Y-37112500D03*
X118130000Y-37112500D03*
X117630000Y-37112500D03*
X117130000Y-37112500D03*
X116630000Y-37112500D03*
D13*
X115217500Y-38525000D03*
X115217500Y-39025000D03*
X115217500Y-39525000D03*
X115217500Y-40025000D03*
X115217500Y-40525000D03*
X115217500Y-41025000D03*
X115217500Y-41525000D03*
X115217500Y-42025000D03*
X115217500Y-42525000D03*
X115217500Y-43025000D03*
X115217500Y-43525000D03*
X115217500Y-44025000D03*
%TD*%
D14*
%TO.C,C13*%
X116840000Y-34605000D03*
X116840000Y-32705000D03*
%TD*%
%TO.C,C6*%
X120650000Y-34605000D03*
X120650000Y-32705000D03*
%TD*%
D15*
%TO.C,R7*%
X113030000Y-32742500D03*
X113030000Y-34567500D03*
%TD*%
%TO.C,R1*%
X106680000Y-62587500D03*
X106680000Y-64412500D03*
%TD*%
D16*
%TO.C,U4*%
X132700000Y-48800000D03*
X134700000Y-48800000D03*
X136700000Y-48800000D03*
X138700000Y-48800000D03*
X140700000Y-48800000D03*
X142700000Y-48800000D03*
X144700000Y-48800000D03*
X146700000Y-48800000D03*
X146700000Y-33750000D03*
X144700000Y-33750000D03*
X142700000Y-33750000D03*
X140700000Y-33750000D03*
X138700000Y-33750000D03*
X136700000Y-33750000D03*
X134700000Y-33750000D03*
X132700000Y-33750000D03*
%TD*%
D17*
%TO.C,D1*%
X106850000Y-71937500D03*
X106850000Y-70062500D03*
%TD*%
D18*
%TO.C,C8*%
X138750000Y-30480000D03*
X140650000Y-30480000D03*
%TD*%
D15*
%TO.C,R9*%
X102235000Y-55602500D03*
X102235000Y-57427500D03*
%TD*%
D19*
%TO.C,C12*%
X113665000Y-55565000D03*
X113665000Y-57465000D03*
%TD*%
D20*
%TO.C,U10*%
X121560000Y-84730000D03*
X121560000Y-87270000D03*
D21*
X127360000Y-87270000D03*
D20*
X127360000Y-84730000D03*
%TD*%
D19*
%TO.C,C4*%
X121920000Y-49850000D03*
X121920000Y-51750000D03*
%TD*%
D22*
%TO.C,U5*%
X132780000Y-54610000D03*
X132780000Y-55880000D03*
X132780000Y-57150000D03*
X132780000Y-58420000D03*
X137730000Y-58420000D03*
X137730000Y-57150000D03*
X137730000Y-55880000D03*
X137730000Y-54610000D03*
%TD*%
D10*
%TO.C,R11*%
X110490000Y-51712500D03*
X110490000Y-49887500D03*
%TD*%
D19*
%TO.C,C11*%
X142875000Y-55565000D03*
X142875000Y-57465000D03*
%TD*%
D23*
%TO.C,R10*%
X123467500Y-69215000D03*
X121642500Y-69215000D03*
%TD*%
D10*
%TO.C,R5*%
X109220000Y-64412500D03*
X109220000Y-62587500D03*
%TD*%
D18*
%TO.C,C14*%
X121605000Y-73025000D03*
X123505000Y-73025000D03*
%TD*%
D19*
%TO.C,C10*%
X140335000Y-55565000D03*
X140335000Y-57465000D03*
%TD*%
D24*
%TO.C,C7*%
X115250000Y-46355000D03*
X113350000Y-46355000D03*
%TD*%
D15*
%TO.C,R8*%
X154305000Y-55602500D03*
X154305000Y-57427500D03*
%TD*%
D25*
%TO.C,U3*%
X119682500Y-51750000D03*
X119682500Y-49850000D03*
X117807500Y-50800000D03*
%TD*%
D26*
%TO.C,SW2*%
X145450000Y-54650000D03*
X151750000Y-54650000D03*
X145450000Y-58350000D03*
X151750000Y-58350000D03*
%TD*%
D19*
%TO.C,C9*%
X125095000Y-55565000D03*
X125095000Y-57465000D03*
%TD*%
D27*
%TO.C,J2*%
X106045000Y-46355000D03*
X102145000Y-46355000D03*
X106045000Y-45085000D03*
X102145000Y-45085000D03*
X106045000Y-43815000D03*
X102145000Y-43815000D03*
X106045000Y-42545000D03*
X102145000Y-42545000D03*
X106045000Y-41275000D03*
X102145000Y-41275000D03*
%TD*%
D10*
%TO.C,R6*%
X105410000Y-51712500D03*
X105410000Y-49887500D03*
%TD*%
D26*
%TO.C,SW1*%
X104850000Y-54650000D03*
X111150000Y-54650000D03*
X104850000Y-58350000D03*
X111150000Y-58350000D03*
%TD*%
D14*
%TO.C,C3*%
X115570000Y-51750000D03*
X115570000Y-49850000D03*
%TD*%
M02*
