%TF.GenerationSoftware,KiCad,Pcbnew,8.0.0*%
%TF.CreationDate,2024-03-18T20:56:23+01:00*%
%TF.ProjectId,power_switch,706f7765-725f-4737-9769-7463682e6b69,rev?*%
%TF.SameCoordinates,Original*%
%TF.FileFunction,Soldermask,Bot*%
%TF.FilePolarity,Negative*%
%FSLAX46Y46*%
G04 Gerber Fmt 4.6, Leading zero omitted, Abs format (unit mm)*
G04 Created by KiCad (PCBNEW 8.0.0) date 2024-03-18 20:56:23*
%MOMM*%
%LPD*%
G01*
G04 APERTURE LIST*
G04 Aperture macros list*
%AMRoundRect*
0 Rectangle with rounded corners*
0 $1 Rounding radius*
0 $2 $3 $4 $5 $6 $7 $8 $9 X,Y pos of 4 corners*
0 Add a 4 corners polygon primitive as box body*
4,1,4,$2,$3,$4,$5,$6,$7,$8,$9,$2,$3,0*
0 Add four circle primitives for the rounded corners*
1,1,$1+$1,$2,$3*
1,1,$1+$1,$4,$5*
1,1,$1+$1,$6,$7*
1,1,$1+$1,$8,$9*
0 Add four rect primitives between the rounded corners*
20,1,$1+$1,$2,$3,$4,$5,0*
20,1,$1+$1,$4,$5,$6,$7,0*
20,1,$1+$1,$6,$7,$8,$9,0*
20,1,$1+$1,$8,$9,$2,$3,0*%
G04 Aperture macros list end*
%ADD10C,1.524000*%
%ADD11C,2.200000*%
%ADD12RoundRect,0.248400X0.651600X0.651600X-0.651600X0.651600X-0.651600X-0.651600X0.651600X-0.651600X0*%
%ADD13C,1.800000*%
%ADD14R,1.700000X1.700000*%
%ADD15O,1.700000X1.700000*%
%ADD16R,1.905000X2.000000*%
%ADD17O,1.905000X2.000000*%
%ADD18C,1.600000*%
%ADD19O,1.600000X1.600000*%
%ADD20C,2.000000*%
%ADD21C,3.000000*%
%ADD22R,1.600000X1.600000*%
%ADD23R,3.000000X3.000000*%
G04 APERTURE END LIST*
D10*
%TO.C,U9*%
X138430000Y-62230000D03*
X140970000Y-62230000D03*
X143510000Y-62230000D03*
X146050000Y-62230000D03*
%TD*%
D11*
%TO.C,H1*%
X103000000Y-32000000D03*
%TD*%
D10*
%TO.C,U8*%
X125730000Y-62230000D03*
X123190000Y-62230000D03*
X120650000Y-62230000D03*
X118110000Y-62230000D03*
X115570000Y-62230000D03*
%TD*%
D12*
%TO.C,U11*%
X127000000Y-78785000D03*
D13*
X124460000Y-78785000D03*
X121920000Y-78785000D03*
%TD*%
D11*
%TO.C,H4*%
X103000000Y-109000000D03*
%TD*%
%TO.C,H3*%
X153600000Y-109000000D03*
%TD*%
%TO.C,H2*%
X153600000Y-32000000D03*
%TD*%
D14*
%TO.C,J3*%
X101600000Y-36830000D03*
D15*
X104140000Y-36830000D03*
X106680000Y-36830000D03*
X109220000Y-36830000D03*
%TD*%
D16*
%TO.C,Q1*%
X113030000Y-99060000D03*
D17*
X110490000Y-99060000D03*
X107950000Y-99060000D03*
%TD*%
D13*
%TO.C,RV1*%
X142240000Y-71120000D03*
X149740000Y-68920000D03*
%TD*%
D18*
%TO.C,R2*%
X114300000Y-85090000D03*
D19*
X104140000Y-85090000D03*
%TD*%
D20*
%TO.C,AE1*%
X148590000Y-33655000D03*
%TD*%
D18*
%TO.C,R4*%
X104140000Y-92710000D03*
D19*
X114300000Y-92710000D03*
%TD*%
D18*
%TO.C,C5*%
X114140000Y-80010000D03*
X104140000Y-80010000D03*
%TD*%
D21*
%TO.C,F1*%
X125730000Y-105410000D03*
X148330000Y-105410000D03*
%TD*%
D22*
%TO.C,C2*%
X111760000Y-63500000D03*
D18*
X111760000Y-61000000D03*
%TD*%
%TO.C,R3*%
X104140000Y-88900000D03*
D19*
X114300000Y-88900000D03*
%TD*%
D23*
%TO.C,J1*%
X120650000Y-107950000D03*
D21*
X115570000Y-107950000D03*
X110490000Y-107950000D03*
%TD*%
D22*
%TO.C,U2*%
X106670000Y-67320000D03*
D19*
X109210000Y-67320000D03*
X111750000Y-67320000D03*
X111750000Y-74940000D03*
X109210000Y-74940000D03*
X106670000Y-74940000D03*
%TD*%
D20*
%TO.C,C1*%
X140970000Y-77470000D03*
X150970000Y-77470000D03*
%TD*%
%TO.C,PS1*%
X133350000Y-96300000D03*
X130500000Y-95250000D03*
X122650000Y-96300000D03*
X125500000Y-95250000D03*
X135700000Y-65850000D03*
X132050000Y-64800000D03*
X120300000Y-65850000D03*
X123950000Y-64800000D03*
%TD*%
%TO.C,FL1*%
X143690000Y-95250000D03*
X148590000Y-95250000D03*
X148590000Y-85250000D03*
X143690000Y-85250000D03*
%TD*%
M02*
