%TF.GenerationSoftware,KiCad,Pcbnew,8.0.0*%
%TF.CreationDate,2024-03-18T20:56:22+01:00*%
%TF.ProjectId,power_switch,706f7765-725f-4737-9769-7463682e6b69,rev?*%
%TF.SameCoordinates,Original*%
%TF.FileFunction,Copper,L2,Bot*%
%TF.FilePolarity,Positive*%
%FSLAX46Y46*%
G04 Gerber Fmt 4.6, Leading zero omitted, Abs format (unit mm)*
G04 Created by KiCad (PCBNEW 8.0.0) date 2024-03-18 20:56:22*
%MOMM*%
%LPD*%
G01*
G04 APERTURE LIST*
G04 Aperture macros list*
%AMRoundRect*
0 Rectangle with rounded corners*
0 $1 Rounding radius*
0 $2 $3 $4 $5 $6 $7 $8 $9 X,Y pos of 4 corners*
0 Add a 4 corners polygon primitive as box body*
4,1,4,$2,$3,$4,$5,$6,$7,$8,$9,$2,$3,0*
0 Add four circle primitives for the rounded corners*
1,1,$1+$1,$2,$3*
1,1,$1+$1,$4,$5*
1,1,$1+$1,$6,$7*
1,1,$1+$1,$8,$9*
0 Add four rect primitives between the rounded corners*
20,1,$1+$1,$2,$3,$4,$5,0*
20,1,$1+$1,$4,$5,$6,$7,0*
20,1,$1+$1,$6,$7,$8,$9,0*
20,1,$1+$1,$8,$9,$2,$3,0*%
G04 Aperture macros list end*
%TA.AperFunction,ComponentPad*%
%ADD10C,1.524000*%
%TD*%
%TA.AperFunction,ComponentPad*%
%ADD11RoundRect,0.248400X0.651600X0.651600X-0.651600X0.651600X-0.651600X-0.651600X0.651600X-0.651600X0*%
%TD*%
%TA.AperFunction,ComponentPad*%
%ADD12C,1.800000*%
%TD*%
%TA.AperFunction,ComponentPad*%
%ADD13R,1.700000X1.700000*%
%TD*%
%TA.AperFunction,ComponentPad*%
%ADD14O,1.700000X1.700000*%
%TD*%
%TA.AperFunction,ComponentPad*%
%ADD15R,1.905000X2.000000*%
%TD*%
%TA.AperFunction,ComponentPad*%
%ADD16O,1.905000X2.000000*%
%TD*%
%TA.AperFunction,ComponentPad*%
%ADD17C,1.600000*%
%TD*%
%TA.AperFunction,ComponentPad*%
%ADD18O,1.600000X1.600000*%
%TD*%
%TA.AperFunction,ComponentPad*%
%ADD19C,2.000000*%
%TD*%
%TA.AperFunction,ComponentPad*%
%ADD20C,3.000000*%
%TD*%
%TA.AperFunction,ComponentPad*%
%ADD21R,1.600000X1.600000*%
%TD*%
%TA.AperFunction,ComponentPad*%
%ADD22R,3.000000X3.000000*%
%TD*%
%TA.AperFunction,ViaPad*%
%ADD23C,0.800000*%
%TD*%
%TA.AperFunction,Conductor*%
%ADD24C,1.000000*%
%TD*%
%TA.AperFunction,Conductor*%
%ADD25C,0.250000*%
%TD*%
G04 APERTURE END LIST*
D10*
%TO.P,U9,1,PWR*%
%TO.N,GND*%
X138430000Y-62230000D03*
%TO.P,U9,2,PWR*%
%TO.N,+3V3*%
X140970000Y-62230000D03*
%TO.P,U9,3,SCL*%
%TO.N,SCL*%
X143510000Y-62230000D03*
%TO.P,U9,4,SDA*%
%TO.N,SDA*%
X146050000Y-62230000D03*
%TD*%
%TO.P,U8,1,ADDR*%
%TO.N,GND*%
X125730000Y-62230000D03*
%TO.P,U8,2,SDA*%
%TO.N,SDA*%
X123190000Y-62230000D03*
%TO.P,U8,3,SCL*%
%TO.N,SCL*%
X120650000Y-62230000D03*
%TO.P,U8,4,GND*%
%TO.N,GND*%
X118110000Y-62230000D03*
%TO.P,U8,5,VCC*%
%TO.N,+3V3*%
X115570000Y-62230000D03*
%TD*%
D11*
%TO.P,U11,1,OUT*%
%TO.N,IR*%
X127000000Y-78785000D03*
D12*
%TO.P,U11,2,GND*%
%TO.N,GND*%
X124460000Y-78785000D03*
%TO.P,U11,3,Vs*%
%TO.N,Net-(U10-Vs)*%
X121920000Y-78785000D03*
%TD*%
D13*
%TO.P,J3,1,Pin_1*%
%TO.N,GND*%
X101600000Y-36830000D03*
D14*
%TO.P,J3,2,Pin_2*%
%TO.N,+3V3*%
X104140000Y-36830000D03*
%TO.P,J3,3,Pin_3*%
%TO.N,SCL*%
X106680000Y-36830000D03*
%TO.P,J3,4,Pin_4*%
%TO.N,SDA*%
X109220000Y-36830000D03*
%TD*%
D15*
%TO.P,Q1,1,A1*%
%TO.N,L_OUT*%
X113030000Y-99060000D03*
D16*
%TO.P,Q1,2,A2*%
%TO.N,L_FUSED*%
X110490000Y-99060000D03*
%TO.P,Q1,3,G*%
%TO.N,Net-(Q1-G)*%
X107950000Y-99060000D03*
%TD*%
D12*
%TO.P,RV1,1*%
%TO.N,L_FUSED*%
X142240000Y-71120000D03*
%TO.P,RV1,2*%
%TO.N,N*%
X149740000Y-68920000D03*
%TD*%
D17*
%TO.P,R2,1*%
%TO.N,Net-(Q1-G)*%
X114300000Y-85090000D03*
D18*
%TO.P,R2,2*%
%TO.N,L_OUT*%
X104140000Y-85090000D03*
%TD*%
D19*
%TO.P,AE1,1,A*%
%TO.N,Net-(AE1-A)*%
X148590000Y-33655000D03*
%TD*%
D17*
%TO.P,R4,1*%
%TO.N,Net-(C5-Pad1)*%
X104140000Y-92710000D03*
D18*
%TO.P,R4,2*%
%TO.N,L_FUSED*%
X114300000Y-92710000D03*
%TD*%
D17*
%TO.P,C5,1*%
%TO.N,Net-(C5-Pad1)*%
X114140000Y-80010000D03*
%TO.P,C5,2*%
%TO.N,L_OUT*%
X104140000Y-80010000D03*
%TD*%
D20*
%TO.P,F1,1*%
%TO.N,L_IN*%
X125730000Y-105410000D03*
%TO.P,F1,2*%
%TO.N,L_FUSED*%
X148330000Y-105410000D03*
%TD*%
D21*
%TO.P,C2,1*%
%TO.N,+5V*%
X111760000Y-63500000D03*
D17*
%TO.P,C2,2*%
%TO.N,GND*%
X111760000Y-61000000D03*
%TD*%
%TO.P,R3,1*%
%TO.N,Net-(R3-Pad1)*%
X104140000Y-88900000D03*
D18*
%TO.P,R3,2*%
%TO.N,L_FUSED*%
X114300000Y-88900000D03*
%TD*%
D22*
%TO.P,J1,1,Pin_1*%
%TO.N,L_IN*%
X120650000Y-107950000D03*
D20*
%TO.P,J1,2,Pin_2*%
%TO.N,N*%
X115570000Y-107950000D03*
%TO.P,J1,3,Pin_3*%
%TO.N,L_OUT*%
X110490000Y-107950000D03*
%TD*%
D21*
%TO.P,U2,1*%
%TO.N,Net-(R1-Pad2)*%
X106670000Y-67320000D03*
D18*
%TO.P,U2,2*%
%TO.N,GND*%
X109210000Y-67320000D03*
%TO.P,U2,3,NC*%
%TO.N,unconnected-(U2-NC-Pad3)*%
X111750000Y-67320000D03*
%TO.P,U2,4*%
%TO.N,Net-(Q1-G)*%
X111750000Y-74940000D03*
%TO.P,U2,5,NC*%
%TO.N,unconnected-(U2-NC-Pad5)*%
X109210000Y-74940000D03*
%TO.P,U2,6*%
%TO.N,Net-(R3-Pad1)*%
X106670000Y-74940000D03*
%TD*%
D19*
%TO.P,C1,1*%
%TO.N,L_FUSED*%
X140970000Y-77470000D03*
%TO.P,C1,2*%
%TO.N,N*%
X150970000Y-77470000D03*
%TD*%
%TO.P,PS1,1,AC/L*%
%TO.N,Net-(PS1-AC{slash}L)*%
X133350000Y-96300000D03*
X130500000Y-95250000D03*
%TO.P,PS1,2,AC/N*%
%TO.N,Net-(PS1-AC{slash}N)*%
X122650000Y-96300000D03*
X125500000Y-95250000D03*
%TO.P,PS1,3,-Vout*%
%TO.N,GND*%
X135700000Y-65850000D03*
X132050000Y-64800000D03*
%TO.P,PS1,4,+Vout*%
%TO.N,+5V*%
X120300000Y-65850000D03*
X123950000Y-64800000D03*
%TD*%
%TO.P,FL1,1,1*%
%TO.N,L_FUSED*%
X143690000Y-95250000D03*
%TO.P,FL1,2,2*%
%TO.N,Net-(PS1-AC{slash}L)*%
X148590000Y-95250000D03*
%TO.P,FL1,3,3*%
%TO.N,N*%
X148590000Y-85250000D03*
%TO.P,FL1,4,4*%
%TO.N,Net-(PS1-AC{slash}N)*%
X143690000Y-85250000D03*
%TD*%
D23*
%TO.N,GND*%
X109855000Y-40005000D03*
X134620000Y-62230000D03*
X125095000Y-58420000D03*
X128905000Y-55245000D03*
X151765000Y-54610000D03*
X113665000Y-55880000D03*
X141605000Y-52705000D03*
X106045000Y-41275000D03*
X141605000Y-59055000D03*
X110490000Y-39370000D03*
X140970000Y-58420000D03*
X116840000Y-32385000D03*
X111760000Y-35560000D03*
X140970000Y-30480000D03*
X146685000Y-48895000D03*
X119905000Y-47510000D03*
X130175000Y-36830000D03*
X132715000Y-48895000D03*
X111125000Y-54610000D03*
X127635000Y-59690000D03*
X130175000Y-50165000D03*
X107950000Y-39370000D03*
X140335000Y-57785000D03*
X113030000Y-34290000D03*
X133350000Y-58420000D03*
X142875000Y-30480000D03*
X144780000Y-33655000D03*
X127635000Y-58420000D03*
X128905000Y-59690000D03*
X145415000Y-54610000D03*
X113665000Y-44450000D03*
X123190000Y-83185000D03*
X123190000Y-33020000D03*
X130810000Y-62230000D03*
X125095000Y-59690000D03*
X123825000Y-59690000D03*
X128905000Y-36830000D03*
X118110000Y-35560000D03*
X144145000Y-30480000D03*
X129540000Y-62230000D03*
X128905000Y-50165000D03*
X127635000Y-53975000D03*
X123825000Y-32385000D03*
X121920000Y-51435000D03*
X127635000Y-36830000D03*
X121920000Y-31115000D03*
X114300000Y-35560000D03*
X113665000Y-46355000D03*
X132080000Y-62230000D03*
X127635000Y-50165000D03*
X127635000Y-55245000D03*
X126365000Y-38735000D03*
X145415000Y-30480000D03*
X104775000Y-54610000D03*
X133350000Y-62230000D03*
X122555000Y-30480000D03*
X111125000Y-38735000D03*
X120015000Y-38735000D03*
%TO.N,+3V3*%
X113120000Y-47680000D03*
X116840000Y-34605000D03*
X106045000Y-47080000D03*
X121920000Y-49530000D03*
%TO.N,AC_POWER_ON*%
X121285000Y-42545000D03*
X109220000Y-62587500D03*
%TO.N,BTN1*%
X113665000Y-57785000D03*
X120284997Y-42545000D03*
%TO.N,BTN2*%
X125820000Y-53975000D03*
X125820000Y-45720000D03*
%TO.N,TMS*%
X102235000Y-46355000D03*
X117475000Y-39370000D03*
%TO.N,TCK*%
X116767891Y-38662891D03*
X102235000Y-45085000D03*
%TO.N,SPI_CS*%
X140700000Y-48800000D03*
X140335000Y-44450000D03*
%TO.N,SPI_SCK*%
X138700000Y-48800000D03*
X138430000Y-43180000D03*
%TO.N,SPI_MISO*%
X134700000Y-48800000D03*
X134620000Y-42545000D03*
%TO.N,SPI_MOSI*%
X136525000Y-42545000D03*
X136700000Y-48800000D03*
%TO.N,SPI_RST*%
X142700000Y-48800000D03*
X142875000Y-40005000D03*
%TO.N,SPI_INT*%
X136525000Y-39300000D03*
X136700000Y-33750000D03*
%TO.N,TDO*%
X102235000Y-43815000D03*
X113042652Y-39747655D03*
%TO.N,TDI*%
X102235000Y-42545000D03*
X113030000Y-38735000D03*
%TO.N,nSRST*%
X102235000Y-41275000D03*
X103944847Y-48064847D03*
X113120000Y-48680003D03*
%TO.N,Net-(U1-BOOT0)*%
X116554999Y-41517271D03*
X113030000Y-33020000D03*
%TO.N,SDA*%
X117440000Y-54610000D03*
X110490000Y-49530000D03*
%TO.N,SCL*%
X117440000Y-55880000D03*
X107950000Y-49530000D03*
%TO.N,IR*%
X125095000Y-44450000D03*
%TD*%
D24*
%TO.N,L_OUT*%
X104140000Y-80010000D02*
X104140000Y-85090000D01*
X107265512Y-104725512D02*
X110490000Y-107950000D01*
X110490000Y-107950000D02*
X101600000Y-99060000D01*
X101600000Y-95094488D02*
X101600000Y-87630000D01*
X101600000Y-87630000D02*
X104140000Y-85090000D01*
X101600000Y-99060000D02*
X101600000Y-95094488D01*
X113030000Y-99060000D02*
X113030000Y-105410000D01*
X113030000Y-105410000D02*
X110490000Y-107950000D01*
%TO.N,N*%
X121920000Y-101600000D02*
X115570000Y-107950000D01*
X150970000Y-82870000D02*
X148590000Y-85250000D01*
X150970000Y-77470000D02*
X150970000Y-82870000D01*
X153670000Y-97790000D02*
X149860000Y-101600000D01*
X149740000Y-76240000D02*
X150970000Y-77470000D01*
X153670000Y-72850000D02*
X153670000Y-97790000D01*
X149740000Y-68920000D02*
X153670000Y-72850000D01*
X149740000Y-68920000D02*
X149740000Y-76240000D01*
X149860000Y-101600000D02*
X121920000Y-101600000D01*
%TO.N,Net-(Q1-G)*%
X115570000Y-74930000D02*
X115560000Y-74940000D01*
X115560000Y-74940000D02*
X111750000Y-74940000D01*
X118110000Y-81280000D02*
X118110000Y-77470000D01*
X107950000Y-91440000D02*
X107950000Y-99060000D01*
X114300000Y-85090000D02*
X118110000Y-81280000D01*
X118110000Y-77470000D02*
X115570000Y-74930000D01*
X114300000Y-85090000D02*
X107950000Y-91440000D01*
D25*
%TO.N,GND*%
X124460000Y-81915000D02*
X124460000Y-78785000D01*
X123190000Y-83185000D02*
X124460000Y-81915000D01*
D24*
%TO.N,L_FUSED*%
X110490000Y-91440000D02*
X113030000Y-88900000D01*
X110490000Y-91440000D02*
X110490000Y-99060000D01*
X139700000Y-78740000D02*
X140970000Y-77470000D01*
X143690000Y-95250000D02*
X143690000Y-92890000D01*
X143690000Y-92890000D02*
X139700000Y-88900000D01*
X140970000Y-72390000D02*
X142240000Y-71120000D01*
X140970000Y-77470000D02*
X140970000Y-72390000D01*
X140970000Y-95250000D02*
X143690000Y-95250000D01*
X139700000Y-88900000D02*
X139700000Y-78740000D01*
X114300000Y-92710000D02*
X138430000Y-92710000D01*
X113030000Y-88900000D02*
X114300000Y-88900000D01*
X138430000Y-92710000D02*
X140970000Y-95250000D01*
X114300000Y-88900000D02*
X114300000Y-92710000D01*
%TO.N,Net-(PS1-AC{slash}N)*%
X124450000Y-96300000D02*
X125500000Y-95250000D01*
X122650000Y-96300000D02*
X124450000Y-96300000D01*
D25*
%TO.N,+3V3*%
X106645000Y-47680000D02*
X106045000Y-47080000D01*
X113120000Y-47680000D02*
X106645000Y-47680000D01*
%TO.N,AC_POWER_ON*%
X121285000Y-42545000D02*
X121195000Y-42635000D01*
X113390991Y-60960000D02*
X112120991Y-62230000D01*
X109577500Y-62230000D02*
X109220000Y-62587500D01*
X116595305Y-60960000D02*
X113390991Y-60960000D01*
X112120991Y-62230000D02*
X109577500Y-62230000D01*
X121195000Y-56360305D02*
X116595305Y-60960000D01*
X121195000Y-42635000D02*
X121195000Y-56360305D01*
%TO.N,BTN1*%
X120284997Y-42545000D02*
X120630000Y-42890003D01*
X117195304Y-57785000D02*
X117335152Y-57645152D01*
X120630000Y-54350305D02*
X117335152Y-57645152D01*
X113665000Y-57785000D02*
X117195304Y-57785000D01*
X120630000Y-42890003D02*
X120630000Y-54350305D01*
%TO.N,BTN2*%
X125820000Y-45720000D02*
X125820000Y-53975000D01*
%TO.N,TMS*%
X110490000Y-46355000D02*
X117475000Y-39370000D01*
X102235000Y-46355000D02*
X110490000Y-46355000D01*
%TO.N,TCK*%
X116767891Y-38807109D02*
X116767891Y-38662891D01*
X102235000Y-45085000D02*
X110490000Y-45085000D01*
X110490000Y-45085000D02*
X116767891Y-38807109D01*
%TO.N,SPI_CS*%
X140335000Y-44450000D02*
X140335000Y-48435000D01*
X140335000Y-48435000D02*
X140700000Y-48800000D01*
%TO.N,SPI_SCK*%
X138430000Y-43180000D02*
X138430000Y-48530000D01*
X138430000Y-48530000D02*
X138700000Y-48800000D01*
%TO.N,SPI_MISO*%
X134620000Y-42545000D02*
X134620000Y-48720000D01*
X134620000Y-48720000D02*
X134700000Y-48800000D01*
%TO.N,SPI_MOSI*%
X136525000Y-48625000D02*
X136700000Y-48800000D01*
X136525000Y-42545000D02*
X136525000Y-48625000D01*
%TO.N,SPI_RST*%
X142875000Y-48625000D02*
X142700000Y-48800000D01*
X142875000Y-40005000D02*
X142875000Y-48625000D01*
%TO.N,SPI_INT*%
X136525000Y-39300000D02*
X136525000Y-33925000D01*
X136525000Y-33925000D02*
X136700000Y-33750000D01*
%TO.N,TDO*%
X108975307Y-43815000D02*
X102235000Y-43815000D01*
X113042652Y-39747655D02*
X108975307Y-43815000D01*
%TO.N,TDI*%
X102235000Y-42545000D02*
X109220000Y-42545000D01*
X109220000Y-42545000D02*
X113030000Y-38735000D01*
%TO.N,nSRST*%
X113120000Y-48680003D02*
X104560003Y-48680003D01*
X104560003Y-48680003D02*
X103944847Y-48064847D01*
%TO.N,Net-(U1-BOOT0)*%
X118835000Y-39237270D02*
X118835000Y-34925000D01*
X117020000Y-33110000D02*
X118835000Y-34925000D01*
X116554999Y-41517271D02*
X118835000Y-39237270D01*
X113120000Y-33110000D02*
X117020000Y-33110000D01*
X113030000Y-33020000D02*
X113120000Y-33110000D01*
%TO.N,SDA*%
X144805000Y-63475000D02*
X146050000Y-62230000D01*
X146070000Y-62250000D02*
X146050000Y-62230000D01*
X123190000Y-62230000D02*
X124435000Y-63475000D01*
X110490000Y-50165000D02*
X114935000Y-54610000D01*
X110490000Y-49530000D02*
X110490000Y-50165000D01*
X114935000Y-54610000D02*
X117440000Y-54610000D01*
X124435000Y-63475000D02*
X144805000Y-63475000D01*
%TO.N,SCL*%
X107950000Y-50165000D02*
X112940000Y-55155000D01*
X104384695Y-49530000D02*
X101510000Y-46655305D01*
X101510000Y-46655305D02*
X101510000Y-40974695D01*
X101510000Y-40974695D02*
X104384695Y-38100000D01*
X142423000Y-61143000D02*
X121737000Y-61143000D01*
X112940000Y-55155000D02*
X116715000Y-55155000D01*
X143510000Y-62230000D02*
X142423000Y-61143000D01*
X107950000Y-49530000D02*
X104384695Y-49530000D01*
X107950000Y-49530000D02*
X107950000Y-50165000D01*
X121737000Y-61143000D02*
X120650000Y-62230000D01*
X104384695Y-38100000D02*
X105410000Y-38100000D01*
X116715000Y-55155000D02*
X117440000Y-55880000D01*
X105410000Y-38100000D02*
X106680000Y-36830000D01*
%TO.N,IR*%
X119563000Y-61779749D02*
X119563000Y-63048000D01*
X125095000Y-44450000D02*
X125095000Y-56247749D01*
X127000000Y-70485000D02*
X127000000Y-78785000D01*
X125095000Y-56247749D02*
X119563000Y-61779749D01*
X119563000Y-63048000D02*
X127000000Y-70485000D01*
%TD*%
%TA.AperFunction,Conductor*%
%TO.N,GND*%
G36*
X130544859Y-64800004D02*
G01*
X130544859Y-64800005D01*
X130565385Y-65047729D01*
X130565387Y-65047738D01*
X130626412Y-65288717D01*
X130726266Y-65516364D01*
X130826564Y-65669882D01*
X131567037Y-64929408D01*
X131584075Y-64992993D01*
X131649901Y-65107007D01*
X131742993Y-65200099D01*
X131857007Y-65265925D01*
X131920590Y-65282962D01*
X131179942Y-66023609D01*
X131226768Y-66060055D01*
X131226770Y-66060056D01*
X131445385Y-66178364D01*
X131445396Y-66178369D01*
X131680506Y-66259083D01*
X131925707Y-66300000D01*
X132174293Y-66300000D01*
X132419493Y-66259083D01*
X132654603Y-66178369D01*
X132654614Y-66178364D01*
X132873228Y-66060057D01*
X132873231Y-66060055D01*
X132920056Y-66023609D01*
X132179409Y-65282962D01*
X132242993Y-65265925D01*
X132357007Y-65200099D01*
X132450099Y-65107007D01*
X132515925Y-64992993D01*
X132532962Y-64929410D01*
X133273434Y-65669882D01*
X133373731Y-65516369D01*
X133473587Y-65288717D01*
X133534612Y-65047738D01*
X133534614Y-65047729D01*
X133555141Y-64800005D01*
X133555141Y-64800004D01*
X133552655Y-64770000D01*
X134973552Y-64770000D01*
X135570590Y-65367037D01*
X135507007Y-65384075D01*
X135392993Y-65449901D01*
X135299901Y-65542993D01*
X135234075Y-65657007D01*
X135217037Y-65720589D01*
X134476564Y-64980116D01*
X134376267Y-65133632D01*
X134276412Y-65361282D01*
X134215387Y-65602261D01*
X134215385Y-65602270D01*
X134194859Y-65849994D01*
X134194859Y-65850005D01*
X134215385Y-66097729D01*
X134215387Y-66097738D01*
X134276412Y-66338717D01*
X134376266Y-66566364D01*
X134476564Y-66719882D01*
X135217037Y-65979409D01*
X135234075Y-66042993D01*
X135299901Y-66157007D01*
X135392993Y-66250099D01*
X135507007Y-66315925D01*
X135570588Y-66332962D01*
X134829942Y-67073609D01*
X134876768Y-67110055D01*
X134876770Y-67110056D01*
X135095385Y-67228364D01*
X135095396Y-67228369D01*
X135330506Y-67309083D01*
X135575707Y-67350000D01*
X135766000Y-67350000D01*
X135833039Y-67369685D01*
X135878794Y-67422489D01*
X135890000Y-67474000D01*
X135890000Y-89411000D01*
X135870315Y-89478039D01*
X135817511Y-89523794D01*
X135766000Y-89535000D01*
X120139000Y-89535000D01*
X120071961Y-89515315D01*
X120026206Y-89462511D01*
X120015000Y-89411000D01*
X120015000Y-72390000D01*
X118869000Y-72390000D01*
X118801961Y-72370315D01*
X118756206Y-72317511D01*
X118745000Y-72266000D01*
X118745000Y-66629741D01*
X118764685Y-66562702D01*
X118817489Y-66516947D01*
X118886647Y-66507003D01*
X118950203Y-66536028D01*
X118971888Y-66563054D01*
X118973022Y-66562314D01*
X119111833Y-66774782D01*
X119111836Y-66774785D01*
X119280256Y-66957738D01*
X119476491Y-67110474D01*
X119476493Y-67110475D01*
X119694332Y-67228364D01*
X119695190Y-67228828D01*
X119914141Y-67303994D01*
X119928964Y-67309083D01*
X119930386Y-67309571D01*
X120175665Y-67350500D01*
X120424335Y-67350500D01*
X120669614Y-67309571D01*
X120904810Y-67228828D01*
X121123509Y-67110474D01*
X121319744Y-66957738D01*
X121488164Y-66774785D01*
X121624173Y-66566607D01*
X121724063Y-66338881D01*
X121724062Y-66338881D01*
X121725929Y-66334627D01*
X121770885Y-66281141D01*
X121837621Y-66260451D01*
X121904949Y-66279126D01*
X121927166Y-66296756D01*
X126338181Y-70707771D01*
X126371666Y-70769094D01*
X126374500Y-70795452D01*
X126374500Y-77264758D01*
X126354815Y-77331797D01*
X126302011Y-77377552D01*
X126263103Y-77388116D01*
X126195926Y-77394979D01*
X126029749Y-77450045D01*
X126029744Y-77450047D01*
X125880742Y-77541953D01*
X125756953Y-77665742D01*
X125665047Y-77814744D01*
X125665045Y-77814749D01*
X125615434Y-77964466D01*
X125585409Y-78013143D01*
X124902137Y-78696414D01*
X124879333Y-78611306D01*
X124820090Y-78508694D01*
X124736306Y-78424910D01*
X124633694Y-78365667D01*
X124548584Y-78342861D01*
X125258797Y-77632647D01*
X125258797Y-77632645D01*
X125228360Y-77608955D01*
X125228354Y-77608951D01*
X125024302Y-77498523D01*
X125024293Y-77498520D01*
X124804860Y-77423188D01*
X124576007Y-77385000D01*
X124343993Y-77385000D01*
X124115139Y-77423188D01*
X123895706Y-77498520D01*
X123895697Y-77498523D01*
X123691650Y-77608949D01*
X123661200Y-77632647D01*
X124371415Y-78342861D01*
X124286306Y-78365667D01*
X124183694Y-78424910D01*
X124099910Y-78508694D01*
X124040667Y-78611306D01*
X124017861Y-78696415D01*
X123308811Y-77987365D01*
X123294106Y-78009873D01*
X123240959Y-78055230D01*
X123171728Y-78064653D01*
X123108392Y-78035150D01*
X123086489Y-78009873D01*
X123067578Y-77980928D01*
X123028979Y-77921847D01*
X122871784Y-77751087D01*
X122871779Y-77751083D01*
X122871777Y-77751081D01*
X122688634Y-77608535D01*
X122688628Y-77608531D01*
X122484504Y-77498064D01*
X122484495Y-77498061D01*
X122264984Y-77422702D01*
X122057718Y-77388116D01*
X122036049Y-77384500D01*
X121803951Y-77384500D01*
X121782282Y-77388116D01*
X121575015Y-77422702D01*
X121355504Y-77498061D01*
X121355495Y-77498064D01*
X121151371Y-77608531D01*
X121151365Y-77608535D01*
X120968222Y-77751081D01*
X120968219Y-77751084D01*
X120811016Y-77921852D01*
X120684075Y-78116151D01*
X120590842Y-78328699D01*
X120533866Y-78553691D01*
X120533864Y-78553702D01*
X120514700Y-78784993D01*
X120514700Y-78785006D01*
X120533864Y-79016297D01*
X120533866Y-79016308D01*
X120590842Y-79241300D01*
X120684075Y-79453848D01*
X120811016Y-79648147D01*
X120811019Y-79648151D01*
X120811021Y-79648153D01*
X120968216Y-79818913D01*
X120968219Y-79818915D01*
X120968222Y-79818918D01*
X121151365Y-79961464D01*
X121151371Y-79961468D01*
X121151374Y-79961470D01*
X121274399Y-80028048D01*
X121354652Y-80071479D01*
X121355497Y-80071936D01*
X121469487Y-80111068D01*
X121575015Y-80147297D01*
X121575017Y-80147297D01*
X121575019Y-80147298D01*
X121803951Y-80185500D01*
X121803952Y-80185500D01*
X122036048Y-80185500D01*
X122036049Y-80185500D01*
X122264981Y-80147298D01*
X122484503Y-80071936D01*
X122688626Y-79961470D01*
X122689170Y-79961047D01*
X122762135Y-79904256D01*
X122871784Y-79818913D01*
X123028979Y-79648153D01*
X123086490Y-79560124D01*
X123139635Y-79514769D01*
X123208866Y-79505345D01*
X123272202Y-79534846D01*
X123294107Y-79560125D01*
X123308812Y-79582633D01*
X124017861Y-78873584D01*
X124040667Y-78958694D01*
X124099910Y-79061306D01*
X124183694Y-79145090D01*
X124286306Y-79204333D01*
X124371414Y-79227138D01*
X123661201Y-79937351D01*
X123691649Y-79961050D01*
X123895697Y-80071476D01*
X123895706Y-80071479D01*
X124115139Y-80146811D01*
X124343993Y-80185000D01*
X124576007Y-80185000D01*
X124804860Y-80146811D01*
X125024293Y-80071479D01*
X125024301Y-80071476D01*
X125228355Y-79961047D01*
X125258797Y-79937351D01*
X125258798Y-79937350D01*
X124548585Y-79227137D01*
X124633694Y-79204333D01*
X124736306Y-79145090D01*
X124820090Y-79061306D01*
X124879333Y-78958694D01*
X124902138Y-78873585D01*
X125585409Y-79556856D01*
X125615433Y-79605531D01*
X125665046Y-79755253D01*
X125756952Y-79904256D01*
X125880744Y-80028048D01*
X126029747Y-80119954D01*
X126195928Y-80175021D01*
X126298499Y-80185500D01*
X127701500Y-80185499D01*
X127804072Y-80175021D01*
X127970253Y-80119954D01*
X128119256Y-80028048D01*
X128243048Y-79904256D01*
X128334954Y-79755253D01*
X128390021Y-79589072D01*
X128400500Y-79486501D01*
X128400499Y-78083500D01*
X128390021Y-77980928D01*
X128334954Y-77814747D01*
X128243048Y-77665744D01*
X128119256Y-77541952D01*
X127970253Y-77450046D01*
X127970250Y-77450045D01*
X127804073Y-77394979D01*
X127804066Y-77394978D01*
X127736897Y-77388116D01*
X127672206Y-77361720D01*
X127632054Y-77304539D01*
X127625500Y-77264758D01*
X127625500Y-70423393D01*
X127625499Y-70423389D01*
X127601464Y-70302555D01*
X127601463Y-70302548D01*
X127554311Y-70188714D01*
X127554310Y-70188713D01*
X127554307Y-70188707D01*
X127485858Y-70086267D01*
X127485855Y-70086263D01*
X127395637Y-69996045D01*
X127395606Y-69996016D01*
X123911771Y-66512181D01*
X123878286Y-66450858D01*
X123883270Y-66381166D01*
X123925142Y-66325233D01*
X123990606Y-66300816D01*
X123999452Y-66300500D01*
X124074335Y-66300500D01*
X124319614Y-66259571D01*
X124554810Y-66178828D01*
X124773509Y-66060474D01*
X124969744Y-65907738D01*
X125138164Y-65724785D01*
X125274173Y-65516607D01*
X125374063Y-65288881D01*
X125435108Y-65047821D01*
X125440718Y-64980116D01*
X125455643Y-64800005D01*
X125455643Y-64800004D01*
X125453157Y-64770000D01*
X130547345Y-64770000D01*
X130544859Y-64800004D01*
G37*
%TD.AperFunction*%
%TA.AperFunction,Conductor*%
G36*
X119111833Y-64925217D02*
G01*
X118973022Y-65137686D01*
X118971024Y-65136381D01*
X118928767Y-65178904D01*
X118860541Y-65193969D01*
X118795001Y-65169757D01*
X118752954Y-65113955D01*
X118745000Y-65070258D01*
X118745000Y-65000000D01*
X118745000Y-64770000D01*
X119254720Y-64770000D01*
X119111833Y-64925217D01*
G37*
%TD.AperFunction*%
%TD*%
%TA.AperFunction,Conductor*%
%TO.N,GND*%
G36*
X156491222Y-29986546D02*
G01*
X156555336Y-30014310D01*
X156594264Y-30072330D01*
X156600000Y-30109608D01*
X156600000Y-64876000D01*
X156580315Y-64943039D01*
X156527511Y-64988794D01*
X156476000Y-65000000D01*
X137003529Y-65000000D01*
X136942577Y-64982102D01*
X136923434Y-64980117D01*
X136903551Y-65000000D01*
X136196447Y-65000000D01*
X136570057Y-64626390D01*
X136570056Y-64626389D01*
X136523229Y-64589943D01*
X136304614Y-64471635D01*
X136304603Y-64471630D01*
X136069493Y-64390916D01*
X135824293Y-64350000D01*
X135575707Y-64350000D01*
X135330506Y-64390916D01*
X135095396Y-64471630D01*
X135095390Y-64471632D01*
X134876761Y-64589949D01*
X134829942Y-64626388D01*
X134829942Y-64626390D01*
X134973552Y-64770000D01*
X133552656Y-64770000D01*
X133534614Y-64552270D01*
X133534612Y-64552261D01*
X133473588Y-64311285D01*
X133457370Y-64274311D01*
X133448467Y-64205011D01*
X133478444Y-64141898D01*
X133537783Y-64105011D01*
X133570926Y-64100500D01*
X144866608Y-64100500D01*
X144866608Y-64100499D01*
X144952611Y-64083393D01*
X144952612Y-64083393D01*
X144964330Y-64081061D01*
X144987452Y-64076463D01*
X144987457Y-64076460D01*
X144987460Y-64076460D01*
X145020787Y-64062654D01*
X145020786Y-64062654D01*
X145020792Y-64062652D01*
X145101286Y-64029312D01*
X145152509Y-63995084D01*
X145203733Y-63960858D01*
X145290858Y-63873733D01*
X145290859Y-63873731D01*
X145297925Y-63866665D01*
X145297928Y-63866661D01*
X145666204Y-63498384D01*
X145727525Y-63464901D01*
X145785976Y-63466292D01*
X145829932Y-63478070D01*
X145987123Y-63491822D01*
X146049998Y-63497323D01*
X146050000Y-63497323D01*
X146050002Y-63497323D01*
X146105017Y-63492509D01*
X146270068Y-63478070D01*
X146483450Y-63420894D01*
X146683662Y-63327534D01*
X146864620Y-63200826D01*
X147020826Y-63044620D01*
X147147534Y-62863662D01*
X147240894Y-62663450D01*
X147298070Y-62450068D01*
X147317323Y-62230000D01*
X147316379Y-62219215D01*
X147304457Y-62082939D01*
X147298070Y-62009932D01*
X147240894Y-61796550D01*
X147147534Y-61596339D01*
X147042167Y-61445858D01*
X147020827Y-61415381D01*
X146964175Y-61358729D01*
X146864620Y-61259174D01*
X146864616Y-61259171D01*
X146864615Y-61259170D01*
X146683666Y-61132468D01*
X146683662Y-61132466D01*
X146683660Y-61132465D01*
X146483450Y-61039106D01*
X146483447Y-61039105D01*
X146483445Y-61039104D01*
X146270070Y-60981930D01*
X146270062Y-60981929D01*
X146050002Y-60962677D01*
X146049998Y-60962677D01*
X145829937Y-60981929D01*
X145829929Y-60981930D01*
X145616554Y-61039104D01*
X145616548Y-61039107D01*
X145416340Y-61132465D01*
X145416338Y-61132466D01*
X145235377Y-61259175D01*
X145079175Y-61415377D01*
X144952466Y-61596338D01*
X144952465Y-61596340D01*
X144892382Y-61725189D01*
X144846209Y-61777628D01*
X144779016Y-61796780D01*
X144712135Y-61776564D01*
X144667618Y-61725189D01*
X144645408Y-61677561D01*
X144607534Y-61596339D01*
X144502167Y-61445858D01*
X144480827Y-61415381D01*
X144424175Y-61358729D01*
X144324620Y-61259174D01*
X144324616Y-61259171D01*
X144324615Y-61259170D01*
X144143666Y-61132468D01*
X144143662Y-61132466D01*
X144143660Y-61132465D01*
X143943450Y-61039106D01*
X143943447Y-61039105D01*
X143943445Y-61039104D01*
X143730070Y-60981930D01*
X143730062Y-60981929D01*
X143510002Y-60962677D01*
X143509998Y-60962677D01*
X143363288Y-60975512D01*
X143289932Y-60981930D01*
X143289930Y-60981930D01*
X143289926Y-60981931D01*
X143245976Y-60993707D01*
X143176126Y-60992043D01*
X143126203Y-60961613D01*
X142913198Y-60748608D01*
X142913178Y-60748586D01*
X142821733Y-60657141D01*
X142770509Y-60622915D01*
X142719287Y-60588689D01*
X142719286Y-60588688D01*
X142719283Y-60588686D01*
X142719280Y-60588685D01*
X142638792Y-60555347D01*
X142605453Y-60541537D01*
X142595427Y-60539543D01*
X142545029Y-60529518D01*
X142484610Y-60517500D01*
X142484607Y-60517500D01*
X142484606Y-60517500D01*
X122009201Y-60517500D01*
X121942162Y-60497815D01*
X121896407Y-60445011D01*
X121886463Y-60375853D01*
X121915488Y-60312297D01*
X121921520Y-60305819D01*
X123658189Y-58569151D01*
X125580857Y-56646483D01*
X125649311Y-56544035D01*
X125696463Y-56430201D01*
X125720500Y-56309356D01*
X125720500Y-56186143D01*
X125720500Y-54999500D01*
X125740185Y-54932461D01*
X125792989Y-54886706D01*
X125844500Y-54875500D01*
X125914644Y-54875500D01*
X125914646Y-54875500D01*
X126099803Y-54836144D01*
X126272730Y-54759151D01*
X126425871Y-54647888D01*
X126552533Y-54507216D01*
X126647179Y-54343284D01*
X126705674Y-54163256D01*
X126725460Y-53975000D01*
X126705674Y-53786744D01*
X126647179Y-53606716D01*
X126552533Y-53442784D01*
X126477350Y-53359284D01*
X126447120Y-53296292D01*
X126445500Y-53276312D01*
X126445500Y-46418687D01*
X126465185Y-46351648D01*
X126477350Y-46335715D01*
X126495891Y-46315122D01*
X126552533Y-46252216D01*
X126647179Y-46088284D01*
X126705674Y-45908256D01*
X126725460Y-45720000D01*
X126705674Y-45531744D01*
X126647179Y-45351716D01*
X126552533Y-45187784D01*
X126425871Y-45047112D01*
X126425870Y-45047111D01*
X126272734Y-44935851D01*
X126272729Y-44935848D01*
X126099807Y-44858857D01*
X126099803Y-44858856D01*
X126056028Y-44849551D01*
X125994547Y-44816358D01*
X125960770Y-44755195D01*
X125963880Y-44689941D01*
X125980674Y-44638256D01*
X126000460Y-44450000D01*
X125980674Y-44261744D01*
X125922179Y-44081716D01*
X125827533Y-43917784D01*
X125700871Y-43777112D01*
X125700870Y-43777111D01*
X125547734Y-43665851D01*
X125547729Y-43665848D01*
X125374807Y-43588857D01*
X125374802Y-43588855D01*
X125229001Y-43557865D01*
X125189646Y-43549500D01*
X125000354Y-43549500D01*
X124967897Y-43556398D01*
X124815197Y-43588855D01*
X124815192Y-43588857D01*
X124642270Y-43665848D01*
X124642265Y-43665851D01*
X124489129Y-43777111D01*
X124362466Y-43917785D01*
X124267821Y-44081715D01*
X124267818Y-44081722D01*
X124209327Y-44261740D01*
X124209326Y-44261744D01*
X124189540Y-44450000D01*
X124209326Y-44638256D01*
X124209327Y-44638259D01*
X124267818Y-44818277D01*
X124267821Y-44818284D01*
X124362467Y-44982216D01*
X124405772Y-45030310D01*
X124437650Y-45065715D01*
X124467880Y-45128706D01*
X124469500Y-45148687D01*
X124469500Y-55937296D01*
X124449815Y-56004335D01*
X124433181Y-56024977D01*
X119164269Y-61293889D01*
X119164267Y-61293891D01*
X119138078Y-61320080D01*
X119077142Y-61381015D01*
X119054180Y-61415381D01*
X119054179Y-61415382D01*
X119008690Y-61483458D01*
X119008685Y-61483467D01*
X118961540Y-61597287D01*
X118961537Y-61597296D01*
X118955323Y-61628537D01*
X118945573Y-61677561D01*
X118941645Y-61697308D01*
X118941644Y-61697312D01*
X118936311Y-61724119D01*
X118934588Y-61723776D01*
X118911530Y-61780847D01*
X118901984Y-61791568D01*
X118491000Y-62202552D01*
X118491000Y-62179840D01*
X118465036Y-62082939D01*
X118414876Y-61996060D01*
X118343940Y-61925124D01*
X118257061Y-61874964D01*
X118160160Y-61849000D01*
X118137446Y-61849000D01*
X118808188Y-61178258D01*
X118743411Y-61132901D01*
X118743405Y-61132898D01*
X118543284Y-61039580D01*
X118543270Y-61039575D01*
X118329986Y-60982426D01*
X118329976Y-60982424D01*
X118110001Y-60963179D01*
X118109999Y-60963179D01*
X117890023Y-60982424D01*
X117890013Y-60982426D01*
X117746149Y-61020974D01*
X117676299Y-61019311D01*
X117618437Y-60980148D01*
X117590933Y-60915919D01*
X117602520Y-60847017D01*
X117626372Y-60813521D01*
X121593729Y-56846165D01*
X121593733Y-56846163D01*
X121680858Y-56759038D01*
X121744260Y-56664151D01*
X121749312Y-56656591D01*
X121782652Y-56576097D01*
X121796463Y-56542757D01*
X121812778Y-56460734D01*
X121820500Y-56421912D01*
X121820500Y-56298698D01*
X121820500Y-50554500D01*
X121840185Y-50487461D01*
X121892989Y-50441706D01*
X121944500Y-50430500D01*
X122014644Y-50430500D01*
X122014646Y-50430500D01*
X122199803Y-50391144D01*
X122372730Y-50314151D01*
X122525871Y-50202888D01*
X122652533Y-50062216D01*
X122747179Y-49898284D01*
X122805674Y-49718256D01*
X122825460Y-49530000D01*
X122805674Y-49341744D01*
X122747179Y-49161716D01*
X122652533Y-48997784D01*
X122525871Y-48857112D01*
X122525870Y-48857111D01*
X122372734Y-48745851D01*
X122372729Y-48745848D01*
X122199807Y-48668857D01*
X122199802Y-48668855D01*
X122054001Y-48637865D01*
X122014646Y-48629500D01*
X121944500Y-48629500D01*
X121877461Y-48609815D01*
X121831706Y-48557011D01*
X121820500Y-48505500D01*
X121820500Y-43332196D01*
X121840185Y-43265157D01*
X121871614Y-43231878D01*
X121890871Y-43217888D01*
X122017533Y-43077216D01*
X122112179Y-42913284D01*
X122170674Y-42733256D01*
X122190460Y-42545000D01*
X133714540Y-42545000D01*
X133734326Y-42733256D01*
X133734327Y-42733259D01*
X133792818Y-42913277D01*
X133792821Y-42913284D01*
X133887467Y-43077216D01*
X133930772Y-43125310D01*
X133962650Y-43160715D01*
X133992880Y-43223706D01*
X133994500Y-43243687D01*
X133994500Y-48190286D01*
X133974815Y-48257325D01*
X133970821Y-48263167D01*
X133967468Y-48267781D01*
X133872821Y-48431715D01*
X133872818Y-48431722D01*
X133814327Y-48611740D01*
X133814326Y-48611744D01*
X133794540Y-48800000D01*
X133814326Y-48988256D01*
X133814327Y-48988259D01*
X133872818Y-49168277D01*
X133872821Y-49168284D01*
X133967467Y-49332216D01*
X134066735Y-49442464D01*
X134094129Y-49472888D01*
X134247265Y-49584148D01*
X134247270Y-49584151D01*
X134420192Y-49661142D01*
X134420197Y-49661144D01*
X134605354Y-49700500D01*
X134605355Y-49700500D01*
X134794644Y-49700500D01*
X134794646Y-49700500D01*
X134979803Y-49661144D01*
X135152730Y-49584151D01*
X135305871Y-49472888D01*
X135432533Y-49332216D01*
X135527179Y-49168284D01*
X135582069Y-48999351D01*
X135621506Y-48941675D01*
X135685865Y-48914477D01*
X135754711Y-48926392D01*
X135806187Y-48973636D01*
X135817931Y-48999351D01*
X135872818Y-49168277D01*
X135872821Y-49168284D01*
X135967467Y-49332216D01*
X136066735Y-49442464D01*
X136094129Y-49472888D01*
X136247265Y-49584148D01*
X136247270Y-49584151D01*
X136420192Y-49661142D01*
X136420197Y-49661144D01*
X136605354Y-49700500D01*
X136605355Y-49700500D01*
X136794644Y-49700500D01*
X136794646Y-49700500D01*
X136979803Y-49661144D01*
X137152730Y-49584151D01*
X137305871Y-49472888D01*
X137432533Y-49332216D01*
X137527179Y-49168284D01*
X137582069Y-48999351D01*
X137621506Y-48941675D01*
X137685865Y-48914477D01*
X137754711Y-48926392D01*
X137806187Y-48973636D01*
X137817931Y-48999351D01*
X137872818Y-49168277D01*
X137872821Y-49168284D01*
X137967467Y-49332216D01*
X138066735Y-49442464D01*
X138094129Y-49472888D01*
X138247265Y-49584148D01*
X138247270Y-49584151D01*
X138420192Y-49661142D01*
X138420197Y-49661144D01*
X138605354Y-49700500D01*
X138605355Y-49700500D01*
X138794644Y-49700500D01*
X138794646Y-49700500D01*
X138979803Y-49661144D01*
X139152730Y-49584151D01*
X139305871Y-49472888D01*
X139432533Y-49332216D01*
X139527179Y-49168284D01*
X139582069Y-48999351D01*
X139621506Y-48941675D01*
X139685865Y-48914477D01*
X139754711Y-48926392D01*
X139806187Y-48973636D01*
X139817931Y-48999351D01*
X139872818Y-49168277D01*
X139872821Y-49168284D01*
X139967467Y-49332216D01*
X140066735Y-49442464D01*
X140094129Y-49472888D01*
X140247265Y-49584148D01*
X140247270Y-49584151D01*
X140420192Y-49661142D01*
X140420197Y-49661144D01*
X140605354Y-49700500D01*
X140605355Y-49700500D01*
X140794644Y-49700500D01*
X140794646Y-49700500D01*
X140979803Y-49661144D01*
X141152730Y-49584151D01*
X141305871Y-49472888D01*
X141432533Y-49332216D01*
X141527179Y-49168284D01*
X141582069Y-48999351D01*
X141621506Y-48941675D01*
X141685865Y-48914477D01*
X141754711Y-48926392D01*
X141806187Y-48973636D01*
X141817931Y-48999351D01*
X141872818Y-49168277D01*
X141872821Y-49168284D01*
X141967467Y-49332216D01*
X142066735Y-49442464D01*
X142094129Y-49472888D01*
X142247265Y-49584148D01*
X142247270Y-49584151D01*
X142420192Y-49661142D01*
X142420197Y-49661144D01*
X142605354Y-49700500D01*
X142605355Y-49700500D01*
X142794644Y-49700500D01*
X142794646Y-49700500D01*
X142979803Y-49661144D01*
X143152730Y-49584151D01*
X143305871Y-49472888D01*
X143432533Y-49332216D01*
X143527179Y-49168284D01*
X143585674Y-48988256D01*
X143605460Y-48800000D01*
X143585674Y-48611744D01*
X143527179Y-48431716D01*
X143527178Y-48431715D01*
X143527178Y-48431713D01*
X143517112Y-48414277D01*
X143500500Y-48352279D01*
X143500500Y-40703687D01*
X143520185Y-40636648D01*
X143532350Y-40620715D01*
X143562000Y-40587785D01*
X143607533Y-40537216D01*
X143702179Y-40373284D01*
X143760674Y-40193256D01*
X143780460Y-40005000D01*
X143760674Y-39816744D01*
X143702179Y-39636716D01*
X143607533Y-39472784D01*
X143480871Y-39332112D01*
X143480870Y-39332111D01*
X143327734Y-39220851D01*
X143327729Y-39220848D01*
X143154807Y-39143857D01*
X143154802Y-39143855D01*
X143009001Y-39112865D01*
X142969646Y-39104500D01*
X142780354Y-39104500D01*
X142747897Y-39111398D01*
X142595197Y-39143855D01*
X142595192Y-39143857D01*
X142422270Y-39220848D01*
X142422265Y-39220851D01*
X142269129Y-39332111D01*
X142142466Y-39472785D01*
X142047821Y-39636715D01*
X142047818Y-39636722D01*
X141989327Y-39816740D01*
X141989326Y-39816744D01*
X141969540Y-40005000D01*
X141989326Y-40193256D01*
X141989327Y-40193259D01*
X142047818Y-40373277D01*
X142047821Y-40373284D01*
X142142467Y-40537216D01*
X142185772Y-40585310D01*
X142217650Y-40620715D01*
X142247880Y-40683706D01*
X142249500Y-40703687D01*
X142249500Y-47951047D01*
X142229815Y-48018086D01*
X142198386Y-48051365D01*
X142094127Y-48127113D01*
X141967466Y-48267785D01*
X141872821Y-48431715D01*
X141872818Y-48431722D01*
X141817931Y-48600648D01*
X141778493Y-48658324D01*
X141714135Y-48685522D01*
X141645288Y-48673607D01*
X141593813Y-48626363D01*
X141582069Y-48600648D01*
X141527181Y-48431722D01*
X141527180Y-48431721D01*
X141527179Y-48431716D01*
X141432533Y-48267784D01*
X141305871Y-48127112D01*
X141293328Y-48117999D01*
X141152734Y-48015851D01*
X141152732Y-48015850D01*
X141150499Y-48014856D01*
X141108228Y-47996035D01*
X141034063Y-47963014D01*
X140980827Y-47917763D01*
X140960506Y-47850914D01*
X140960500Y-47849735D01*
X140960500Y-45148687D01*
X140980185Y-45081648D01*
X140992350Y-45065715D01*
X141010891Y-45045122D01*
X141067533Y-44982216D01*
X141162179Y-44818284D01*
X141220674Y-44638256D01*
X141240460Y-44450000D01*
X141220674Y-44261744D01*
X141162179Y-44081716D01*
X141067533Y-43917784D01*
X140940871Y-43777112D01*
X140940870Y-43777111D01*
X140787734Y-43665851D01*
X140787729Y-43665848D01*
X140614807Y-43588857D01*
X140614802Y-43588855D01*
X140469001Y-43557865D01*
X140429646Y-43549500D01*
X140240354Y-43549500D01*
X140207897Y-43556398D01*
X140055197Y-43588855D01*
X140055192Y-43588857D01*
X139882270Y-43665848D01*
X139882265Y-43665851D01*
X139729129Y-43777111D01*
X139602466Y-43917785D01*
X139507821Y-44081715D01*
X139507818Y-44081722D01*
X139449327Y-44261740D01*
X139449326Y-44261744D01*
X139429540Y-44450000D01*
X139449326Y-44638256D01*
X139449327Y-44638259D01*
X139507818Y-44818277D01*
X139507821Y-44818284D01*
X139602467Y-44982216D01*
X139645772Y-45030310D01*
X139677650Y-45065715D01*
X139707880Y-45128706D01*
X139709500Y-45148687D01*
X139709500Y-48284731D01*
X139689815Y-48351770D01*
X139637011Y-48397525D01*
X139567853Y-48407469D01*
X139504297Y-48378444D01*
X139478113Y-48346731D01*
X139457899Y-48311719D01*
X139432533Y-48267784D01*
X139305871Y-48127112D01*
X139220460Y-48065057D01*
X139152729Y-48015848D01*
X139129062Y-48005310D01*
X139075826Y-47960059D01*
X139055506Y-47893209D01*
X139055500Y-47892032D01*
X139055500Y-43878687D01*
X139075185Y-43811648D01*
X139087350Y-43795715D01*
X139105891Y-43775122D01*
X139162533Y-43712216D01*
X139257179Y-43548284D01*
X139315674Y-43368256D01*
X139335460Y-43180000D01*
X139315674Y-42991744D01*
X139257179Y-42811716D01*
X139162533Y-42647784D01*
X139035871Y-42507112D01*
X139035870Y-42507111D01*
X138882734Y-42395851D01*
X138882729Y-42395848D01*
X138709807Y-42318857D01*
X138709802Y-42318855D01*
X138564001Y-42287865D01*
X138524646Y-42279500D01*
X138335354Y-42279500D01*
X138302897Y-42286398D01*
X138150197Y-42318855D01*
X138150192Y-42318857D01*
X137977270Y-42395848D01*
X137977265Y-42395851D01*
X137824129Y-42507111D01*
X137697467Y-42647783D01*
X137649513Y-42730842D01*
X137598945Y-42779057D01*
X137530338Y-42792279D01*
X137465474Y-42766311D01*
X137424946Y-42709397D01*
X137418805Y-42655885D01*
X137430460Y-42545000D01*
X137410674Y-42356744D01*
X137352179Y-42176716D01*
X137257533Y-42012784D01*
X137130871Y-41872112D01*
X137130870Y-41872111D01*
X136977734Y-41760851D01*
X136977729Y-41760848D01*
X136804807Y-41683857D01*
X136804802Y-41683855D01*
X136659001Y-41652865D01*
X136619646Y-41644500D01*
X136430354Y-41644500D01*
X136397897Y-41651398D01*
X136245197Y-41683855D01*
X136245192Y-41683857D01*
X136072270Y-41760848D01*
X136072265Y-41760851D01*
X135919129Y-41872111D01*
X135792466Y-42012785D01*
X135697821Y-42176715D01*
X135697818Y-42176722D01*
X135690431Y-42199459D01*
X135650993Y-42257135D01*
X135586635Y-42284333D01*
X135517789Y-42272418D01*
X135466313Y-42225174D01*
X135454569Y-42199459D01*
X135447181Y-42176722D01*
X135447180Y-42176721D01*
X135447179Y-42176716D01*
X135352533Y-42012784D01*
X135225871Y-41872112D01*
X135225870Y-41872111D01*
X135072734Y-41760851D01*
X135072729Y-41760848D01*
X134899807Y-41683857D01*
X134899802Y-41683855D01*
X134754001Y-41652865D01*
X134714646Y-41644500D01*
X134525354Y-41644500D01*
X134492897Y-41651398D01*
X134340197Y-41683855D01*
X134340192Y-41683857D01*
X134167270Y-41760848D01*
X134167265Y-41760851D01*
X134014129Y-41872111D01*
X133887466Y-42012785D01*
X133792821Y-42176715D01*
X133792818Y-42176722D01*
X133746636Y-42318857D01*
X133734326Y-42356744D01*
X133714540Y-42545000D01*
X122190460Y-42545000D01*
X122170674Y-42356744D01*
X122112179Y-42176716D01*
X122017533Y-42012784D01*
X121890871Y-41872112D01*
X121890870Y-41872111D01*
X121737734Y-41760851D01*
X121737729Y-41760848D01*
X121564807Y-41683857D01*
X121564802Y-41683855D01*
X121419001Y-41652865D01*
X121379646Y-41644500D01*
X121190354Y-41644500D01*
X121157897Y-41651398D01*
X121005197Y-41683855D01*
X121005192Y-41683857D01*
X120835434Y-41759440D01*
X120766184Y-41768725D01*
X120734562Y-41759440D01*
X120564803Y-41683857D01*
X120564799Y-41683855D01*
X120418998Y-41652865D01*
X120379643Y-41644500D01*
X120190351Y-41644500D01*
X120157894Y-41651398D01*
X120005194Y-41683855D01*
X120005189Y-41683857D01*
X119832267Y-41760848D01*
X119832262Y-41760851D01*
X119679126Y-41872111D01*
X119552463Y-42012785D01*
X119457818Y-42176715D01*
X119457815Y-42176722D01*
X119411633Y-42318857D01*
X119399323Y-42356744D01*
X119379537Y-42545000D01*
X119399323Y-42733256D01*
X119399324Y-42733259D01*
X119457815Y-42913277D01*
X119457818Y-42913284D01*
X119552464Y-43077216D01*
X119653565Y-43189500D01*
X119679126Y-43217888D01*
X119832262Y-43329148D01*
X119832264Y-43329149D01*
X119832267Y-43329151D01*
X119930938Y-43373082D01*
X119984172Y-43418330D01*
X120004494Y-43485179D01*
X120004500Y-43486360D01*
X120004500Y-54039851D01*
X119984815Y-54106890D01*
X119968181Y-54127532D01*
X118487957Y-55607755D01*
X118426634Y-55641240D01*
X118356942Y-55636256D01*
X118301009Y-55594384D01*
X118282345Y-55558392D01*
X118267181Y-55511721D01*
X118267178Y-55511715D01*
X118264499Y-55507074D01*
X118172533Y-55347784D01*
X118154693Y-55327971D01*
X118124464Y-55264981D01*
X118133089Y-55195646D01*
X118154694Y-55162028D01*
X118172533Y-55142216D01*
X118267179Y-54978284D01*
X118325674Y-54798256D01*
X118345460Y-54610000D01*
X118325674Y-54421744D01*
X118267179Y-54241716D01*
X118172533Y-54077784D01*
X118045871Y-53937112D01*
X118045870Y-53937111D01*
X117892734Y-53825851D01*
X117892729Y-53825848D01*
X117719807Y-53748857D01*
X117719802Y-53748855D01*
X117574001Y-53717865D01*
X117534646Y-53709500D01*
X117345354Y-53709500D01*
X117312897Y-53716398D01*
X117160197Y-53748855D01*
X117160192Y-53748857D01*
X116987270Y-53825848D01*
X116987265Y-53825851D01*
X116834130Y-53937110D01*
X116834126Y-53937114D01*
X116828400Y-53943474D01*
X116768913Y-53980121D01*
X116736252Y-53984500D01*
X115245452Y-53984500D01*
X115178413Y-53964815D01*
X115157771Y-53948181D01*
X111307848Y-50098258D01*
X111274363Y-50036935D01*
X111279347Y-49967243D01*
X111288142Y-49948577D01*
X111317179Y-49898284D01*
X111375674Y-49718256D01*
X111395460Y-49530000D01*
X111386260Y-49442464D01*
X111398830Y-49373734D01*
X111446562Y-49322710D01*
X111509581Y-49305503D01*
X112416252Y-49305503D01*
X112483291Y-49325188D01*
X112508400Y-49346529D01*
X112514126Y-49352888D01*
X112514130Y-49352892D01*
X112667265Y-49464151D01*
X112667270Y-49464154D01*
X112840192Y-49541145D01*
X112840197Y-49541147D01*
X113025354Y-49580503D01*
X113025355Y-49580503D01*
X113214644Y-49580503D01*
X113214646Y-49580503D01*
X113399803Y-49541147D01*
X113572730Y-49464154D01*
X113725871Y-49352891D01*
X113852533Y-49212219D01*
X113947179Y-49048287D01*
X114005674Y-48868259D01*
X114025460Y-48680003D01*
X114005674Y-48491747D01*
X113947179Y-48311719D01*
X113906927Y-48242000D01*
X113890454Y-48174100D01*
X113906927Y-48118002D01*
X113947179Y-48048284D01*
X114005674Y-47868256D01*
X114025460Y-47680000D01*
X114005674Y-47491744D01*
X113947179Y-47311716D01*
X113852533Y-47147784D01*
X113725871Y-47007112D01*
X113725870Y-47007111D01*
X113572734Y-46895851D01*
X113572729Y-46895848D01*
X113399807Y-46818857D01*
X113399802Y-46818855D01*
X113254001Y-46787865D01*
X113214646Y-46779500D01*
X113025354Y-46779500D01*
X112992897Y-46786398D01*
X112840197Y-46818855D01*
X112840192Y-46818857D01*
X112667270Y-46895848D01*
X112667265Y-46895851D01*
X112514130Y-47007110D01*
X112514126Y-47007114D01*
X112508400Y-47013474D01*
X112448913Y-47050121D01*
X112416252Y-47054500D01*
X110974454Y-47054500D01*
X110907415Y-47034815D01*
X110861660Y-46982011D01*
X110851716Y-46912853D01*
X110880741Y-46849297D01*
X110886772Y-46842819D01*
X110910736Y-46818855D01*
X110975858Y-46753733D01*
X110975858Y-46753731D01*
X110986066Y-46743524D01*
X110986068Y-46743521D01*
X115662619Y-42066969D01*
X115723940Y-42033486D01*
X115793632Y-42038470D01*
X115842447Y-42071678D01*
X115949128Y-42190159D01*
X115982991Y-42214762D01*
X116102264Y-42301419D01*
X116102269Y-42301422D01*
X116275191Y-42378413D01*
X116275196Y-42378415D01*
X116460353Y-42417771D01*
X116460354Y-42417771D01*
X116649643Y-42417771D01*
X116649645Y-42417771D01*
X116834802Y-42378415D01*
X117007729Y-42301422D01*
X117160870Y-42190159D01*
X117287532Y-42049487D01*
X117382178Y-41885555D01*
X117440673Y-41705527D01*
X117458320Y-41537615D01*
X117484903Y-41473005D01*
X117493950Y-41462909D01*
X119320857Y-39636004D01*
X119389311Y-39533556D01*
X119395278Y-39519151D01*
X119436463Y-39419722D01*
X119445867Y-39372441D01*
X119458608Y-39308392D01*
X119458609Y-39308392D01*
X119458609Y-39308382D01*
X119460277Y-39300000D01*
X135619540Y-39300000D01*
X135639326Y-39488256D01*
X135639327Y-39488259D01*
X135697818Y-39668277D01*
X135697821Y-39668284D01*
X135792467Y-39832216D01*
X135919129Y-39972888D01*
X136072265Y-40084148D01*
X136072270Y-40084151D01*
X136245192Y-40161142D01*
X136245197Y-40161144D01*
X136430354Y-40200500D01*
X136430355Y-40200500D01*
X136619644Y-40200500D01*
X136619646Y-40200500D01*
X136804803Y-40161144D01*
X136977730Y-40084151D01*
X137130871Y-39972888D01*
X137257533Y-39832216D01*
X137352179Y-39668284D01*
X137410674Y-39488256D01*
X137430460Y-39300000D01*
X137410674Y-39111744D01*
X137352179Y-38931716D01*
X137257533Y-38767784D01*
X137252162Y-38761819D01*
X137182350Y-38684284D01*
X137152120Y-38621292D01*
X137150500Y-38601312D01*
X137150500Y-34598952D01*
X137170185Y-34531913D01*
X137201615Y-34498634D01*
X137305871Y-34422888D01*
X137432533Y-34282216D01*
X137527179Y-34118284D01*
X137585674Y-33938256D01*
X137605460Y-33750000D01*
X137595476Y-33655005D01*
X147084357Y-33655005D01*
X147104890Y-33902812D01*
X147104892Y-33902824D01*
X147165936Y-34143881D01*
X147265826Y-34371606D01*
X147401833Y-34579782D01*
X147401836Y-34579785D01*
X147570256Y-34762738D01*
X147766491Y-34915474D01*
X147985190Y-35033828D01*
X148220386Y-35114571D01*
X148465665Y-35155500D01*
X148714335Y-35155500D01*
X148959614Y-35114571D01*
X149194810Y-35033828D01*
X149413509Y-34915474D01*
X149609744Y-34762738D01*
X149778164Y-34579785D01*
X149914173Y-34371607D01*
X150014063Y-34143881D01*
X150075108Y-33902821D01*
X150076904Y-33881144D01*
X150095643Y-33655005D01*
X150095643Y-33654994D01*
X150075109Y-33407187D01*
X150075107Y-33407175D01*
X150014063Y-33166118D01*
X149914173Y-32938393D01*
X149778166Y-32730217D01*
X149705906Y-32651722D01*
X149609744Y-32547262D01*
X149413509Y-32394526D01*
X149413507Y-32394525D01*
X149413506Y-32394524D01*
X149194811Y-32276172D01*
X149194802Y-32276169D01*
X148959616Y-32195429D01*
X148714335Y-32154500D01*
X148465665Y-32154500D01*
X148220383Y-32195429D01*
X147985197Y-32276169D01*
X147985188Y-32276172D01*
X147766493Y-32394524D01*
X147570257Y-32547261D01*
X147401833Y-32730217D01*
X147265826Y-32938393D01*
X147165936Y-33166118D01*
X147104892Y-33407175D01*
X147104890Y-33407187D01*
X147084357Y-33654994D01*
X147084357Y-33655005D01*
X137595476Y-33655005D01*
X137585674Y-33561744D01*
X137527179Y-33381716D01*
X137432533Y-33217784D01*
X137305871Y-33077112D01*
X137305870Y-33077111D01*
X137152734Y-32965851D01*
X137152729Y-32965848D01*
X136979807Y-32888857D01*
X136979802Y-32888855D01*
X136834001Y-32857865D01*
X136794646Y-32849500D01*
X136605354Y-32849500D01*
X136572897Y-32856398D01*
X136420197Y-32888855D01*
X136420192Y-32888857D01*
X136247270Y-32965848D01*
X136247265Y-32965851D01*
X136094129Y-33077111D01*
X135967466Y-33217785D01*
X135872821Y-33381715D01*
X135872818Y-33381722D01*
X135817422Y-33552216D01*
X135814326Y-33561744D01*
X135794540Y-33750000D01*
X135814326Y-33938256D01*
X135814327Y-33938259D01*
X135872818Y-34118277D01*
X135872819Y-34118279D01*
X135872821Y-34118284D01*
X135882887Y-34135720D01*
X135899500Y-34197718D01*
X135899500Y-38601312D01*
X135879815Y-38668351D01*
X135867650Y-38684284D01*
X135792466Y-38767784D01*
X135697821Y-38931715D01*
X135697818Y-38931722D01*
X135639327Y-39111740D01*
X135639326Y-39111744D01*
X135619540Y-39300000D01*
X119460277Y-39300000D01*
X119460500Y-39298877D01*
X119460500Y-39175664D01*
X119460500Y-34992741D01*
X119460501Y-34992720D01*
X119460501Y-34863391D01*
X119436464Y-34742555D01*
X119436463Y-34742549D01*
X119389312Y-34628715D01*
X119320858Y-34526267D01*
X119320855Y-34526263D01*
X117512928Y-32718338D01*
X117512925Y-32718334D01*
X117512925Y-32718335D01*
X117505858Y-32711268D01*
X117505858Y-32711267D01*
X117418733Y-32624142D01*
X117418732Y-32624141D01*
X117418731Y-32624140D01*
X117367509Y-32589915D01*
X117316286Y-32555688D01*
X117226292Y-32518412D01*
X117202453Y-32508537D01*
X117192427Y-32506543D01*
X117142029Y-32496518D01*
X117081610Y-32484500D01*
X117081607Y-32484500D01*
X117081606Y-32484500D01*
X113814784Y-32484500D01*
X113747745Y-32464815D01*
X113722634Y-32443472D01*
X113706501Y-32425555D01*
X113635871Y-32347112D01*
X113635870Y-32347111D01*
X113482734Y-32235851D01*
X113482729Y-32235848D01*
X113309807Y-32158857D01*
X113309802Y-32158855D01*
X113164001Y-32127865D01*
X113124646Y-32119500D01*
X112935354Y-32119500D01*
X112902897Y-32126398D01*
X112750197Y-32158855D01*
X112750192Y-32158857D01*
X112577270Y-32235848D01*
X112577265Y-32235851D01*
X112424129Y-32347111D01*
X112297466Y-32487785D01*
X112202821Y-32651715D01*
X112202818Y-32651722D01*
X112177314Y-32730217D01*
X112144326Y-32831744D01*
X112124540Y-33020000D01*
X112144326Y-33208256D01*
X112144327Y-33208259D01*
X112202818Y-33388277D01*
X112202821Y-33388284D01*
X112297467Y-33552216D01*
X112390019Y-33655005D01*
X112424129Y-33692888D01*
X112577265Y-33804148D01*
X112577270Y-33804151D01*
X112750192Y-33881142D01*
X112750197Y-33881144D01*
X112935354Y-33920500D01*
X112935355Y-33920500D01*
X113124644Y-33920500D01*
X113124646Y-33920500D01*
X113309803Y-33881144D01*
X113482730Y-33804151D01*
X113544625Y-33759181D01*
X113610431Y-33735702D01*
X113617510Y-33735500D01*
X116132651Y-33735500D01*
X116199690Y-33755185D01*
X116245445Y-33807989D01*
X116255389Y-33877147D01*
X116226364Y-33940703D01*
X116224801Y-33942472D01*
X116107466Y-34072785D01*
X116012821Y-34236715D01*
X116012818Y-34236722D01*
X115960584Y-34397483D01*
X115954326Y-34416744D01*
X115934540Y-34605000D01*
X115954326Y-34793256D01*
X115954327Y-34793259D01*
X116012818Y-34973277D01*
X116012821Y-34973284D01*
X116107467Y-35137216D01*
X116234129Y-35277888D01*
X116387265Y-35389148D01*
X116387270Y-35389151D01*
X116560192Y-35466142D01*
X116560197Y-35466144D01*
X116745354Y-35505500D01*
X116745355Y-35505500D01*
X116934644Y-35505500D01*
X116934646Y-35505500D01*
X117119803Y-35466144D01*
X117292730Y-35389151D01*
X117445871Y-35277888D01*
X117572533Y-35137216D01*
X117667179Y-34973284D01*
X117685950Y-34915511D01*
X117725385Y-34857839D01*
X117789743Y-34830640D01*
X117858590Y-34842554D01*
X117891561Y-34866151D01*
X118173181Y-35147771D01*
X118206666Y-35209094D01*
X118209500Y-35235452D01*
X118209500Y-38547202D01*
X118189815Y-38614241D01*
X118137011Y-38659996D01*
X118067853Y-38669940D01*
X118012615Y-38647521D01*
X117927742Y-38585858D01*
X117927730Y-38585849D01*
X117927728Y-38585848D01*
X117927729Y-38585848D01*
X117754807Y-38508857D01*
X117754802Y-38508855D01*
X117728025Y-38503164D01*
X117666543Y-38469972D01*
X117635875Y-38420192D01*
X117595072Y-38294612D01*
X117595069Y-38294606D01*
X117500424Y-38130675D01*
X117373762Y-37990003D01*
X117319874Y-37950851D01*
X117220625Y-37878742D01*
X117220620Y-37878739D01*
X117047698Y-37801748D01*
X117047693Y-37801746D01*
X116901892Y-37770756D01*
X116862537Y-37762391D01*
X116673245Y-37762391D01*
X116640788Y-37769289D01*
X116488088Y-37801746D01*
X116488083Y-37801748D01*
X116315161Y-37878739D01*
X116315156Y-37878742D01*
X116162020Y-37990002D01*
X116035357Y-38130676D01*
X115940712Y-38294606D01*
X115940709Y-38294613D01*
X115883732Y-38469972D01*
X115882217Y-38474635D01*
X115868903Y-38601312D01*
X115862431Y-38662891D01*
X115871949Y-38753457D01*
X115859379Y-38822186D01*
X115836309Y-38854098D01*
X110267229Y-44423181D01*
X110205906Y-44456666D01*
X110179548Y-44459500D01*
X109514760Y-44459500D01*
X109447721Y-44439815D01*
X109401966Y-44387011D01*
X109392022Y-44317853D01*
X109421047Y-44254297D01*
X109427079Y-44247819D01*
X109461165Y-44213733D01*
X109461165Y-44213731D01*
X109471369Y-44203528D01*
X109471372Y-44203523D01*
X112990424Y-40684474D01*
X113051747Y-40650989D01*
X113078105Y-40648155D01*
X113137296Y-40648155D01*
X113137298Y-40648155D01*
X113322455Y-40608799D01*
X113495382Y-40531806D01*
X113648523Y-40420543D01*
X113775185Y-40279871D01*
X113869831Y-40115939D01*
X113928326Y-39935911D01*
X113948112Y-39747655D01*
X113928326Y-39559399D01*
X113869831Y-39379371D01*
X113819601Y-39292370D01*
X113803128Y-39224469D01*
X113819600Y-39168371D01*
X113857179Y-39103284D01*
X113915674Y-38923256D01*
X113935460Y-38735000D01*
X113915674Y-38546744D01*
X113857179Y-38366716D01*
X113762533Y-38202784D01*
X113635871Y-38062112D01*
X113555935Y-38004035D01*
X113482734Y-37950851D01*
X113482729Y-37950848D01*
X113309807Y-37873857D01*
X113309802Y-37873855D01*
X113164001Y-37842865D01*
X113124646Y-37834500D01*
X112935354Y-37834500D01*
X112902897Y-37841398D01*
X112750197Y-37873855D01*
X112750192Y-37873857D01*
X112577270Y-37950848D01*
X112577265Y-37950851D01*
X112424129Y-38062111D01*
X112297466Y-38202785D01*
X112202821Y-38366715D01*
X112202818Y-38366722D01*
X112156636Y-38508857D01*
X112144326Y-38546744D01*
X112126679Y-38714649D01*
X112100094Y-38779263D01*
X112091039Y-38789368D01*
X108997229Y-41883181D01*
X108935906Y-41916666D01*
X108909548Y-41919500D01*
X103117480Y-41919500D01*
X103050441Y-41899815D01*
X103004686Y-41847011D01*
X102994742Y-41777853D01*
X103010093Y-41733500D01*
X103038754Y-41683857D01*
X103062179Y-41643284D01*
X103120674Y-41463256D01*
X103140460Y-41275000D01*
X103120674Y-41086744D01*
X103062179Y-40906716D01*
X102967533Y-40742784D01*
X102909574Y-40678414D01*
X102884690Y-40650777D01*
X102854460Y-40587785D01*
X102863086Y-40518450D01*
X102889156Y-40480127D01*
X104607467Y-38761819D01*
X104668790Y-38728334D01*
X104695148Y-38725500D01*
X105471608Y-38725500D01*
X105471608Y-38725499D01*
X105548476Y-38710210D01*
X105548477Y-38710210D01*
X105563268Y-38707267D01*
X105592452Y-38701463D01*
X105592457Y-38701460D01*
X105592460Y-38701460D01*
X105625787Y-38687654D01*
X105625786Y-38687654D01*
X105625792Y-38687652D01*
X105706286Y-38654312D01*
X105769953Y-38611770D01*
X105808733Y-38585858D01*
X105895858Y-38498733D01*
X105895859Y-38498730D01*
X105902925Y-38491665D01*
X105902928Y-38491661D01*
X106224353Y-38170235D01*
X106285674Y-38136752D01*
X106344125Y-38138143D01*
X106378780Y-38147428D01*
X106444592Y-38165063D01*
X106615319Y-38180000D01*
X106679999Y-38185659D01*
X106680000Y-38185659D01*
X106680001Y-38185659D01*
X106744681Y-38180000D01*
X106915408Y-38165063D01*
X107143663Y-38103903D01*
X107357830Y-38004035D01*
X107551401Y-37868495D01*
X107718495Y-37701401D01*
X107848425Y-37515842D01*
X107903002Y-37472217D01*
X107972500Y-37465023D01*
X108034855Y-37496546D01*
X108051575Y-37515842D01*
X108181500Y-37701395D01*
X108181505Y-37701401D01*
X108348599Y-37868495D01*
X108425135Y-37922086D01*
X108542165Y-38004032D01*
X108542167Y-38004033D01*
X108542170Y-38004035D01*
X108756337Y-38103903D01*
X108984592Y-38165063D01*
X109155319Y-38180000D01*
X109219999Y-38185659D01*
X109220000Y-38185659D01*
X109220001Y-38185659D01*
X109284681Y-38180000D01*
X109455408Y-38165063D01*
X109683663Y-38103903D01*
X109897830Y-38004035D01*
X110091401Y-37868495D01*
X110258495Y-37701401D01*
X110394035Y-37507830D01*
X110493903Y-37293663D01*
X110555063Y-37065408D01*
X110575659Y-36830000D01*
X110555063Y-36594592D01*
X110493903Y-36366337D01*
X110394035Y-36152171D01*
X110388425Y-36144158D01*
X110258494Y-35958597D01*
X110091402Y-35791506D01*
X110091395Y-35791501D01*
X109897834Y-35655967D01*
X109897830Y-35655965D01*
X109826727Y-35622809D01*
X109683663Y-35556097D01*
X109683659Y-35556096D01*
X109683655Y-35556094D01*
X109455413Y-35494938D01*
X109455403Y-35494936D01*
X109220001Y-35474341D01*
X109219999Y-35474341D01*
X108984596Y-35494936D01*
X108984586Y-35494938D01*
X108756344Y-35556094D01*
X108756335Y-35556098D01*
X108542171Y-35655964D01*
X108542169Y-35655965D01*
X108348597Y-35791505D01*
X108181505Y-35958597D01*
X108051575Y-36144158D01*
X107996998Y-36187783D01*
X107927500Y-36194977D01*
X107865145Y-36163454D01*
X107848425Y-36144158D01*
X107718494Y-35958597D01*
X107551402Y-35791506D01*
X107551395Y-35791501D01*
X107357834Y-35655967D01*
X107357830Y-35655965D01*
X107286727Y-35622809D01*
X107143663Y-35556097D01*
X107143659Y-35556096D01*
X107143655Y-35556094D01*
X106915413Y-35494938D01*
X106915403Y-35494936D01*
X106680001Y-35474341D01*
X106679999Y-35474341D01*
X106444596Y-35494936D01*
X106444586Y-35494938D01*
X106216344Y-35556094D01*
X106216335Y-35556098D01*
X106002171Y-35655964D01*
X106002169Y-35655965D01*
X105808597Y-35791505D01*
X105641505Y-35958597D01*
X105511575Y-36144158D01*
X105456998Y-36187783D01*
X105387500Y-36194977D01*
X105325145Y-36163454D01*
X105308425Y-36144158D01*
X105178494Y-35958597D01*
X105011402Y-35791506D01*
X105011395Y-35791501D01*
X104817834Y-35655967D01*
X104817830Y-35655965D01*
X104746727Y-35622809D01*
X104603663Y-35556097D01*
X104603659Y-35556096D01*
X104603655Y-35556094D01*
X104375413Y-35494938D01*
X104375403Y-35494936D01*
X104140001Y-35474341D01*
X104139999Y-35474341D01*
X103904596Y-35494936D01*
X103904586Y-35494938D01*
X103676344Y-35556094D01*
X103676335Y-35556098D01*
X103462171Y-35655964D01*
X103462169Y-35655965D01*
X103268600Y-35791503D01*
X103146284Y-35913819D01*
X103084961Y-35947303D01*
X103015269Y-35942319D01*
X102959336Y-35900447D01*
X102942421Y-35869470D01*
X102893354Y-35737913D01*
X102893350Y-35737906D01*
X102807190Y-35622812D01*
X102807187Y-35622809D01*
X102692093Y-35536649D01*
X102692086Y-35536645D01*
X102557379Y-35486403D01*
X102557372Y-35486401D01*
X102497844Y-35480000D01*
X101850000Y-35480000D01*
X101850000Y-36396988D01*
X101792993Y-36364075D01*
X101665826Y-36330000D01*
X101534174Y-36330000D01*
X101407007Y-36364075D01*
X101350000Y-36396988D01*
X101350000Y-35480000D01*
X100702155Y-35480000D01*
X100642627Y-35486401D01*
X100642620Y-35486403D01*
X100507913Y-35536645D01*
X100507906Y-35536649D01*
X100392812Y-35622809D01*
X100392809Y-35622812D01*
X100306649Y-35737906D01*
X100306645Y-35737913D01*
X100256403Y-35872620D01*
X100256401Y-35872627D01*
X100250000Y-35932155D01*
X100250000Y-36580000D01*
X101166988Y-36580000D01*
X101134075Y-36637007D01*
X101100000Y-36764174D01*
X101100000Y-36895826D01*
X101134075Y-37022993D01*
X101166988Y-37080000D01*
X100250000Y-37080000D01*
X100250000Y-37727844D01*
X100256401Y-37787372D01*
X100256403Y-37787379D01*
X100306645Y-37922086D01*
X100306649Y-37922093D01*
X100392809Y-38037187D01*
X100392812Y-38037190D01*
X100507906Y-38123350D01*
X100507913Y-38123354D01*
X100642620Y-38173596D01*
X100642627Y-38173598D01*
X100702155Y-38179999D01*
X100702172Y-38180000D01*
X101350000Y-38180000D01*
X101350000Y-37263012D01*
X101407007Y-37295925D01*
X101534174Y-37330000D01*
X101665826Y-37330000D01*
X101792993Y-37295925D01*
X101850000Y-37263012D01*
X101850000Y-38180000D01*
X102497828Y-38180000D01*
X102497844Y-38179999D01*
X102557372Y-38173598D01*
X102557379Y-38173596D01*
X102692086Y-38123354D01*
X102692093Y-38123350D01*
X102807187Y-38037190D01*
X102807190Y-38037187D01*
X102893350Y-37922093D01*
X102893354Y-37922086D01*
X102942422Y-37790529D01*
X102984293Y-37734595D01*
X103049757Y-37710178D01*
X103118030Y-37725030D01*
X103146285Y-37746181D01*
X103268597Y-37868493D01*
X103268603Y-37868498D01*
X103283229Y-37878739D01*
X103419873Y-37974418D01*
X103463497Y-38028994D01*
X103470691Y-38098492D01*
X103439168Y-38160847D01*
X103436430Y-38163673D01*
X102267993Y-39332111D01*
X101111269Y-40488835D01*
X101111267Y-40488837D01*
X101081654Y-40518450D01*
X101024142Y-40575961D01*
X100996874Y-40616771D01*
X100996873Y-40616770D01*
X100955689Y-40678407D01*
X100955685Y-40678414D01*
X100908540Y-40792233D01*
X100908535Y-40792249D01*
X100885767Y-40906717D01*
X100884500Y-40913086D01*
X100884500Y-46716911D01*
X100891493Y-46752071D01*
X100891492Y-46752071D01*
X100908535Y-46837749D01*
X100908537Y-46837757D01*
X100922347Y-46871097D01*
X100922347Y-46871098D01*
X100955685Y-46951586D01*
X100955690Y-46951595D01*
X100974337Y-46979501D01*
X100974338Y-46979502D01*
X101024140Y-47054036D01*
X101024141Y-47054037D01*
X101024142Y-47054038D01*
X101111267Y-47141163D01*
X101111268Y-47141163D01*
X101118335Y-47148230D01*
X101118334Y-47148230D01*
X101118338Y-47148233D01*
X103985958Y-50015855D01*
X103985962Y-50015858D01*
X104088403Y-50084308D01*
X104088410Y-50084312D01*
X104152199Y-50110734D01*
X104202243Y-50131463D01*
X104222292Y-50135451D01*
X104255891Y-50142134D01*
X104323087Y-50155501D01*
X104323089Y-50155501D01*
X104452416Y-50155501D01*
X104452436Y-50155500D01*
X107208592Y-50155500D01*
X107275631Y-50175185D01*
X107321386Y-50227989D01*
X107330209Y-50255309D01*
X107348535Y-50347445D01*
X107348540Y-50347461D01*
X107395685Y-50461280D01*
X107395690Y-50461289D01*
X107429914Y-50512507D01*
X107429915Y-50512509D01*
X107464140Y-50563731D01*
X107464141Y-50563732D01*
X107464142Y-50563733D01*
X107551267Y-50650858D01*
X107551268Y-50650858D01*
X107558335Y-50657925D01*
X107558334Y-50657925D01*
X107558338Y-50657928D01*
X112541263Y-55640855D01*
X112541267Y-55640858D01*
X112643708Y-55709308D01*
X112643715Y-55709312D01*
X112705261Y-55734805D01*
X112757548Y-55756463D01*
X112777597Y-55760451D01*
X112811196Y-55767134D01*
X112878392Y-55780501D01*
X112878394Y-55780501D01*
X113007721Y-55780501D01*
X113007741Y-55780500D01*
X116404548Y-55780500D01*
X116471587Y-55800185D01*
X116492229Y-55816819D01*
X116501038Y-55825628D01*
X116534523Y-55886951D01*
X116536678Y-55900347D01*
X116540562Y-55937296D01*
X116554326Y-56068256D01*
X116554327Y-56068259D01*
X116612818Y-56248277D01*
X116612821Y-56248284D01*
X116707467Y-56412216D01*
X116751153Y-56460734D01*
X116834129Y-56552888D01*
X116987265Y-56664148D01*
X116987266Y-56664148D01*
X116987270Y-56664151D01*
X117129867Y-56727640D01*
X117183104Y-56772890D01*
X117203425Y-56839739D01*
X117184380Y-56906963D01*
X117167112Y-56928600D01*
X116972532Y-57123181D01*
X116911209Y-57156666D01*
X116884851Y-57159500D01*
X114368748Y-57159500D01*
X114301709Y-57139815D01*
X114276600Y-57118474D01*
X114270873Y-57112114D01*
X114270869Y-57112110D01*
X114117734Y-57000851D01*
X114117729Y-57000848D01*
X113944807Y-56923857D01*
X113944802Y-56923855D01*
X113799001Y-56892865D01*
X113759646Y-56884500D01*
X113570354Y-56884500D01*
X113537897Y-56891398D01*
X113385197Y-56923855D01*
X113385192Y-56923857D01*
X113212270Y-57000848D01*
X113212265Y-57000851D01*
X113059129Y-57112111D01*
X112932466Y-57252785D01*
X112837821Y-57416715D01*
X112837818Y-57416722D01*
X112779327Y-57596740D01*
X112779326Y-57596744D01*
X112759540Y-57785000D01*
X112779326Y-57973256D01*
X112779327Y-57973259D01*
X112837818Y-58153277D01*
X112837821Y-58153284D01*
X112932467Y-58317216D01*
X113053401Y-58451526D01*
X113059129Y-58457888D01*
X113212265Y-58569148D01*
X113212270Y-58569151D01*
X113385192Y-58646142D01*
X113385197Y-58646144D01*
X113570354Y-58685500D01*
X113570355Y-58685500D01*
X113759644Y-58685500D01*
X113759646Y-58685500D01*
X113944803Y-58646144D01*
X114117730Y-58569151D01*
X114270871Y-58457888D01*
X114273788Y-58454647D01*
X114276600Y-58451526D01*
X114336087Y-58414879D01*
X114368748Y-58410500D01*
X117256911Y-58410500D01*
X117317333Y-58398481D01*
X117377756Y-58386463D01*
X117427800Y-58365734D01*
X117491590Y-58339312D01*
X117542813Y-58305084D01*
X117594037Y-58270858D01*
X117681162Y-58183733D01*
X117681164Y-58183729D01*
X117821009Y-58043885D01*
X117821008Y-58043885D01*
X117879577Y-57985316D01*
X117879576Y-57985316D01*
X120357821Y-55507072D01*
X120419142Y-55473589D01*
X120488834Y-55478573D01*
X120544767Y-55520445D01*
X120569184Y-55585909D01*
X120569500Y-55594755D01*
X120569500Y-56049853D01*
X120549815Y-56116892D01*
X120533181Y-56137534D01*
X116372534Y-60298181D01*
X116311211Y-60331666D01*
X116284853Y-60334500D01*
X113329380Y-60334500D01*
X113268962Y-60346518D01*
X113225734Y-60355116D01*
X113208537Y-60358537D01*
X113094707Y-60405687D01*
X113094695Y-60405694D01*
X113079596Y-60415783D01*
X113012918Y-60436660D01*
X112945538Y-60418174D01*
X112898849Y-60366195D01*
X112898323Y-60365081D01*
X112890131Y-60347513D01*
X112890129Y-60347510D01*
X112839025Y-60274526D01*
X112160000Y-60953551D01*
X112160000Y-60947339D01*
X112132741Y-60845606D01*
X112080080Y-60754394D01*
X112005606Y-60679920D01*
X111914394Y-60627259D01*
X111812661Y-60600000D01*
X111806448Y-60600000D01*
X112485472Y-59920974D01*
X112412478Y-59869863D01*
X112206331Y-59773735D01*
X112206317Y-59773730D01*
X111986610Y-59714860D01*
X111986599Y-59714858D01*
X111760002Y-59695034D01*
X111759998Y-59695034D01*
X111533400Y-59714858D01*
X111533389Y-59714860D01*
X111313682Y-59773730D01*
X111313673Y-59773734D01*
X111107516Y-59869866D01*
X111107512Y-59869868D01*
X111034526Y-59920973D01*
X111034526Y-59920974D01*
X111713553Y-60600000D01*
X111707339Y-60600000D01*
X111605606Y-60627259D01*
X111514394Y-60679920D01*
X111439920Y-60754394D01*
X111387259Y-60845606D01*
X111360000Y-60947339D01*
X111360000Y-60953552D01*
X110680974Y-60274526D01*
X110680973Y-60274526D01*
X110629868Y-60347512D01*
X110629866Y-60347516D01*
X110533734Y-60553673D01*
X110533730Y-60553682D01*
X110474860Y-60773389D01*
X110474858Y-60773400D01*
X110455034Y-60999997D01*
X110455034Y-61000002D01*
X110474858Y-61226599D01*
X110474860Y-61226610D01*
X110534290Y-61448407D01*
X110532627Y-61518257D01*
X110493464Y-61576119D01*
X110429236Y-61603623D01*
X110414515Y-61604500D01*
X109515889Y-61604500D01*
X109455471Y-61616518D01*
X109412243Y-61625116D01*
X109395046Y-61628537D01*
X109276694Y-61677561D01*
X109229241Y-61687000D01*
X109125354Y-61687000D01*
X109092897Y-61693898D01*
X108940197Y-61726355D01*
X108940192Y-61726357D01*
X108767270Y-61803348D01*
X108767265Y-61803351D01*
X108614129Y-61914611D01*
X108487466Y-62055285D01*
X108392821Y-62219215D01*
X108392818Y-62219222D01*
X108334327Y-62399240D01*
X108334326Y-62399244D01*
X108314540Y-62587500D01*
X108334326Y-62775756D01*
X108334327Y-62775759D01*
X108392818Y-62955777D01*
X108392821Y-62955784D01*
X108487467Y-63119716D01*
X108560499Y-63200826D01*
X108614129Y-63260388D01*
X108767265Y-63371648D01*
X108767270Y-63371651D01*
X108940192Y-63448642D01*
X108940197Y-63448644D01*
X109125354Y-63488000D01*
X109125355Y-63488000D01*
X109314644Y-63488000D01*
X109314646Y-63488000D01*
X109499803Y-63448644D01*
X109672730Y-63371651D01*
X109825871Y-63260388D01*
X109952533Y-63119716D01*
X109995890Y-63044620D01*
X110047177Y-62955788D01*
X110047177Y-62955786D01*
X110047179Y-62955784D01*
X110051923Y-62941181D01*
X110091358Y-62883508D01*
X110155716Y-62856309D01*
X110169854Y-62855500D01*
X110335500Y-62855500D01*
X110402539Y-62875185D01*
X110448294Y-62927989D01*
X110459500Y-62979500D01*
X110459500Y-64347870D01*
X110459501Y-64347876D01*
X110465908Y-64407483D01*
X110516202Y-64542328D01*
X110516206Y-64542335D01*
X110602452Y-64657544D01*
X110602455Y-64657547D01*
X110717664Y-64743793D01*
X110717671Y-64743797D01*
X110760625Y-64759818D01*
X110816559Y-64801689D01*
X110840976Y-64867153D01*
X110826124Y-64935426D01*
X110776719Y-64984832D01*
X110717292Y-65000000D01*
X100124000Y-65000000D01*
X100056961Y-64980315D01*
X100011206Y-64927511D01*
X100000000Y-64876000D01*
X100000000Y-32106286D01*
X101649500Y-32106286D01*
X101670020Y-32235848D01*
X101682754Y-32316243D01*
X101745234Y-32508537D01*
X101748444Y-32518414D01*
X101844951Y-32707820D01*
X101969890Y-32879786D01*
X102120213Y-33030109D01*
X102292179Y-33155048D01*
X102292181Y-33155049D01*
X102292184Y-33155051D01*
X102481588Y-33251557D01*
X102683757Y-33317246D01*
X102893713Y-33350500D01*
X102893714Y-33350500D01*
X103106286Y-33350500D01*
X103106287Y-33350500D01*
X103316243Y-33317246D01*
X103518412Y-33251557D01*
X103707816Y-33155051D01*
X103815092Y-33077111D01*
X103879786Y-33030109D01*
X103879788Y-33030106D01*
X103879792Y-33030104D01*
X104030104Y-32879792D01*
X104030106Y-32879788D01*
X104030109Y-32879786D01*
X104155048Y-32707820D01*
X104155047Y-32707820D01*
X104155051Y-32707816D01*
X104251557Y-32518412D01*
X104317246Y-32316243D01*
X104350500Y-32106287D01*
X104350500Y-31893713D01*
X104317246Y-31683757D01*
X104251557Y-31481588D01*
X104199578Y-31379573D01*
X125102517Y-31379573D01*
X125142724Y-31736427D01*
X125142727Y-31736441D01*
X125222642Y-32086575D01*
X125222645Y-32086583D01*
X125341257Y-32425555D01*
X125497077Y-32749117D01*
X125497079Y-32749120D01*
X125688149Y-33053207D01*
X125912065Y-33333989D01*
X126166011Y-33587935D01*
X126446793Y-33811851D01*
X126750880Y-34002921D01*
X127074448Y-34158744D01*
X127185830Y-34197718D01*
X127413416Y-34277354D01*
X127413424Y-34277357D01*
X127413427Y-34277357D01*
X127413428Y-34277358D01*
X127763558Y-34357273D01*
X127763567Y-34357274D01*
X127763572Y-34357275D01*
X128001474Y-34384079D01*
X128120427Y-34397482D01*
X128120430Y-34397483D01*
X128479567Y-34397483D01*
X128479570Y-34397483D01*
X128479571Y-34397482D01*
X128709233Y-34371606D01*
X128836427Y-34357275D01*
X128836430Y-34357274D01*
X128836442Y-34357273D01*
X129186572Y-34277358D01*
X129525552Y-34158744D01*
X129849120Y-34002921D01*
X130153207Y-33811851D01*
X130433989Y-33587935D01*
X130687935Y-33333989D01*
X130911851Y-33053207D01*
X131102921Y-32749120D01*
X131258744Y-32425552D01*
X131370460Y-32106286D01*
X152249500Y-32106286D01*
X152270020Y-32235848D01*
X152282754Y-32316243D01*
X152345234Y-32508537D01*
X152348444Y-32518414D01*
X152444951Y-32707820D01*
X152569890Y-32879786D01*
X152720213Y-33030109D01*
X152892179Y-33155048D01*
X152892181Y-33155049D01*
X152892184Y-33155051D01*
X153081588Y-33251557D01*
X153283757Y-33317246D01*
X153493713Y-33350500D01*
X153493714Y-33350500D01*
X153706286Y-33350500D01*
X153706287Y-33350500D01*
X153916243Y-33317246D01*
X154118412Y-33251557D01*
X154307816Y-33155051D01*
X154415092Y-33077111D01*
X154479786Y-33030109D01*
X154479788Y-33030106D01*
X154479792Y-33030104D01*
X154630104Y-32879792D01*
X154630106Y-32879788D01*
X154630109Y-32879786D01*
X154755048Y-32707820D01*
X154755047Y-32707820D01*
X154755051Y-32707816D01*
X154851557Y-32518412D01*
X154917246Y-32316243D01*
X154950500Y-32106287D01*
X154950500Y-31893713D01*
X154917246Y-31683757D01*
X154851557Y-31481588D01*
X154755051Y-31292184D01*
X154755049Y-31292181D01*
X154755048Y-31292179D01*
X154630109Y-31120213D01*
X154479786Y-30969890D01*
X154307820Y-30844951D01*
X154118414Y-30748444D01*
X154118413Y-30748443D01*
X154118412Y-30748443D01*
X153916243Y-30682754D01*
X153916241Y-30682753D01*
X153916240Y-30682753D01*
X153754957Y-30657208D01*
X153706287Y-30649500D01*
X153493713Y-30649500D01*
X153445042Y-30657208D01*
X153283760Y-30682753D01*
X153081585Y-30748444D01*
X152892179Y-30844951D01*
X152720213Y-30969890D01*
X152569890Y-31120213D01*
X152444951Y-31292179D01*
X152348444Y-31481585D01*
X152282753Y-31683760D01*
X152249500Y-31893713D01*
X152249500Y-32106286D01*
X131370460Y-32106286D01*
X131377358Y-32086572D01*
X131457273Y-31736442D01*
X131497483Y-31379567D01*
X131500000Y-31200000D01*
X131497483Y-31020433D01*
X131477711Y-30844951D01*
X131457275Y-30663572D01*
X131457274Y-30663567D01*
X131457273Y-30663558D01*
X131377358Y-30313428D01*
X131258744Y-29974448D01*
X131102921Y-29650880D01*
X130911851Y-29346793D01*
X130687935Y-29066011D01*
X130433989Y-28812065D01*
X130153207Y-28588149D01*
X129849120Y-28397079D01*
X129849117Y-28397077D01*
X129525555Y-28241257D01*
X129186583Y-28122645D01*
X129186575Y-28122642D01*
X128923974Y-28062705D01*
X128836442Y-28042727D01*
X128836439Y-28042726D01*
X128836427Y-28042724D01*
X128479573Y-28002517D01*
X128479567Y-28002517D01*
X128120433Y-28002517D01*
X128120426Y-28002517D01*
X127763572Y-28042724D01*
X127763558Y-28042727D01*
X127413424Y-28122642D01*
X127413416Y-28122645D01*
X127074444Y-28241257D01*
X126750882Y-28397077D01*
X126446794Y-28588148D01*
X126166011Y-28812064D01*
X125912064Y-29066011D01*
X125688148Y-29346794D01*
X125497077Y-29650882D01*
X125341257Y-29974444D01*
X125222645Y-30313416D01*
X125222642Y-30313424D01*
X125142727Y-30663558D01*
X125142724Y-30663572D01*
X125102517Y-31020426D01*
X125102517Y-31379573D01*
X104199578Y-31379573D01*
X104155051Y-31292184D01*
X104155049Y-31292181D01*
X104155048Y-31292179D01*
X104030109Y-31120213D01*
X103879786Y-30969890D01*
X103707820Y-30844951D01*
X103518414Y-30748444D01*
X103518413Y-30748443D01*
X103518412Y-30748443D01*
X103316243Y-30682754D01*
X103316241Y-30682753D01*
X103316240Y-30682753D01*
X103154957Y-30657208D01*
X103106287Y-30649500D01*
X102893713Y-30649500D01*
X102845042Y-30657208D01*
X102683760Y-30682753D01*
X102481585Y-30748444D01*
X102292179Y-30844951D01*
X102120213Y-30969890D01*
X101969890Y-31120213D01*
X101844951Y-31292179D01*
X101748444Y-31481585D01*
X101682753Y-31683760D01*
X101649500Y-31893713D01*
X101649500Y-32106286D01*
X100000000Y-32106286D01*
X100000000Y-30109608D01*
X100019685Y-30042569D01*
X100072489Y-29996814D01*
X100108775Y-29986547D01*
X128284783Y-26501882D01*
X128315217Y-26501882D01*
X156491222Y-29986546D01*
G37*
%TD.AperFunction*%
%TA.AperFunction,Conductor*%
G36*
X114349918Y-61605185D02*
G01*
X114395673Y-61657989D01*
X114405617Y-61727147D01*
X114395262Y-61761902D01*
X114383007Y-61788185D01*
X114379105Y-61796552D01*
X114379104Y-61796554D01*
X114321930Y-62009929D01*
X114321929Y-62009937D01*
X114302677Y-62229997D01*
X114302677Y-62230002D01*
X114321929Y-62450062D01*
X114321930Y-62450070D01*
X114379104Y-62663445D01*
X114379105Y-62663447D01*
X114379106Y-62663450D01*
X114456683Y-62829815D01*
X114472466Y-62863662D01*
X114472468Y-62863666D01*
X114599170Y-63044615D01*
X114599175Y-63044621D01*
X114755378Y-63200824D01*
X114755384Y-63200829D01*
X114936333Y-63327531D01*
X114936335Y-63327532D01*
X114936338Y-63327534D01*
X115136550Y-63420894D01*
X115349932Y-63478070D01*
X115507123Y-63491822D01*
X115569998Y-63497323D01*
X115570000Y-63497323D01*
X115570002Y-63497323D01*
X115625017Y-63492509D01*
X115790068Y-63478070D01*
X116003450Y-63420894D01*
X116203662Y-63327534D01*
X116384620Y-63200826D01*
X116540826Y-63044620D01*
X116667534Y-62863662D01*
X116727894Y-62734218D01*
X116774066Y-62681779D01*
X116841259Y-62662627D01*
X116908141Y-62682843D01*
X116952658Y-62734219D01*
X117012898Y-62863405D01*
X117012901Y-62863411D01*
X117058258Y-62928187D01*
X117058258Y-62928188D01*
X117729000Y-62257446D01*
X117729000Y-62280160D01*
X117754964Y-62377061D01*
X117805124Y-62463940D01*
X117876060Y-62534876D01*
X117962939Y-62585036D01*
X118059840Y-62611000D01*
X118082553Y-62611000D01*
X117411810Y-63281740D01*
X117476590Y-63327099D01*
X117476592Y-63327100D01*
X117676715Y-63420419D01*
X117676729Y-63420424D01*
X117890013Y-63477573D01*
X117890023Y-63477575D01*
X118109999Y-63496821D01*
X118110001Y-63496821D01*
X118329976Y-63477575D01*
X118329986Y-63477573D01*
X118543270Y-63420424D01*
X118543284Y-63420419D01*
X118743407Y-63327100D01*
X118743409Y-63327099D01*
X118816968Y-63275593D01*
X118883174Y-63253266D01*
X118950942Y-63270276D01*
X118998755Y-63321224D01*
X119002648Y-63329704D01*
X119008688Y-63344285D01*
X119008690Y-63344289D01*
X119042914Y-63395507D01*
X119042915Y-63395509D01*
X119077141Y-63446733D01*
X119168586Y-63538178D01*
X119168608Y-63538198D01*
X119857259Y-64226849D01*
X119890744Y-64288172D01*
X119885760Y-64357864D01*
X119843888Y-64413797D01*
X119809842Y-64431811D01*
X119695194Y-64471170D01*
X119695188Y-64471172D01*
X119476493Y-64589524D01*
X119280257Y-64742261D01*
X119254721Y-64770000D01*
X118745000Y-64770000D01*
X118745000Y-65000000D01*
X112802708Y-65000000D01*
X112735669Y-64980315D01*
X112689914Y-64927511D01*
X112679970Y-64858353D01*
X112708995Y-64794797D01*
X112759375Y-64759818D01*
X112802328Y-64743797D01*
X112802327Y-64743797D01*
X112802331Y-64743796D01*
X112917546Y-64657546D01*
X113003796Y-64542331D01*
X113054091Y-64407483D01*
X113060500Y-64347873D01*
X113060499Y-62652128D01*
X113054091Y-62592517D01*
X113043146Y-62563173D01*
X113003797Y-62457671D01*
X113003795Y-62457668D01*
X112998044Y-62449986D01*
X112971482Y-62414503D01*
X112947065Y-62349039D01*
X112961917Y-62280766D01*
X112983064Y-62252515D01*
X113613762Y-61621819D01*
X113675085Y-61588334D01*
X113701443Y-61585500D01*
X114282879Y-61585500D01*
X114349918Y-61605185D01*
G37*
%TD.AperFunction*%
%TA.AperFunction,Conductor*%
G36*
X130596113Y-64120185D02*
G01*
X130641868Y-64172989D01*
X130651812Y-64242147D01*
X130642630Y-64274311D01*
X130626411Y-64311285D01*
X130565387Y-64552261D01*
X130565385Y-64552270D01*
X130547344Y-64770000D01*
X125453158Y-64770000D01*
X125435109Y-64552187D01*
X125435107Y-64552175D01*
X125414711Y-64471635D01*
X125374063Y-64311119D01*
X125357916Y-64274309D01*
X125349014Y-64205011D01*
X125378991Y-64141898D01*
X125438330Y-64105011D01*
X125471473Y-64100500D01*
X130529074Y-64100500D01*
X130596113Y-64120185D01*
G37*
%TD.AperFunction*%
%TA.AperFunction,Conductor*%
G36*
X137152579Y-61788185D02*
G01*
X137198334Y-61840989D01*
X137208278Y-61910147D01*
X137205315Y-61924594D01*
X137182425Y-62010017D01*
X137182424Y-62010023D01*
X137163179Y-62229999D01*
X137163179Y-62230000D01*
X137182424Y-62449976D01*
X137182426Y-62449986D01*
X137239575Y-62663270D01*
X137239578Y-62663279D01*
X137244156Y-62673095D01*
X137254648Y-62742172D01*
X137226129Y-62805956D01*
X137167652Y-62844196D01*
X137131774Y-62849500D01*
X127028226Y-62849500D01*
X126961187Y-62829815D01*
X126915432Y-62777011D01*
X126905488Y-62707853D01*
X126915844Y-62673095D01*
X126920421Y-62663279D01*
X126920424Y-62663270D01*
X126977573Y-62449986D01*
X126977575Y-62449976D01*
X126996821Y-62230000D01*
X126996821Y-62229999D01*
X126977575Y-62010023D01*
X126977574Y-62010017D01*
X126954685Y-61924594D01*
X126956348Y-61854744D01*
X126995510Y-61796881D01*
X127059739Y-61769377D01*
X127074460Y-61768500D01*
X137085540Y-61768500D01*
X137152579Y-61788185D01*
G37*
%TD.AperFunction*%
%TD*%
M02*
