%TF.GenerationSoftware,KiCad,Pcbnew,8.0.0*%
%TF.CreationDate,2024-03-18T20:56:22+01:00*%
%TF.ProjectId,power_switch,706f7765-725f-4737-9769-7463682e6b69,rev?*%
%TF.SameCoordinates,Original*%
%TF.FileFunction,Copper,L1,Top*%
%TF.FilePolarity,Positive*%
%FSLAX46Y46*%
G04 Gerber Fmt 4.6, Leading zero omitted, Abs format (unit mm)*
G04 Created by KiCad (PCBNEW 8.0.0) date 2024-03-18 20:56:22*
%MOMM*%
%LPD*%
G01*
G04 APERTURE LIST*
G04 Aperture macros list*
%AMRoundRect*
0 Rectangle with rounded corners*
0 $1 Rounding radius*
0 $2 $3 $4 $5 $6 $7 $8 $9 X,Y pos of 4 corners*
0 Add a 4 corners polygon primitive as box body*
4,1,4,$2,$3,$4,$5,$6,$7,$8,$9,$2,$3,0*
0 Add four circle primitives for the rounded corners*
1,1,$1+$1,$2,$3*
1,1,$1+$1,$4,$5*
1,1,$1+$1,$6,$7*
1,1,$1+$1,$8,$9*
0 Add four rect primitives between the rounded corners*
20,1,$1+$1,$2,$3,$4,$5,0*
20,1,$1+$1,$4,$5,$6,$7,0*
20,1,$1+$1,$6,$7,$8,$9,0*
20,1,$1+$1,$8,$9,$2,$3,0*%
G04 Aperture macros list end*
%TA.AperFunction,SMDPad,CuDef*%
%ADD10RoundRect,0.250000X0.450000X-0.262500X0.450000X0.262500X-0.450000X0.262500X-0.450000X-0.262500X0*%
%TD*%
%TA.AperFunction,SMDPad,CuDef*%
%ADD11RoundRect,0.150000X-0.725000X-0.150000X0.725000X-0.150000X0.725000X0.150000X-0.725000X0.150000X0*%
%TD*%
%TA.AperFunction,SMDPad,CuDef*%
%ADD12RoundRect,0.075000X0.075000X-0.662500X0.075000X0.662500X-0.075000X0.662500X-0.075000X-0.662500X0*%
%TD*%
%TA.AperFunction,SMDPad,CuDef*%
%ADD13RoundRect,0.075000X0.662500X-0.075000X0.662500X0.075000X-0.662500X0.075000X-0.662500X-0.075000X0*%
%TD*%
%TA.AperFunction,SMDPad,CuDef*%
%ADD14RoundRect,0.250000X0.475000X-0.250000X0.475000X0.250000X-0.475000X0.250000X-0.475000X-0.250000X0*%
%TD*%
%TA.AperFunction,SMDPad,CuDef*%
%ADD15RoundRect,0.250000X-0.450000X0.262500X-0.450000X-0.262500X0.450000X-0.262500X0.450000X0.262500X0*%
%TD*%
%TA.AperFunction,ComponentPad*%
%ADD16C,1.524000*%
%TD*%
%TA.AperFunction,SMDPad,CuDef*%
%ADD17RoundRect,0.317500X0.317500X-1.157500X0.317500X1.157500X-0.317500X1.157500X-0.317500X-1.157500X0*%
%TD*%
%TA.AperFunction,SMDPad,CuDef*%
%ADD18RoundRect,0.243750X0.456250X-0.243750X0.456250X0.243750X-0.456250X0.243750X-0.456250X-0.243750X0*%
%TD*%
%TA.AperFunction,SMDPad,CuDef*%
%ADD19RoundRect,0.250000X-0.250000X-0.475000X0.250000X-0.475000X0.250000X0.475000X-0.250000X0.475000X0*%
%TD*%
%TA.AperFunction,SMDPad,CuDef*%
%ADD20RoundRect,0.250000X-0.475000X0.250000X-0.475000X-0.250000X0.475000X-0.250000X0.475000X0.250000X0*%
%TD*%
%TA.AperFunction,SMDPad,CuDef*%
%ADD21RoundRect,0.250000X0.500000X0.250000X-0.500000X0.250000X-0.500000X-0.250000X0.500000X-0.250000X0*%
%TD*%
%TA.AperFunction,SMDPad,CuDef*%
%ADD22RoundRect,0.250000X-0.500000X-0.250000X0.500000X-0.250000X0.500000X0.250000X-0.500000X0.250000X0*%
%TD*%
%TA.AperFunction,SMDPad,CuDef*%
%ADD23RoundRect,0.150000X-0.825000X-0.150000X0.825000X-0.150000X0.825000X0.150000X-0.825000X0.150000X0*%
%TD*%
%TA.AperFunction,SMDPad,CuDef*%
%ADD24RoundRect,0.250000X0.262500X0.450000X-0.262500X0.450000X-0.262500X-0.450000X0.262500X-0.450000X0*%
%TD*%
%TA.AperFunction,SMDPad,CuDef*%
%ADD25RoundRect,0.250000X0.250000X0.475000X-0.250000X0.475000X-0.250000X-0.475000X0.250000X-0.475000X0*%
%TD*%
%TA.AperFunction,ComponentPad*%
%ADD26RoundRect,0.248400X0.651600X0.651600X-0.651600X0.651600X-0.651600X-0.651600X0.651600X-0.651600X0*%
%TD*%
%TA.AperFunction,ComponentPad*%
%ADD27C,1.800000*%
%TD*%
%TA.AperFunction,SMDPad,CuDef*%
%ADD28RoundRect,0.150000X0.587500X0.150000X-0.587500X0.150000X-0.587500X-0.150000X0.587500X-0.150000X0*%
%TD*%
%TA.AperFunction,SMDPad,CuDef*%
%ADD29R,1.800000X1.100000*%
%TD*%
%TA.AperFunction,SMDPad,CuDef*%
%ADD30R,2.400000X0.740000*%
%TD*%
%TA.AperFunction,ComponentPad*%
%ADD31R,1.700000X1.700000*%
%TD*%
%TA.AperFunction,ComponentPad*%
%ADD32O,1.700000X1.700000*%
%TD*%
%TA.AperFunction,ComponentPad*%
%ADD33R,1.905000X2.000000*%
%TD*%
%TA.AperFunction,ComponentPad*%
%ADD34O,1.905000X2.000000*%
%TD*%
%TA.AperFunction,ComponentPad*%
%ADD35C,1.600000*%
%TD*%
%TA.AperFunction,ComponentPad*%
%ADD36O,1.600000X1.600000*%
%TD*%
%TA.AperFunction,ComponentPad*%
%ADD37C,2.000000*%
%TD*%
%TA.AperFunction,ComponentPad*%
%ADD38C,3.000000*%
%TD*%
%TA.AperFunction,ComponentPad*%
%ADD39R,1.600000X1.600000*%
%TD*%
%TA.AperFunction,ComponentPad*%
%ADD40R,3.000000X3.000000*%
%TD*%
%TA.AperFunction,ViaPad*%
%ADD41C,0.800000*%
%TD*%
%TA.AperFunction,Conductor*%
%ADD42C,1.000000*%
%TD*%
%TA.AperFunction,Conductor*%
%ADD43C,0.250000*%
%TD*%
G04 APERTURE END LIST*
D10*
%TO.P,R12,1*%
%TO.N,+3V3*%
X107950000Y-51712500D03*
%TO.P,R12,2*%
%TO.N,SCL*%
X107950000Y-49887500D03*
%TD*%
D11*
%TO.P,U7,1,SDA*%
%TO.N,SDA*%
X117440000Y-54610000D03*
%TO.P,U7,2,SCL*%
%TO.N,SCL*%
X117440000Y-55880000D03*
%TO.P,U7,3,O.S.*%
%TO.N,unconnected-(U7-O.S.-Pad3)*%
X117440000Y-57150000D03*
%TO.P,U7,4,GND*%
%TO.N,GND*%
X117440000Y-58420000D03*
%TO.P,U7,5,A2*%
X122590000Y-58420000D03*
%TO.P,U7,6,A1*%
X122590000Y-57150000D03*
%TO.P,U7,7,A0*%
X122590000Y-55880000D03*
%TO.P,U7,8,+Vs*%
%TO.N,+3V3*%
X122590000Y-54610000D03*
%TD*%
D12*
%TO.P,U1,1,VBAT*%
%TO.N,+3V3*%
X116630000Y-45437500D03*
%TO.P,U1,2,PC13*%
%TO.N,unconnected-(U1-PC13-Pad2)*%
X117130000Y-45437500D03*
%TO.P,U1,3,PC14*%
%TO.N,unconnected-(U1-PC14-Pad3)*%
X117630000Y-45437500D03*
%TO.P,U1,4,PC15*%
%TO.N,unconnected-(U1-PC15-Pad4)*%
X118130000Y-45437500D03*
%TO.P,U1,5,PD0*%
%TO.N,unconnected-(U1-PD0-Pad5)*%
X118630000Y-45437500D03*
%TO.P,U1,6,PD1*%
%TO.N,unconnected-(U1-PD1-Pad6)*%
X119130000Y-45437500D03*
%TO.P,U1,7,NRST*%
%TO.N,nSRST*%
X119630000Y-45437500D03*
%TO.P,U1,8,VSSA*%
%TO.N,GND*%
X120130000Y-45437500D03*
%TO.P,U1,9,VDDA*%
%TO.N,+3V3*%
X120630000Y-45437500D03*
%TO.P,U1,10,PA0*%
%TO.N,BTN1*%
X121130000Y-45437500D03*
%TO.P,U1,11,PA1*%
%TO.N,AC_POWER_ON*%
X121630000Y-45437500D03*
%TO.P,U1,12,PA2*%
%TO.N,BTN2*%
X122130000Y-45437500D03*
D13*
%TO.P,U1,13,PA3*%
%TO.N,IR*%
X123542500Y-44025000D03*
%TO.P,U1,14,PA4*%
%TO.N,SPI_CS*%
X123542500Y-43525000D03*
%TO.P,U1,15,PA5*%
%TO.N,SPI_SCK*%
X123542500Y-43025000D03*
%TO.P,U1,16,PA6*%
%TO.N,SPI_MISO*%
X123542500Y-42525000D03*
%TO.P,U1,17,PA7*%
%TO.N,SPI_MOSI*%
X123542500Y-42025000D03*
%TO.P,U1,18,PB0*%
%TO.N,SPI_CS3*%
X123542500Y-41525000D03*
%TO.P,U1,19,PB1*%
%TO.N,SPI_CS2*%
X123542500Y-41025000D03*
%TO.P,U1,20,PB2*%
%TO.N,unconnected-(U1-PB2-Pad20)*%
X123542500Y-40525000D03*
%TO.P,U1,21,PB10*%
%TO.N,SPI_RST*%
X123542500Y-40025000D03*
%TO.P,U1,22,PB11*%
%TO.N,SPI_INT*%
X123542500Y-39525000D03*
%TO.P,U1,23,VSS*%
%TO.N,GND*%
X123542500Y-39025000D03*
%TO.P,U1,24,VDD*%
%TO.N,+3V3*%
X123542500Y-38525000D03*
D12*
%TO.P,U1,25,PB12*%
%TO.N,unconnected-(U1-PB12-Pad25)*%
X122130000Y-37112500D03*
%TO.P,U1,26,PB13*%
%TO.N,unconnected-(U1-PB13-Pad26)*%
X121630000Y-37112500D03*
%TO.P,U1,27,PB14*%
%TO.N,unconnected-(U1-PB14-Pad27)*%
X121130000Y-37112500D03*
%TO.P,U1,28,PB15*%
%TO.N,unconnected-(U1-PB15-Pad28)*%
X120630000Y-37112500D03*
%TO.P,U1,29,PA8*%
%TO.N,unconnected-(U1-PA8-Pad29)*%
X120130000Y-37112500D03*
%TO.P,U1,30,PA9*%
%TO.N,unconnected-(U1-PA9-Pad30)*%
X119630000Y-37112500D03*
%TO.P,U1,31,PA10*%
%TO.N,unconnected-(U1-PA10-Pad31)*%
X119130000Y-37112500D03*
%TO.P,U1,32,PA11*%
%TO.N,unconnected-(U1-PA11-Pad32)*%
X118630000Y-37112500D03*
%TO.P,U1,33,PA12*%
%TO.N,unconnected-(U1-PA12-Pad33)*%
X118130000Y-37112500D03*
%TO.P,U1,34,PA13*%
%TO.N,TMS*%
X117630000Y-37112500D03*
%TO.P,U1,35,VSS*%
%TO.N,GND*%
X117130000Y-37112500D03*
%TO.P,U1,36,VDD*%
%TO.N,+3V3*%
X116630000Y-37112500D03*
D13*
%TO.P,U1,37,PA14*%
%TO.N,TCK*%
X115217500Y-38525000D03*
%TO.P,U1,38,PA15*%
%TO.N,TDI*%
X115217500Y-39025000D03*
%TO.P,U1,39,PB3*%
%TO.N,TDO*%
X115217500Y-39525000D03*
%TO.P,U1,40,PB4*%
%TO.N,nTRST*%
X115217500Y-40025000D03*
%TO.P,U1,41,PB5*%
%TO.N,unconnected-(U1-PB5-Pad41)*%
X115217500Y-40525000D03*
%TO.P,U1,42,PB6*%
%TO.N,SCL*%
X115217500Y-41025000D03*
%TO.P,U1,43,PB7*%
%TO.N,SDA*%
X115217500Y-41525000D03*
%TO.P,U1,44,BOOT0*%
%TO.N,Net-(U1-BOOT0)*%
X115217500Y-42025000D03*
%TO.P,U1,45,PB8*%
%TO.N,unconnected-(U1-PB8-Pad45)*%
X115217500Y-42525000D03*
%TO.P,U1,46,PB9*%
%TO.N,unconnected-(U1-PB9-Pad46)*%
X115217500Y-43025000D03*
%TO.P,U1,47,VSS*%
%TO.N,GND*%
X115217500Y-43525000D03*
%TO.P,U1,48,VDD*%
%TO.N,+3V3*%
X115217500Y-44025000D03*
%TD*%
D14*
%TO.P,C13,1*%
%TO.N,+3V3*%
X116840000Y-34605000D03*
%TO.P,C13,2*%
%TO.N,GND*%
X116840000Y-32705000D03*
%TD*%
%TO.P,C6,1*%
%TO.N,+3V3*%
X120650000Y-34605000D03*
%TO.P,C6,2*%
%TO.N,GND*%
X120650000Y-32705000D03*
%TD*%
D15*
%TO.P,R7,1*%
%TO.N,Net-(U1-BOOT0)*%
X113030000Y-32742500D03*
%TO.P,R7,2*%
%TO.N,GND*%
X113030000Y-34567500D03*
%TD*%
D16*
%TO.P,U9,1,PWR*%
%TO.N,GND*%
X138430000Y-62230000D03*
%TO.P,U9,2,PWR*%
%TO.N,+3V3*%
X140970000Y-62230000D03*
%TO.P,U9,3,SCL*%
%TO.N,SCL*%
X143510000Y-62230000D03*
%TO.P,U9,4,SDA*%
%TO.N,SDA*%
X146050000Y-62230000D03*
%TD*%
D15*
%TO.P,R1,1*%
%TO.N,AC_POWER_ON*%
X106680000Y-62587500D03*
%TO.P,R1,2*%
%TO.N,Net-(R1-Pad2)*%
X106680000Y-64412500D03*
%TD*%
D17*
%TO.P,U4,1,GND*%
%TO.N,GND*%
X132700000Y-48800000D03*
%TO.P,U4,2,MISO*%
%TO.N,SPI_MISO*%
X134700000Y-48800000D03*
%TO.P,U4,3,MOSI*%
%TO.N,SPI_MOSI*%
X136700000Y-48800000D03*
%TO.P,U4,4,SCK*%
%TO.N,SPI_SCK*%
X138700000Y-48800000D03*
%TO.P,U4,5,NSS*%
%TO.N,SPI_CS*%
X140700000Y-48800000D03*
%TO.P,U4,6,RESET*%
%TO.N,SPI_RST*%
X142700000Y-48800000D03*
%TO.P,U4,7,DIO5*%
%TO.N,unconnected-(U4-DIO5-Pad7)*%
X144700000Y-48800000D03*
%TO.P,U4,8,GND*%
%TO.N,GND*%
X146700000Y-48800000D03*
%TO.P,U4,9,ANT*%
%TO.N,Net-(AE1-A)*%
X146700000Y-33750000D03*
%TO.P,U4,10,GND*%
%TO.N,GND*%
X144700000Y-33750000D03*
%TO.P,U4,11,DIO3*%
%TO.N,unconnected-(U4-DIO3-Pad11)*%
X142700000Y-33750000D03*
%TO.P,U4,12,DIO4*%
%TO.N,unconnected-(U4-DIO4-Pad12)*%
X140700000Y-33750000D03*
%TO.P,U4,13,3.3V*%
%TO.N,+3V3*%
X138700000Y-33750000D03*
%TO.P,U4,14,DIO0*%
%TO.N,SPI_INT*%
X136700000Y-33750000D03*
%TO.P,U4,15,DIO1*%
%TO.N,unconnected-(U4-DIO1-Pad15)*%
X134700000Y-33750000D03*
%TO.P,U4,16,DIO2*%
%TO.N,unconnected-(U4-DIO2-Pad16)*%
X132700000Y-33750000D03*
%TD*%
D18*
%TO.P,D1,1,K*%
%TO.N,GND*%
X106850000Y-71937500D03*
%TO.P,D1,2,A*%
%TO.N,Net-(D1-A)*%
X106850000Y-70062500D03*
%TD*%
D19*
%TO.P,C8,1*%
%TO.N,+3V3*%
X138750000Y-30480000D03*
%TO.P,C8,2*%
%TO.N,GND*%
X140650000Y-30480000D03*
%TD*%
D15*
%TO.P,R9,1*%
%TO.N,+3V3*%
X102235000Y-55602500D03*
%TO.P,R9,2*%
%TO.N,BTN1*%
X102235000Y-57427500D03*
%TD*%
D20*
%TO.P,C12,1*%
%TO.N,GND*%
X113665000Y-55565000D03*
%TO.P,C12,2*%
%TO.N,BTN1*%
X113665000Y-57465000D03*
%TD*%
D21*
%TO.P,U10,1,GND*%
%TO.N,GND*%
X121560000Y-84730000D03*
%TO.P,U10,2,GND*%
X121560000Y-87270000D03*
D22*
%TO.P,U10,3,OUT*%
%TO.N,IR*%
X127360000Y-87270000D03*
D21*
%TO.P,U10,4,Vs*%
%TO.N,Net-(U10-Vs)*%
X127360000Y-84730000D03*
%TD*%
D20*
%TO.P,C4,1*%
%TO.N,+3V3*%
X121920000Y-49850000D03*
%TO.P,C4,2*%
%TO.N,GND*%
X121920000Y-51750000D03*
%TD*%
D16*
%TO.P,U8,1,ADDR*%
%TO.N,GND*%
X125730000Y-62230000D03*
%TO.P,U8,2,SDA*%
%TO.N,SDA*%
X123190000Y-62230000D03*
%TO.P,U8,3,SCL*%
%TO.N,SCL*%
X120650000Y-62230000D03*
%TO.P,U8,4,GND*%
%TO.N,GND*%
X118110000Y-62230000D03*
%TO.P,U8,5,VCC*%
%TO.N,+3V3*%
X115570000Y-62230000D03*
%TD*%
D23*
%TO.P,U5,1,A0*%
%TO.N,GND*%
X132780000Y-54610000D03*
%TO.P,U5,2,A1*%
X132780000Y-55880000D03*
%TO.P,U5,3,A2*%
X132780000Y-57150000D03*
%TO.P,U5,4,GND*%
X132780000Y-58420000D03*
%TO.P,U5,5,SDA*%
%TO.N,SDA*%
X137730000Y-58420000D03*
%TO.P,U5,6,SCL*%
%TO.N,SCL*%
X137730000Y-57150000D03*
%TO.P,U5,7,WP*%
%TO.N,GND*%
X137730000Y-55880000D03*
%TO.P,U5,8,VCC*%
%TO.N,+3V3*%
X137730000Y-54610000D03*
%TD*%
D10*
%TO.P,R11,1*%
%TO.N,+3V3*%
X110490000Y-51712500D03*
%TO.P,R11,2*%
%TO.N,SDA*%
X110490000Y-49887500D03*
%TD*%
D20*
%TO.P,C11,1*%
%TO.N,GND*%
X142875000Y-55565000D03*
%TO.P,C11,2*%
%TO.N,BTN2*%
X142875000Y-57465000D03*
%TD*%
D24*
%TO.P,R10,1*%
%TO.N,+3V3*%
X123467500Y-69215000D03*
%TO.P,R10,2*%
%TO.N,Net-(U10-Vs)*%
X121642500Y-69215000D03*
%TD*%
D10*
%TO.P,R5,1*%
%TO.N,Net-(D1-A)*%
X109220000Y-64412500D03*
%TO.P,R5,2*%
%TO.N,AC_POWER_ON*%
X109220000Y-62587500D03*
%TD*%
D19*
%TO.P,C14,1*%
%TO.N,Net-(U10-Vs)*%
X121605000Y-73025000D03*
%TO.P,C14,2*%
%TO.N,GND*%
X123505000Y-73025000D03*
%TD*%
D20*
%TO.P,C10,1*%
%TO.N,+3V3*%
X140335000Y-55565000D03*
%TO.P,C10,2*%
%TO.N,GND*%
X140335000Y-57465000D03*
%TD*%
D25*
%TO.P,C7,1*%
%TO.N,+3V3*%
X115250000Y-46355000D03*
%TO.P,C7,2*%
%TO.N,GND*%
X113350000Y-46355000D03*
%TD*%
D26*
%TO.P,U11,1,OUT*%
%TO.N,IR*%
X127000000Y-78785000D03*
D27*
%TO.P,U11,2,GND*%
%TO.N,GND*%
X124460000Y-78785000D03*
%TO.P,U11,3,Vs*%
%TO.N,Net-(U10-Vs)*%
X121920000Y-78785000D03*
%TD*%
D15*
%TO.P,R8,1*%
%TO.N,+3V3*%
X154305000Y-55602500D03*
%TO.P,R8,2*%
%TO.N,BTN2*%
X154305000Y-57427500D03*
%TD*%
D28*
%TO.P,U3,1,GND*%
%TO.N,GND*%
X119682500Y-51750000D03*
%TO.P,U3,2,VO*%
%TO.N,+3V3*%
X119682500Y-49850000D03*
%TO.P,U3,3,VI*%
%TO.N,+5V*%
X117807500Y-50800000D03*
%TD*%
D29*
%TO.P,SW2,1,1*%
%TO.N,GND*%
X145450000Y-54650000D03*
X151750000Y-54650000D03*
%TO.P,SW2,2,2*%
%TO.N,BTN2*%
X145450000Y-58350000D03*
X151750000Y-58350000D03*
%TD*%
D20*
%TO.P,C9,1*%
%TO.N,+3V3*%
X125095000Y-55565000D03*
%TO.P,C9,2*%
%TO.N,GND*%
X125095000Y-57465000D03*
%TD*%
D30*
%TO.P,J2,1,Pin_1*%
%TO.N,+3V3*%
X106045000Y-46355000D03*
%TO.P,J2,2,Pin_2*%
%TO.N,TMS*%
X102145000Y-46355000D03*
%TO.P,J2,3,Pin_3*%
%TO.N,GND*%
X106045000Y-45085000D03*
%TO.P,J2,4,Pin_4*%
%TO.N,TCK*%
X102145000Y-45085000D03*
%TO.P,J2,5,Pin_5*%
%TO.N,unconnected-(J2-Pin_5-Pad5)*%
X106045000Y-43815000D03*
%TO.P,J2,6,Pin_6*%
%TO.N,TDO*%
X102145000Y-43815000D03*
%TO.P,J2,7,Pin_7*%
%TO.N,GND*%
X106045000Y-42545000D03*
%TO.P,J2,8,Pin_8*%
%TO.N,TDI*%
X102145000Y-42545000D03*
%TO.P,J2,9,Pin_9*%
%TO.N,GND*%
X106045000Y-41275000D03*
%TO.P,J2,10,Pin_10*%
%TO.N,nSRST*%
X102145000Y-41275000D03*
%TD*%
D10*
%TO.P,R6,1*%
%TO.N,+3V3*%
X105410000Y-51712500D03*
%TO.P,R6,2*%
%TO.N,nSRST*%
X105410000Y-49887500D03*
%TD*%
D29*
%TO.P,SW1,1,1*%
%TO.N,GND*%
X104850000Y-54650000D03*
X111150000Y-54650000D03*
%TO.P,SW1,2,2*%
%TO.N,BTN1*%
X104850000Y-58350000D03*
X111150000Y-58350000D03*
%TD*%
D14*
%TO.P,C3,1*%
%TO.N,+5V*%
X115570000Y-51750000D03*
%TO.P,C3,2*%
%TO.N,GND*%
X115570000Y-49850000D03*
%TD*%
D31*
%TO.P,J3,1,Pin_1*%
%TO.N,GND*%
X101600000Y-36830000D03*
D32*
%TO.P,J3,2,Pin_2*%
%TO.N,+3V3*%
X104140000Y-36830000D03*
%TO.P,J3,3,Pin_3*%
%TO.N,SCL*%
X106680000Y-36830000D03*
%TO.P,J3,4,Pin_4*%
%TO.N,SDA*%
X109220000Y-36830000D03*
%TD*%
D33*
%TO.P,Q1,1,A1*%
%TO.N,L_OUT*%
X113030000Y-99060000D03*
D34*
%TO.P,Q1,2,A2*%
%TO.N,L_FUSED*%
X110490000Y-99060000D03*
%TO.P,Q1,3,G*%
%TO.N,Net-(Q1-G)*%
X107950000Y-99060000D03*
%TD*%
D27*
%TO.P,RV1,1*%
%TO.N,L_FUSED*%
X142240000Y-71120000D03*
%TO.P,RV1,2*%
%TO.N,N*%
X149740000Y-68920000D03*
%TD*%
D35*
%TO.P,R2,1*%
%TO.N,Net-(Q1-G)*%
X114300000Y-85090000D03*
D36*
%TO.P,R2,2*%
%TO.N,L_OUT*%
X104140000Y-85090000D03*
%TD*%
D37*
%TO.P,AE1,1,A*%
%TO.N,Net-(AE1-A)*%
X148590000Y-33655000D03*
%TD*%
D35*
%TO.P,R4,1*%
%TO.N,Net-(C5-Pad1)*%
X104140000Y-92710000D03*
D36*
%TO.P,R4,2*%
%TO.N,L_FUSED*%
X114300000Y-92710000D03*
%TD*%
D35*
%TO.P,C5,1*%
%TO.N,Net-(C5-Pad1)*%
X114140000Y-80010000D03*
%TO.P,C5,2*%
%TO.N,L_OUT*%
X104140000Y-80010000D03*
%TD*%
D38*
%TO.P,F1,1*%
%TO.N,L_IN*%
X125730000Y-105410000D03*
%TO.P,F1,2*%
%TO.N,L_FUSED*%
X148330000Y-105410000D03*
%TD*%
D39*
%TO.P,C2,1*%
%TO.N,+5V*%
X111760000Y-63500000D03*
D35*
%TO.P,C2,2*%
%TO.N,GND*%
X111760000Y-61000000D03*
%TD*%
%TO.P,R3,1*%
%TO.N,Net-(R3-Pad1)*%
X104140000Y-88900000D03*
D36*
%TO.P,R3,2*%
%TO.N,L_FUSED*%
X114300000Y-88900000D03*
%TD*%
D40*
%TO.P,J1,1,Pin_1*%
%TO.N,L_IN*%
X120650000Y-107950000D03*
D38*
%TO.P,J1,2,Pin_2*%
%TO.N,N*%
X115570000Y-107950000D03*
%TO.P,J1,3,Pin_3*%
%TO.N,L_OUT*%
X110490000Y-107950000D03*
%TD*%
D39*
%TO.P,U2,1*%
%TO.N,Net-(R1-Pad2)*%
X106670000Y-67320000D03*
D36*
%TO.P,U2,2*%
%TO.N,GND*%
X109210000Y-67320000D03*
%TO.P,U2,3,NC*%
%TO.N,unconnected-(U2-NC-Pad3)*%
X111750000Y-67320000D03*
%TO.P,U2,4*%
%TO.N,Net-(Q1-G)*%
X111750000Y-74940000D03*
%TO.P,U2,5,NC*%
%TO.N,unconnected-(U2-NC-Pad5)*%
X109210000Y-74940000D03*
%TO.P,U2,6*%
%TO.N,Net-(R3-Pad1)*%
X106670000Y-74940000D03*
%TD*%
D37*
%TO.P,C1,1*%
%TO.N,L_FUSED*%
X140970000Y-77470000D03*
%TO.P,C1,2*%
%TO.N,N*%
X150970000Y-77470000D03*
%TD*%
%TO.P,PS1,1,AC/L*%
%TO.N,Net-(PS1-AC{slash}L)*%
X133350000Y-96300000D03*
X130500000Y-95250000D03*
%TO.P,PS1,2,AC/N*%
%TO.N,Net-(PS1-AC{slash}N)*%
X122650000Y-96300000D03*
X125500000Y-95250000D03*
%TO.P,PS1,3,-Vout*%
%TO.N,GND*%
X135700000Y-65850000D03*
X132050000Y-64800000D03*
%TO.P,PS1,4,+Vout*%
%TO.N,+5V*%
X120300000Y-65850000D03*
X123950000Y-64800000D03*
%TD*%
%TO.P,FL1,1,1*%
%TO.N,L_FUSED*%
X143690000Y-95250000D03*
%TO.P,FL1,2,2*%
%TO.N,Net-(PS1-AC{slash}L)*%
X148590000Y-95250000D03*
%TO.P,FL1,3,3*%
%TO.N,N*%
X148590000Y-85250000D03*
%TO.P,FL1,4,4*%
%TO.N,Net-(PS1-AC{slash}N)*%
X143690000Y-85250000D03*
%TD*%
D41*
%TO.N,GND*%
X109855000Y-40005000D03*
X134620000Y-62230000D03*
X125095000Y-58420000D03*
X128905000Y-55245000D03*
X151765000Y-54610000D03*
X113665000Y-55880000D03*
X141605000Y-52705000D03*
X106045000Y-41275000D03*
X141605000Y-59055000D03*
X110490000Y-39370000D03*
X140970000Y-58420000D03*
X116840000Y-32385000D03*
X111760000Y-35560000D03*
X140970000Y-30480000D03*
X146685000Y-48895000D03*
X119905000Y-47510000D03*
X130175000Y-36830000D03*
X132715000Y-48895000D03*
X111125000Y-54610000D03*
X127635000Y-59690000D03*
X130175000Y-50165000D03*
X107950000Y-39370000D03*
X140335000Y-57785000D03*
X113030000Y-34290000D03*
X133350000Y-58420000D03*
X142875000Y-30480000D03*
X144780000Y-33655000D03*
X127635000Y-58420000D03*
X128905000Y-59690000D03*
X145415000Y-54610000D03*
X113665000Y-44450000D03*
X123190000Y-83185000D03*
X123190000Y-33020000D03*
X130810000Y-62230000D03*
X125095000Y-59690000D03*
X123825000Y-59690000D03*
X128905000Y-36830000D03*
X118110000Y-35560000D03*
X144145000Y-30480000D03*
X129540000Y-62230000D03*
X128905000Y-50165000D03*
X127635000Y-53975000D03*
X123825000Y-32385000D03*
X121920000Y-51435000D03*
X127635000Y-36830000D03*
X121920000Y-31115000D03*
X114300000Y-35560000D03*
X113665000Y-46355000D03*
X132080000Y-62230000D03*
X127635000Y-50165000D03*
X127635000Y-55245000D03*
X126365000Y-38735000D03*
X145415000Y-30480000D03*
X104775000Y-54610000D03*
X133350000Y-62230000D03*
X122555000Y-30480000D03*
X111125000Y-38735000D03*
X120015000Y-38735000D03*
%TO.N,+3V3*%
X113120000Y-47680000D03*
X116840000Y-34605000D03*
X106045000Y-47080000D03*
X121920000Y-49530000D03*
%TO.N,AC_POWER_ON*%
X121285000Y-42545000D03*
X109220000Y-62587500D03*
%TO.N,BTN1*%
X113665000Y-57785000D03*
X120284997Y-42545000D03*
%TO.N,BTN2*%
X125820000Y-53975000D03*
X125820000Y-45720000D03*
%TO.N,TMS*%
X102235000Y-46355000D03*
X117475000Y-39370000D03*
%TO.N,TCK*%
X116767891Y-38662891D03*
X102235000Y-45085000D03*
%TO.N,SPI_CS*%
X140700000Y-48800000D03*
X140335000Y-44450000D03*
%TO.N,SPI_SCK*%
X138700000Y-48800000D03*
X138430000Y-43180000D03*
%TO.N,SPI_MISO*%
X134700000Y-48800000D03*
X134620000Y-42545000D03*
%TO.N,SPI_MOSI*%
X136525000Y-42545000D03*
X136700000Y-48800000D03*
%TO.N,SPI_RST*%
X142700000Y-48800000D03*
X142875000Y-40005000D03*
%TO.N,SPI_INT*%
X136525000Y-39300000D03*
X136700000Y-33750000D03*
%TO.N,TDO*%
X102235000Y-43815000D03*
X113042652Y-39747655D03*
%TO.N,TDI*%
X102235000Y-42545000D03*
X113030000Y-38735000D03*
%TO.N,nSRST*%
X102235000Y-41275000D03*
X103944847Y-48064847D03*
X113120000Y-48680003D03*
%TO.N,Net-(U1-BOOT0)*%
X116554999Y-41517271D03*
X113030000Y-33020000D03*
%TO.N,SDA*%
X117440000Y-54610000D03*
X110490000Y-49530000D03*
%TO.N,SCL*%
X117440000Y-55880000D03*
X107950000Y-49530000D03*
%TO.N,IR*%
X125095000Y-44450000D03*
%TD*%
D42*
%TO.N,L_IN*%
X123190000Y-107950000D02*
X120650000Y-107950000D01*
X123190000Y-107950000D02*
X125730000Y-105410000D01*
D43*
%TO.N,Net-(R1-Pad2)*%
X106680000Y-64412500D02*
X106680000Y-67310000D01*
X106680000Y-67310000D02*
X106670000Y-67320000D01*
D42*
%TO.N,Net-(R3-Pad1)*%
X104140000Y-88900000D02*
X107950000Y-85090000D01*
X107950000Y-85090000D02*
X107950000Y-80010000D01*
X107950000Y-80010000D02*
X106670000Y-78730000D01*
X106670000Y-78730000D02*
X106670000Y-74940000D01*
D43*
%TO.N,GND*%
X113665000Y-44272236D02*
X113665000Y-44450000D01*
X106045000Y-45085000D02*
X106875000Y-45085000D01*
X125095000Y-57465000D02*
X125095000Y-58420000D01*
X121560000Y-87270000D02*
X121560000Y-84730000D01*
X114412236Y-43525000D02*
X113665000Y-44272236D01*
X124780000Y-57150000D02*
X125095000Y-57465000D01*
X123542500Y-39025000D02*
X126075000Y-39025000D01*
X120130000Y-45437500D02*
X120130000Y-47510000D01*
X110635000Y-65895000D02*
X110635000Y-62125000D01*
X123190000Y-83185000D02*
X123105000Y-83185000D01*
X110635000Y-62125000D02*
X111760000Y-61000000D01*
X144535000Y-55565000D02*
X145450000Y-54650000D01*
X115217500Y-43525000D02*
X114412236Y-43525000D01*
X106995000Y-42545000D02*
X106045000Y-42545000D01*
X107570000Y-44390000D02*
X107570000Y-43120000D01*
D42*
X133100000Y-65850000D02*
X132050000Y-64800000D01*
D43*
X123505000Y-77830000D02*
X124460000Y-78785000D01*
X122590000Y-55880000D02*
X122590000Y-58420000D01*
X123190000Y-83100000D02*
X123190000Y-83185000D01*
X123505000Y-73025000D02*
X123505000Y-77830000D01*
D42*
X135700000Y-65850000D02*
X133100000Y-65850000D01*
D43*
X123467500Y-72987500D02*
X123505000Y-73025000D01*
X119905000Y-47515000D02*
X119905000Y-47510000D01*
X137730000Y-55880000D02*
X132780000Y-55880000D01*
X122590000Y-57150000D02*
X124780000Y-57150000D01*
X126075000Y-39025000D02*
X126365000Y-38735000D01*
X132780000Y-54610000D02*
X132780000Y-58420000D01*
X106045000Y-42545000D02*
X106045000Y-41275000D01*
X106875000Y-45085000D02*
X107570000Y-44390000D01*
X123190000Y-83100000D02*
X123190000Y-83100000D01*
X109210000Y-67320000D02*
X110635000Y-65895000D01*
X123105000Y-83185000D02*
X121560000Y-84730000D01*
X107570000Y-43120000D02*
X106995000Y-42545000D01*
X120015000Y-47625000D02*
X120130000Y-47510000D01*
X120015000Y-47625000D02*
X119905000Y-47515000D01*
X117130000Y-36257236D02*
X117827236Y-35560000D01*
X142875000Y-55565000D02*
X144535000Y-55565000D01*
X117130000Y-37112500D02*
X117130000Y-36257236D01*
X117827236Y-35560000D02*
X118110000Y-35560000D01*
X106850000Y-71937500D02*
X109210000Y-69577500D01*
X109210000Y-69577500D02*
X109210000Y-67320000D01*
D42*
%TO.N,L_FUSED*%
X151130000Y-71120000D02*
X142240000Y-71120000D01*
X154940000Y-74930000D02*
X151130000Y-71120000D01*
X151130000Y-105410000D02*
X154940000Y-101600000D01*
X148330000Y-105410000D02*
X151130000Y-105410000D01*
X154940000Y-101600000D02*
X154940000Y-74930000D01*
D43*
%TO.N,+5V*%
X120300000Y-65850000D02*
X114110000Y-65850000D01*
X122900000Y-65850000D02*
X123950000Y-64800000D01*
X117807500Y-50800000D02*
X116520000Y-50800000D01*
X120300000Y-65850000D02*
X122900000Y-65850000D01*
X114110000Y-65850000D02*
X111760000Y-63500000D01*
X115570000Y-51750000D02*
X115570000Y-59690000D01*
X111760000Y-63500000D02*
X115570000Y-59690000D01*
X116520000Y-50800000D02*
X115570000Y-51750000D01*
D42*
%TO.N,Net-(PS1-AC{slash}L)*%
X132300000Y-95250000D02*
X130500000Y-95250000D01*
X146050000Y-97790000D02*
X137160000Y-97790000D01*
X137160000Y-97790000D02*
X135670000Y-96300000D01*
X148590000Y-95250000D02*
X146050000Y-97790000D01*
X135670000Y-96300000D02*
X133350000Y-96300000D01*
X133350000Y-96300000D02*
X132300000Y-95250000D01*
%TO.N,Net-(PS1-AC{slash}N)*%
X143690000Y-87450000D02*
X143690000Y-85250000D01*
X128040000Y-92710000D02*
X138430000Y-92710000D01*
X125500000Y-95250000D02*
X128040000Y-92710000D01*
X138430000Y-92710000D02*
X143690000Y-87450000D01*
D43*
%TO.N,+3V3*%
X108585000Y-40005000D02*
X108585000Y-44765000D01*
X155390000Y-56687500D02*
X154305000Y-55602500D01*
X126817000Y-63500000D02*
X126817000Y-57287000D01*
X146485000Y-53775000D02*
X140455000Y-53775000D01*
X120630000Y-48240000D02*
X120630000Y-45437500D01*
X102235000Y-54887500D02*
X102235000Y-55602500D01*
X126817000Y-63500000D02*
X126817000Y-63806833D01*
X116630000Y-35770000D02*
X116630000Y-37112500D01*
X126510167Y-63500000D02*
X126817000Y-63500000D01*
X116840000Y-34605000D02*
X115160000Y-36285000D01*
X138750000Y-30480000D02*
X132285772Y-30480000D01*
X153218000Y-63767000D02*
X142507000Y-63767000D01*
X121700000Y-33094228D02*
X121700000Y-33555000D01*
X116887236Y-44375000D02*
X116630000Y-44632236D01*
X105410000Y-51712500D02*
X102235000Y-54887500D01*
X139380000Y-54610000D02*
X137730000Y-54610000D01*
X155390000Y-61595000D02*
X155390000Y-56687500D01*
X110490000Y-51712500D02*
X105410000Y-51712500D01*
X126485167Y-63475000D02*
X126817000Y-63806833D01*
X115250000Y-46355000D02*
X115250000Y-45405000D01*
X112395000Y-49807500D02*
X112395000Y-48379698D01*
X154305000Y-55602500D02*
X148312500Y-55602500D01*
X106045000Y-46355000D02*
X106045000Y-46990000D01*
X125195000Y-51655000D02*
X138335000Y-51655000D01*
X124145000Y-51755000D02*
X124145000Y-52705000D01*
X121920000Y-49530000D02*
X120630000Y-48240000D01*
X115570000Y-62230000D02*
X116815000Y-63475000D01*
X140335000Y-55565000D02*
X139380000Y-54610000D01*
X115250000Y-45405000D02*
X115923750Y-44731250D01*
X126924970Y-27869258D02*
X121700000Y-33094228D01*
X121700000Y-33555000D02*
X120650000Y-34605000D01*
X132285772Y-30480000D02*
X129675030Y-27869258D01*
X139385000Y-52705000D02*
X139385000Y-54615000D01*
X123542500Y-38525000D02*
X123542500Y-35912500D01*
X155390000Y-61595000D02*
X153218000Y-63767000D01*
X120189228Y-34605000D02*
X116840000Y-34605000D01*
X115160000Y-36285000D02*
X111215000Y-36285000D01*
X106995000Y-46355000D02*
X106045000Y-46355000D01*
X111215000Y-36285000D02*
X110585000Y-35655000D01*
X120630000Y-44632236D02*
X120372764Y-44375000D01*
X140455000Y-53775000D02*
X139385000Y-52705000D01*
X115923750Y-44731250D02*
X115217500Y-44025000D01*
X120630000Y-45437500D02*
X120630000Y-44632236D01*
X116815000Y-63475000D02*
X126485167Y-63475000D01*
X123467500Y-69850000D02*
X126817000Y-66500500D01*
X126817000Y-57287000D02*
X125095000Y-55565000D01*
X116630000Y-45437500D02*
X115923750Y-44731250D01*
X116840000Y-35560000D02*
X116840000Y-34605000D01*
X106045000Y-46990000D02*
X106045000Y-47145000D01*
X138335000Y-51655000D02*
X139385000Y-52705000D01*
X123542500Y-35912500D02*
X122235000Y-34605000D01*
X138700000Y-33750000D02*
X138700000Y-30530000D01*
X110490000Y-51712500D02*
X112395000Y-49807500D01*
X122235000Y-34605000D02*
X120189228Y-34605000D01*
X113094698Y-47680000D02*
X113120000Y-47680000D01*
X125095000Y-55565000D02*
X124145000Y-54615000D01*
X124140000Y-54610000D02*
X122590000Y-54610000D01*
X129675030Y-27869258D02*
X126924970Y-27869258D01*
X139385000Y-54615000D02*
X140335000Y-55565000D01*
X126817000Y-66500500D02*
X126817000Y-63500000D01*
X125095000Y-55565000D02*
X124140000Y-54610000D01*
X108585000Y-40005000D02*
X111477500Y-37112500D01*
X142507000Y-63767000D02*
X140970000Y-62230000D01*
X148312500Y-55602500D02*
X146485000Y-53775000D01*
X120372764Y-44375000D02*
X116887236Y-44375000D01*
X113925000Y-47680000D02*
X113120000Y-47680000D01*
X110585000Y-35655000D02*
X105315000Y-35655000D01*
X105315000Y-35655000D02*
X104140000Y-36830000D01*
X116630000Y-35770000D02*
X116840000Y-35560000D01*
X126485167Y-63475000D02*
X126510167Y-63500000D01*
X108585000Y-44765000D02*
X106995000Y-46355000D01*
X124145000Y-52705000D02*
X125195000Y-51655000D01*
X116630000Y-44632236D02*
X116630000Y-45437500D01*
X121920000Y-49530000D02*
X124145000Y-51755000D01*
X115250000Y-46355000D02*
X113925000Y-47680000D01*
X119682500Y-49530000D02*
X121920000Y-49530000D01*
X112395000Y-48379698D02*
X113094698Y-47680000D01*
X124145000Y-54615000D02*
X124145000Y-52705000D01*
X111477500Y-37112500D02*
X116630000Y-37112500D01*
X138700000Y-30530000D02*
X138750000Y-30480000D01*
%TO.N,AC_POWER_ON*%
X109220000Y-62587500D02*
X106680000Y-62587500D01*
X121630000Y-42890000D02*
X121285000Y-42545000D01*
X121630000Y-45437500D02*
X121630000Y-42890000D01*
%TO.N,Net-(AE1-A)*%
X148495000Y-33750000D02*
X148590000Y-33655000D01*
X146700000Y-33750000D02*
X148495000Y-33750000D01*
%TO.N,BTN1*%
X104850000Y-58350000D02*
X111150000Y-58350000D01*
X111150000Y-58350000D02*
X112780000Y-58350000D01*
X121130000Y-43415305D02*
X120284997Y-42570302D01*
X112780000Y-58350000D02*
X113665000Y-57465000D01*
X121130000Y-45437500D02*
X121130000Y-43415305D01*
X120284997Y-42570302D02*
X120284997Y-42545000D01*
X102235000Y-57427500D02*
X103927500Y-57427500D01*
X103927500Y-57427500D02*
X104850000Y-58350000D01*
%TO.N,BTN2*%
X151750000Y-58350000D02*
X145450000Y-58350000D01*
X141935000Y-56525000D02*
X136325908Y-56525000D01*
X152672500Y-57427500D02*
X151750000Y-58350000D01*
X130509695Y-59145000D02*
X125820000Y-54455305D01*
X136325908Y-56525000D02*
X133705908Y-59145000D01*
X133705908Y-59145000D02*
X130509695Y-59145000D01*
X142875000Y-57465000D02*
X144565000Y-57465000D01*
X122412500Y-45720000D02*
X125820000Y-45720000D01*
X122130000Y-45437500D02*
X122412500Y-45720000D01*
X142875000Y-57465000D02*
X141935000Y-56525000D01*
X144565000Y-57465000D02*
X145450000Y-58350000D01*
X154305000Y-57427500D02*
X152672500Y-57427500D01*
X125820000Y-54455305D02*
X125820000Y-53975000D01*
D42*
%TO.N,Net-(C5-Pad1)*%
X104140000Y-92710000D02*
X114140000Y-82710000D01*
X114140000Y-82710000D02*
X114140000Y-80010000D01*
D43*
%TO.N,TMS*%
X117475000Y-39370000D02*
X117630000Y-39215000D01*
X117630000Y-39215000D02*
X117630000Y-37112500D01*
%TO.N,TCK*%
X116767891Y-38662891D02*
X116630000Y-38525000D01*
X116630000Y-38525000D02*
X115217500Y-38525000D01*
%TO.N,SPI_CS*%
X123542500Y-43525000D02*
X133938299Y-43525000D01*
X133938299Y-43525000D02*
X134863299Y-44450000D01*
X134863299Y-44450000D02*
X140335000Y-44450000D01*
%TO.N,SPI_SCK*%
X134074695Y-43025000D02*
X134864695Y-43815000D01*
X134864695Y-43815000D02*
X137795000Y-43815000D01*
X137795000Y-43815000D02*
X138430000Y-43180000D01*
X123542500Y-43025000D02*
X134074695Y-43025000D01*
%TO.N,SPI_MISO*%
X134600000Y-42525000D02*
X134620000Y-42545000D01*
X123542500Y-42525000D02*
X134600000Y-42525000D01*
%TO.N,SPI_MOSI*%
X134319695Y-41820000D02*
X135800000Y-41820000D01*
X134114695Y-42025000D02*
X134319695Y-41820000D01*
X123542500Y-42025000D02*
X134114695Y-42025000D01*
X135800000Y-41820000D02*
X136525000Y-42545000D01*
%TO.N,SPI_RST*%
X142855000Y-40025000D02*
X142875000Y-40005000D01*
X123542500Y-40025000D02*
X142855000Y-40025000D01*
%TO.N,SPI_INT*%
X136300000Y-39525000D02*
X136525000Y-39300000D01*
X123542500Y-39525000D02*
X136300000Y-39525000D01*
%TO.N,TDO*%
X114300000Y-39525000D02*
X113265307Y-39525000D01*
X113265307Y-39525000D02*
X113042652Y-39747655D01*
X114300000Y-39525000D02*
X115217500Y-39525000D01*
X113765306Y-39525000D02*
X114300000Y-39525000D01*
%TO.N,TDI*%
X113320000Y-39025000D02*
X115217500Y-39025000D01*
X113030000Y-38735000D02*
X113320000Y-39025000D01*
%TO.N,nSRST*%
X103944847Y-42124847D02*
X103095000Y-41275000D01*
X105410000Y-49887500D02*
X105410000Y-49530000D01*
X119630000Y-46242764D02*
X117192761Y-48680003D01*
X119630000Y-45437500D02*
X119630000Y-46242764D01*
X117192761Y-48680003D02*
X113120000Y-48680003D01*
X103944847Y-48064847D02*
X103944847Y-42124847D01*
X103095000Y-41275000D02*
X102145000Y-41275000D01*
X102235000Y-41275000D02*
X103095000Y-41275000D01*
X105410000Y-49530000D02*
X103944847Y-48064847D01*
%TO.N,Net-(U1-BOOT0)*%
X116047270Y-42025000D02*
X116554999Y-41517271D01*
X115217500Y-42025000D02*
X116047270Y-42025000D01*
%TO.N,Net-(D1-A)*%
X107950000Y-68962500D02*
X106850000Y-70062500D01*
X109220000Y-65405000D02*
X107950000Y-66675000D01*
X107950000Y-66675000D02*
X107950000Y-68962500D01*
X109220000Y-64412500D02*
X109220000Y-65405000D01*
%TO.N,Net-(U10-Vs)*%
X127400000Y-84770000D02*
X127360000Y-84730000D01*
X121605000Y-69887500D02*
X121642500Y-69850000D01*
X121605000Y-73025000D02*
X121605000Y-69887500D01*
X121605000Y-73025000D02*
X121605000Y-78470000D01*
X127000000Y-82550000D02*
X125410000Y-82550000D01*
X127360000Y-84730000D02*
X127360000Y-82910000D01*
X125410000Y-82550000D02*
X121920000Y-79060000D01*
X121605000Y-78470000D02*
X121920000Y-78785000D01*
X127360000Y-82910000D02*
X127000000Y-82550000D01*
X121920000Y-79060000D02*
X121920000Y-78785000D01*
%TO.N,SDA*%
X110225788Y-49623288D02*
X110490000Y-50165000D01*
X118499092Y-54610000D02*
X121390000Y-57500908D01*
X109295000Y-50725000D02*
X107254900Y-50725000D01*
X142423000Y-62680251D02*
X143059749Y-63317000D01*
X110490000Y-50165000D02*
X110490000Y-49887500D01*
X117440000Y-54610000D02*
X118499092Y-54610000D01*
X121390000Y-60430000D02*
X123190000Y-62230000D01*
X106435000Y-49905100D02*
X106435000Y-48965000D01*
X138365000Y-58420000D02*
X138697251Y-58420000D01*
X110490000Y-45310840D02*
X110920420Y-44880420D01*
X144963000Y-63317000D02*
X146050000Y-62230000D01*
X107000000Y-38100000D02*
X107950000Y-38100000D01*
X142423000Y-62138001D02*
X142423000Y-62680251D01*
X106435000Y-48965000D02*
X104520000Y-47050000D01*
X115217500Y-41525000D02*
X114275840Y-41525000D01*
X114275840Y-41525000D02*
X110920420Y-44880420D01*
X104520000Y-40580000D02*
X107000000Y-38100000D01*
X138704999Y-58420000D02*
X142423000Y-62138001D01*
X137730000Y-58420000D02*
X138704999Y-58420000D01*
X110490000Y-49887500D02*
X110490000Y-45310840D01*
X107950000Y-38100000D02*
X109220000Y-36830000D01*
X107254900Y-50725000D02*
X106435000Y-49905100D01*
X110490000Y-49530000D02*
X109295000Y-50725000D01*
X143059749Y-63317000D02*
X144963000Y-63317000D01*
X104520000Y-47050000D02*
X104520000Y-40580000D01*
X121390000Y-57500908D02*
X121390000Y-60430000D01*
%TO.N,SCL*%
X107950000Y-50165000D02*
X107950000Y-47214444D01*
X118314999Y-55880000D02*
X120650000Y-58215001D01*
X114139444Y-41025000D02*
X115217500Y-41025000D01*
X117440000Y-55880000D02*
X118314999Y-55880000D01*
X107950000Y-47214444D02*
X114139444Y-41025000D01*
X143510000Y-62230000D02*
X138430000Y-57150000D01*
X120650000Y-58215001D02*
X120650000Y-62230000D01*
X138430000Y-57150000D02*
X137730000Y-57150000D01*
X107950000Y-49887500D02*
X107950000Y-50165000D01*
%TO.N,IR*%
X124670000Y-44025000D02*
X125095000Y-44450000D01*
X128435000Y-86195000D02*
X128435000Y-80220000D01*
X123542500Y-44025000D02*
X124670000Y-44025000D01*
X128435000Y-80220000D02*
X127000000Y-78785000D01*
X127360000Y-87270000D02*
X128435000Y-86195000D01*
%TD*%
%TA.AperFunction,Conductor*%
%TO.N,GND*%
G36*
X126191500Y-66190046D02*
G01*
X126171815Y-66257085D01*
X126155181Y-66277727D01*
X124306310Y-68126597D01*
X124244987Y-68160082D01*
X124175295Y-68155098D01*
X124153533Y-68144455D01*
X124049340Y-68080190D01*
X124049334Y-68080186D01*
X123882797Y-68025001D01*
X123882795Y-68025000D01*
X123780010Y-68014500D01*
X123154998Y-68014500D01*
X123154980Y-68014501D01*
X123052203Y-68025000D01*
X123052200Y-68025001D01*
X122885668Y-68080185D01*
X122885663Y-68080187D01*
X122736342Y-68172289D01*
X122642681Y-68265951D01*
X122581358Y-68299436D01*
X122511666Y-68294452D01*
X122467319Y-68265951D01*
X122373657Y-68172289D01*
X122373656Y-68172288D01*
X122280888Y-68115069D01*
X122224336Y-68080187D01*
X122224331Y-68080185D01*
X122222862Y-68079698D01*
X122057797Y-68025001D01*
X122057795Y-68025000D01*
X121955010Y-68014500D01*
X121329998Y-68014500D01*
X121329980Y-68014501D01*
X121227203Y-68025000D01*
X121227200Y-68025001D01*
X121060668Y-68080185D01*
X121060663Y-68080187D01*
X120911342Y-68172289D01*
X120787289Y-68296342D01*
X120695187Y-68445663D01*
X120695186Y-68445666D01*
X120640001Y-68612203D01*
X120640001Y-68612204D01*
X120640000Y-68612204D01*
X120629500Y-68714983D01*
X120629500Y-69715001D01*
X120629501Y-69715019D01*
X120640000Y-69817796D01*
X120640001Y-69817799D01*
X120695185Y-69984331D01*
X120695186Y-69984334D01*
X120787288Y-70133656D01*
X120911344Y-70257712D01*
X120920591Y-70263416D01*
X120967318Y-70315360D01*
X120979500Y-70368957D01*
X120979500Y-71830621D01*
X120959815Y-71897660D01*
X120920599Y-71936158D01*
X120886346Y-71957285D01*
X120762289Y-72081342D01*
X120670187Y-72230663D01*
X120670185Y-72230668D01*
X120670115Y-72230880D01*
X120615001Y-72397203D01*
X120615001Y-72397204D01*
X120615000Y-72397204D01*
X120604500Y-72499983D01*
X120604500Y-73550001D01*
X120604501Y-73550019D01*
X120615000Y-73652796D01*
X120615001Y-73652799D01*
X120670115Y-73819119D01*
X120670186Y-73819334D01*
X120762096Y-73968345D01*
X120762289Y-73968657D01*
X120886345Y-74092713D01*
X120920594Y-74113837D01*
X120967320Y-74165784D01*
X120979500Y-74219377D01*
X120979500Y-77690444D01*
X120959815Y-77757483D01*
X120946730Y-77774426D01*
X120811019Y-77921849D01*
X120684075Y-78116151D01*
X120590842Y-78328699D01*
X120533866Y-78553691D01*
X120533864Y-78553702D01*
X120514700Y-78784993D01*
X120514700Y-78785006D01*
X120533864Y-79016297D01*
X120533866Y-79016308D01*
X120590842Y-79241300D01*
X120684075Y-79453848D01*
X120811016Y-79648147D01*
X120811019Y-79648151D01*
X120811021Y-79648153D01*
X120968216Y-79818913D01*
X120968219Y-79818915D01*
X120968222Y-79818918D01*
X121151365Y-79961464D01*
X121151371Y-79961468D01*
X121151374Y-79961470D01*
X121274399Y-80028048D01*
X121354652Y-80071479D01*
X121355497Y-80071936D01*
X121469487Y-80111068D01*
X121575015Y-80147297D01*
X121575017Y-80147297D01*
X121575019Y-80147298D01*
X121803951Y-80185500D01*
X121803952Y-80185500D01*
X122036051Y-80185500D01*
X122060082Y-80181489D01*
X122080093Y-80178150D01*
X122149459Y-80186530D01*
X122188186Y-80212777D01*
X124924141Y-82948732D01*
X124924142Y-82948733D01*
X125011267Y-83035858D01*
X125011268Y-83035859D01*
X125113707Y-83104307D01*
X125113713Y-83104310D01*
X125113714Y-83104311D01*
X125227548Y-83151463D01*
X125287971Y-83163481D01*
X125348393Y-83175500D01*
X125348394Y-83175500D01*
X126610500Y-83175500D01*
X126677539Y-83195185D01*
X126723294Y-83247989D01*
X126734500Y-83299500D01*
X126734500Y-83641414D01*
X126714815Y-83708453D01*
X126662011Y-83754208D01*
X126649505Y-83759120D01*
X126540666Y-83795186D01*
X126540663Y-83795187D01*
X126391342Y-83887289D01*
X126267289Y-84011342D01*
X126175187Y-84160663D01*
X126175185Y-84160668D01*
X126175115Y-84160880D01*
X126120001Y-84327203D01*
X126120001Y-84327204D01*
X126120000Y-84327204D01*
X126109500Y-84429983D01*
X126109500Y-85030001D01*
X126109501Y-85030019D01*
X126120000Y-85132796D01*
X126120001Y-85132799D01*
X126175115Y-85299119D01*
X126175186Y-85299334D01*
X126267288Y-85448656D01*
X126391344Y-85572712D01*
X126540666Y-85664814D01*
X126707203Y-85719999D01*
X126809991Y-85730500D01*
X127685500Y-85730499D01*
X127752539Y-85750183D01*
X127798294Y-85802987D01*
X127809500Y-85854499D01*
X127809500Y-85884547D01*
X127789815Y-85951586D01*
X127773181Y-85972228D01*
X127512227Y-86233181D01*
X127450904Y-86266666D01*
X127424546Y-86269500D01*
X126809998Y-86269500D01*
X126809980Y-86269501D01*
X126707203Y-86280000D01*
X126707200Y-86280001D01*
X126540668Y-86335185D01*
X126540663Y-86335187D01*
X126391342Y-86427289D01*
X126267289Y-86551342D01*
X126175187Y-86700663D01*
X126175185Y-86700668D01*
X126175115Y-86700880D01*
X126120001Y-86867203D01*
X126120001Y-86867204D01*
X126120000Y-86867204D01*
X126109500Y-86969983D01*
X126109500Y-87570001D01*
X126109501Y-87570019D01*
X126120000Y-87672796D01*
X126120001Y-87672799D01*
X126175115Y-87839119D01*
X126175186Y-87839334D01*
X126267288Y-87988656D01*
X126391344Y-88112712D01*
X126540666Y-88204814D01*
X126707203Y-88259999D01*
X126809991Y-88270500D01*
X127910008Y-88270499D01*
X127910016Y-88270498D01*
X127910019Y-88270498D01*
X127966302Y-88264748D01*
X128012797Y-88259999D01*
X128179334Y-88204814D01*
X128328656Y-88112712D01*
X128452712Y-87988656D01*
X128544814Y-87839334D01*
X128599999Y-87672797D01*
X128610500Y-87570009D01*
X128610499Y-86969992D01*
X128610379Y-86968818D01*
X128610426Y-86968565D01*
X128610338Y-86966837D01*
X128610751Y-86966815D01*
X128623147Y-86900126D01*
X128646053Y-86868537D01*
X128920858Y-86593733D01*
X128989312Y-86491285D01*
X129036463Y-86377451D01*
X129048400Y-86317440D01*
X129060501Y-86256608D01*
X129060501Y-86128283D01*
X129060500Y-86128257D01*
X129060500Y-80158393D01*
X129060499Y-80158389D01*
X129043303Y-80071936D01*
X129036463Y-80037548D01*
X128989311Y-79923714D01*
X128989310Y-79923713D01*
X128989307Y-79923707D01*
X128920859Y-79821268D01*
X128918504Y-79818913D01*
X128833733Y-79734142D01*
X128833732Y-79734141D01*
X128656447Y-79556856D01*
X128436818Y-79337227D01*
X128403333Y-79275904D01*
X128400499Y-79249546D01*
X128400499Y-78083506D01*
X128400498Y-78083491D01*
X128395560Y-78035150D01*
X128390021Y-77980928D01*
X128334954Y-77814747D01*
X128243048Y-77665744D01*
X128119256Y-77541952D01*
X127970253Y-77450046D01*
X127938762Y-77439611D01*
X127804073Y-77394979D01*
X127804066Y-77394978D01*
X127701502Y-77384500D01*
X126298506Y-77384500D01*
X126298490Y-77384501D01*
X126195926Y-77394979D01*
X126029749Y-77450045D01*
X126029744Y-77450047D01*
X125880742Y-77541953D01*
X125756953Y-77665742D01*
X125665047Y-77814744D01*
X125665045Y-77814749D01*
X125615434Y-77964466D01*
X125585409Y-78013143D01*
X124902137Y-78696414D01*
X124879333Y-78611306D01*
X124820090Y-78508694D01*
X124736306Y-78424910D01*
X124633694Y-78365667D01*
X124548584Y-78342861D01*
X125258797Y-77632647D01*
X125258797Y-77632645D01*
X125228360Y-77608955D01*
X125228354Y-77608951D01*
X125024302Y-77498523D01*
X125024293Y-77498520D01*
X124804860Y-77423188D01*
X124576007Y-77385000D01*
X124343993Y-77385000D01*
X124115139Y-77423188D01*
X123895706Y-77498520D01*
X123895697Y-77498523D01*
X123691650Y-77608949D01*
X123661200Y-77632647D01*
X124371415Y-78342861D01*
X124286306Y-78365667D01*
X124183694Y-78424910D01*
X124099910Y-78508694D01*
X124040667Y-78611306D01*
X124017861Y-78696415D01*
X123308811Y-77987365D01*
X123294106Y-78009873D01*
X123240959Y-78055230D01*
X123171728Y-78064653D01*
X123108392Y-78035150D01*
X123086489Y-78009873D01*
X123067578Y-77980928D01*
X123028979Y-77921847D01*
X122871784Y-77751087D01*
X122871779Y-77751083D01*
X122871777Y-77751081D01*
X122688634Y-77608535D01*
X122688628Y-77608531D01*
X122484504Y-77498064D01*
X122484495Y-77498061D01*
X122314237Y-77439611D01*
X122257222Y-77399226D01*
X122231091Y-77334426D01*
X122230500Y-77322330D01*
X122230500Y-74219377D01*
X122250185Y-74152338D01*
X122289406Y-74113837D01*
X122323654Y-74092713D01*
X122323653Y-74092713D01*
X122323656Y-74092712D01*
X122447712Y-73968656D01*
X122449752Y-73965347D01*
X122451745Y-73963555D01*
X122452193Y-73962989D01*
X122452289Y-73963065D01*
X122501694Y-73918623D01*
X122570656Y-73907395D01*
X122634740Y-73935234D01*
X122660829Y-73965339D01*
X122662681Y-73968341D01*
X122662683Y-73968344D01*
X122786654Y-74092315D01*
X122935875Y-74184356D01*
X122935880Y-74184358D01*
X123102302Y-74239505D01*
X123102309Y-74239506D01*
X123205019Y-74249999D01*
X123254999Y-74249998D01*
X123255000Y-74249998D01*
X123255000Y-73275000D01*
X123755000Y-73275000D01*
X123755000Y-74249999D01*
X123804972Y-74249999D01*
X123804986Y-74249998D01*
X123907697Y-74239505D01*
X124074119Y-74184358D01*
X124074124Y-74184356D01*
X124223345Y-74092315D01*
X124347315Y-73968345D01*
X124439356Y-73819124D01*
X124439358Y-73819119D01*
X124494505Y-73652697D01*
X124494506Y-73652690D01*
X124504999Y-73549986D01*
X124505000Y-73549973D01*
X124505000Y-73275000D01*
X123755000Y-73275000D01*
X123255000Y-73275000D01*
X123255000Y-71800000D01*
X123755000Y-71800000D01*
X123755000Y-72775000D01*
X124504999Y-72775000D01*
X124504999Y-72500028D01*
X124504998Y-72500013D01*
X124494505Y-72397302D01*
X124439358Y-72230880D01*
X124439356Y-72230875D01*
X124347315Y-72081654D01*
X124223345Y-71957684D01*
X124074124Y-71865643D01*
X124074119Y-71865641D01*
X123907697Y-71810494D01*
X123907690Y-71810493D01*
X123804986Y-71800000D01*
X123755000Y-71800000D01*
X123255000Y-71800000D01*
X123254999Y-71799999D01*
X123205029Y-71800000D01*
X123205011Y-71800001D01*
X123102302Y-71810494D01*
X122935880Y-71865641D01*
X122935875Y-71865643D01*
X122786654Y-71957684D01*
X122662683Y-72081655D01*
X122662679Y-72081660D01*
X122660826Y-72084665D01*
X122659018Y-72086290D01*
X122658202Y-72087323D01*
X122658025Y-72087183D01*
X122608874Y-72131385D01*
X122539911Y-72142601D01*
X122475831Y-72114752D01*
X122449753Y-72084653D01*
X122449737Y-72084628D01*
X122447712Y-72081344D01*
X122323656Y-71957288D01*
X122323653Y-71957285D01*
X122289401Y-71936158D01*
X122242678Y-71884210D01*
X122230500Y-71830621D01*
X122230500Y-70415217D01*
X122250185Y-70348178D01*
X122289405Y-70309678D01*
X122373651Y-70257715D01*
X122373654Y-70257713D01*
X122373653Y-70257713D01*
X122373656Y-70257712D01*
X122467319Y-70164049D01*
X122528642Y-70130564D01*
X122598334Y-70135548D01*
X122642681Y-70164049D01*
X122736344Y-70257712D01*
X122885666Y-70349814D01*
X123052203Y-70404999D01*
X123154991Y-70415500D01*
X123173556Y-70415499D01*
X123221010Y-70424937D01*
X123285049Y-70451463D01*
X123405888Y-70475499D01*
X123405892Y-70475500D01*
X123405893Y-70475500D01*
X123529108Y-70475500D01*
X123529109Y-70475499D01*
X123649951Y-70451463D01*
X123713989Y-70424938D01*
X123761441Y-70415499D01*
X123780002Y-70415499D01*
X123780008Y-70415499D01*
X123882797Y-70404999D01*
X124049334Y-70349814D01*
X124198656Y-70257712D01*
X124322712Y-70133656D01*
X124414814Y-69984334D01*
X124469999Y-69817797D01*
X124475267Y-69766223D01*
X124501662Y-69701533D01*
X124510935Y-69691154D01*
X127302857Y-66899234D01*
X127371311Y-66796786D01*
X127418463Y-66682951D01*
X127442500Y-66562107D01*
X127442500Y-66438894D01*
X127442500Y-64770000D01*
X130547345Y-64770000D01*
X130544859Y-64800004D01*
X130544859Y-64800005D01*
X130565385Y-65047729D01*
X130565387Y-65047738D01*
X130626412Y-65288717D01*
X130726266Y-65516364D01*
X130826564Y-65669882D01*
X131567037Y-64929408D01*
X131584075Y-64992993D01*
X131649901Y-65107007D01*
X131742993Y-65200099D01*
X131857007Y-65265925D01*
X131920590Y-65282962D01*
X131179942Y-66023609D01*
X131226768Y-66060055D01*
X131226770Y-66060056D01*
X131445385Y-66178364D01*
X131445396Y-66178369D01*
X131680506Y-66259083D01*
X131925707Y-66300000D01*
X132174293Y-66300000D01*
X132419493Y-66259083D01*
X132654603Y-66178369D01*
X132654614Y-66178364D01*
X132873228Y-66060057D01*
X132873231Y-66060055D01*
X132920056Y-66023609D01*
X132179409Y-65282962D01*
X132242993Y-65265925D01*
X132357007Y-65200099D01*
X132450099Y-65107007D01*
X132515925Y-64992993D01*
X132532962Y-64929410D01*
X133273434Y-65669882D01*
X133373731Y-65516369D01*
X133473587Y-65288717D01*
X133534612Y-65047738D01*
X133534614Y-65047729D01*
X133555141Y-64800005D01*
X133555141Y-64800004D01*
X133552655Y-64770000D01*
X134973552Y-64770000D01*
X135570590Y-65367037D01*
X135507007Y-65384075D01*
X135392993Y-65449901D01*
X135299901Y-65542993D01*
X135234075Y-65657007D01*
X135217037Y-65720589D01*
X134476564Y-64980116D01*
X134376267Y-65133632D01*
X134276412Y-65361282D01*
X134215387Y-65602261D01*
X134215385Y-65602270D01*
X134194859Y-65849994D01*
X134194859Y-65850005D01*
X134215385Y-66097729D01*
X134215387Y-66097738D01*
X134276412Y-66338717D01*
X134376266Y-66566364D01*
X134476564Y-66719882D01*
X135217037Y-65979409D01*
X135234075Y-66042993D01*
X135299901Y-66157007D01*
X135392993Y-66250099D01*
X135507007Y-66315925D01*
X135570588Y-66332962D01*
X134829942Y-67073609D01*
X134876768Y-67110055D01*
X134876770Y-67110056D01*
X135095385Y-67228364D01*
X135095396Y-67228369D01*
X135330506Y-67309083D01*
X135575707Y-67350000D01*
X135766000Y-67350000D01*
X135833039Y-67369685D01*
X135878794Y-67422489D01*
X135890000Y-67474000D01*
X135890000Y-89411000D01*
X135870315Y-89478039D01*
X135817511Y-89523794D01*
X135766000Y-89535000D01*
X120139000Y-89535000D01*
X120071961Y-89515315D01*
X120026206Y-89462511D01*
X120015000Y-89411000D01*
X120015000Y-88261056D01*
X120922494Y-88261056D01*
X121010021Y-88269999D01*
X122109972Y-88269999D01*
X122109985Y-88269998D01*
X122197504Y-88261056D01*
X121560001Y-87623553D01*
X121560000Y-87623553D01*
X120922494Y-88261056D01*
X120015000Y-88261056D01*
X120015000Y-87569971D01*
X120310000Y-87569971D01*
X120310001Y-87569987D01*
X120320494Y-87672697D01*
X120375641Y-87839119D01*
X120375643Y-87839124D01*
X120467684Y-87988345D01*
X120477893Y-87998554D01*
X121206447Y-87270000D01*
X121913553Y-87270000D01*
X122642107Y-87998554D01*
X122652315Y-87988345D01*
X122744356Y-87839124D01*
X122744358Y-87839119D01*
X122799505Y-87672697D01*
X122799506Y-87672690D01*
X122809999Y-87569986D01*
X122809999Y-86970028D01*
X122809998Y-86970012D01*
X122799505Y-86867302D01*
X122744358Y-86700880D01*
X122744356Y-86700875D01*
X122652315Y-86551654D01*
X122642107Y-86541446D01*
X121913553Y-87270000D01*
X121206447Y-87270000D01*
X120477893Y-86541446D01*
X120467684Y-86551654D01*
X120375643Y-86700875D01*
X120375641Y-86700880D01*
X120320494Y-86867302D01*
X120320493Y-86867309D01*
X120310000Y-86970013D01*
X120310000Y-87569971D01*
X120015000Y-87569971D01*
X120015000Y-86278942D01*
X120922494Y-86278942D01*
X121560000Y-86916447D01*
X121560001Y-86916447D01*
X122197504Y-86278942D01*
X122109979Y-86270000D01*
X121010028Y-86270000D01*
X121010012Y-86270001D01*
X120922495Y-86278942D01*
X120922494Y-86278942D01*
X120015000Y-86278942D01*
X120015000Y-85721056D01*
X120922494Y-85721056D01*
X121010021Y-85729999D01*
X122109972Y-85729999D01*
X122109985Y-85729998D01*
X122197504Y-85721056D01*
X121560001Y-85083553D01*
X121560000Y-85083553D01*
X120922494Y-85721056D01*
X120015000Y-85721056D01*
X120015000Y-85029971D01*
X120310000Y-85029971D01*
X120310001Y-85029987D01*
X120320494Y-85132697D01*
X120375641Y-85299119D01*
X120375643Y-85299124D01*
X120467684Y-85448345D01*
X120477893Y-85458554D01*
X121206447Y-84730000D01*
X121913553Y-84730000D01*
X122642107Y-85458554D01*
X122652315Y-85448345D01*
X122744356Y-85299124D01*
X122744358Y-85299119D01*
X122799505Y-85132697D01*
X122799506Y-85132690D01*
X122809999Y-85029986D01*
X122809999Y-84430028D01*
X122809998Y-84430012D01*
X122799505Y-84327302D01*
X122744358Y-84160880D01*
X122744356Y-84160875D01*
X122652315Y-84011654D01*
X122642107Y-84001446D01*
X121913553Y-84730000D01*
X121206447Y-84730000D01*
X120477893Y-84001446D01*
X120467684Y-84011654D01*
X120375643Y-84160875D01*
X120375641Y-84160880D01*
X120320494Y-84327302D01*
X120320493Y-84327309D01*
X120310000Y-84430013D01*
X120310000Y-85029971D01*
X120015000Y-85029971D01*
X120015000Y-83738942D01*
X120922494Y-83738942D01*
X121560000Y-84376447D01*
X121560001Y-84376447D01*
X122197504Y-83738942D01*
X122109979Y-83730000D01*
X121010028Y-83730000D01*
X121010012Y-83730001D01*
X120922495Y-83738942D01*
X120922494Y-83738942D01*
X120015000Y-83738942D01*
X120015000Y-72390000D01*
X118869000Y-72390000D01*
X118801961Y-72370315D01*
X118756206Y-72317511D01*
X118745000Y-72266000D01*
X118745000Y-66629741D01*
X118764685Y-66562702D01*
X118817489Y-66516947D01*
X118886647Y-66507003D01*
X118950203Y-66536028D01*
X118971888Y-66563054D01*
X118973022Y-66562314D01*
X119111833Y-66774782D01*
X119132089Y-66796786D01*
X119280256Y-66957738D01*
X119476491Y-67110474D01*
X119476493Y-67110475D01*
X119694332Y-67228364D01*
X119695190Y-67228828D01*
X119914141Y-67303994D01*
X119928964Y-67309083D01*
X119930386Y-67309571D01*
X120175665Y-67350500D01*
X120424335Y-67350500D01*
X120669614Y-67309571D01*
X120904810Y-67228828D01*
X121123509Y-67110474D01*
X121319744Y-66957738D01*
X121488164Y-66774785D01*
X121624173Y-66566607D01*
X121624280Y-66566364D01*
X121631595Y-66549689D01*
X121676551Y-66496203D01*
X121743287Y-66475514D01*
X121745150Y-66475500D01*
X122961607Y-66475500D01*
X123022029Y-66463481D01*
X123082452Y-66451463D01*
X123082455Y-66451461D01*
X123082458Y-66451461D01*
X123115787Y-66437654D01*
X123115786Y-66437654D01*
X123115792Y-66437652D01*
X123196286Y-66404312D01*
X123247509Y-66370084D01*
X123298733Y-66335858D01*
X123372772Y-66261818D01*
X123434093Y-66228335D01*
X123500715Y-66232220D01*
X123580383Y-66259570D01*
X123580386Y-66259571D01*
X123825665Y-66300500D01*
X124074335Y-66300500D01*
X124319614Y-66259571D01*
X124554810Y-66178828D01*
X124773509Y-66060474D01*
X124969744Y-65907738D01*
X125138164Y-65724785D01*
X125274173Y-65516607D01*
X125374063Y-65288881D01*
X125435108Y-65047821D01*
X125440718Y-64980116D01*
X125455643Y-64800005D01*
X125455643Y-64800004D01*
X125453157Y-64770000D01*
X126191500Y-64770000D01*
X126191500Y-66190046D01*
G37*
%TD.AperFunction*%
%TA.AperFunction,Conductor*%
G36*
X125585409Y-79556856D02*
G01*
X125615433Y-79605531D01*
X125665046Y-79755253D01*
X125756952Y-79904256D01*
X125880744Y-80028048D01*
X126029747Y-80119954D01*
X126195928Y-80175021D01*
X126298499Y-80185500D01*
X127464546Y-80185499D01*
X127531585Y-80205184D01*
X127552227Y-80221818D01*
X127773181Y-80442771D01*
X127806666Y-80504094D01*
X127809500Y-80530452D01*
X127809500Y-82175548D01*
X127789815Y-82242587D01*
X127737011Y-82288342D01*
X127667853Y-82298286D01*
X127604297Y-82269261D01*
X127597819Y-82263229D01*
X127490198Y-82155608D01*
X127490178Y-82155586D01*
X127398733Y-82064141D01*
X127347509Y-82029915D01*
X127296287Y-81995689D01*
X127296286Y-81995688D01*
X127296283Y-81995686D01*
X127296280Y-81995685D01*
X127215792Y-81962347D01*
X127182453Y-81948537D01*
X127172427Y-81946543D01*
X127122029Y-81936518D01*
X127061610Y-81924500D01*
X127061607Y-81924500D01*
X127061606Y-81924500D01*
X125720453Y-81924500D01*
X125653414Y-81904815D01*
X125632772Y-81888181D01*
X124120287Y-80375697D01*
X124086802Y-80314374D01*
X124091786Y-80244682D01*
X124133658Y-80188749D01*
X124199122Y-80164332D01*
X124228378Y-80165707D01*
X124343994Y-80185000D01*
X124576007Y-80185000D01*
X124804860Y-80146811D01*
X125024293Y-80071479D01*
X125024301Y-80071476D01*
X125228355Y-79961047D01*
X125258797Y-79937351D01*
X125258798Y-79937351D01*
X124548585Y-79227138D01*
X124633694Y-79204333D01*
X124736306Y-79145090D01*
X124820090Y-79061306D01*
X124879333Y-78958694D01*
X124902138Y-78873585D01*
X125585409Y-79556856D01*
G37*
%TD.AperFunction*%
%TD*%
%TA.AperFunction,Conductor*%
%TO.N,GND*%
G36*
X156491222Y-29986546D02*
G01*
X156555336Y-30014310D01*
X156594264Y-30072330D01*
X156600000Y-30109608D01*
X156600000Y-64876000D01*
X156580315Y-64943039D01*
X156527511Y-64988794D01*
X156476000Y-65000000D01*
X137003529Y-65000000D01*
X136942577Y-64982102D01*
X136923434Y-64980117D01*
X136903551Y-65000000D01*
X136196447Y-65000000D01*
X136570057Y-64626390D01*
X136570056Y-64626389D01*
X136523229Y-64589943D01*
X136304614Y-64471635D01*
X136304603Y-64471630D01*
X136069493Y-64390916D01*
X135824293Y-64350000D01*
X135575707Y-64350000D01*
X135330506Y-64390916D01*
X135095396Y-64471630D01*
X135095390Y-64471632D01*
X134876761Y-64589949D01*
X134829942Y-64626388D01*
X134829942Y-64626390D01*
X134973552Y-64770000D01*
X133552656Y-64770000D01*
X133534614Y-64552270D01*
X133534612Y-64552261D01*
X133473587Y-64311282D01*
X133373731Y-64083630D01*
X133273434Y-63930116D01*
X132532962Y-64670588D01*
X132515925Y-64607007D01*
X132450099Y-64492993D01*
X132357007Y-64399901D01*
X132242993Y-64334075D01*
X132179410Y-64317037D01*
X132920057Y-63576390D01*
X132920056Y-63576389D01*
X132873229Y-63539943D01*
X132654614Y-63421635D01*
X132654603Y-63421630D01*
X132419493Y-63340916D01*
X132174293Y-63300000D01*
X131925707Y-63300000D01*
X131680506Y-63340916D01*
X131445396Y-63421630D01*
X131445390Y-63421632D01*
X131226761Y-63539949D01*
X131179942Y-63576388D01*
X131179942Y-63576390D01*
X131920590Y-64317037D01*
X131857007Y-64334075D01*
X131742993Y-64399901D01*
X131649901Y-64492993D01*
X131584075Y-64607007D01*
X131567037Y-64670590D01*
X130826564Y-63930116D01*
X130726267Y-64083632D01*
X130626412Y-64311282D01*
X130565387Y-64552261D01*
X130565385Y-64552270D01*
X130547344Y-64770000D01*
X127442500Y-64770000D01*
X127442500Y-57261757D01*
X127462185Y-57194718D01*
X127514989Y-57148963D01*
X127584147Y-57139019D01*
X127647703Y-57168044D01*
X127654181Y-57174076D01*
X130020711Y-59540606D01*
X130020740Y-59540637D01*
X130110958Y-59630855D01*
X130110962Y-59630858D01*
X130213402Y-59699307D01*
X130213406Y-59699309D01*
X130213409Y-59699311D01*
X130327243Y-59746463D01*
X130387666Y-59758481D01*
X130448088Y-59770500D01*
X133767515Y-59770500D01*
X133827937Y-59758481D01*
X133888360Y-59746463D01*
X133888363Y-59746461D01*
X133888366Y-59746461D01*
X133921695Y-59732654D01*
X133921694Y-59732654D01*
X133921700Y-59732652D01*
X134002194Y-59699312D01*
X134053417Y-59665084D01*
X134104641Y-59630858D01*
X134191766Y-59543733D01*
X134191766Y-59543731D01*
X134201974Y-59533524D01*
X134201975Y-59533521D01*
X136142594Y-57592903D01*
X136203915Y-57559420D01*
X136273607Y-57564404D01*
X136329540Y-57606276D01*
X136337005Y-57617465D01*
X136386916Y-57701861D01*
X136391702Y-57708031D01*
X136389256Y-57709927D01*
X136415857Y-57758642D01*
X136410873Y-57828334D01*
X136390069Y-57860703D01*
X136391702Y-57861969D01*
X136386917Y-57868137D01*
X136303255Y-58009603D01*
X136303254Y-58009606D01*
X136257402Y-58167426D01*
X136257401Y-58167432D01*
X136254500Y-58204298D01*
X136254500Y-58635701D01*
X136257401Y-58672567D01*
X136257402Y-58672573D01*
X136303254Y-58830393D01*
X136303255Y-58830396D01*
X136303256Y-58830398D01*
X136306485Y-58835858D01*
X136386917Y-58971862D01*
X136386923Y-58971870D01*
X136503129Y-59088076D01*
X136503133Y-59088079D01*
X136503135Y-59088081D01*
X136644602Y-59171744D01*
X136686224Y-59183836D01*
X136802426Y-59217597D01*
X136802429Y-59217597D01*
X136802431Y-59217598D01*
X136839306Y-59220500D01*
X136839314Y-59220500D01*
X138569547Y-59220500D01*
X138636586Y-59240185D01*
X138657228Y-59256819D01*
X140347439Y-60947030D01*
X140380924Y-61008353D01*
X140375940Y-61078045D01*
X140334068Y-61133978D01*
X140330882Y-61136286D01*
X140155375Y-61259177D01*
X139999175Y-61415377D01*
X139872467Y-61596337D01*
X139812105Y-61725782D01*
X139765932Y-61778221D01*
X139698738Y-61797372D01*
X139631857Y-61777156D01*
X139587341Y-61725780D01*
X139527098Y-61596589D01*
X139527097Y-61596587D01*
X139481741Y-61531811D01*
X139481740Y-61531810D01*
X138811000Y-62202551D01*
X138811000Y-62179840D01*
X138785036Y-62082939D01*
X138734876Y-61996060D01*
X138663940Y-61925124D01*
X138577061Y-61874964D01*
X138480160Y-61849000D01*
X138457448Y-61849000D01*
X139128188Y-61178259D01*
X139128187Y-61178258D01*
X139063411Y-61132901D01*
X139063405Y-61132898D01*
X138863284Y-61039580D01*
X138863270Y-61039575D01*
X138649986Y-60982426D01*
X138649976Y-60982424D01*
X138430001Y-60963179D01*
X138429999Y-60963179D01*
X138210023Y-60982424D01*
X138210013Y-60982426D01*
X137996729Y-61039575D01*
X137996720Y-61039579D01*
X137796590Y-61132901D01*
X137731811Y-61178258D01*
X138402553Y-61849000D01*
X138379840Y-61849000D01*
X138282939Y-61874964D01*
X138196060Y-61925124D01*
X138125124Y-61996060D01*
X138074964Y-62082939D01*
X138049000Y-62179840D01*
X138049000Y-62202553D01*
X137378258Y-61531811D01*
X137332901Y-61596590D01*
X137239579Y-61796720D01*
X137239575Y-61796729D01*
X137182426Y-62010013D01*
X137182424Y-62010023D01*
X137163179Y-62229999D01*
X137163179Y-62230000D01*
X137182424Y-62449976D01*
X137182426Y-62449986D01*
X137239575Y-62663270D01*
X137239580Y-62663284D01*
X137332898Y-62863405D01*
X137332901Y-62863411D01*
X137378258Y-62928187D01*
X137378259Y-62928188D01*
X138049000Y-62257447D01*
X138049000Y-62280160D01*
X138074964Y-62377061D01*
X138125124Y-62463940D01*
X138196060Y-62534876D01*
X138282939Y-62585036D01*
X138379840Y-62611000D01*
X138402553Y-62611000D01*
X137731810Y-63281740D01*
X137796590Y-63327099D01*
X137796592Y-63327100D01*
X137996715Y-63420419D01*
X137996729Y-63420424D01*
X138210013Y-63477573D01*
X138210023Y-63477575D01*
X138429999Y-63496821D01*
X138430001Y-63496821D01*
X138649976Y-63477575D01*
X138649986Y-63477573D01*
X138863270Y-63420424D01*
X138863284Y-63420419D01*
X139063407Y-63327100D01*
X139063417Y-63327094D01*
X139128188Y-63281741D01*
X138457448Y-62611000D01*
X138480160Y-62611000D01*
X138577061Y-62585036D01*
X138663940Y-62534876D01*
X138734876Y-62463940D01*
X138785036Y-62377061D01*
X138811000Y-62280160D01*
X138811000Y-62257447D01*
X139481741Y-62928188D01*
X139527094Y-62863417D01*
X139527095Y-62863416D01*
X139587340Y-62734219D01*
X139633512Y-62681780D01*
X139700706Y-62662627D01*
X139767587Y-62682842D01*
X139812105Y-62734218D01*
X139872466Y-62863662D01*
X139872468Y-62863666D01*
X139999170Y-63044615D01*
X139999175Y-63044621D01*
X140155378Y-63200824D01*
X140155384Y-63200829D01*
X140336333Y-63327531D01*
X140336335Y-63327532D01*
X140336338Y-63327534D01*
X140536550Y-63420894D01*
X140749932Y-63478070D01*
X140907123Y-63491822D01*
X140969998Y-63497323D01*
X140970000Y-63497323D01*
X140970002Y-63497323D01*
X141025017Y-63492509D01*
X141190068Y-63478070D01*
X141234022Y-63466292D01*
X141303870Y-63467955D01*
X141353796Y-63498386D01*
X142018016Y-64162606D01*
X142018045Y-64162637D01*
X142108263Y-64252855D01*
X142108267Y-64252858D01*
X142210707Y-64321307D01*
X142210716Y-64321312D01*
X142231739Y-64330020D01*
X142324548Y-64368463D01*
X142384971Y-64380481D01*
X142445393Y-64392500D01*
X153279607Y-64392500D01*
X153340029Y-64380481D01*
X153400452Y-64368463D01*
X153442867Y-64350894D01*
X153514286Y-64321312D01*
X153565509Y-64287084D01*
X153616733Y-64252858D01*
X153703858Y-64165733D01*
X153703859Y-64165731D01*
X153710925Y-64158665D01*
X153710928Y-64158661D01*
X155788729Y-62080860D01*
X155788733Y-62080858D01*
X155875858Y-61993733D01*
X155944311Y-61891286D01*
X155944312Y-61891285D01*
X155944313Y-61891282D01*
X155944315Y-61891279D01*
X155958785Y-61856344D01*
X155991463Y-61777451D01*
X156015500Y-61656607D01*
X156015500Y-61533393D01*
X156015500Y-56625894D01*
X155991463Y-56505048D01*
X155962163Y-56434311D01*
X155952496Y-56410972D01*
X155944314Y-56391219D01*
X155944313Y-56391217D01*
X155875859Y-56288768D01*
X155803067Y-56215976D01*
X155541816Y-55954726D01*
X155508333Y-55893405D01*
X155505499Y-55867055D01*
X155505499Y-55289992D01*
X155503600Y-55271405D01*
X155494999Y-55187203D01*
X155494998Y-55187200D01*
X155486499Y-55161552D01*
X155439814Y-55020666D01*
X155347712Y-54871344D01*
X155223656Y-54747288D01*
X155074334Y-54655186D01*
X154907797Y-54600001D01*
X154907795Y-54600000D01*
X154805010Y-54589500D01*
X153804998Y-54589500D01*
X153804980Y-54589501D01*
X153702203Y-54600000D01*
X153702200Y-54600001D01*
X153535668Y-54655185D01*
X153535663Y-54655187D01*
X153386342Y-54747289D01*
X153269951Y-54863681D01*
X153208628Y-54897166D01*
X153182270Y-54900000D01*
X150350000Y-54900000D01*
X150330462Y-54919537D01*
X150330315Y-54920039D01*
X150327663Y-54922336D01*
X150313681Y-54936319D01*
X150312680Y-54935318D01*
X150277511Y-54965794D01*
X150226000Y-54977000D01*
X148622952Y-54977000D01*
X148555913Y-54957315D01*
X148535271Y-54940681D01*
X147994590Y-54400000D01*
X150350000Y-54400000D01*
X151500000Y-54400000D01*
X151500000Y-53600000D01*
X152000000Y-53600000D01*
X152000000Y-54400000D01*
X153150000Y-54400000D01*
X153150000Y-54052172D01*
X153149999Y-54052155D01*
X153143598Y-53992627D01*
X153143596Y-53992620D01*
X153093354Y-53857913D01*
X153093350Y-53857906D01*
X153007190Y-53742812D01*
X153007187Y-53742809D01*
X152892093Y-53656649D01*
X152892086Y-53656645D01*
X152757379Y-53606403D01*
X152757372Y-53606401D01*
X152697844Y-53600000D01*
X152000000Y-53600000D01*
X151500000Y-53600000D01*
X150802155Y-53600000D01*
X150742627Y-53606401D01*
X150742620Y-53606403D01*
X150607913Y-53656645D01*
X150607906Y-53656649D01*
X150492812Y-53742809D01*
X150492809Y-53742812D01*
X150406649Y-53857906D01*
X150406645Y-53857913D01*
X150356403Y-53992620D01*
X150356401Y-53992627D01*
X150350000Y-54052155D01*
X150350000Y-54400000D01*
X147994590Y-54400000D01*
X146975198Y-53380608D01*
X146975178Y-53380586D01*
X146883733Y-53289141D01*
X146832509Y-53254915D01*
X146781287Y-53220689D01*
X146781286Y-53220688D01*
X146781283Y-53220686D01*
X146781280Y-53220685D01*
X146700792Y-53187347D01*
X146667453Y-53173537D01*
X146657427Y-53171543D01*
X146607029Y-53161518D01*
X146546610Y-53149500D01*
X146546607Y-53149500D01*
X146546606Y-53149500D01*
X140765453Y-53149500D01*
X140698414Y-53129815D01*
X140677772Y-53113181D01*
X139877928Y-52313338D01*
X139877925Y-52313334D01*
X139877925Y-52313335D01*
X139870858Y-52306268D01*
X139870858Y-52306267D01*
X139783733Y-52219142D01*
X139783732Y-52219141D01*
X139780621Y-52216030D01*
X139780606Y-52216016D01*
X138825198Y-51260608D01*
X138825178Y-51260586D01*
X138733733Y-51169141D01*
X138665774Y-51123733D01*
X138648409Y-51112130D01*
X138631285Y-51100687D01*
X138591039Y-51084017D01*
X138550792Y-51067347D01*
X138517453Y-51053537D01*
X138507427Y-51051543D01*
X138457029Y-51041518D01*
X138396610Y-51029500D01*
X138396607Y-51029500D01*
X138396606Y-51029500D01*
X125256607Y-51029500D01*
X125133393Y-51029500D01*
X125133389Y-51029500D01*
X125072971Y-51041518D01*
X125029743Y-51050116D01*
X125012546Y-51053537D01*
X124898716Y-51100687D01*
X124898707Y-51100692D01*
X124796268Y-51169140D01*
X124755011Y-51210398D01*
X124709142Y-51256267D01*
X124709109Y-51256300D01*
X124707650Y-51257758D01*
X124646316Y-51291222D01*
X124576626Y-51286214D01*
X124532318Y-51257728D01*
X123181818Y-49907228D01*
X123148333Y-49845905D01*
X123145499Y-49819547D01*
X123145499Y-49549998D01*
X123145498Y-49549981D01*
X123134999Y-49447203D01*
X123134998Y-49447200D01*
X123113667Y-49382828D01*
X123079814Y-49280666D01*
X122987712Y-49131344D01*
X122906368Y-49050000D01*
X131565000Y-49050000D01*
X131565000Y-50003418D01*
X131580451Y-50140553D01*
X131580452Y-50140559D01*
X131641296Y-50314443D01*
X131739308Y-50470428D01*
X131869571Y-50600691D01*
X132025556Y-50698703D01*
X132199440Y-50759547D01*
X132199446Y-50759548D01*
X132336581Y-50774999D01*
X132336585Y-50775000D01*
X132450000Y-50775000D01*
X132950000Y-50775000D01*
X133063415Y-50775000D01*
X133063418Y-50774999D01*
X133200553Y-50759548D01*
X133200559Y-50759547D01*
X133374443Y-50698703D01*
X133530425Y-50600693D01*
X133611964Y-50519154D01*
X133673287Y-50485669D01*
X133742979Y-50490653D01*
X133787327Y-50519154D01*
X133869258Y-50601085D01*
X134025337Y-50699156D01*
X134149814Y-50742712D01*
X134199328Y-50760038D01*
X134287090Y-50769925D01*
X134336557Y-50775499D01*
X134336558Y-50775500D01*
X134336562Y-50775500D01*
X135063442Y-50775500D01*
X135063442Y-50775499D01*
X135125673Y-50768487D01*
X135200671Y-50760038D01*
X135230784Y-50749501D01*
X135374663Y-50699156D01*
X135530742Y-50601085D01*
X135612319Y-50519508D01*
X135673642Y-50486023D01*
X135743334Y-50491007D01*
X135787681Y-50519508D01*
X135869258Y-50601085D01*
X136025337Y-50699156D01*
X136149814Y-50742712D01*
X136199328Y-50760038D01*
X136287090Y-50769925D01*
X136336557Y-50775499D01*
X136336558Y-50775500D01*
X136336562Y-50775500D01*
X137063442Y-50775500D01*
X137063442Y-50775499D01*
X137125673Y-50768487D01*
X137200671Y-50760038D01*
X137230784Y-50749501D01*
X137374663Y-50699156D01*
X137530742Y-50601085D01*
X137612319Y-50519508D01*
X137673642Y-50486023D01*
X137743334Y-50491007D01*
X137787681Y-50519508D01*
X137869258Y-50601085D01*
X138025337Y-50699156D01*
X138149814Y-50742712D01*
X138199328Y-50760038D01*
X138287090Y-50769925D01*
X138336557Y-50775499D01*
X138336558Y-50775500D01*
X138336562Y-50775500D01*
X139063442Y-50775500D01*
X139063442Y-50775499D01*
X139125673Y-50768487D01*
X139200671Y-50760038D01*
X139230784Y-50749501D01*
X139374663Y-50699156D01*
X139530742Y-50601085D01*
X139612319Y-50519508D01*
X139673642Y-50486023D01*
X139743334Y-50491007D01*
X139787681Y-50519508D01*
X139869258Y-50601085D01*
X140025337Y-50699156D01*
X140149814Y-50742712D01*
X140199328Y-50760038D01*
X140287090Y-50769925D01*
X140336557Y-50775499D01*
X140336558Y-50775500D01*
X140336562Y-50775500D01*
X141063442Y-50775500D01*
X141063442Y-50775499D01*
X141125673Y-50768487D01*
X141200671Y-50760038D01*
X141230784Y-50749501D01*
X141374663Y-50699156D01*
X141530742Y-50601085D01*
X141612319Y-50519508D01*
X141673642Y-50486023D01*
X141743334Y-50491007D01*
X141787681Y-50519508D01*
X141869258Y-50601085D01*
X142025337Y-50699156D01*
X142149814Y-50742712D01*
X142199328Y-50760038D01*
X142287090Y-50769925D01*
X142336557Y-50775499D01*
X142336558Y-50775500D01*
X142336562Y-50775500D01*
X143063442Y-50775500D01*
X143063442Y-50775499D01*
X143125673Y-50768487D01*
X143200671Y-50760038D01*
X143230784Y-50749501D01*
X143374663Y-50699156D01*
X143530742Y-50601085D01*
X143612319Y-50519508D01*
X143673642Y-50486023D01*
X143743334Y-50491007D01*
X143787681Y-50519508D01*
X143869258Y-50601085D01*
X144025337Y-50699156D01*
X144149814Y-50742712D01*
X144199328Y-50760038D01*
X144287090Y-50769925D01*
X144336557Y-50775499D01*
X144336558Y-50775500D01*
X144336562Y-50775500D01*
X145063442Y-50775500D01*
X145063442Y-50775499D01*
X145125673Y-50768487D01*
X145200671Y-50760038D01*
X145230784Y-50749501D01*
X145374663Y-50699156D01*
X145530742Y-50601085D01*
X145612675Y-50519151D01*
X145673994Y-50485669D01*
X145743686Y-50490653D01*
X145788034Y-50519154D01*
X145869571Y-50600691D01*
X146025556Y-50698703D01*
X146199440Y-50759547D01*
X146199446Y-50759548D01*
X146336581Y-50774999D01*
X146336585Y-50775000D01*
X146450000Y-50775000D01*
X146450000Y-49050000D01*
X146950000Y-49050000D01*
X146950000Y-50775000D01*
X147063415Y-50775000D01*
X147063418Y-50774999D01*
X147200553Y-50759548D01*
X147200559Y-50759547D01*
X147374443Y-50698703D01*
X147530428Y-50600691D01*
X147660691Y-50470428D01*
X147758703Y-50314443D01*
X147819547Y-50140559D01*
X147819548Y-50140553D01*
X147834999Y-50003418D01*
X147835000Y-50003414D01*
X147835000Y-49050000D01*
X146950000Y-49050000D01*
X146450000Y-49050000D01*
X146450000Y-46825000D01*
X146950000Y-46825000D01*
X146950000Y-48550000D01*
X147835000Y-48550000D01*
X147835000Y-47596585D01*
X147834999Y-47596581D01*
X147819548Y-47459446D01*
X147819547Y-47459440D01*
X147758703Y-47285556D01*
X147660691Y-47129571D01*
X147530428Y-46999308D01*
X147374443Y-46901296D01*
X147200559Y-46840452D01*
X147200553Y-46840451D01*
X147063418Y-46825000D01*
X146950000Y-46825000D01*
X146450000Y-46825000D01*
X146336581Y-46825000D01*
X146199446Y-46840451D01*
X146199440Y-46840452D01*
X146025556Y-46901296D01*
X145869573Y-46999307D01*
X145788034Y-47080846D01*
X145726710Y-47114330D01*
X145657019Y-47109346D01*
X145612672Y-47080845D01*
X145530742Y-46998915D01*
X145374665Y-46900845D01*
X145374664Y-46900844D01*
X145374663Y-46900844D01*
X145315054Y-46879986D01*
X145200671Y-46839961D01*
X145063442Y-46824500D01*
X145063438Y-46824500D01*
X144336562Y-46824500D01*
X144336558Y-46824500D01*
X144199328Y-46839961D01*
X144025334Y-46900845D01*
X143869257Y-46998915D01*
X143787681Y-47080492D01*
X143726358Y-47113977D01*
X143656666Y-47108993D01*
X143612319Y-47080492D01*
X143530742Y-46998915D01*
X143374665Y-46900845D01*
X143374664Y-46900844D01*
X143374663Y-46900844D01*
X143315054Y-46879986D01*
X143200671Y-46839961D01*
X143063442Y-46824500D01*
X143063438Y-46824500D01*
X142336562Y-46824500D01*
X142336558Y-46824500D01*
X142199328Y-46839961D01*
X142025334Y-46900845D01*
X141869257Y-46998915D01*
X141787681Y-47080492D01*
X141726358Y-47113977D01*
X141656666Y-47108993D01*
X141612319Y-47080492D01*
X141530742Y-46998915D01*
X141374665Y-46900845D01*
X141374664Y-46900844D01*
X141374663Y-46900844D01*
X141315054Y-46879986D01*
X141200671Y-46839961D01*
X141063442Y-46824500D01*
X141063438Y-46824500D01*
X140336562Y-46824500D01*
X140336558Y-46824500D01*
X140199328Y-46839961D01*
X140025334Y-46900845D01*
X139869257Y-46998915D01*
X139787681Y-47080492D01*
X139726358Y-47113977D01*
X139656666Y-47108993D01*
X139612319Y-47080492D01*
X139530742Y-46998915D01*
X139374665Y-46900845D01*
X139374664Y-46900844D01*
X139374663Y-46900844D01*
X139315054Y-46879986D01*
X139200671Y-46839961D01*
X139063442Y-46824500D01*
X139063438Y-46824500D01*
X138336562Y-46824500D01*
X138336558Y-46824500D01*
X138199328Y-46839961D01*
X138025334Y-46900845D01*
X137869257Y-46998915D01*
X137787681Y-47080492D01*
X137726358Y-47113977D01*
X137656666Y-47108993D01*
X137612319Y-47080492D01*
X137530742Y-46998915D01*
X137374665Y-46900845D01*
X137374664Y-46900844D01*
X137374663Y-46900844D01*
X137315054Y-46879986D01*
X137200671Y-46839961D01*
X137063442Y-46824500D01*
X137063438Y-46824500D01*
X136336562Y-46824500D01*
X136336558Y-46824500D01*
X136199328Y-46839961D01*
X136025334Y-46900845D01*
X135869257Y-46998915D01*
X135787681Y-47080492D01*
X135726358Y-47113977D01*
X135656666Y-47108993D01*
X135612319Y-47080492D01*
X135530742Y-46998915D01*
X135374665Y-46900845D01*
X135374664Y-46900844D01*
X135374663Y-46900844D01*
X135315054Y-46879986D01*
X135200671Y-46839961D01*
X135063442Y-46824500D01*
X135063438Y-46824500D01*
X134336562Y-46824500D01*
X134336558Y-46824500D01*
X134199328Y-46839961D01*
X134025334Y-46900845D01*
X133869259Y-46998914D01*
X133787327Y-47080846D01*
X133726003Y-47114330D01*
X133656312Y-47109346D01*
X133611965Y-47080845D01*
X133530428Y-46999308D01*
X133374443Y-46901296D01*
X133200559Y-46840452D01*
X133200553Y-46840451D01*
X133063418Y-46825000D01*
X132950000Y-46825000D01*
X132950000Y-50775000D01*
X132450000Y-50775000D01*
X132450000Y-49050000D01*
X131565000Y-49050000D01*
X122906368Y-49050000D01*
X122863656Y-49007288D01*
X122754866Y-48940186D01*
X122714336Y-48915187D01*
X122714331Y-48915185D01*
X122607444Y-48879766D01*
X122547797Y-48860001D01*
X122547796Y-48860000D01*
X122541372Y-48857872D01*
X122541600Y-48857183D01*
X122501103Y-48839116D01*
X122372734Y-48745851D01*
X122372729Y-48745848D01*
X122199807Y-48668857D01*
X122199802Y-48668855D01*
X122054001Y-48637865D01*
X122014646Y-48629500D01*
X122014645Y-48629500D01*
X121955453Y-48629500D01*
X121888414Y-48609815D01*
X121867772Y-48593181D01*
X121824591Y-48550000D01*
X131565000Y-48550000D01*
X132450000Y-48550000D01*
X132450000Y-46825000D01*
X132336581Y-46825000D01*
X132199446Y-46840451D01*
X132199440Y-46840452D01*
X132025556Y-46901296D01*
X131869571Y-46999308D01*
X131739308Y-47129571D01*
X131641296Y-47285556D01*
X131580452Y-47459440D01*
X131580451Y-47459446D01*
X131565000Y-47596581D01*
X131565000Y-48550000D01*
X121824591Y-48550000D01*
X121291819Y-48017228D01*
X121258334Y-47955905D01*
X121255500Y-47929547D01*
X121255500Y-46782559D01*
X121275185Y-46715520D01*
X121327989Y-46669765D01*
X121347341Y-46662802D01*
X121347840Y-46662668D01*
X121396304Y-46662671D01*
X121396705Y-46659626D01*
X121404763Y-46660686D01*
X121404764Y-46660687D01*
X121517280Y-46675500D01*
X121517287Y-46675500D01*
X121742713Y-46675500D01*
X121742720Y-46675500D01*
X121855236Y-46660687D01*
X121855236Y-46660686D01*
X121863295Y-46659626D01*
X121863698Y-46662689D01*
X121896302Y-46662689D01*
X121896705Y-46659626D01*
X121904763Y-46660686D01*
X121904764Y-46660687D01*
X122017280Y-46675500D01*
X122017287Y-46675500D01*
X122242713Y-46675500D01*
X122242720Y-46675500D01*
X122355236Y-46660687D01*
X122495233Y-46602698D01*
X122615451Y-46510451D01*
X122703108Y-46396215D01*
X122704798Y-46394013D01*
X122761226Y-46352811D01*
X122803173Y-46345500D01*
X125116252Y-46345500D01*
X125183291Y-46365185D01*
X125208400Y-46386526D01*
X125214126Y-46392885D01*
X125214130Y-46392889D01*
X125367265Y-46504148D01*
X125367270Y-46504151D01*
X125540192Y-46581142D01*
X125540197Y-46581144D01*
X125725354Y-46620500D01*
X125725355Y-46620500D01*
X125914644Y-46620500D01*
X125914646Y-46620500D01*
X126099803Y-46581144D01*
X126272730Y-46504151D01*
X126425871Y-46392888D01*
X126552533Y-46252216D01*
X126647179Y-46088284D01*
X126705674Y-45908256D01*
X126725460Y-45720000D01*
X126705674Y-45531744D01*
X126647179Y-45351716D01*
X126552533Y-45187784D01*
X126425871Y-45047112D01*
X126419423Y-45042427D01*
X126272734Y-44935851D01*
X126272729Y-44935848D01*
X126099807Y-44858857D01*
X126099803Y-44858856D01*
X126056028Y-44849551D01*
X125994547Y-44816358D01*
X125960770Y-44755195D01*
X125963880Y-44689941D01*
X125980674Y-44638256D01*
X126000460Y-44450000D01*
X125983376Y-44287458D01*
X125995945Y-44218732D01*
X126043677Y-44167708D01*
X126106697Y-44150500D01*
X133627847Y-44150500D01*
X133694886Y-44170185D01*
X133715528Y-44186819D01*
X134464562Y-44935855D01*
X134464566Y-44935858D01*
X134567009Y-45004309D01*
X134567010Y-45004309D01*
X134567014Y-45004312D01*
X134631373Y-45030970D01*
X134680847Y-45051463D01*
X134700896Y-45055451D01*
X134730225Y-45061285D01*
X134801691Y-45075501D01*
X134801693Y-45075501D01*
X134931020Y-45075501D01*
X134931040Y-45075500D01*
X139631252Y-45075500D01*
X139698291Y-45095185D01*
X139723400Y-45116526D01*
X139729126Y-45122885D01*
X139729130Y-45122889D01*
X139882265Y-45234148D01*
X139882270Y-45234151D01*
X140055192Y-45311142D01*
X140055197Y-45311144D01*
X140240354Y-45350500D01*
X140240355Y-45350500D01*
X140429644Y-45350500D01*
X140429646Y-45350500D01*
X140614803Y-45311144D01*
X140787730Y-45234151D01*
X140940871Y-45122888D01*
X141067533Y-44982216D01*
X141162179Y-44818284D01*
X141220674Y-44638256D01*
X141240460Y-44450000D01*
X141220674Y-44261744D01*
X141162179Y-44081716D01*
X141067533Y-43917784D01*
X140940871Y-43777112D01*
X140940870Y-43777111D01*
X140787734Y-43665851D01*
X140787729Y-43665848D01*
X140614807Y-43588857D01*
X140614802Y-43588855D01*
X140469001Y-43557865D01*
X140429646Y-43549500D01*
X140240354Y-43549500D01*
X140207897Y-43556398D01*
X140055197Y-43588855D01*
X140055192Y-43588857D01*
X139882270Y-43665848D01*
X139882265Y-43665851D01*
X139729130Y-43777110D01*
X139729126Y-43777114D01*
X139723400Y-43783474D01*
X139663913Y-43820121D01*
X139631252Y-43824500D01*
X139312480Y-43824500D01*
X139245441Y-43804815D01*
X139199686Y-43752011D01*
X139189742Y-43682853D01*
X139205093Y-43638500D01*
X139227039Y-43600488D01*
X139257179Y-43548284D01*
X139315674Y-43368256D01*
X139335460Y-43180000D01*
X139315674Y-42991744D01*
X139257179Y-42811716D01*
X139162533Y-42647784D01*
X139035871Y-42507112D01*
X139035870Y-42507111D01*
X138882734Y-42395851D01*
X138882729Y-42395848D01*
X138709807Y-42318857D01*
X138709802Y-42318855D01*
X138564001Y-42287865D01*
X138524646Y-42279500D01*
X138335354Y-42279500D01*
X138302897Y-42286398D01*
X138150197Y-42318855D01*
X138150192Y-42318857D01*
X137977270Y-42395848D01*
X137977265Y-42395851D01*
X137824129Y-42507111D01*
X137697467Y-42647783D01*
X137649513Y-42730842D01*
X137598945Y-42779057D01*
X137530338Y-42792279D01*
X137465474Y-42766311D01*
X137424946Y-42709397D01*
X137418805Y-42655885D01*
X137430460Y-42545000D01*
X137410674Y-42356744D01*
X137352179Y-42176716D01*
X137257533Y-42012784D01*
X137130871Y-41872112D01*
X137123377Y-41866667D01*
X136977734Y-41760851D01*
X136977729Y-41760848D01*
X136804807Y-41683857D01*
X136804802Y-41683855D01*
X136659001Y-41652865D01*
X136619646Y-41644500D01*
X136619645Y-41644500D01*
X136560452Y-41644500D01*
X136493413Y-41624815D01*
X136472771Y-41608181D01*
X136290198Y-41425608D01*
X136290178Y-41425586D01*
X136198733Y-41334141D01*
X136147283Y-41299764D01*
X136096287Y-41265689D01*
X136096286Y-41265688D01*
X136096283Y-41265686D01*
X136096280Y-41265685D01*
X136015792Y-41232347D01*
X135982453Y-41218537D01*
X135972427Y-41216543D01*
X135922029Y-41206518D01*
X135861610Y-41194500D01*
X135861607Y-41194500D01*
X135861606Y-41194500D01*
X134381302Y-41194500D01*
X134258088Y-41194500D01*
X134258084Y-41194500D01*
X134197666Y-41206518D01*
X134137243Y-41218537D01*
X134137238Y-41218538D01*
X134103902Y-41232347D01*
X134090092Y-41238067D01*
X134067864Y-41247274D01*
X134023408Y-41265688D01*
X134013252Y-41272475D01*
X134013144Y-41272547D01*
X133920962Y-41334141D01*
X133920958Y-41334144D01*
X133891922Y-41363181D01*
X133830599Y-41396666D01*
X133804241Y-41399500D01*
X124887559Y-41399500D01*
X124820520Y-41379815D01*
X124774765Y-41327011D01*
X124767786Y-41307599D01*
X124767652Y-41307099D01*
X124767679Y-41258697D01*
X124764626Y-41258295D01*
X124771442Y-41206519D01*
X124780500Y-41137720D01*
X124780500Y-40912280D01*
X124765687Y-40799764D01*
X124765686Y-40799763D01*
X124764626Y-40791705D01*
X124767671Y-40791304D01*
X124767668Y-40742840D01*
X124767802Y-40742341D01*
X124804199Y-40682700D01*
X124867063Y-40652206D01*
X124887559Y-40650500D01*
X142191143Y-40650500D01*
X142258182Y-40670185D01*
X142264028Y-40674182D01*
X142422265Y-40789148D01*
X142422270Y-40789151D01*
X142595192Y-40866142D01*
X142595197Y-40866144D01*
X142780354Y-40905500D01*
X142780355Y-40905500D01*
X142969644Y-40905500D01*
X142969646Y-40905500D01*
X143154803Y-40866144D01*
X143327730Y-40789151D01*
X143480871Y-40677888D01*
X143607533Y-40537216D01*
X143702179Y-40373284D01*
X143760674Y-40193256D01*
X143780460Y-40005000D01*
X143760674Y-39816744D01*
X143706112Y-39648823D01*
X143702181Y-39636722D01*
X143702180Y-39636721D01*
X143702179Y-39636716D01*
X143607533Y-39472784D01*
X143480871Y-39332112D01*
X143473850Y-39327011D01*
X143327734Y-39220851D01*
X143327729Y-39220848D01*
X143154807Y-39143857D01*
X143154802Y-39143855D01*
X143009001Y-39112865D01*
X142969646Y-39104500D01*
X142780354Y-39104500D01*
X142747897Y-39111398D01*
X142595197Y-39143855D01*
X142595192Y-39143857D01*
X142422270Y-39220848D01*
X142422265Y-39220851D01*
X142269135Y-39332106D01*
X142269128Y-39332112D01*
X142245393Y-39358473D01*
X142185906Y-39395121D01*
X142153244Y-39399500D01*
X137552568Y-39399500D01*
X137485529Y-39379815D01*
X137439774Y-39327011D01*
X137429247Y-39288462D01*
X137410674Y-39111744D01*
X137352179Y-38931716D01*
X137257533Y-38767784D01*
X137130871Y-38627112D01*
X137121202Y-38620087D01*
X136977734Y-38515851D01*
X136977729Y-38515848D01*
X136804807Y-38438857D01*
X136804802Y-38438855D01*
X136659001Y-38407865D01*
X136619646Y-38399500D01*
X136430354Y-38399500D01*
X136397897Y-38406398D01*
X136245197Y-38438855D01*
X136245192Y-38438857D01*
X136072270Y-38515848D01*
X136072265Y-38515851D01*
X135919129Y-38627111D01*
X135792465Y-38767785D01*
X135752216Y-38837500D01*
X135701649Y-38885716D01*
X135644829Y-38899500D01*
X124887292Y-38899500D01*
X124820253Y-38879815D01*
X124774498Y-38827011D01*
X124764554Y-38757853D01*
X124764918Y-38756076D01*
X124768570Y-38728334D01*
X124780500Y-38637720D01*
X124780500Y-38412280D01*
X124765687Y-38299764D01*
X124707698Y-38159767D01*
X124615451Y-38039549D01*
X124495233Y-37947302D01*
X124495229Y-37947300D01*
X124397907Y-37906988D01*
X124355236Y-37889313D01*
X124343669Y-37887790D01*
X124275813Y-37878856D01*
X124211917Y-37850589D01*
X124173447Y-37792264D01*
X124168000Y-37755917D01*
X124168000Y-35850893D01*
X124167999Y-35850889D01*
X124143964Y-35730055D01*
X124143963Y-35730048D01*
X124099543Y-35622809D01*
X124096812Y-35616216D01*
X124096807Y-35616207D01*
X124028358Y-35513767D01*
X124028355Y-35513763D01*
X123938137Y-35423545D01*
X123938106Y-35423516D01*
X122725198Y-34210608D01*
X122725178Y-34210586D01*
X122633735Y-34119143D01*
X122612989Y-34105281D01*
X122572055Y-34077930D01*
X122572056Y-34077930D01*
X122572054Y-34077928D01*
X122531290Y-34050690D01*
X122531286Y-34050688D01*
X122450792Y-34017347D01*
X122417453Y-34003537D01*
X122407427Y-34001543D01*
X122357029Y-33991518D01*
X122356627Y-33991438D01*
X122356403Y-33991393D01*
X122294560Y-33958879D01*
X122260112Y-33898092D01*
X122263996Y-33828330D01*
X122266278Y-33822394D01*
X122301463Y-33737452D01*
X122325500Y-33616606D01*
X122325500Y-33404679D01*
X122345185Y-33337640D01*
X122361814Y-33317003D01*
X124908339Y-30770478D01*
X124969657Y-30736997D01*
X125039349Y-30741981D01*
X125095282Y-30783853D01*
X125119699Y-30849317D01*
X125119235Y-30872046D01*
X125102517Y-31020426D01*
X125102517Y-31379573D01*
X125142724Y-31736427D01*
X125142726Y-31736439D01*
X125142727Y-31736442D01*
X125156135Y-31795185D01*
X125222642Y-32086575D01*
X125222645Y-32086583D01*
X125341257Y-32425555D01*
X125497077Y-32749117D01*
X125497079Y-32749120D01*
X125688149Y-33053207D01*
X125912065Y-33333989D01*
X126166011Y-33587935D01*
X126446793Y-33811851D01*
X126750880Y-34002921D01*
X127074448Y-34158744D01*
X127329035Y-34247827D01*
X127413416Y-34277354D01*
X127413424Y-34277357D01*
X127413427Y-34277357D01*
X127413428Y-34277358D01*
X127763558Y-34357273D01*
X127763567Y-34357274D01*
X127763572Y-34357275D01*
X128001474Y-34384079D01*
X128120427Y-34397482D01*
X128120430Y-34397483D01*
X128479567Y-34397483D01*
X128479570Y-34397483D01*
X128479571Y-34397482D01*
X128709233Y-34371606D01*
X128836427Y-34357275D01*
X128836430Y-34357274D01*
X128836442Y-34357273D01*
X129186572Y-34277358D01*
X129525552Y-34158744D01*
X129849120Y-34002921D01*
X130153207Y-33811851D01*
X130433989Y-33587935D01*
X130687935Y-33333989D01*
X130911851Y-33053207D01*
X131102921Y-32749120D01*
X131258744Y-32425552D01*
X131377358Y-32086572D01*
X131457273Y-31736442D01*
X131459634Y-31715494D01*
X131478537Y-31547715D01*
X131497483Y-31379567D01*
X131500000Y-31200000D01*
X131497483Y-31020433D01*
X131480764Y-30872046D01*
X131492818Y-30803226D01*
X131540167Y-30751846D01*
X131607778Y-30734222D01*
X131674184Y-30755948D01*
X131691665Y-30770483D01*
X131796788Y-30875606D01*
X131796817Y-30875637D01*
X131887035Y-30965855D01*
X131887043Y-30965861D01*
X131945630Y-31005008D01*
X131945631Y-31005008D01*
X131989487Y-31034312D01*
X132056168Y-31061931D01*
X132056170Y-31061933D01*
X132085901Y-31074247D01*
X132103320Y-31081463D01*
X132224166Y-31105500D01*
X132347379Y-31105500D01*
X137669699Y-31105500D01*
X137736738Y-31125185D01*
X137782493Y-31177989D01*
X137787403Y-31190492D01*
X137815186Y-31274334D01*
X137907096Y-31423345D01*
X137907289Y-31423657D01*
X138036451Y-31552819D01*
X138034559Y-31554710D01*
X138067774Y-31601583D01*
X138074500Y-31641867D01*
X138074500Y-31751420D01*
X138054815Y-31818459D01*
X138016472Y-31856414D01*
X137869257Y-31948915D01*
X137787681Y-32030492D01*
X137726358Y-32063977D01*
X137656666Y-32058993D01*
X137612319Y-32030492D01*
X137530742Y-31948915D01*
X137374665Y-31850845D01*
X137374664Y-31850844D01*
X137374663Y-31850844D01*
X137325499Y-31833641D01*
X137200671Y-31789961D01*
X137063442Y-31774500D01*
X137063438Y-31774500D01*
X136336562Y-31774500D01*
X136336558Y-31774500D01*
X136199328Y-31789961D01*
X136025334Y-31850845D01*
X135869257Y-31948915D01*
X135787681Y-32030492D01*
X135726358Y-32063977D01*
X135656666Y-32058993D01*
X135612319Y-32030492D01*
X135530742Y-31948915D01*
X135374665Y-31850845D01*
X135374664Y-31850844D01*
X135374663Y-31850844D01*
X135325499Y-31833641D01*
X135200671Y-31789961D01*
X135063442Y-31774500D01*
X135063438Y-31774500D01*
X134336562Y-31774500D01*
X134336558Y-31774500D01*
X134199328Y-31789961D01*
X134025334Y-31850845D01*
X133869257Y-31948915D01*
X133787681Y-32030492D01*
X133726358Y-32063977D01*
X133656666Y-32058993D01*
X133612319Y-32030492D01*
X133530742Y-31948915D01*
X133374665Y-31850845D01*
X133374664Y-31850844D01*
X133374663Y-31850844D01*
X133325499Y-31833641D01*
X133200671Y-31789961D01*
X133063442Y-31774500D01*
X133063438Y-31774500D01*
X132336562Y-31774500D01*
X132336558Y-31774500D01*
X132199328Y-31789961D01*
X132025334Y-31850845D01*
X131869257Y-31948915D01*
X131738915Y-32079257D01*
X131640845Y-32235334D01*
X131579961Y-32409328D01*
X131564500Y-32546557D01*
X131564500Y-34953442D01*
X131579961Y-35090671D01*
X131600415Y-35149124D01*
X131640380Y-35263338D01*
X131640845Y-35264665D01*
X131656389Y-35289403D01*
X131738915Y-35420742D01*
X131869258Y-35551085D01*
X132025337Y-35649156D01*
X132157559Y-35695422D01*
X132199328Y-35710038D01*
X132287090Y-35719925D01*
X132336557Y-35725499D01*
X132336558Y-35725500D01*
X132336562Y-35725500D01*
X133063442Y-35725500D01*
X133063442Y-35725499D01*
X133125673Y-35718487D01*
X133200671Y-35710038D01*
X133202074Y-35709547D01*
X133374663Y-35649156D01*
X133530742Y-35551085D01*
X133612319Y-35469508D01*
X133673642Y-35436023D01*
X133743334Y-35441007D01*
X133787681Y-35469508D01*
X133869258Y-35551085D01*
X134025337Y-35649156D01*
X134157559Y-35695422D01*
X134199328Y-35710038D01*
X134287090Y-35719925D01*
X134336557Y-35725499D01*
X134336558Y-35725500D01*
X134336562Y-35725500D01*
X135063442Y-35725500D01*
X135063442Y-35725499D01*
X135125673Y-35718487D01*
X135200671Y-35710038D01*
X135202074Y-35709547D01*
X135374663Y-35649156D01*
X135530742Y-35551085D01*
X135612319Y-35469508D01*
X135673642Y-35436023D01*
X135743334Y-35441007D01*
X135787681Y-35469508D01*
X135869258Y-35551085D01*
X136025337Y-35649156D01*
X136157559Y-35695422D01*
X136199328Y-35710038D01*
X136287090Y-35719925D01*
X136336557Y-35725499D01*
X136336558Y-35725500D01*
X136336562Y-35725500D01*
X137063442Y-35725500D01*
X137063442Y-35725499D01*
X137125673Y-35718487D01*
X137200671Y-35710038D01*
X137202074Y-35709547D01*
X137374663Y-35649156D01*
X137530742Y-35551085D01*
X137612319Y-35469508D01*
X137673642Y-35436023D01*
X137743334Y-35441007D01*
X137787681Y-35469508D01*
X137869258Y-35551085D01*
X138025337Y-35649156D01*
X138157559Y-35695422D01*
X138199328Y-35710038D01*
X138287090Y-35719925D01*
X138336557Y-35725499D01*
X138336558Y-35725500D01*
X138336562Y-35725500D01*
X139063442Y-35725500D01*
X139063442Y-35725499D01*
X139125673Y-35718487D01*
X139200671Y-35710038D01*
X139202074Y-35709547D01*
X139374663Y-35649156D01*
X139530742Y-35551085D01*
X139612319Y-35469508D01*
X139673642Y-35436023D01*
X139743334Y-35441007D01*
X139787681Y-35469508D01*
X139869258Y-35551085D01*
X140025337Y-35649156D01*
X140157559Y-35695422D01*
X140199328Y-35710038D01*
X140287090Y-35719925D01*
X140336557Y-35725499D01*
X140336558Y-35725500D01*
X140336562Y-35725500D01*
X141063442Y-35725500D01*
X141063442Y-35725499D01*
X141125673Y-35718487D01*
X141200671Y-35710038D01*
X141202074Y-35709547D01*
X141374663Y-35649156D01*
X141530742Y-35551085D01*
X141612319Y-35469508D01*
X141673642Y-35436023D01*
X141743334Y-35441007D01*
X141787681Y-35469508D01*
X141869258Y-35551085D01*
X142025337Y-35649156D01*
X142157559Y-35695422D01*
X142199328Y-35710038D01*
X142287090Y-35719925D01*
X142336557Y-35725499D01*
X142336558Y-35725500D01*
X142336562Y-35725500D01*
X143063442Y-35725500D01*
X143063442Y-35725499D01*
X143125673Y-35718487D01*
X143200671Y-35710038D01*
X143202074Y-35709547D01*
X143374663Y-35649156D01*
X143530742Y-35551085D01*
X143612675Y-35469151D01*
X143673994Y-35435669D01*
X143743686Y-35440653D01*
X143788034Y-35469154D01*
X143869571Y-35550691D01*
X144025556Y-35648703D01*
X144199440Y-35709547D01*
X144199446Y-35709548D01*
X144336581Y-35724999D01*
X144336585Y-35725000D01*
X144450000Y-35725000D01*
X144950000Y-35725000D01*
X145063415Y-35725000D01*
X145063418Y-35724999D01*
X145200553Y-35709548D01*
X145200559Y-35709547D01*
X145374443Y-35648703D01*
X145530425Y-35550693D01*
X145611964Y-35469154D01*
X145673287Y-35435669D01*
X145742979Y-35440653D01*
X145787327Y-35469154D01*
X145869258Y-35551085D01*
X146025337Y-35649156D01*
X146157559Y-35695422D01*
X146199328Y-35710038D01*
X146287090Y-35719925D01*
X146336557Y-35725499D01*
X146336558Y-35725500D01*
X146336562Y-35725500D01*
X147063442Y-35725500D01*
X147063442Y-35725499D01*
X147125673Y-35718487D01*
X147200671Y-35710038D01*
X147202074Y-35709547D01*
X147374663Y-35649156D01*
X147530742Y-35551085D01*
X147661085Y-35420742D01*
X147759156Y-35264663D01*
X147815031Y-35104977D01*
X147855753Y-35048203D01*
X147920705Y-35022455D01*
X147981890Y-35032380D01*
X147985183Y-35033824D01*
X147985190Y-35033828D01*
X147985196Y-35033830D01*
X148179937Y-35100685D01*
X148220386Y-35114571D01*
X148465665Y-35155500D01*
X148714335Y-35155500D01*
X148959614Y-35114571D01*
X149194810Y-35033828D01*
X149413509Y-34915474D01*
X149609744Y-34762738D01*
X149778164Y-34579785D01*
X149914173Y-34371607D01*
X150014063Y-34143881D01*
X150075108Y-33902821D01*
X150075500Y-33898092D01*
X150095643Y-33655005D01*
X150095643Y-33654994D01*
X150075109Y-33407187D01*
X150075107Y-33407175D01*
X150014063Y-33166118D01*
X149914173Y-32938393D01*
X149778166Y-32730217D01*
X149746202Y-32695495D01*
X149609744Y-32547262D01*
X149413509Y-32394526D01*
X149413507Y-32394525D01*
X149413506Y-32394524D01*
X149194811Y-32276172D01*
X149194802Y-32276169D01*
X148959616Y-32195429D01*
X148714335Y-32154500D01*
X148465665Y-32154500D01*
X148220383Y-32195429D01*
X147985194Y-32276170D01*
X147985181Y-32276176D01*
X147935147Y-32303252D01*
X147866819Y-32317846D01*
X147801447Y-32293182D01*
X147762889Y-32241266D01*
X147762177Y-32241610D01*
X147760393Y-32237907D01*
X147759787Y-32237090D01*
X147759160Y-32235346D01*
X147759156Y-32235336D01*
X147678068Y-32106286D01*
X152249500Y-32106286D01*
X152269939Y-32235337D01*
X152282754Y-32316243D01*
X152319715Y-32429998D01*
X152348444Y-32518414D01*
X152444951Y-32707820D01*
X152569890Y-32879786D01*
X152720213Y-33030109D01*
X152892179Y-33155048D01*
X152892181Y-33155049D01*
X152892184Y-33155051D01*
X153081588Y-33251557D01*
X153283757Y-33317246D01*
X153493713Y-33350500D01*
X153493714Y-33350500D01*
X153706286Y-33350500D01*
X153706287Y-33350500D01*
X153916243Y-33317246D01*
X154118412Y-33251557D01*
X154307816Y-33155051D01*
X154372994Y-33107697D01*
X154479786Y-33030109D01*
X154479788Y-33030106D01*
X154479792Y-33030104D01*
X154630104Y-32879792D01*
X154630106Y-32879788D01*
X154630109Y-32879786D01*
X154755048Y-32707820D01*
X154755047Y-32707820D01*
X154755051Y-32707816D01*
X154851557Y-32518412D01*
X154917246Y-32316243D01*
X154950500Y-32106287D01*
X154950500Y-31893713D01*
X154917246Y-31683757D01*
X154851557Y-31481588D01*
X154755051Y-31292184D01*
X154755049Y-31292181D01*
X154755048Y-31292179D01*
X154630109Y-31120213D01*
X154479786Y-30969890D01*
X154307820Y-30844951D01*
X154118414Y-30748444D01*
X154118413Y-30748443D01*
X154118412Y-30748443D01*
X153916243Y-30682754D01*
X153916241Y-30682753D01*
X153916240Y-30682753D01*
X153754957Y-30657208D01*
X153706287Y-30649500D01*
X153493713Y-30649500D01*
X153445042Y-30657208D01*
X153283760Y-30682753D01*
X153081585Y-30748444D01*
X152892179Y-30844951D01*
X152720213Y-30969890D01*
X152569890Y-31120213D01*
X152444951Y-31292179D01*
X152348444Y-31481585D01*
X152282753Y-31683760D01*
X152249500Y-31893713D01*
X152249500Y-32106286D01*
X147678068Y-32106286D01*
X147661085Y-32079258D01*
X147530742Y-31948915D01*
X147432665Y-31887289D01*
X147374665Y-31850845D01*
X147374664Y-31850844D01*
X147374663Y-31850844D01*
X147325499Y-31833641D01*
X147200671Y-31789961D01*
X147063442Y-31774500D01*
X147063438Y-31774500D01*
X146336562Y-31774500D01*
X146336558Y-31774500D01*
X146199328Y-31789961D01*
X146025334Y-31850845D01*
X145869259Y-31948914D01*
X145787327Y-32030846D01*
X145726003Y-32064330D01*
X145656312Y-32059346D01*
X145611965Y-32030845D01*
X145530428Y-31949308D01*
X145374443Y-31851296D01*
X145200559Y-31790452D01*
X145200553Y-31790451D01*
X145063418Y-31775000D01*
X144950000Y-31775000D01*
X144950000Y-35725000D01*
X144450000Y-35725000D01*
X144450000Y-31775000D01*
X144336581Y-31775000D01*
X144199446Y-31790451D01*
X144199440Y-31790452D01*
X144025556Y-31851296D01*
X143869573Y-31949307D01*
X143788034Y-32030846D01*
X143726710Y-32064330D01*
X143657019Y-32059346D01*
X143612672Y-32030845D01*
X143530742Y-31948915D01*
X143374665Y-31850845D01*
X143374664Y-31850844D01*
X143374663Y-31850844D01*
X143325499Y-31833641D01*
X143200671Y-31789961D01*
X143063442Y-31774500D01*
X143063438Y-31774500D01*
X142336562Y-31774500D01*
X142336558Y-31774500D01*
X142199328Y-31789961D01*
X142025334Y-31850845D01*
X141869257Y-31948915D01*
X141787681Y-32030492D01*
X141726358Y-32063977D01*
X141656666Y-32058993D01*
X141612319Y-32030492D01*
X141530742Y-31948915D01*
X141374662Y-31850843D01*
X141302300Y-31825522D01*
X141245525Y-31784800D01*
X141219778Y-31719847D01*
X141233235Y-31651286D01*
X141278160Y-31602942D01*
X141368343Y-31547317D01*
X141492315Y-31423345D01*
X141584356Y-31274124D01*
X141584358Y-31274119D01*
X141639505Y-31107697D01*
X141639506Y-31107690D01*
X141649999Y-31004986D01*
X141650000Y-31004973D01*
X141650000Y-30730000D01*
X140524000Y-30730000D01*
X140456961Y-30710315D01*
X140411206Y-30657511D01*
X140400000Y-30606000D01*
X140400000Y-29255000D01*
X140900000Y-29255000D01*
X140900000Y-30230000D01*
X141649999Y-30230000D01*
X141649999Y-29955028D01*
X141649998Y-29955013D01*
X141639505Y-29852302D01*
X141584358Y-29685880D01*
X141584356Y-29685875D01*
X141492315Y-29536654D01*
X141368345Y-29412684D01*
X141219124Y-29320643D01*
X141219119Y-29320641D01*
X141052697Y-29265494D01*
X141052690Y-29265493D01*
X140949986Y-29255000D01*
X140900000Y-29255000D01*
X140400000Y-29255000D01*
X140399999Y-29254999D01*
X140350029Y-29255000D01*
X140350011Y-29255001D01*
X140247302Y-29265494D01*
X140080880Y-29320641D01*
X140080875Y-29320643D01*
X139931654Y-29412684D01*
X139807683Y-29536655D01*
X139807679Y-29536660D01*
X139805826Y-29539665D01*
X139804018Y-29541290D01*
X139803202Y-29542323D01*
X139803025Y-29542183D01*
X139753874Y-29586385D01*
X139684911Y-29597601D01*
X139620831Y-29569752D01*
X139594753Y-29539653D01*
X139594737Y-29539628D01*
X139592712Y-29536344D01*
X139468656Y-29412288D01*
X139319334Y-29320186D01*
X139152797Y-29265001D01*
X139152795Y-29265000D01*
X139050010Y-29254500D01*
X138449998Y-29254500D01*
X138449980Y-29254501D01*
X138347203Y-29265000D01*
X138347200Y-29265001D01*
X138180668Y-29320185D01*
X138180663Y-29320187D01*
X138031342Y-29412289D01*
X137907289Y-29536342D01*
X137815187Y-29685663D01*
X137815185Y-29685668D01*
X137787405Y-29769504D01*
X137747632Y-29826949D01*
X137683116Y-29853772D01*
X137669699Y-29854500D01*
X132596224Y-29854500D01*
X132529185Y-29834815D01*
X132508543Y-29818181D01*
X130165228Y-27474866D01*
X130165208Y-27474844D01*
X130073763Y-27383399D01*
X130022539Y-27349173D01*
X129971317Y-27314947D01*
X129971316Y-27314946D01*
X129971313Y-27314944D01*
X129971310Y-27314943D01*
X129890822Y-27281605D01*
X129857483Y-27267795D01*
X129847457Y-27265801D01*
X129797059Y-27255776D01*
X129736640Y-27243758D01*
X129736637Y-27243758D01*
X129736636Y-27243758D01*
X126986576Y-27243758D01*
X126863363Y-27243758D01*
X126863358Y-27243758D01*
X126742525Y-27267793D01*
X126742517Y-27267795D01*
X126628686Y-27314945D01*
X126526235Y-27383400D01*
X121906655Y-32002980D01*
X121845332Y-32036465D01*
X121775640Y-32031481D01*
X121721705Y-31992207D01*
X121717312Y-31986651D01*
X121593345Y-31862684D01*
X121444124Y-31770643D01*
X121444119Y-31770641D01*
X121277697Y-31715494D01*
X121277690Y-31715493D01*
X121174986Y-31705000D01*
X120900000Y-31705000D01*
X120900000Y-32831000D01*
X120880315Y-32898039D01*
X120827511Y-32943794D01*
X120776000Y-32955000D01*
X119425001Y-32955000D01*
X119425001Y-33004986D01*
X119435494Y-33107697D01*
X119490641Y-33274119D01*
X119490643Y-33274124D01*
X119582684Y-33423345D01*
X119706655Y-33547316D01*
X119706659Y-33547319D01*
X119709656Y-33549168D01*
X119711279Y-33550972D01*
X119712323Y-33551798D01*
X119712181Y-33551976D01*
X119756381Y-33601116D01*
X119767602Y-33670079D01*
X119739759Y-33734161D01*
X119709661Y-33760241D01*
X119706349Y-33762283D01*
X119706343Y-33762288D01*
X119582289Y-33886342D01*
X119582288Y-33886344D01*
X119561221Y-33920500D01*
X119561161Y-33920597D01*
X119509213Y-33967321D01*
X119455622Y-33979500D01*
X118034378Y-33979500D01*
X117967339Y-33959815D01*
X117928839Y-33920597D01*
X117907712Y-33886344D01*
X117783656Y-33762288D01*
X117780342Y-33760243D01*
X117778546Y-33758248D01*
X117777989Y-33757807D01*
X117778064Y-33757711D01*
X117733618Y-33708297D01*
X117722397Y-33639334D01*
X117750240Y-33575252D01*
X117780348Y-33549165D01*
X117783342Y-33547318D01*
X117907315Y-33423345D01*
X117999356Y-33274124D01*
X117999358Y-33274119D01*
X118054505Y-33107697D01*
X118054506Y-33107690D01*
X118064999Y-33004986D01*
X118065000Y-33004973D01*
X118065000Y-32955000D01*
X115615001Y-32955000D01*
X115615001Y-33004986D01*
X115625494Y-33107697D01*
X115680641Y-33274119D01*
X115680643Y-33274124D01*
X115772684Y-33423345D01*
X115896655Y-33547316D01*
X115896659Y-33547319D01*
X115899656Y-33549168D01*
X115901279Y-33550972D01*
X115902323Y-33551798D01*
X115902181Y-33551976D01*
X115946381Y-33601116D01*
X115957602Y-33670079D01*
X115929759Y-33734161D01*
X115899661Y-33760241D01*
X115896349Y-33762283D01*
X115896343Y-33762288D01*
X115772289Y-33886342D01*
X115680187Y-34035663D01*
X115680185Y-34035668D01*
X115666182Y-34077928D01*
X115625001Y-34202203D01*
X115625001Y-34202204D01*
X115625000Y-34202204D01*
X115614500Y-34304983D01*
X115614500Y-34894546D01*
X115594815Y-34961585D01*
X115578181Y-34982227D01*
X114937229Y-35623181D01*
X114875906Y-35656666D01*
X114849548Y-35659500D01*
X114001047Y-35659500D01*
X113934008Y-35639815D01*
X113888253Y-35587011D01*
X113878309Y-35517853D01*
X113907334Y-35454297D01*
X113935951Y-35429961D01*
X113948343Y-35422317D01*
X114072315Y-35298345D01*
X114164356Y-35149124D01*
X114164358Y-35149119D01*
X114219505Y-34982697D01*
X114219506Y-34982690D01*
X114229999Y-34879986D01*
X114230000Y-34879973D01*
X114230000Y-34817500D01*
X111830001Y-34817500D01*
X111830001Y-34879986D01*
X111840494Y-34982697D01*
X111895641Y-35149119D01*
X111895643Y-35149124D01*
X111987684Y-35298345D01*
X112111656Y-35422317D01*
X112124049Y-35429961D01*
X112170774Y-35481908D01*
X112181997Y-35550871D01*
X112154154Y-35614953D01*
X112096085Y-35653810D01*
X112058953Y-35659500D01*
X111525453Y-35659500D01*
X111458414Y-35639815D01*
X111437772Y-35623181D01*
X111077928Y-35263338D01*
X111077925Y-35263334D01*
X111077925Y-35263335D01*
X111070858Y-35256268D01*
X111070858Y-35256267D01*
X110983733Y-35169142D01*
X110983732Y-35169141D01*
X110983731Y-35169140D01*
X110932509Y-35134915D01*
X110891374Y-35107429D01*
X110881286Y-35100688D01*
X110881283Y-35100686D01*
X110881280Y-35100685D01*
X110800792Y-35067347D01*
X110767453Y-35053537D01*
X110757427Y-35051543D01*
X110707029Y-35041518D01*
X110646610Y-35029500D01*
X110646607Y-35029500D01*
X110646606Y-35029500D01*
X105376607Y-35029500D01*
X105253393Y-35029500D01*
X105253389Y-35029500D01*
X105192971Y-35041518D01*
X105149743Y-35050116D01*
X105132546Y-35053537D01*
X105085732Y-35072929D01*
X105054136Y-35086016D01*
X105018711Y-35100689D01*
X105008627Y-35107428D01*
X105008626Y-35107429D01*
X104916268Y-35169140D01*
X104872705Y-35212703D01*
X104829142Y-35256267D01*
X104829139Y-35256270D01*
X104595646Y-35489762D01*
X104534323Y-35523247D01*
X104475872Y-35521856D01*
X104375413Y-35494938D01*
X104375403Y-35494936D01*
X104140001Y-35474341D01*
X104139999Y-35474341D01*
X103904596Y-35494936D01*
X103904586Y-35494938D01*
X103676344Y-35556094D01*
X103676335Y-35556098D01*
X103462171Y-35655964D01*
X103462169Y-35655965D01*
X103268600Y-35791503D01*
X103146284Y-35913819D01*
X103084961Y-35947303D01*
X103015269Y-35942319D01*
X102959336Y-35900447D01*
X102942421Y-35869470D01*
X102893354Y-35737913D01*
X102893350Y-35737906D01*
X102807190Y-35622812D01*
X102807187Y-35622809D01*
X102692093Y-35536649D01*
X102692086Y-35536645D01*
X102557379Y-35486403D01*
X102557372Y-35486401D01*
X102497844Y-35480000D01*
X101850000Y-35480000D01*
X101850000Y-36396988D01*
X101792993Y-36364075D01*
X101665826Y-36330000D01*
X101534174Y-36330000D01*
X101407007Y-36364075D01*
X101350000Y-36396988D01*
X101350000Y-35480000D01*
X100702155Y-35480000D01*
X100642627Y-35486401D01*
X100642620Y-35486403D01*
X100507913Y-35536645D01*
X100507906Y-35536649D01*
X100392812Y-35622809D01*
X100392809Y-35622812D01*
X100306649Y-35737906D01*
X100306645Y-35737913D01*
X100256403Y-35872620D01*
X100256401Y-35872627D01*
X100250000Y-35932155D01*
X100250000Y-36580000D01*
X101166988Y-36580000D01*
X101134075Y-36637007D01*
X101100000Y-36764174D01*
X101100000Y-36895826D01*
X101134075Y-37022993D01*
X101166988Y-37080000D01*
X100250000Y-37080000D01*
X100250000Y-37727844D01*
X100256401Y-37787372D01*
X100256403Y-37787379D01*
X100306645Y-37922086D01*
X100306649Y-37922093D01*
X100392809Y-38037187D01*
X100392812Y-38037190D01*
X100507906Y-38123350D01*
X100507913Y-38123354D01*
X100642620Y-38173596D01*
X100642627Y-38173598D01*
X100702155Y-38179999D01*
X100702172Y-38180000D01*
X101350000Y-38180000D01*
X101350000Y-37263012D01*
X101407007Y-37295925D01*
X101534174Y-37330000D01*
X101665826Y-37330000D01*
X101792993Y-37295925D01*
X101850000Y-37263012D01*
X101850000Y-38180000D01*
X102497828Y-38180000D01*
X102497844Y-38179999D01*
X102557372Y-38173598D01*
X102557379Y-38173596D01*
X102692086Y-38123354D01*
X102692093Y-38123350D01*
X102807187Y-38037190D01*
X102807190Y-38037187D01*
X102893350Y-37922093D01*
X102893354Y-37922086D01*
X102942422Y-37790529D01*
X102984293Y-37734595D01*
X103049757Y-37710178D01*
X103118030Y-37725030D01*
X103146285Y-37746181D01*
X103268599Y-37868495D01*
X103323573Y-37906988D01*
X103462165Y-38004032D01*
X103462167Y-38004033D01*
X103462170Y-38004035D01*
X103676337Y-38103903D01*
X103904592Y-38165063D01*
X104075319Y-38180000D01*
X104139999Y-38185659D01*
X104140000Y-38185659D01*
X104140001Y-38185659D01*
X104204681Y-38180000D01*
X104375408Y-38165063D01*
X104603663Y-38103903D01*
X104817830Y-38004035D01*
X105011401Y-37868495D01*
X105178495Y-37701401D01*
X105308425Y-37515842D01*
X105363002Y-37472217D01*
X105432500Y-37465023D01*
X105494855Y-37496546D01*
X105511575Y-37515842D01*
X105641505Y-37701401D01*
X105808599Y-37868495D01*
X106002166Y-38004032D01*
X106004164Y-38005431D01*
X106047788Y-38060008D01*
X106054981Y-38129507D01*
X106023459Y-38191861D01*
X106020721Y-38194687D01*
X105055642Y-39159767D01*
X104121269Y-40094140D01*
X104121267Y-40094142D01*
X104099477Y-40115932D01*
X104034144Y-40181264D01*
X104016645Y-40207454D01*
X104016644Y-40207454D01*
X103965690Y-40283709D01*
X103965685Y-40283718D01*
X103932347Y-40364207D01*
X103928084Y-40374500D01*
X103918537Y-40397545D01*
X103918535Y-40397554D01*
X103902981Y-40475752D01*
X103870596Y-40537663D01*
X103809881Y-40572237D01*
X103740111Y-40568498D01*
X103707053Y-40550828D01*
X103698309Y-40544282D01*
X103587331Y-40461204D01*
X103587329Y-40461203D01*
X103587328Y-40461202D01*
X103452482Y-40410908D01*
X103452483Y-40410908D01*
X103392883Y-40404501D01*
X103392881Y-40404500D01*
X103392873Y-40404500D01*
X103392865Y-40404500D01*
X102483818Y-40404500D01*
X102458037Y-40401790D01*
X102438080Y-40397548D01*
X102329646Y-40374500D01*
X102140354Y-40374500D01*
X102140350Y-40374500D01*
X102011961Y-40401790D01*
X101986180Y-40404500D01*
X100897129Y-40404500D01*
X100897123Y-40404501D01*
X100837516Y-40410908D01*
X100702671Y-40461202D01*
X100702664Y-40461206D01*
X100587455Y-40547452D01*
X100587452Y-40547455D01*
X100501206Y-40662664D01*
X100501202Y-40662671D01*
X100450908Y-40797517D01*
X100444501Y-40857116D01*
X100444500Y-40857135D01*
X100444500Y-41692870D01*
X100444501Y-41692876D01*
X100450908Y-41752483D01*
X100493496Y-41866667D01*
X100498480Y-41936359D01*
X100493496Y-41953333D01*
X100450908Y-42067516D01*
X100444501Y-42127116D01*
X100444500Y-42127135D01*
X100444500Y-42962870D01*
X100444501Y-42962876D01*
X100450908Y-43022483D01*
X100493496Y-43136667D01*
X100498480Y-43206359D01*
X100493496Y-43223333D01*
X100450908Y-43337516D01*
X100444501Y-43397116D01*
X100444500Y-43397135D01*
X100444500Y-44232870D01*
X100444501Y-44232876D01*
X100450908Y-44292483D01*
X100493496Y-44406667D01*
X100498480Y-44476359D01*
X100493496Y-44493333D01*
X100450908Y-44607516D01*
X100444501Y-44667116D01*
X100444500Y-44667135D01*
X100444500Y-45502870D01*
X100444501Y-45502876D01*
X100450908Y-45562483D01*
X100493496Y-45676667D01*
X100498480Y-45746359D01*
X100493496Y-45763333D01*
X100450908Y-45877516D01*
X100444501Y-45937116D01*
X100444500Y-45937135D01*
X100444500Y-46772870D01*
X100444501Y-46772876D01*
X100450908Y-46832483D01*
X100501202Y-46967328D01*
X100501206Y-46967335D01*
X100587452Y-47082544D01*
X100587455Y-47082547D01*
X100702664Y-47168793D01*
X100702671Y-47168797D01*
X100837517Y-47219091D01*
X100837516Y-47219091D01*
X100844444Y-47219835D01*
X100897127Y-47225500D01*
X101986179Y-47225499D01*
X102011960Y-47228209D01*
X102140354Y-47255500D01*
X102329646Y-47255500D01*
X102458040Y-47228209D01*
X102483821Y-47225499D01*
X103195347Y-47225499D01*
X103262386Y-47245184D01*
X103308141Y-47297988D01*
X103319347Y-47349499D01*
X103319347Y-47366159D01*
X103299662Y-47433198D01*
X103287497Y-47449131D01*
X103212313Y-47532631D01*
X103117668Y-47696562D01*
X103117665Y-47696569D01*
X103070145Y-47842822D01*
X103059173Y-47876591D01*
X103039387Y-48064847D01*
X103059173Y-48253103D01*
X103059174Y-48253106D01*
X103117665Y-48433124D01*
X103117668Y-48433131D01*
X103212314Y-48597063D01*
X103328282Y-48725858D01*
X103338976Y-48737735D01*
X103492112Y-48848995D01*
X103492117Y-48848998D01*
X103665039Y-48925989D01*
X103665044Y-48925991D01*
X103850201Y-48965347D01*
X103909395Y-48965347D01*
X103976434Y-48985032D01*
X103997076Y-49001666D01*
X104227547Y-49232137D01*
X104261032Y-49293460D01*
X104257572Y-49358821D01*
X104249617Y-49382828D01*
X104220001Y-49472203D01*
X104220000Y-49472204D01*
X104209500Y-49574983D01*
X104209500Y-50200001D01*
X104209501Y-50200019D01*
X104220000Y-50302796D01*
X104220001Y-50302799D01*
X104275185Y-50469331D01*
X104275187Y-50469336D01*
X104288554Y-50491007D01*
X104356857Y-50601745D01*
X104367289Y-50618657D01*
X104460951Y-50712319D01*
X104494436Y-50773642D01*
X104489452Y-50843334D01*
X104460951Y-50887681D01*
X104367289Y-50981342D01*
X104275187Y-51130663D01*
X104275185Y-51130668D01*
X104258617Y-51180668D01*
X104220001Y-51297203D01*
X104220001Y-51297204D01*
X104220000Y-51297204D01*
X104209500Y-51399983D01*
X104209500Y-51977046D01*
X104189815Y-52044085D01*
X104173181Y-52064727D01*
X101836270Y-54401639D01*
X101749144Y-54488764D01*
X101749138Y-54488772D01*
X101714914Y-54539991D01*
X101714907Y-54540002D01*
X101709871Y-54547537D01*
X101656254Y-54592336D01*
X101632749Y-54599883D01*
X101632215Y-54599997D01*
X101465668Y-54655185D01*
X101465663Y-54655187D01*
X101316342Y-54747289D01*
X101192289Y-54871342D01*
X101100187Y-55020663D01*
X101100185Y-55020668D01*
X101092451Y-55044008D01*
X101045001Y-55187203D01*
X101045001Y-55187204D01*
X101045000Y-55187204D01*
X101034500Y-55289983D01*
X101034500Y-55915001D01*
X101034501Y-55915019D01*
X101045000Y-56017796D01*
X101045001Y-56017799D01*
X101100185Y-56184331D01*
X101100187Y-56184336D01*
X101112293Y-56203963D01*
X101164600Y-56288767D01*
X101192289Y-56333657D01*
X101285951Y-56427319D01*
X101319436Y-56488642D01*
X101314452Y-56558334D01*
X101285951Y-56602681D01*
X101192289Y-56696342D01*
X101100187Y-56845663D01*
X101100186Y-56845665D01*
X101100186Y-56845666D01*
X101045001Y-57012203D01*
X101045001Y-57012204D01*
X101045000Y-57012204D01*
X101034500Y-57114983D01*
X101034500Y-57740001D01*
X101034501Y-57740019D01*
X101045000Y-57842796D01*
X101045001Y-57842799D01*
X101100185Y-58009331D01*
X101100187Y-58009336D01*
X101112527Y-58029342D01*
X101192288Y-58158656D01*
X101316344Y-58282712D01*
X101465666Y-58374814D01*
X101632203Y-58429999D01*
X101734991Y-58440500D01*
X102735008Y-58440499D01*
X102735016Y-58440498D01*
X102735019Y-58440498D01*
X102791302Y-58434748D01*
X102837797Y-58429999D01*
X103004334Y-58374814D01*
X103153656Y-58282712D01*
X103237822Y-58198545D01*
X103299141Y-58165063D01*
X103368833Y-58170047D01*
X103424767Y-58211918D01*
X103449184Y-58277382D01*
X103449500Y-58286229D01*
X103449500Y-58947870D01*
X103449501Y-58947876D01*
X103455908Y-59007483D01*
X103506202Y-59142328D01*
X103506206Y-59142335D01*
X103592452Y-59257544D01*
X103592455Y-59257547D01*
X103707664Y-59343793D01*
X103707671Y-59343797D01*
X103842517Y-59394091D01*
X103842516Y-59394091D01*
X103849444Y-59394835D01*
X103902127Y-59400500D01*
X105797872Y-59400499D01*
X105857483Y-59394091D01*
X105992331Y-59343796D01*
X106107546Y-59257546D01*
X106193796Y-59142331D01*
X106214180Y-59087678D01*
X106225934Y-59056166D01*
X106267806Y-59000233D01*
X106333270Y-58975816D01*
X106342116Y-58975500D01*
X109657885Y-58975500D01*
X109724924Y-58995185D01*
X109770679Y-59047989D01*
X109774067Y-59056167D01*
X109806202Y-59142328D01*
X109806206Y-59142335D01*
X109892452Y-59257544D01*
X109892455Y-59257547D01*
X110007664Y-59343793D01*
X110007671Y-59343797D01*
X110142517Y-59394091D01*
X110142516Y-59394091D01*
X110149444Y-59394835D01*
X110202127Y-59400500D01*
X112097872Y-59400499D01*
X112157483Y-59394091D01*
X112292331Y-59343796D01*
X112407546Y-59257546D01*
X112493796Y-59142331D01*
X112514180Y-59087678D01*
X112525934Y-59056166D01*
X112567806Y-59000233D01*
X112633270Y-58975816D01*
X112642116Y-58975500D01*
X112841608Y-58975500D01*
X112841608Y-58975499D01*
X112906722Y-58962548D01*
X112906723Y-58962548D01*
X112925642Y-58958784D01*
X112962452Y-58951463D01*
X112995792Y-58937652D01*
X113076286Y-58904312D01*
X113127509Y-58870084D01*
X113178733Y-58835858D01*
X113265858Y-58748733D01*
X113265859Y-58748731D01*
X113272925Y-58741665D01*
X113272928Y-58741661D01*
X113323776Y-58690812D01*
X113385097Y-58657329D01*
X113437235Y-58657205D01*
X113570354Y-58685500D01*
X113570355Y-58685500D01*
X113759644Y-58685500D01*
X113759646Y-58685500D01*
X113944803Y-58646144D01*
X114117730Y-58569151D01*
X114246105Y-58475880D01*
X114286598Y-58457821D01*
X114286369Y-58457129D01*
X114294288Y-58454505D01*
X114459334Y-58399814D01*
X114608656Y-58307712D01*
X114732712Y-58183656D01*
X114732712Y-58183655D01*
X114732819Y-58183549D01*
X114794142Y-58150064D01*
X114863834Y-58155048D01*
X114919767Y-58196920D01*
X114944184Y-58262384D01*
X114944500Y-58271230D01*
X114944500Y-59379546D01*
X114924815Y-59446585D01*
X114908181Y-59467227D01*
X113276103Y-61099304D01*
X113214780Y-61132789D01*
X113145088Y-61127805D01*
X113089155Y-61085933D01*
X113064738Y-61020469D01*
X113064895Y-61000800D01*
X113064965Y-60999993D01*
X113045141Y-60773400D01*
X113045139Y-60773389D01*
X112986269Y-60553682D01*
X112986264Y-60553668D01*
X112890136Y-60347521D01*
X112890132Y-60347513D01*
X112839025Y-60274526D01*
X112160000Y-60953552D01*
X112160000Y-60947339D01*
X112132741Y-60845606D01*
X112080080Y-60754394D01*
X112005606Y-60679920D01*
X111914394Y-60627259D01*
X111812661Y-60600000D01*
X111806448Y-60600000D01*
X112485472Y-59920974D01*
X112412478Y-59869863D01*
X112206331Y-59773735D01*
X112206317Y-59773730D01*
X111986610Y-59714860D01*
X111986599Y-59714858D01*
X111760002Y-59695034D01*
X111759998Y-59695034D01*
X111533400Y-59714858D01*
X111533389Y-59714860D01*
X111313682Y-59773730D01*
X111313673Y-59773734D01*
X111107516Y-59869866D01*
X111107512Y-59869868D01*
X111034526Y-59920973D01*
X111034526Y-59920974D01*
X111713553Y-60600000D01*
X111707339Y-60600000D01*
X111605606Y-60627259D01*
X111514394Y-60679920D01*
X111439920Y-60754394D01*
X111387259Y-60845606D01*
X111360000Y-60947339D01*
X111360000Y-60953552D01*
X110680974Y-60274526D01*
X110680973Y-60274526D01*
X110629868Y-60347512D01*
X110629866Y-60347516D01*
X110533734Y-60553673D01*
X110533730Y-60553682D01*
X110474860Y-60773389D01*
X110474858Y-60773400D01*
X110455034Y-60999997D01*
X110455034Y-61000002D01*
X110474858Y-61226599D01*
X110474860Y-61226610D01*
X110533730Y-61446317D01*
X110533735Y-61446331D01*
X110629863Y-61652478D01*
X110680974Y-61725472D01*
X111360000Y-61046446D01*
X111360000Y-61052661D01*
X111387259Y-61154394D01*
X111439920Y-61245606D01*
X111514394Y-61320080D01*
X111605606Y-61372741D01*
X111707339Y-61400000D01*
X111713553Y-61400000D01*
X111029352Y-62084199D01*
X111019506Y-62133194D01*
X110970890Y-62183377D01*
X110915367Y-62198049D01*
X110915423Y-62199099D01*
X110915429Y-62199146D01*
X110915426Y-62199146D01*
X110915436Y-62199324D01*
X110912123Y-62199501D01*
X110852516Y-62205908D01*
X110717671Y-62256202D01*
X110717668Y-62256204D01*
X110615229Y-62332890D01*
X110549764Y-62357307D01*
X110481491Y-62342455D01*
X110432086Y-62293050D01*
X110417560Y-62246224D01*
X110415903Y-62230000D01*
X110409999Y-62172203D01*
X110354814Y-62005666D01*
X110262712Y-61856344D01*
X110138656Y-61732288D01*
X110045888Y-61675069D01*
X109989336Y-61640187D01*
X109989331Y-61640185D01*
X109987862Y-61639698D01*
X109822797Y-61585001D01*
X109822795Y-61585000D01*
X109720010Y-61574500D01*
X108719998Y-61574500D01*
X108719980Y-61574501D01*
X108617203Y-61585000D01*
X108617200Y-61585001D01*
X108450668Y-61640185D01*
X108450663Y-61640187D01*
X108301342Y-61732289D01*
X108177289Y-61856342D01*
X108177288Y-61856344D01*
X108155737Y-61891285D01*
X108148451Y-61903097D01*
X108096503Y-61949821D01*
X108042912Y-61962000D01*
X107857088Y-61962000D01*
X107790049Y-61942315D01*
X107751549Y-61903097D01*
X107744264Y-61891286D01*
X107722712Y-61856344D01*
X107598656Y-61732288D01*
X107505888Y-61675069D01*
X107449336Y-61640187D01*
X107449331Y-61640185D01*
X107447862Y-61639698D01*
X107282797Y-61585001D01*
X107282795Y-61585000D01*
X107180010Y-61574500D01*
X106179998Y-61574500D01*
X106179980Y-61574501D01*
X106077203Y-61585000D01*
X106077200Y-61585001D01*
X105910668Y-61640185D01*
X105910663Y-61640187D01*
X105761342Y-61732289D01*
X105637289Y-61856342D01*
X105545187Y-62005663D01*
X105545185Y-62005668D01*
X105543742Y-62010023D01*
X105490001Y-62172203D01*
X105490001Y-62172204D01*
X105490000Y-62172204D01*
X105479500Y-62274983D01*
X105479500Y-62900001D01*
X105479501Y-62900019D01*
X105490000Y-63002796D01*
X105490001Y-63002799D01*
X105545185Y-63169331D01*
X105545187Y-63169336D01*
X105637289Y-63318657D01*
X105730951Y-63412319D01*
X105764436Y-63473642D01*
X105759452Y-63543334D01*
X105730951Y-63587681D01*
X105637289Y-63681342D01*
X105545187Y-63830663D01*
X105545185Y-63830668D01*
X105490001Y-63997203D01*
X105479500Y-64099983D01*
X105479500Y-64725001D01*
X105479501Y-64725019D01*
X105490000Y-64827796D01*
X105490001Y-64827799D01*
X105493049Y-64836996D01*
X105495451Y-64906824D01*
X105459719Y-64966866D01*
X105397199Y-64998059D01*
X105375343Y-65000000D01*
X100124000Y-65000000D01*
X100056961Y-64980315D01*
X100011206Y-64927511D01*
X100000000Y-64876000D01*
X100000000Y-32106286D01*
X101649500Y-32106286D01*
X101669939Y-32235337D01*
X101682754Y-32316243D01*
X101719715Y-32429998D01*
X101748444Y-32518414D01*
X101844951Y-32707820D01*
X101969890Y-32879786D01*
X102120213Y-33030109D01*
X102292179Y-33155048D01*
X102292181Y-33155049D01*
X102292184Y-33155051D01*
X102481588Y-33251557D01*
X102683757Y-33317246D01*
X102893713Y-33350500D01*
X102893714Y-33350500D01*
X103106286Y-33350500D01*
X103106287Y-33350500D01*
X103316243Y-33317246D01*
X103518412Y-33251557D01*
X103707816Y-33155051D01*
X103772994Y-33107697D01*
X103845525Y-33055001D01*
X111829500Y-33055001D01*
X111829501Y-33055019D01*
X111840000Y-33157796D01*
X111840001Y-33157799D01*
X111871069Y-33251555D01*
X111895186Y-33324334D01*
X111946282Y-33407175D01*
X111987289Y-33473657D01*
X112081304Y-33567672D01*
X112114789Y-33628995D01*
X112109805Y-33698687D01*
X112081305Y-33743034D01*
X111987682Y-33836657D01*
X111895643Y-33985875D01*
X111895641Y-33985880D01*
X111840494Y-34152302D01*
X111840493Y-34152309D01*
X111830000Y-34255013D01*
X111830000Y-34317500D01*
X114229999Y-34317500D01*
X114229999Y-34255028D01*
X114229998Y-34255013D01*
X114219505Y-34152302D01*
X114164358Y-33985880D01*
X114164356Y-33985875D01*
X114072315Y-33836654D01*
X113978695Y-33743034D01*
X113945210Y-33681711D01*
X113950194Y-33612019D01*
X113978691Y-33567676D01*
X114072712Y-33473656D01*
X114164814Y-33324334D01*
X114219999Y-33157797D01*
X114230500Y-33055009D01*
X114230499Y-32455000D01*
X115615000Y-32455000D01*
X116590000Y-32455000D01*
X116590000Y-31705000D01*
X117090000Y-31705000D01*
X117090000Y-32455000D01*
X118064999Y-32455000D01*
X119425000Y-32455000D01*
X120400000Y-32455000D01*
X120400000Y-31705000D01*
X120125029Y-31705000D01*
X120125012Y-31705001D01*
X120022302Y-31715494D01*
X119855880Y-31770641D01*
X119855875Y-31770643D01*
X119706654Y-31862684D01*
X119582684Y-31986654D01*
X119490643Y-32135875D01*
X119490641Y-32135880D01*
X119435494Y-32302302D01*
X119435493Y-32302309D01*
X119425000Y-32405013D01*
X119425000Y-32455000D01*
X118064999Y-32455000D01*
X118064999Y-32405028D01*
X118064998Y-32405013D01*
X118054505Y-32302302D01*
X117999358Y-32135880D01*
X117999356Y-32135875D01*
X117907315Y-31986654D01*
X117783345Y-31862684D01*
X117634124Y-31770643D01*
X117634119Y-31770641D01*
X117467697Y-31715494D01*
X117467690Y-31715493D01*
X117364986Y-31705000D01*
X117090000Y-31705000D01*
X116590000Y-31705000D01*
X116315029Y-31705000D01*
X116315012Y-31705001D01*
X116212302Y-31715494D01*
X116045880Y-31770641D01*
X116045875Y-31770643D01*
X115896654Y-31862684D01*
X115772684Y-31986654D01*
X115680643Y-32135875D01*
X115680641Y-32135880D01*
X115625494Y-32302302D01*
X115625493Y-32302309D01*
X115615000Y-32405013D01*
X115615000Y-32455000D01*
X114230499Y-32455000D01*
X114230499Y-32429992D01*
X114230045Y-32425552D01*
X114219999Y-32327203D01*
X114219998Y-32327200D01*
X114211748Y-32302302D01*
X114164814Y-32160666D01*
X114072712Y-32011344D01*
X113948656Y-31887288D01*
X113799334Y-31795186D01*
X113632797Y-31740001D01*
X113632795Y-31740000D01*
X113530010Y-31729500D01*
X112529998Y-31729500D01*
X112529980Y-31729501D01*
X112427203Y-31740000D01*
X112427200Y-31740001D01*
X112260668Y-31795185D01*
X112260663Y-31795187D01*
X112111342Y-31887289D01*
X111987289Y-32011342D01*
X111895187Y-32160663D01*
X111895185Y-32160668D01*
X111870443Y-32235334D01*
X111840001Y-32327203D01*
X111840001Y-32327204D01*
X111840000Y-32327204D01*
X111829500Y-32429983D01*
X111829500Y-33055001D01*
X103845525Y-33055001D01*
X103879786Y-33030109D01*
X103879788Y-33030106D01*
X103879792Y-33030104D01*
X104030104Y-32879792D01*
X104030106Y-32879788D01*
X104030109Y-32879786D01*
X104155048Y-32707820D01*
X104155047Y-32707820D01*
X104155051Y-32707816D01*
X104251557Y-32518412D01*
X104317246Y-32316243D01*
X104350500Y-32106287D01*
X104350500Y-31893713D01*
X104317246Y-31683757D01*
X104251557Y-31481588D01*
X104155051Y-31292184D01*
X104155049Y-31292181D01*
X104155048Y-31292179D01*
X104030109Y-31120213D01*
X103879786Y-30969890D01*
X103707820Y-30844951D01*
X103518414Y-30748444D01*
X103518413Y-30748443D01*
X103518412Y-30748443D01*
X103316243Y-30682754D01*
X103316241Y-30682753D01*
X103316240Y-30682753D01*
X103154957Y-30657208D01*
X103106287Y-30649500D01*
X102893713Y-30649500D01*
X102845042Y-30657208D01*
X102683760Y-30682753D01*
X102481585Y-30748444D01*
X102292179Y-30844951D01*
X102120213Y-30969890D01*
X101969890Y-31120213D01*
X101844951Y-31292179D01*
X101748444Y-31481585D01*
X101682753Y-31683760D01*
X101649500Y-31893713D01*
X101649500Y-32106286D01*
X100000000Y-32106286D01*
X100000000Y-30109608D01*
X100019685Y-30042569D01*
X100072489Y-29996814D01*
X100108775Y-29986547D01*
X128284783Y-26501882D01*
X128315217Y-26501882D01*
X156491222Y-29986546D01*
G37*
%TD.AperFunction*%
%TA.AperFunction,Conductor*%
G36*
X126134539Y-64120185D02*
G01*
X126180294Y-64172989D01*
X126191500Y-64224500D01*
X126191500Y-64770000D01*
X125453158Y-64770000D01*
X125435109Y-64552187D01*
X125435107Y-64552175D01*
X125414711Y-64471635D01*
X125374063Y-64311119D01*
X125357916Y-64274309D01*
X125349014Y-64205011D01*
X125378991Y-64141898D01*
X125438330Y-64105011D01*
X125471473Y-64100500D01*
X126067500Y-64100500D01*
X126134539Y-64120185D01*
G37*
%TD.AperFunction*%
%TA.AperFunction,Conductor*%
G36*
X141672559Y-57987054D02*
G01*
X141709323Y-58029464D01*
X141711395Y-58028187D01*
X141715185Y-58034332D01*
X141715186Y-58034334D01*
X141807288Y-58183656D01*
X141931344Y-58307712D01*
X142080666Y-58399814D01*
X142247203Y-58454999D01*
X142349991Y-58465500D01*
X143400008Y-58465499D01*
X143400016Y-58465498D01*
X143400019Y-58465498D01*
X143475171Y-58457821D01*
X143502797Y-58454999D01*
X143669334Y-58399814D01*
X143818656Y-58307712D01*
X143837819Y-58288548D01*
X143899139Y-58255063D01*
X143968831Y-58260046D01*
X144024766Y-58301917D01*
X144049184Y-58367380D01*
X144049500Y-58376229D01*
X144049500Y-58947870D01*
X144049501Y-58947876D01*
X144055908Y-59007483D01*
X144106202Y-59142328D01*
X144106206Y-59142335D01*
X144192452Y-59257544D01*
X144192455Y-59257547D01*
X144307664Y-59343793D01*
X144307671Y-59343797D01*
X144442517Y-59394091D01*
X144442516Y-59394091D01*
X144449444Y-59394835D01*
X144502127Y-59400500D01*
X146397872Y-59400499D01*
X146457483Y-59394091D01*
X146592331Y-59343796D01*
X146707546Y-59257546D01*
X146793796Y-59142331D01*
X146814180Y-59087678D01*
X146825934Y-59056166D01*
X146867806Y-59000233D01*
X146933270Y-58975816D01*
X146942116Y-58975500D01*
X150257885Y-58975500D01*
X150324924Y-58995185D01*
X150370679Y-59047989D01*
X150374067Y-59056167D01*
X150406202Y-59142328D01*
X150406206Y-59142335D01*
X150492452Y-59257544D01*
X150492455Y-59257547D01*
X150607664Y-59343793D01*
X150607671Y-59343797D01*
X150742517Y-59394091D01*
X150742516Y-59394091D01*
X150749444Y-59394835D01*
X150802127Y-59400500D01*
X152697872Y-59400499D01*
X152757483Y-59394091D01*
X152892331Y-59343796D01*
X153007546Y-59257546D01*
X153093796Y-59142331D01*
X153144091Y-59007483D01*
X153150500Y-58947873D01*
X153150499Y-58346227D01*
X153170183Y-58279190D01*
X153222987Y-58233435D01*
X153292146Y-58223491D01*
X153355702Y-58252516D01*
X153362180Y-58258548D01*
X153386344Y-58282712D01*
X153535666Y-58374814D01*
X153702203Y-58429999D01*
X153804991Y-58440500D01*
X154640500Y-58440499D01*
X154707539Y-58460183D01*
X154753294Y-58512987D01*
X154764500Y-58564499D01*
X154764500Y-61284548D01*
X154744815Y-61351587D01*
X154728181Y-61372229D01*
X152995229Y-63105181D01*
X152933906Y-63138666D01*
X152907548Y-63141500D01*
X147191192Y-63141500D01*
X147124153Y-63121815D01*
X147078398Y-63069011D01*
X147068454Y-62999853D01*
X147089617Y-62946377D01*
X147147531Y-62863666D01*
X147147530Y-62863666D01*
X147147534Y-62863662D01*
X147240894Y-62663450D01*
X147298070Y-62450068D01*
X147317323Y-62230000D01*
X147315215Y-62205909D01*
X147304275Y-62080858D01*
X147298070Y-62009932D01*
X147240894Y-61796550D01*
X147147534Y-61596339D01*
X147020826Y-61415380D01*
X146864620Y-61259174D01*
X146864616Y-61259171D01*
X146864615Y-61259170D01*
X146683666Y-61132468D01*
X146683662Y-61132466D01*
X146673666Y-61127805D01*
X146483450Y-61039106D01*
X146483447Y-61039105D01*
X146483445Y-61039104D01*
X146270070Y-60981930D01*
X146270062Y-60981929D01*
X146050002Y-60962677D01*
X146049998Y-60962677D01*
X145829937Y-60981929D01*
X145829929Y-60981930D01*
X145616554Y-61039104D01*
X145616548Y-61039107D01*
X145416340Y-61132465D01*
X145416338Y-61132466D01*
X145235377Y-61259175D01*
X145079175Y-61415377D01*
X144952466Y-61596338D01*
X144952465Y-61596340D01*
X144892382Y-61725189D01*
X144846209Y-61777628D01*
X144779016Y-61796780D01*
X144712135Y-61776564D01*
X144667618Y-61725189D01*
X144633712Y-61652478D01*
X144607534Y-61596339D01*
X144480826Y-61415380D01*
X144324620Y-61259174D01*
X144324616Y-61259171D01*
X144324615Y-61259170D01*
X144143666Y-61132468D01*
X144143662Y-61132466D01*
X144133666Y-61127805D01*
X143943450Y-61039106D01*
X143943447Y-61039105D01*
X143943445Y-61039104D01*
X143730070Y-60981930D01*
X143730062Y-60981929D01*
X143510002Y-60962677D01*
X143509998Y-60962677D01*
X143363288Y-60975512D01*
X143289932Y-60981930D01*
X143289930Y-60981930D01*
X143289926Y-60981931D01*
X143245976Y-60993707D01*
X143176126Y-60992043D01*
X143126203Y-60961613D01*
X140835462Y-58670872D01*
X140801977Y-58609549D01*
X140806961Y-58539857D01*
X140848833Y-58483924D01*
X140910543Y-58459833D01*
X140962696Y-58454506D01*
X141129119Y-58399358D01*
X141129124Y-58399356D01*
X141278345Y-58307315D01*
X141402315Y-58183345D01*
X141498149Y-58027975D01*
X141500366Y-58029342D01*
X141538484Y-57986027D01*
X141605672Y-57966857D01*
X141672559Y-57987054D01*
G37*
%TD.AperFunction*%
%TA.AperFunction,Conductor*%
G36*
X118955969Y-57416792D02*
G01*
X118992461Y-57442052D01*
X119988181Y-58437772D01*
X120021666Y-58499095D01*
X120024500Y-58525453D01*
X120024500Y-61062201D01*
X120004815Y-61129240D01*
X119971623Y-61163776D01*
X119835377Y-61259175D01*
X119679175Y-61415377D01*
X119552467Y-61596337D01*
X119492105Y-61725782D01*
X119445932Y-61778221D01*
X119378738Y-61797372D01*
X119311857Y-61777156D01*
X119267341Y-61725780D01*
X119207098Y-61596589D01*
X119207097Y-61596587D01*
X119161741Y-61531811D01*
X119161740Y-61531810D01*
X118491000Y-62202550D01*
X118491000Y-62179840D01*
X118465036Y-62082939D01*
X118414876Y-61996060D01*
X118343940Y-61925124D01*
X118257061Y-61874964D01*
X118160160Y-61849000D01*
X118137448Y-61849000D01*
X118808188Y-61178259D01*
X118808187Y-61178258D01*
X118743411Y-61132901D01*
X118743405Y-61132898D01*
X118543284Y-61039580D01*
X118543270Y-61039575D01*
X118329986Y-60982426D01*
X118329976Y-60982424D01*
X118110001Y-60963179D01*
X118109999Y-60963179D01*
X117890023Y-60982424D01*
X117890013Y-60982426D01*
X117676729Y-61039575D01*
X117676720Y-61039579D01*
X117476590Y-61132901D01*
X117411811Y-61178258D01*
X118082553Y-61849000D01*
X118059840Y-61849000D01*
X117962939Y-61874964D01*
X117876060Y-61925124D01*
X117805124Y-61996060D01*
X117754964Y-62082939D01*
X117729000Y-62179840D01*
X117729000Y-62202553D01*
X117058258Y-61531811D01*
X117012901Y-61596590D01*
X116952658Y-61725781D01*
X116906485Y-61778220D01*
X116839292Y-61797372D01*
X116772411Y-61777156D01*
X116727894Y-61725781D01*
X116693712Y-61652478D01*
X116667534Y-61596339D01*
X116540826Y-61415380D01*
X116384620Y-61259174D01*
X116384616Y-61259171D01*
X116384615Y-61259170D01*
X116203666Y-61132468D01*
X116203662Y-61132466D01*
X116193666Y-61127805D01*
X116003450Y-61039106D01*
X116003447Y-61039105D01*
X116003445Y-61039104D01*
X115790070Y-60981930D01*
X115790062Y-60981929D01*
X115570002Y-60962677D01*
X115569997Y-60962677D01*
X115484093Y-60970192D01*
X115415594Y-60956425D01*
X115365411Y-60907809D01*
X115349478Y-60839781D01*
X115372854Y-60773937D01*
X115385602Y-60758987D01*
X116055858Y-60088733D01*
X116124312Y-59986285D01*
X116151932Y-59919603D01*
X116171463Y-59872452D01*
X116173602Y-59861697D01*
X116180198Y-59828540D01*
X116180198Y-59828537D01*
X116191743Y-59770500D01*
X116195501Y-59751607D01*
X116195501Y-59623283D01*
X116195500Y-59623257D01*
X116195500Y-59235326D01*
X116215185Y-59168287D01*
X116267989Y-59122532D01*
X116337147Y-59112588D01*
X116382621Y-59128594D01*
X116454803Y-59171282D01*
X116454806Y-59171283D01*
X116612504Y-59217099D01*
X116612510Y-59217100D01*
X116649350Y-59219999D01*
X116649366Y-59220000D01*
X117190000Y-59220000D01*
X117190000Y-58670000D01*
X117690000Y-58670000D01*
X117690000Y-59220000D01*
X118230634Y-59220000D01*
X118230649Y-59219999D01*
X118267489Y-59217100D01*
X118267495Y-59217099D01*
X118425193Y-59171283D01*
X118425196Y-59171282D01*
X118566552Y-59087685D01*
X118566561Y-59087678D01*
X118682678Y-58971561D01*
X118682685Y-58971552D01*
X118766281Y-58830198D01*
X118812100Y-58672486D01*
X118812295Y-58670001D01*
X118812295Y-58670000D01*
X117690000Y-58670000D01*
X117190000Y-58670000D01*
X117190000Y-58294000D01*
X117209685Y-58226961D01*
X117262489Y-58181206D01*
X117314000Y-58170000D01*
X118812295Y-58170000D01*
X118812295Y-58169998D01*
X118812100Y-58167513D01*
X118766281Y-58009801D01*
X118682685Y-57868447D01*
X118677900Y-57862278D01*
X118680366Y-57860364D01*
X118653802Y-57811776D01*
X118658749Y-57742082D01*
X118679856Y-57709232D01*
X118678301Y-57708026D01*
X118683077Y-57701868D01*
X118683081Y-57701865D01*
X118766744Y-57560398D01*
X118785704Y-57495137D01*
X118823309Y-57436253D01*
X118886782Y-57407046D01*
X118955969Y-57416792D01*
G37*
%TD.AperFunction*%
%TA.AperFunction,Conductor*%
G36*
X120810431Y-50520350D02*
G01*
X120845102Y-50557006D01*
X120852288Y-50568656D01*
X120976344Y-50692712D01*
X120978705Y-50694168D01*
X120979653Y-50694753D01*
X120981445Y-50696746D01*
X120982011Y-50697193D01*
X120981934Y-50697289D01*
X121026379Y-50746699D01*
X121037603Y-50815661D01*
X121009761Y-50879744D01*
X120979665Y-50905826D01*
X120976660Y-50907679D01*
X120976655Y-50907683D01*
X120852683Y-51031655D01*
X120852681Y-51031658D01*
X120845267Y-51043677D01*
X120793316Y-51090399D01*
X120724352Y-51101617D01*
X120676611Y-51085306D01*
X120530196Y-50998717D01*
X120530193Y-50998716D01*
X120372495Y-50952900D01*
X120372489Y-50952899D01*
X120335649Y-50950000D01*
X119932500Y-50950000D01*
X119932500Y-51500000D01*
X122046000Y-51500000D01*
X122113039Y-51519685D01*
X122158794Y-51572489D01*
X122170000Y-51624000D01*
X122170000Y-52749999D01*
X122444972Y-52749999D01*
X122444986Y-52749998D01*
X122547697Y-52739505D01*
X122714119Y-52684358D01*
X122714124Y-52684356D01*
X122863345Y-52592315D01*
X122987315Y-52468345D01*
X123079356Y-52319124D01*
X123079358Y-52319119D01*
X123134505Y-52152697D01*
X123134506Y-52152690D01*
X123144999Y-52049986D01*
X123144999Y-51938952D01*
X123164683Y-51871912D01*
X123217487Y-51826157D01*
X123286645Y-51816213D01*
X123350201Y-51845237D01*
X123356680Y-51851270D01*
X123483181Y-51977771D01*
X123516666Y-52039094D01*
X123519500Y-52065452D01*
X123519500Y-53686281D01*
X123499815Y-53753320D01*
X123447011Y-53799075D01*
X123385782Y-53809900D01*
X123380701Y-53809500D01*
X123380694Y-53809500D01*
X121799306Y-53809500D01*
X121799298Y-53809500D01*
X121762432Y-53812401D01*
X121762426Y-53812402D01*
X121604606Y-53858254D01*
X121604603Y-53858255D01*
X121463137Y-53941917D01*
X121463129Y-53941923D01*
X121346923Y-54058129D01*
X121346917Y-54058137D01*
X121263255Y-54199603D01*
X121263254Y-54199606D01*
X121217402Y-54357426D01*
X121217401Y-54357432D01*
X121214500Y-54394298D01*
X121214500Y-54825701D01*
X121217401Y-54862567D01*
X121217402Y-54862573D01*
X121263254Y-55020393D01*
X121263255Y-55020396D01*
X121263256Y-55020398D01*
X121263416Y-55020668D01*
X121346917Y-55161862D01*
X121351702Y-55168031D01*
X121349369Y-55169840D01*
X121376210Y-55218995D01*
X121371226Y-55288687D01*
X121350470Y-55321021D01*
X121352097Y-55322283D01*
X121347313Y-55328449D01*
X121263718Y-55469801D01*
X121217899Y-55627513D01*
X121217704Y-55629998D01*
X121217705Y-55630000D01*
X122716000Y-55630000D01*
X122783039Y-55649685D01*
X122828794Y-55702489D01*
X122840000Y-55754000D01*
X122840000Y-58170000D01*
X123962977Y-58170000D01*
X124030016Y-58189685D01*
X124050658Y-58206319D01*
X124151654Y-58307315D01*
X124300875Y-58399356D01*
X124300880Y-58399358D01*
X124467302Y-58454505D01*
X124467309Y-58454506D01*
X124570019Y-58464999D01*
X124844999Y-58464999D01*
X124845000Y-58464998D01*
X124845000Y-57339000D01*
X124864685Y-57271961D01*
X124917489Y-57226206D01*
X124969000Y-57215000D01*
X125221000Y-57215000D01*
X125288039Y-57234685D01*
X125333794Y-57287489D01*
X125345000Y-57339000D01*
X125345000Y-58464999D01*
X125619972Y-58464999D01*
X125619986Y-58464998D01*
X125722697Y-58454505D01*
X125889119Y-58399358D01*
X125889124Y-58399356D01*
X126002403Y-58329485D01*
X126069795Y-58311045D01*
X126136459Y-58331967D01*
X126181229Y-58385609D01*
X126191500Y-58435024D01*
X126191500Y-60885539D01*
X126171815Y-60952578D01*
X126119011Y-60998333D01*
X126049853Y-61008277D01*
X126035408Y-61005314D01*
X125949989Y-60982427D01*
X125949976Y-60982424D01*
X125730001Y-60963179D01*
X125729999Y-60963179D01*
X125510023Y-60982424D01*
X125510013Y-60982426D01*
X125296729Y-61039575D01*
X125296720Y-61039579D01*
X125096590Y-61132901D01*
X125031811Y-61178258D01*
X125702553Y-61849000D01*
X125679840Y-61849000D01*
X125582939Y-61874964D01*
X125496060Y-61925124D01*
X125425124Y-61996060D01*
X125374964Y-62082939D01*
X125349000Y-62179840D01*
X125349000Y-62202553D01*
X124678258Y-61531811D01*
X124632901Y-61596590D01*
X124572658Y-61725781D01*
X124526485Y-61778220D01*
X124459292Y-61797372D01*
X124392411Y-61777156D01*
X124347894Y-61725781D01*
X124313712Y-61652478D01*
X124287534Y-61596339D01*
X124160826Y-61415380D01*
X124004620Y-61259174D01*
X124004616Y-61259171D01*
X124004615Y-61259170D01*
X123823666Y-61132468D01*
X123823662Y-61132466D01*
X123813666Y-61127805D01*
X123623450Y-61039106D01*
X123623447Y-61039105D01*
X123623445Y-61039104D01*
X123410070Y-60981930D01*
X123410062Y-60981929D01*
X123190002Y-60962677D01*
X123189998Y-60962677D01*
X123043288Y-60975512D01*
X122969932Y-60981930D01*
X122969930Y-60981930D01*
X122969926Y-60981931D01*
X122925977Y-60993707D01*
X122856127Y-60992044D01*
X122806204Y-60961613D01*
X122051819Y-60207228D01*
X122018334Y-60145905D01*
X122015500Y-60119547D01*
X122015500Y-59344000D01*
X122035185Y-59276961D01*
X122087989Y-59231206D01*
X122139500Y-59220000D01*
X122340000Y-59220000D01*
X122340000Y-58670000D01*
X122840000Y-58670000D01*
X122840000Y-59220000D01*
X123380634Y-59220000D01*
X123380649Y-59219999D01*
X123417489Y-59217100D01*
X123417495Y-59217099D01*
X123575193Y-59171283D01*
X123575196Y-59171282D01*
X123716552Y-59087685D01*
X123716561Y-59087678D01*
X123832678Y-58971561D01*
X123832685Y-58971552D01*
X123916281Y-58830198D01*
X123962100Y-58672486D01*
X123962295Y-58670001D01*
X123962295Y-58670000D01*
X122840000Y-58670000D01*
X122340000Y-58670000D01*
X122340000Y-56130000D01*
X121217705Y-56130000D01*
X121217703Y-56130001D01*
X121218157Y-56135771D01*
X121203790Y-56204148D01*
X121154737Y-56253903D01*
X121086571Y-56269239D01*
X121020935Y-56245287D01*
X121006858Y-56233176D01*
X118989290Y-54215608D01*
X118989270Y-54215586D01*
X118897825Y-54124141D01*
X118846601Y-54089915D01*
X118799507Y-54058447D01*
X118795378Y-54055688D01*
X118795375Y-54055686D01*
X118795372Y-54055685D01*
X118714884Y-54022347D01*
X118681544Y-54008537D01*
X118681536Y-54008535D01*
X118658441Y-54003941D01*
X118596530Y-53971556D01*
X118595003Y-53970057D01*
X118566865Y-53941919D01*
X118425398Y-53858256D01*
X118425397Y-53858255D01*
X118425396Y-53858255D01*
X118425393Y-53858254D01*
X118267573Y-53812402D01*
X118267567Y-53812401D01*
X118230701Y-53809500D01*
X118230694Y-53809500D01*
X117882367Y-53809500D01*
X117831931Y-53798779D01*
X117719807Y-53748857D01*
X117719802Y-53748855D01*
X117574001Y-53717865D01*
X117534646Y-53709500D01*
X117345354Y-53709500D01*
X117312897Y-53716398D01*
X117160197Y-53748855D01*
X117160192Y-53748857D01*
X117048069Y-53798779D01*
X116997633Y-53809500D01*
X116649298Y-53809500D01*
X116612432Y-53812401D01*
X116612426Y-53812402D01*
X116454606Y-53858254D01*
X116454599Y-53858257D01*
X116382620Y-53900825D01*
X116314896Y-53918008D01*
X116248634Y-53895848D01*
X116204871Y-53841381D01*
X116195500Y-53794093D01*
X116195500Y-52830300D01*
X116215185Y-52763261D01*
X116267989Y-52717506D01*
X116280482Y-52712599D01*
X116364334Y-52684814D01*
X116513656Y-52592712D01*
X116637712Y-52468656D01*
X116729814Y-52319334D01*
X116784999Y-52152797D01*
X116795500Y-52050009D01*
X116795500Y-52000001D01*
X118447704Y-52000001D01*
X118447899Y-52002486D01*
X118493718Y-52160198D01*
X118577314Y-52301552D01*
X118577321Y-52301561D01*
X118693438Y-52417678D01*
X118693447Y-52417685D01*
X118834803Y-52501282D01*
X118834806Y-52501283D01*
X118992504Y-52547099D01*
X118992510Y-52547100D01*
X119029350Y-52549999D01*
X119029366Y-52550000D01*
X119432500Y-52550000D01*
X119432500Y-52000000D01*
X119932500Y-52000000D01*
X119932500Y-52550000D01*
X120335634Y-52550000D01*
X120335649Y-52549999D01*
X120372489Y-52547100D01*
X120372495Y-52547099D01*
X120530193Y-52501283D01*
X120530196Y-52501282D01*
X120676612Y-52414693D01*
X120744336Y-52397510D01*
X120810599Y-52419670D01*
X120845272Y-52456328D01*
X120852684Y-52468345D01*
X120976654Y-52592315D01*
X121125875Y-52684356D01*
X121125880Y-52684358D01*
X121292302Y-52739505D01*
X121292309Y-52739506D01*
X121395019Y-52749999D01*
X121669999Y-52749999D01*
X121670000Y-52749998D01*
X121670000Y-52000000D01*
X119932500Y-52000000D01*
X119432500Y-52000000D01*
X118447705Y-52000000D01*
X118447704Y-52000001D01*
X116795500Y-52000001D01*
X116795499Y-51669218D01*
X116815183Y-51602181D01*
X116867987Y-51556426D01*
X116937146Y-51546482D01*
X116954094Y-51550144D01*
X117117426Y-51597597D01*
X117117429Y-51597597D01*
X117117431Y-51597598D01*
X117154306Y-51600500D01*
X117154314Y-51600500D01*
X118460686Y-51600500D01*
X118460694Y-51600500D01*
X118497569Y-51597598D01*
X118497571Y-51597597D01*
X118497573Y-51597597D01*
X118539191Y-51585505D01*
X118655398Y-51551744D01*
X118713694Y-51517268D01*
X118776815Y-51500000D01*
X119432500Y-51500000D01*
X119432500Y-50950000D01*
X119169500Y-50950000D01*
X119102461Y-50930315D01*
X119056706Y-50877511D01*
X119045500Y-50826000D01*
X119045500Y-50774500D01*
X119065185Y-50707461D01*
X119117989Y-50661706D01*
X119169500Y-50650500D01*
X120335686Y-50650500D01*
X120335694Y-50650500D01*
X120372569Y-50647598D01*
X120372571Y-50647597D01*
X120372573Y-50647597D01*
X120414191Y-50635505D01*
X120530398Y-50601744D01*
X120671865Y-50518081D01*
X120671865Y-50518080D01*
X120676444Y-50515373D01*
X120744168Y-50498190D01*
X120810431Y-50520350D01*
G37*
%TD.AperFunction*%
%TA.AperFunction,Conductor*%
G36*
X138091587Y-52300185D02*
G01*
X138112229Y-52316819D01*
X138723181Y-52927771D01*
X138756666Y-52989094D01*
X138759500Y-53015452D01*
X138759500Y-53686281D01*
X138739815Y-53753320D01*
X138687011Y-53799075D01*
X138625782Y-53809900D01*
X138620701Y-53809500D01*
X138620694Y-53809500D01*
X136839306Y-53809500D01*
X136839298Y-53809500D01*
X136802432Y-53812401D01*
X136802426Y-53812402D01*
X136644606Y-53858254D01*
X136644603Y-53858255D01*
X136503137Y-53941917D01*
X136503129Y-53941923D01*
X136386923Y-54058129D01*
X136386917Y-54058137D01*
X136303255Y-54199603D01*
X136303254Y-54199606D01*
X136257402Y-54357426D01*
X136257401Y-54357432D01*
X136254500Y-54394298D01*
X136254500Y-54825701D01*
X136257401Y-54862567D01*
X136257402Y-54862573D01*
X136303254Y-55020393D01*
X136303255Y-55020396D01*
X136303256Y-55020398D01*
X136303416Y-55020668D01*
X136386917Y-55161862D01*
X136391702Y-55168031D01*
X136389369Y-55169840D01*
X136416210Y-55218995D01*
X136411226Y-55288687D01*
X136390470Y-55321021D01*
X136392097Y-55322283D01*
X136387313Y-55328449D01*
X136303718Y-55469801D01*
X136257899Y-55627513D01*
X136257704Y-55629998D01*
X136257705Y-55630000D01*
X137856000Y-55630000D01*
X137923039Y-55649685D01*
X137968794Y-55702489D01*
X137980000Y-55754000D01*
X137980000Y-55775500D01*
X137960315Y-55842539D01*
X137907511Y-55888294D01*
X137856000Y-55899500D01*
X136393649Y-55899500D01*
X136393629Y-55899499D01*
X136387515Y-55899499D01*
X136264302Y-55899499D01*
X136163505Y-55919548D01*
X136163500Y-55919548D01*
X136143458Y-55923536D01*
X136143456Y-55923537D01*
X136099834Y-55941606D01*
X136099833Y-55941606D01*
X136029629Y-55970684D01*
X136029616Y-55970691D01*
X135927175Y-56039141D01*
X135927171Y-56039144D01*
X134463141Y-57503175D01*
X134401818Y-57536660D01*
X134332126Y-57531676D01*
X134276193Y-57489804D01*
X134251776Y-57424340D01*
X134251842Y-57405768D01*
X134252295Y-57400000D01*
X133030000Y-57400000D01*
X133030000Y-58395500D01*
X133010315Y-58462539D01*
X132957511Y-58508294D01*
X132906000Y-58519500D01*
X130820147Y-58519500D01*
X130753108Y-58499815D01*
X130732466Y-58483181D01*
X130419283Y-58169998D01*
X131307704Y-58169998D01*
X131307705Y-58170000D01*
X132530000Y-58170000D01*
X132530000Y-57400000D01*
X131307705Y-57400000D01*
X131307704Y-57400001D01*
X131307899Y-57402486D01*
X131353718Y-57560198D01*
X131437314Y-57701552D01*
X131442100Y-57707722D01*
X131439753Y-57709542D01*
X131466564Y-57758642D01*
X131461580Y-57828334D01*
X131440541Y-57861069D01*
X131442100Y-57862278D01*
X131437314Y-57868447D01*
X131353718Y-58009801D01*
X131307899Y-58167513D01*
X131307704Y-58169998D01*
X130419283Y-58169998D01*
X129149283Y-56899998D01*
X131307704Y-56899998D01*
X131307705Y-56900000D01*
X132530000Y-56900000D01*
X132530000Y-56130000D01*
X133030000Y-56130000D01*
X133030000Y-56900000D01*
X134252295Y-56900000D01*
X134252295Y-56899998D01*
X134252100Y-56897513D01*
X134206281Y-56739801D01*
X134122685Y-56598447D01*
X134117900Y-56592278D01*
X134120252Y-56590453D01*
X134093445Y-56541405D01*
X134098402Y-56471712D01*
X134119465Y-56438936D01*
X134117900Y-56437722D01*
X134122685Y-56431552D01*
X134206281Y-56290198D01*
X134252100Y-56132486D01*
X134252295Y-56130001D01*
X134252295Y-56130000D01*
X133030000Y-56130000D01*
X132530000Y-56130000D01*
X131307705Y-56130000D01*
X131307704Y-56130001D01*
X131307899Y-56132486D01*
X131353718Y-56290198D01*
X131437314Y-56431552D01*
X131442100Y-56437722D01*
X131439753Y-56439542D01*
X131466564Y-56488642D01*
X131461580Y-56558334D01*
X131440541Y-56591069D01*
X131442100Y-56592278D01*
X131437314Y-56598447D01*
X131353718Y-56739801D01*
X131307899Y-56897513D01*
X131307704Y-56899998D01*
X129149283Y-56899998D01*
X127879283Y-55629998D01*
X131307704Y-55629998D01*
X131307705Y-55630000D01*
X132530000Y-55630000D01*
X132530000Y-54860000D01*
X133030000Y-54860000D01*
X133030000Y-55630000D01*
X134252295Y-55630000D01*
X134252295Y-55629998D01*
X134252100Y-55627513D01*
X134206281Y-55469801D01*
X134122685Y-55328447D01*
X134117900Y-55322278D01*
X134120252Y-55320453D01*
X134093445Y-55271405D01*
X134098402Y-55201712D01*
X134119465Y-55168936D01*
X134117900Y-55167722D01*
X134122685Y-55161552D01*
X134206281Y-55020198D01*
X134252100Y-54862486D01*
X134252295Y-54860001D01*
X134252295Y-54860000D01*
X133030000Y-54860000D01*
X132530000Y-54860000D01*
X131307705Y-54860000D01*
X131307704Y-54860001D01*
X131307899Y-54862486D01*
X131353718Y-55020198D01*
X131437314Y-55161552D01*
X131442100Y-55167722D01*
X131439753Y-55169542D01*
X131466564Y-55218642D01*
X131461580Y-55288334D01*
X131440541Y-55321069D01*
X131442100Y-55322278D01*
X131437314Y-55328447D01*
X131353718Y-55469801D01*
X131307899Y-55627513D01*
X131307704Y-55629998D01*
X127879283Y-55629998D01*
X126687518Y-54438233D01*
X126654033Y-54376910D01*
X126654879Y-54359998D01*
X131307704Y-54359998D01*
X131307705Y-54360000D01*
X132530000Y-54360000D01*
X132530000Y-53810000D01*
X133030000Y-53810000D01*
X133030000Y-54360000D01*
X134252295Y-54360000D01*
X134252295Y-54359998D01*
X134252100Y-54357513D01*
X134206281Y-54199801D01*
X134122685Y-54058447D01*
X134122678Y-54058438D01*
X134006561Y-53942321D01*
X134006552Y-53942314D01*
X133865196Y-53858717D01*
X133865193Y-53858716D01*
X133707495Y-53812900D01*
X133707489Y-53812899D01*
X133670649Y-53810000D01*
X133030000Y-53810000D01*
X132530000Y-53810000D01*
X131889350Y-53810000D01*
X131852510Y-53812899D01*
X131852504Y-53812900D01*
X131694806Y-53858716D01*
X131694803Y-53858717D01*
X131553447Y-53942314D01*
X131553438Y-53942321D01*
X131437321Y-54058438D01*
X131437314Y-54058447D01*
X131353718Y-54199801D01*
X131307899Y-54357513D01*
X131307704Y-54359998D01*
X126654879Y-54359998D01*
X126657268Y-54312234D01*
X126673961Y-54260858D01*
X126705674Y-54163256D01*
X126725460Y-53975000D01*
X126705674Y-53786744D01*
X126647179Y-53606716D01*
X126552533Y-53442784D01*
X126425871Y-53302112D01*
X126425870Y-53302111D01*
X126272734Y-53190851D01*
X126272729Y-53190848D01*
X126099807Y-53113857D01*
X126099802Y-53113855D01*
X125954001Y-53082865D01*
X125914646Y-53074500D01*
X125725354Y-53074500D01*
X125692897Y-53081398D01*
X125540197Y-53113855D01*
X125540192Y-53113857D01*
X125367270Y-53190848D01*
X125367265Y-53190851D01*
X125214129Y-53302111D01*
X125087466Y-53442785D01*
X125001887Y-53591013D01*
X124951320Y-53639228D01*
X124882713Y-53652452D01*
X124817848Y-53626484D01*
X124777320Y-53569570D01*
X124770500Y-53529013D01*
X124770500Y-53015452D01*
X124790185Y-52948413D01*
X124806819Y-52927771D01*
X125417771Y-52316819D01*
X125479094Y-52283334D01*
X125505452Y-52280500D01*
X138024548Y-52280500D01*
X138091587Y-52300185D01*
G37*
%TD.AperFunction*%
%TA.AperFunction,Conductor*%
G36*
X119923834Y-46936033D02*
G01*
X119979767Y-46977905D01*
X120004184Y-47043369D01*
X120004500Y-47052215D01*
X120004500Y-48301609D01*
X120007778Y-48318088D01*
X120007778Y-48318090D01*
X120028535Y-48422446D01*
X120028539Y-48422458D01*
X120036345Y-48441302D01*
X120036346Y-48441305D01*
X120075685Y-48536281D01*
X120075690Y-48536290D01*
X120105232Y-48580501D01*
X120105233Y-48580502D01*
X120144141Y-48638732D01*
X120144144Y-48638736D01*
X120198227Y-48692818D01*
X120231713Y-48754141D01*
X120226729Y-48823833D01*
X120184858Y-48879766D01*
X120119394Y-48904184D01*
X120110547Y-48904500D01*
X119620889Y-48904500D01*
X119500055Y-48928535D01*
X119500045Y-48928538D01*
X119386216Y-48975687D01*
X119386207Y-48975692D01*
X119307024Y-49028602D01*
X119240347Y-49049480D01*
X119238133Y-49049500D01*
X119029298Y-49049500D01*
X118992432Y-49052401D01*
X118992426Y-49052402D01*
X118834606Y-49098254D01*
X118834603Y-49098255D01*
X118693137Y-49181917D01*
X118693129Y-49181923D01*
X118576923Y-49298129D01*
X118576917Y-49298137D01*
X118493255Y-49439603D01*
X118493254Y-49439606D01*
X118447402Y-49597426D01*
X118447401Y-49597432D01*
X118444500Y-49634298D01*
X118444500Y-49875500D01*
X118424815Y-49942539D01*
X118372011Y-49988294D01*
X118320500Y-49999500D01*
X117154298Y-49999500D01*
X117117432Y-50002401D01*
X117117426Y-50002402D01*
X116959606Y-50048254D01*
X116959603Y-50048255D01*
X116935449Y-50062539D01*
X116901305Y-50082732D01*
X116838186Y-50100000D01*
X114345001Y-50100000D01*
X114345001Y-50149986D01*
X114355494Y-50252697D01*
X114410641Y-50419119D01*
X114410643Y-50419124D01*
X114502684Y-50568345D01*
X114626655Y-50692316D01*
X114626659Y-50692319D01*
X114629656Y-50694168D01*
X114631279Y-50695972D01*
X114632323Y-50696798D01*
X114632181Y-50696976D01*
X114676381Y-50746116D01*
X114687602Y-50815079D01*
X114659759Y-50879161D01*
X114629661Y-50905241D01*
X114626349Y-50907283D01*
X114626343Y-50907288D01*
X114502289Y-51031342D01*
X114410187Y-51180663D01*
X114410186Y-51180666D01*
X114355001Y-51347203D01*
X114355001Y-51347204D01*
X114355000Y-51347204D01*
X114344500Y-51449983D01*
X114344500Y-52050001D01*
X114344501Y-52050019D01*
X114355000Y-52152796D01*
X114355001Y-52152799D01*
X114397318Y-52280500D01*
X114410186Y-52319334D01*
X114502288Y-52468656D01*
X114626344Y-52592712D01*
X114775666Y-52684814D01*
X114859505Y-52712595D01*
X114916948Y-52752366D01*
X114943772Y-52816882D01*
X114944500Y-52830300D01*
X114944500Y-54759477D01*
X114924815Y-54826516D01*
X114872011Y-54872271D01*
X114802853Y-54882215D01*
X114739297Y-54853190D01*
X114732819Y-54847158D01*
X114608345Y-54722684D01*
X114459124Y-54630643D01*
X114459119Y-54630641D01*
X114292697Y-54575494D01*
X114292690Y-54575493D01*
X114189986Y-54565000D01*
X113915000Y-54565000D01*
X113915000Y-55691000D01*
X113895315Y-55758039D01*
X113842511Y-55803794D01*
X113791000Y-55815000D01*
X113539000Y-55815000D01*
X113471961Y-55795315D01*
X113426206Y-55742511D01*
X113415000Y-55691000D01*
X113415000Y-54565000D01*
X113140029Y-54565000D01*
X113140012Y-54565001D01*
X113037302Y-54575494D01*
X112870880Y-54630641D01*
X112870875Y-54630643D01*
X112721657Y-54722682D01*
X112597682Y-54846656D01*
X112593207Y-54852317D01*
X112590769Y-54850389D01*
X112549206Y-54887802D01*
X112495574Y-54900000D01*
X111400000Y-54900000D01*
X111400000Y-55700000D01*
X112097828Y-55700000D01*
X112097844Y-55699999D01*
X112157372Y-55693598D01*
X112157379Y-55693596D01*
X112272667Y-55650597D01*
X112342358Y-55645613D01*
X112403681Y-55679098D01*
X112437166Y-55740421D01*
X112440000Y-55766778D01*
X112440000Y-55864970D01*
X112440001Y-55864987D01*
X112450494Y-55967697D01*
X112505641Y-56134119D01*
X112505643Y-56134124D01*
X112597684Y-56283345D01*
X112721655Y-56407316D01*
X112721659Y-56407319D01*
X112724656Y-56409168D01*
X112726279Y-56410972D01*
X112727323Y-56411798D01*
X112727181Y-56411976D01*
X112771381Y-56461116D01*
X112782602Y-56530079D01*
X112754759Y-56594161D01*
X112724661Y-56620241D01*
X112721349Y-56622283D01*
X112721343Y-56622288D01*
X112597289Y-56746342D01*
X112505187Y-56895663D01*
X112505185Y-56895668D01*
X112500208Y-56910688D01*
X112450001Y-57062203D01*
X112450001Y-57062204D01*
X112450000Y-57062204D01*
X112439500Y-57164983D01*
X112439500Y-57232500D01*
X112419815Y-57299539D01*
X112367011Y-57345294D01*
X112297853Y-57355238D01*
X112272168Y-57348682D01*
X112157485Y-57305909D01*
X112157483Y-57305908D01*
X112097883Y-57299501D01*
X112097881Y-57299500D01*
X112097873Y-57299500D01*
X112097864Y-57299500D01*
X110202129Y-57299500D01*
X110202123Y-57299501D01*
X110142516Y-57305908D01*
X110007671Y-57356202D01*
X110007664Y-57356206D01*
X109892455Y-57442452D01*
X109892452Y-57442455D01*
X109806206Y-57557664D01*
X109806203Y-57557669D01*
X109774066Y-57643834D01*
X109732194Y-57699767D01*
X109666730Y-57724184D01*
X109657884Y-57724500D01*
X106342115Y-57724500D01*
X106275076Y-57704815D01*
X106229321Y-57652011D01*
X106225933Y-57643833D01*
X106193797Y-57557671D01*
X106193793Y-57557664D01*
X106107547Y-57442455D01*
X106107544Y-57442452D01*
X105992335Y-57356206D01*
X105992328Y-57356202D01*
X105857482Y-57305908D01*
X105857483Y-57305908D01*
X105797883Y-57299501D01*
X105797881Y-57299500D01*
X105797873Y-57299500D01*
X105797865Y-57299500D01*
X104735452Y-57299500D01*
X104668413Y-57279815D01*
X104647771Y-57263181D01*
X104417698Y-57033108D01*
X104417678Y-57033086D01*
X104326235Y-56941643D01*
X104326232Y-56941641D01*
X104260067Y-56897431D01*
X104223786Y-56873188D01*
X104142454Y-56839500D01*
X104142452Y-56839499D01*
X104142451Y-56839498D01*
X104109953Y-56826037D01*
X104099927Y-56824043D01*
X104049529Y-56814018D01*
X103989110Y-56802000D01*
X103989107Y-56802000D01*
X103989106Y-56802000D01*
X103412088Y-56802000D01*
X103345049Y-56782315D01*
X103306549Y-56743097D01*
X103295886Y-56725809D01*
X103277712Y-56696344D01*
X103184049Y-56602681D01*
X103150564Y-56541358D01*
X103155548Y-56471666D01*
X103184049Y-56427319D01*
X103220153Y-56391215D01*
X103277712Y-56333656D01*
X103369814Y-56184334D01*
X103424999Y-56017797D01*
X103435500Y-55915009D01*
X103435499Y-55687145D01*
X103455183Y-55620108D01*
X103507987Y-55574353D01*
X103577146Y-55564409D01*
X103633811Y-55587881D01*
X103707910Y-55643352D01*
X103707913Y-55643354D01*
X103842620Y-55693596D01*
X103842627Y-55693598D01*
X103902155Y-55699999D01*
X103902172Y-55700000D01*
X104600000Y-55700000D01*
X104600000Y-54900000D01*
X105100000Y-54900000D01*
X105100000Y-55700000D01*
X105797828Y-55700000D01*
X105797844Y-55699999D01*
X105857372Y-55693598D01*
X105857379Y-55693596D01*
X105992086Y-55643354D01*
X105992093Y-55643350D01*
X106107187Y-55557190D01*
X106107190Y-55557187D01*
X106193350Y-55442093D01*
X106193354Y-55442086D01*
X106243596Y-55307379D01*
X106243598Y-55307372D01*
X106249999Y-55247844D01*
X106250000Y-55247827D01*
X106250000Y-54900000D01*
X109750000Y-54900000D01*
X109750000Y-55247844D01*
X109756401Y-55307372D01*
X109756403Y-55307379D01*
X109806645Y-55442086D01*
X109806649Y-55442093D01*
X109892809Y-55557187D01*
X109892812Y-55557190D01*
X110007906Y-55643350D01*
X110007913Y-55643354D01*
X110142620Y-55693596D01*
X110142627Y-55693598D01*
X110202155Y-55699999D01*
X110202172Y-55700000D01*
X110900000Y-55700000D01*
X110900000Y-54900000D01*
X109750000Y-54900000D01*
X106250000Y-54900000D01*
X105100000Y-54900000D01*
X104600000Y-54900000D01*
X104600000Y-53600000D01*
X105100000Y-53600000D01*
X105100000Y-54400000D01*
X106250000Y-54400000D01*
X109750000Y-54400000D01*
X110900000Y-54400000D01*
X110900000Y-53600000D01*
X111400000Y-53600000D01*
X111400000Y-54400000D01*
X112550000Y-54400000D01*
X112550000Y-54052172D01*
X112549999Y-54052155D01*
X112543598Y-53992627D01*
X112543596Y-53992620D01*
X112493354Y-53857913D01*
X112493350Y-53857906D01*
X112407190Y-53742812D01*
X112407187Y-53742809D01*
X112292093Y-53656649D01*
X112292086Y-53656645D01*
X112157379Y-53606403D01*
X112157372Y-53606401D01*
X112097844Y-53600000D01*
X111400000Y-53600000D01*
X110900000Y-53600000D01*
X110202155Y-53600000D01*
X110142627Y-53606401D01*
X110142620Y-53606403D01*
X110007913Y-53656645D01*
X110007906Y-53656649D01*
X109892812Y-53742809D01*
X109892809Y-53742812D01*
X109806649Y-53857906D01*
X109806645Y-53857913D01*
X109756403Y-53992620D01*
X109756401Y-53992627D01*
X109750000Y-54052155D01*
X109750000Y-54400000D01*
X106250000Y-54400000D01*
X106250000Y-54052172D01*
X106249999Y-54052155D01*
X106243598Y-53992627D01*
X106243596Y-53992620D01*
X106193354Y-53857913D01*
X106193350Y-53857906D01*
X106107190Y-53742812D01*
X106107187Y-53742809D01*
X105992093Y-53656649D01*
X105992086Y-53656645D01*
X105857379Y-53606403D01*
X105857372Y-53606401D01*
X105797844Y-53600000D01*
X105100000Y-53600000D01*
X104600000Y-53600000D01*
X104591225Y-53591225D01*
X104557740Y-53529902D01*
X104562724Y-53460210D01*
X104591222Y-53415866D01*
X105245271Y-52761817D01*
X105306594Y-52728333D01*
X105332952Y-52725499D01*
X105910002Y-52725499D01*
X105910008Y-52725499D01*
X106012797Y-52714999D01*
X106179334Y-52659814D01*
X106328656Y-52567712D01*
X106452712Y-52443656D01*
X106481549Y-52396902D01*
X106533497Y-52350179D01*
X106587088Y-52338000D01*
X106772912Y-52338000D01*
X106839951Y-52357685D01*
X106878449Y-52396901D01*
X106907288Y-52443656D01*
X107031344Y-52567712D01*
X107180666Y-52659814D01*
X107347203Y-52714999D01*
X107449991Y-52725500D01*
X108450008Y-52725499D01*
X108450016Y-52725498D01*
X108450019Y-52725498D01*
X108506302Y-52719748D01*
X108552797Y-52714999D01*
X108719334Y-52659814D01*
X108868656Y-52567712D01*
X108992712Y-52443656D01*
X109021549Y-52396902D01*
X109073497Y-52350179D01*
X109127088Y-52338000D01*
X109312912Y-52338000D01*
X109379951Y-52357685D01*
X109418449Y-52396901D01*
X109447288Y-52443656D01*
X109571344Y-52567712D01*
X109720666Y-52659814D01*
X109887203Y-52714999D01*
X109989991Y-52725500D01*
X110990008Y-52725499D01*
X110990016Y-52725498D01*
X110990019Y-52725498D01*
X111046302Y-52719748D01*
X111092797Y-52714999D01*
X111259334Y-52659814D01*
X111408656Y-52567712D01*
X111532712Y-52443656D01*
X111624814Y-52294334D01*
X111679999Y-52127797D01*
X111690500Y-52025009D01*
X111690499Y-51447950D01*
X111710183Y-51380912D01*
X111726813Y-51360275D01*
X112793729Y-50293360D01*
X112793733Y-50293358D01*
X112880858Y-50206233D01*
X112936114Y-50123537D01*
X112949312Y-50103785D01*
X112991306Y-50002402D01*
X112992508Y-49999501D01*
X112996460Y-49989960D01*
X112996460Y-49989958D01*
X112996463Y-49989952D01*
X113020500Y-49869106D01*
X113020500Y-49704503D01*
X113040185Y-49637464D01*
X113092989Y-49591709D01*
X113144500Y-49580503D01*
X113214644Y-49580503D01*
X113214646Y-49580503D01*
X113399803Y-49541147D01*
X113572730Y-49464154D01*
X113725871Y-49352891D01*
X113728788Y-49349650D01*
X113731600Y-49346529D01*
X113791087Y-49309882D01*
X113823748Y-49305503D01*
X114232667Y-49305503D01*
X114299706Y-49325188D01*
X114345461Y-49377992D01*
X114356025Y-49442106D01*
X114345000Y-49550013D01*
X114345000Y-49600000D01*
X116794999Y-49600000D01*
X116794999Y-49550028D01*
X116794998Y-49550011D01*
X116783975Y-49442104D01*
X116796745Y-49373412D01*
X116844626Y-49322527D01*
X116907333Y-49305503D01*
X117254369Y-49305503D01*
X117254369Y-49305502D01*
X117352232Y-49286037D01*
X117352233Y-49286037D01*
X117359961Y-49284499D01*
X117375213Y-49281466D01*
X117422208Y-49262000D01*
X117489047Y-49234315D01*
X117540270Y-49200087D01*
X117591494Y-49165861D01*
X117678619Y-49078736D01*
X117678619Y-49078734D01*
X117688827Y-49068527D01*
X117688828Y-49068524D01*
X119792821Y-46964532D01*
X119854142Y-46931049D01*
X119923834Y-46936033D01*
G37*
%TD.AperFunction*%
%TA.AperFunction,Conductor*%
G36*
X145643039Y-54420185D02*
G01*
X145688794Y-54472989D01*
X145700000Y-54524500D01*
X145700000Y-55700000D01*
X146397828Y-55700000D01*
X146397844Y-55699999D01*
X146457372Y-55693598D01*
X146457379Y-55693596D01*
X146592086Y-55643354D01*
X146592093Y-55643350D01*
X146707187Y-55557190D01*
X146707190Y-55557187D01*
X146793350Y-55442093D01*
X146793354Y-55442086D01*
X146843596Y-55307379D01*
X146843965Y-55303955D01*
X146844991Y-55301477D01*
X146845380Y-55299832D01*
X146845646Y-55299894D01*
X146870702Y-55239403D01*
X146928093Y-55199553D01*
X146997918Y-55197058D01*
X147054936Y-55229526D01*
X147823516Y-55998106D01*
X147823545Y-55998137D01*
X147913763Y-56088355D01*
X147913767Y-56088358D01*
X148016207Y-56156807D01*
X148016213Y-56156810D01*
X148016214Y-56156811D01*
X148130048Y-56203963D01*
X148190471Y-56215981D01*
X148250893Y-56228000D01*
X148250894Y-56228000D01*
X153127912Y-56228000D01*
X153194951Y-56247685D01*
X153233449Y-56286901D01*
X153234601Y-56288768D01*
X153262289Y-56333657D01*
X153355951Y-56427319D01*
X153389436Y-56488642D01*
X153384452Y-56558334D01*
X153355951Y-56602681D01*
X153262289Y-56696342D01*
X153233451Y-56743097D01*
X153181503Y-56789821D01*
X153127912Y-56802000D01*
X152610889Y-56802000D01*
X152550471Y-56814018D01*
X152507243Y-56822616D01*
X152490046Y-56826037D01*
X152457546Y-56839500D01*
X152457545Y-56839500D01*
X152376216Y-56873186D01*
X152376214Y-56873188D01*
X152339933Y-56897431D01*
X152273768Y-56941640D01*
X152236268Y-56979141D01*
X152186642Y-57028767D01*
X152186639Y-57028770D01*
X151952227Y-57263181D01*
X151890904Y-57296666D01*
X151864546Y-57299500D01*
X150802129Y-57299500D01*
X150802123Y-57299501D01*
X150742516Y-57305908D01*
X150607671Y-57356202D01*
X150607664Y-57356206D01*
X150492455Y-57442452D01*
X150492452Y-57442455D01*
X150406206Y-57557664D01*
X150406203Y-57557669D01*
X150374066Y-57643834D01*
X150332194Y-57699767D01*
X150266730Y-57724184D01*
X150257884Y-57724500D01*
X146942115Y-57724500D01*
X146875076Y-57704815D01*
X146829321Y-57652011D01*
X146825933Y-57643833D01*
X146793797Y-57557671D01*
X146793793Y-57557664D01*
X146707547Y-57442455D01*
X146707544Y-57442452D01*
X146592335Y-57356206D01*
X146592328Y-57356202D01*
X146457482Y-57305908D01*
X146457483Y-57305908D01*
X146397883Y-57299501D01*
X146397881Y-57299500D01*
X146397873Y-57299500D01*
X146397865Y-57299500D01*
X145335452Y-57299500D01*
X145268413Y-57279815D01*
X145247771Y-57263181D01*
X145055198Y-57070608D01*
X145055178Y-57070586D01*
X144963733Y-56979141D01*
X144907612Y-56941643D01*
X144861286Y-56910688D01*
X144861287Y-56910688D01*
X144861285Y-56910687D01*
X144807156Y-56888267D01*
X144776111Y-56875408D01*
X144776109Y-56875406D01*
X144747458Y-56863539D01*
X144747452Y-56863537D01*
X144657606Y-56845666D01*
X144626607Y-56839500D01*
X144069378Y-56839500D01*
X144002339Y-56819815D01*
X143963839Y-56780597D01*
X143942712Y-56746344D01*
X143818656Y-56622288D01*
X143815342Y-56620243D01*
X143813546Y-56618248D01*
X143812989Y-56617807D01*
X143813064Y-56617711D01*
X143768618Y-56568297D01*
X143757397Y-56499334D01*
X143785240Y-56435252D01*
X143815348Y-56409165D01*
X143818342Y-56407318D01*
X143942315Y-56283345D01*
X144034356Y-56134124D01*
X144034358Y-56134119D01*
X144089505Y-55967697D01*
X144089506Y-55967690D01*
X144099999Y-55864986D01*
X144099999Y-55735434D01*
X144119683Y-55668394D01*
X144172487Y-55622639D01*
X144241645Y-55612695D01*
X144298309Y-55636165D01*
X144307911Y-55643353D01*
X144307913Y-55643354D01*
X144442620Y-55693596D01*
X144442627Y-55693598D01*
X144502155Y-55699999D01*
X144502172Y-55700000D01*
X145200000Y-55700000D01*
X145200000Y-54900000D01*
X144044427Y-54900000D01*
X143977388Y-54880315D01*
X143948543Y-54850943D01*
X143946798Y-54852323D01*
X143942316Y-54846655D01*
X143818345Y-54722684D01*
X143668144Y-54630039D01*
X143621420Y-54578091D01*
X143610198Y-54509128D01*
X143638041Y-54445046D01*
X143696110Y-54406190D01*
X143733241Y-54400500D01*
X145576000Y-54400500D01*
X145643039Y-54420185D01*
G37*
%TD.AperFunction*%
%TA.AperFunction,Conductor*%
G36*
X113898834Y-42889109D02*
G01*
X113954767Y-42930981D01*
X113979184Y-42996445D01*
X113979500Y-43005291D01*
X113979500Y-43137727D01*
X113995374Y-43258293D01*
X113993593Y-43258527D01*
X113995804Y-43292270D01*
X113984911Y-43374999D01*
X113986801Y-43377154D01*
X114046503Y-43394685D01*
X114077838Y-43423512D01*
X114094710Y-43445500D01*
X114097791Y-43449515D01*
X114122984Y-43514684D01*
X114108945Y-43583129D01*
X114097791Y-43600484D01*
X114077839Y-43626486D01*
X114021413Y-43667689D01*
X113985894Y-43673879D01*
X113984911Y-43675000D01*
X113995804Y-43757729D01*
X113993595Y-43791472D01*
X113995374Y-43791707D01*
X113979500Y-43912272D01*
X113979500Y-44137727D01*
X113992461Y-44236171D01*
X113994313Y-44250236D01*
X114052302Y-44390233D01*
X114144549Y-44510451D01*
X114264767Y-44602698D01*
X114404764Y-44660687D01*
X114517280Y-44675500D01*
X114795547Y-44675500D01*
X114862586Y-44695185D01*
X114908341Y-44747989D01*
X114918285Y-44817147D01*
X114889260Y-44880703D01*
X114883228Y-44887181D01*
X114851269Y-44919140D01*
X114851267Y-44919142D01*
X114822958Y-44947451D01*
X114764142Y-45006266D01*
X114736850Y-45047112D01*
X114736849Y-45047111D01*
X114695689Y-45108712D01*
X114695688Y-45108713D01*
X114668076Y-45175375D01*
X114624234Y-45229778D01*
X114618613Y-45233459D01*
X114531344Y-45287287D01*
X114407288Y-45411343D01*
X114407283Y-45411349D01*
X114405241Y-45414661D01*
X114403247Y-45416453D01*
X114402807Y-45417011D01*
X114402711Y-45416935D01*
X114353291Y-45461383D01*
X114284328Y-45472602D01*
X114220247Y-45444755D01*
X114194168Y-45414656D01*
X114192319Y-45411659D01*
X114192316Y-45411655D01*
X114068345Y-45287684D01*
X113919124Y-45195643D01*
X113919119Y-45195641D01*
X113752697Y-45140494D01*
X113752690Y-45140493D01*
X113649986Y-45130000D01*
X113600000Y-45130000D01*
X113600000Y-46481000D01*
X113580315Y-46548039D01*
X113527511Y-46593794D01*
X113476000Y-46605000D01*
X112350001Y-46605000D01*
X112350001Y-46879986D01*
X112360494Y-46982697D01*
X112387584Y-47064450D01*
X112389986Y-47134279D01*
X112377265Y-47165454D01*
X112292821Y-47311715D01*
X112292818Y-47311722D01*
X112234327Y-47491739D01*
X112234327Y-47491740D01*
X112234326Y-47491744D01*
X112230842Y-47524896D01*
X112219649Y-47631379D01*
X112193064Y-47695993D01*
X112184009Y-47706097D01*
X111996269Y-47893838D01*
X111909144Y-47980962D01*
X111909138Y-47980970D01*
X111840690Y-48083406D01*
X111840688Y-48083411D01*
X111817162Y-48140209D01*
X111793538Y-48197241D01*
X111793535Y-48197251D01*
X111789156Y-48219265D01*
X111789157Y-48219266D01*
X111770768Y-48311719D01*
X111770767Y-48311720D01*
X111769500Y-48318088D01*
X111769500Y-49103000D01*
X111749815Y-49170039D01*
X111697011Y-49215794D01*
X111627853Y-49225738D01*
X111564297Y-49196713D01*
X111539962Y-49168098D01*
X111532712Y-49156344D01*
X111408657Y-49032289D01*
X111408656Y-49032288D01*
X111259334Y-48940186D01*
X111259332Y-48940185D01*
X111259330Y-48940184D01*
X111259331Y-48940184D01*
X111200494Y-48920687D01*
X111143050Y-48880914D01*
X111116228Y-48816398D01*
X111115500Y-48802982D01*
X111115500Y-46105000D01*
X112350000Y-46105000D01*
X113100000Y-46105000D01*
X113100000Y-45130000D01*
X113099999Y-45129999D01*
X113050029Y-45130000D01*
X113050011Y-45130001D01*
X112947302Y-45140494D01*
X112780880Y-45195641D01*
X112780875Y-45195643D01*
X112631654Y-45287684D01*
X112507684Y-45411654D01*
X112415643Y-45560875D01*
X112415641Y-45560880D01*
X112360494Y-45727302D01*
X112360493Y-45727309D01*
X112350000Y-45830013D01*
X112350000Y-46105000D01*
X111115500Y-46105000D01*
X111115500Y-45621292D01*
X111135185Y-45554253D01*
X111151819Y-45533611D01*
X111464836Y-45220594D01*
X111464849Y-45220579D01*
X113767821Y-42917608D01*
X113829142Y-42884125D01*
X113898834Y-42889109D01*
G37*
%TD.AperFunction*%
%TA.AperFunction,Conductor*%
G36*
X112555637Y-37757685D02*
G01*
X112601392Y-37810489D01*
X112611336Y-37879647D01*
X112582311Y-37943203D01*
X112561484Y-37962318D01*
X112424127Y-38062113D01*
X112297466Y-38202785D01*
X112202821Y-38366715D01*
X112202818Y-38366722D01*
X112144327Y-38546740D01*
X112144326Y-38546744D01*
X112124540Y-38735000D01*
X112144326Y-38923256D01*
X112144327Y-38923259D01*
X112202818Y-39103277D01*
X112202821Y-39103284D01*
X112248117Y-39181740D01*
X112253050Y-39190283D01*
X112269523Y-39258183D01*
X112253051Y-39314282D01*
X112215472Y-39379371D01*
X112161571Y-39545263D01*
X112156978Y-39559399D01*
X112137192Y-39747655D01*
X112156978Y-39935911D01*
X112156979Y-39935914D01*
X112215470Y-40115932D01*
X112215473Y-40115939D01*
X112310119Y-40279871D01*
X112428551Y-40411403D01*
X112436781Y-40420543D01*
X112589917Y-40531803D01*
X112589922Y-40531806D01*
X112762844Y-40608797D01*
X112762849Y-40608799D01*
X112948006Y-40648155D01*
X112948007Y-40648155D01*
X113137296Y-40648155D01*
X113137298Y-40648155D01*
X113322455Y-40608799D01*
X113339615Y-40601158D01*
X113408862Y-40591872D01*
X113472139Y-40621498D01*
X113509355Y-40680632D01*
X113508693Y-40750498D01*
X113477733Y-40802118D01*
X109422182Y-44857670D01*
X109360859Y-44891155D01*
X109291167Y-44886171D01*
X109235234Y-44844299D01*
X109210817Y-44778835D01*
X109210501Y-44769989D01*
X109210501Y-44698283D01*
X109210500Y-44698257D01*
X109210500Y-40315452D01*
X109230185Y-40248413D01*
X109246819Y-40227771D01*
X111700272Y-37774319D01*
X111761595Y-37740834D01*
X111787953Y-37738000D01*
X112488598Y-37738000D01*
X112555637Y-37757685D01*
G37*
%TD.AperFunction*%
%TA.AperFunction,Conductor*%
G36*
X121904763Y-38335686D02*
G01*
X121904764Y-38335687D01*
X122017280Y-38350500D01*
X122017287Y-38350500D01*
X122180500Y-38350500D01*
X122247539Y-38370185D01*
X122293294Y-38422989D01*
X122304500Y-38474500D01*
X122304500Y-38637727D01*
X122320374Y-38758293D01*
X122318593Y-38758527D01*
X122320804Y-38792270D01*
X122309911Y-38874999D01*
X122311801Y-38877154D01*
X122371503Y-38894685D01*
X122402838Y-38923512D01*
X122409138Y-38931722D01*
X122422791Y-38949515D01*
X122447984Y-39014684D01*
X122433945Y-39083129D01*
X122422791Y-39100484D01*
X122402839Y-39126486D01*
X122346413Y-39167689D01*
X122310894Y-39173879D01*
X122309911Y-39175000D01*
X122320804Y-39257729D01*
X122318595Y-39291472D01*
X122320374Y-39291707D01*
X122304500Y-39412272D01*
X122304500Y-39637727D01*
X122313847Y-39708720D01*
X122317739Y-39738284D01*
X122320374Y-39758292D01*
X122317399Y-39758683D01*
X122317399Y-39791316D01*
X122320374Y-39791708D01*
X122304500Y-39912272D01*
X122304500Y-40137727D01*
X122313965Y-40209614D01*
X122316799Y-40231144D01*
X122320374Y-40258292D01*
X122317399Y-40258683D01*
X122317399Y-40291316D01*
X122320374Y-40291708D01*
X122304500Y-40412272D01*
X122304500Y-40637727D01*
X122313041Y-40702598D01*
X122318746Y-40745931D01*
X122320374Y-40758292D01*
X122317399Y-40758683D01*
X122317399Y-40791316D01*
X122320374Y-40791708D01*
X122304500Y-40912272D01*
X122304500Y-41137727D01*
X122320374Y-41258292D01*
X122317399Y-41258683D01*
X122317399Y-41291316D01*
X122320374Y-41291708D01*
X122319313Y-41299762D01*
X122319313Y-41299764D01*
X122318282Y-41307599D01*
X122304500Y-41412272D01*
X122304500Y-41637727D01*
X122320374Y-41758292D01*
X122317399Y-41758683D01*
X122317399Y-41791316D01*
X122320374Y-41791708D01*
X122304500Y-41912272D01*
X122304500Y-42047051D01*
X122284815Y-42114090D01*
X122232011Y-42159845D01*
X122162853Y-42169789D01*
X122099297Y-42140764D01*
X122073113Y-42109051D01*
X122017534Y-42012785D01*
X121945397Y-41932669D01*
X121890871Y-41872112D01*
X121883377Y-41866667D01*
X121737734Y-41760851D01*
X121737729Y-41760848D01*
X121564807Y-41683857D01*
X121564802Y-41683855D01*
X121419001Y-41652865D01*
X121379646Y-41644500D01*
X121190354Y-41644500D01*
X121157897Y-41651398D01*
X121005197Y-41683855D01*
X121005192Y-41683857D01*
X120835434Y-41759440D01*
X120766184Y-41768725D01*
X120734562Y-41759440D01*
X120564803Y-41683857D01*
X120564799Y-41683855D01*
X120418998Y-41652865D01*
X120379643Y-41644500D01*
X120190351Y-41644500D01*
X120157894Y-41651398D01*
X120005194Y-41683855D01*
X120005189Y-41683857D01*
X119832267Y-41760848D01*
X119832262Y-41760851D01*
X119679126Y-41872111D01*
X119552463Y-42012785D01*
X119457818Y-42176715D01*
X119457815Y-42176722D01*
X119411633Y-42318857D01*
X119399323Y-42356744D01*
X119379537Y-42545000D01*
X119399323Y-42733256D01*
X119399324Y-42733259D01*
X119457815Y-42913277D01*
X119457818Y-42913284D01*
X119552464Y-43077216D01*
X119653565Y-43189500D01*
X119679126Y-43217888D01*
X119832262Y-43329148D01*
X119832267Y-43329151D01*
X120005189Y-43406142D01*
X120005194Y-43406144D01*
X120190351Y-43445500D01*
X120224242Y-43445500D01*
X120291281Y-43465185D01*
X120311923Y-43481819D01*
X120367923Y-43537819D01*
X120401408Y-43599142D01*
X120396424Y-43668834D01*
X120354552Y-43724767D01*
X120289088Y-43749184D01*
X120280242Y-43749500D01*
X116954977Y-43749500D01*
X116954957Y-43749499D01*
X116948843Y-43749499D01*
X116825630Y-43749499D01*
X116724833Y-43769548D01*
X116724828Y-43769548D01*
X116704785Y-43773536D01*
X116677578Y-43784806D01*
X116664532Y-43790210D01*
X116620100Y-43808614D01*
X116550631Y-43816082D01*
X116488152Y-43784806D01*
X116452500Y-43724717D01*
X116449710Y-43677864D01*
X116450087Y-43674999D01*
X116448198Y-43672845D01*
X116388498Y-43655315D01*
X116357162Y-43626488D01*
X116337211Y-43600488D01*
X116312016Y-43535319D01*
X116326054Y-43466874D01*
X116337211Y-43449512D01*
X116357162Y-43423512D01*
X116413590Y-43382310D01*
X116449105Y-43376120D01*
X116450088Y-43374999D01*
X116439196Y-43292270D01*
X116441409Y-43258529D01*
X116439626Y-43258295D01*
X116444229Y-43223333D01*
X116455500Y-43137720D01*
X116455500Y-42912280D01*
X116440687Y-42799764D01*
X116440686Y-42799763D01*
X116439626Y-42791705D01*
X116442689Y-42791301D01*
X116442689Y-42758698D01*
X116439626Y-42758295D01*
X116445474Y-42713872D01*
X116455500Y-42637720D01*
X116455500Y-42552723D01*
X116475185Y-42485684D01*
X116491819Y-42465042D01*
X116502771Y-42454090D01*
X116564094Y-42420605D01*
X116590452Y-42417771D01*
X116649643Y-42417771D01*
X116649645Y-42417771D01*
X116834802Y-42378415D01*
X117007729Y-42301422D01*
X117160870Y-42190159D01*
X117287532Y-42049487D01*
X117382178Y-41885555D01*
X117440673Y-41705527D01*
X117460459Y-41517271D01*
X117440673Y-41329015D01*
X117382178Y-41148987D01*
X117287532Y-40985055D01*
X117160870Y-40844383D01*
X117134654Y-40825336D01*
X117007733Y-40733122D01*
X117007728Y-40733119D01*
X116834806Y-40656128D01*
X116834801Y-40656126D01*
X116671884Y-40621498D01*
X116649645Y-40616771D01*
X116579500Y-40616771D01*
X116512461Y-40597086D01*
X116466706Y-40544282D01*
X116455500Y-40492771D01*
X116455500Y-40412286D01*
X116455500Y-40412280D01*
X116440687Y-40299764D01*
X116440686Y-40299763D01*
X116439626Y-40291705D01*
X116442689Y-40291301D01*
X116442689Y-40258698D01*
X116439626Y-40258295D01*
X116440927Y-40248413D01*
X116455500Y-40137720D01*
X116455500Y-39912280D01*
X116450386Y-39873437D01*
X116461151Y-39804404D01*
X116507530Y-39752148D01*
X116574799Y-39733262D01*
X116641600Y-39753742D01*
X116680712Y-39795253D01*
X116742467Y-39902216D01*
X116869129Y-40042888D01*
X117022265Y-40154148D01*
X117022270Y-40154151D01*
X117195192Y-40231142D01*
X117195197Y-40231144D01*
X117380354Y-40270500D01*
X117380355Y-40270500D01*
X117569644Y-40270500D01*
X117569646Y-40270500D01*
X117754803Y-40231144D01*
X117927730Y-40154151D01*
X118080871Y-40042888D01*
X118207533Y-39902216D01*
X118302179Y-39738284D01*
X118360674Y-39558256D01*
X118380460Y-39370000D01*
X118360674Y-39181744D01*
X118302179Y-39001716D01*
X118272113Y-38949639D01*
X118255500Y-38887639D01*
X118255500Y-38457559D01*
X118275185Y-38390520D01*
X118327989Y-38344765D01*
X118347341Y-38337802D01*
X118347840Y-38337668D01*
X118396304Y-38337671D01*
X118396705Y-38334626D01*
X118404763Y-38335686D01*
X118404764Y-38335687D01*
X118517280Y-38350500D01*
X118517287Y-38350500D01*
X118742713Y-38350500D01*
X118742720Y-38350500D01*
X118855236Y-38335687D01*
X118855236Y-38335686D01*
X118863295Y-38334626D01*
X118863698Y-38337689D01*
X118896302Y-38337689D01*
X118896705Y-38334626D01*
X118904763Y-38335686D01*
X118904764Y-38335687D01*
X119017280Y-38350500D01*
X119017287Y-38350500D01*
X119242713Y-38350500D01*
X119242720Y-38350500D01*
X119355236Y-38335687D01*
X119355236Y-38335686D01*
X119363295Y-38334626D01*
X119363698Y-38337689D01*
X119396302Y-38337689D01*
X119396705Y-38334626D01*
X119404763Y-38335686D01*
X119404764Y-38335687D01*
X119517280Y-38350500D01*
X119517287Y-38350500D01*
X119742713Y-38350500D01*
X119742720Y-38350500D01*
X119855236Y-38335687D01*
X119855236Y-38335686D01*
X119863295Y-38334626D01*
X119863698Y-38337689D01*
X119896302Y-38337689D01*
X119896705Y-38334626D01*
X119904763Y-38335686D01*
X119904764Y-38335687D01*
X120017280Y-38350500D01*
X120017287Y-38350500D01*
X120242713Y-38350500D01*
X120242720Y-38350500D01*
X120355236Y-38335687D01*
X120355236Y-38335686D01*
X120363295Y-38334626D01*
X120363698Y-38337689D01*
X120396302Y-38337689D01*
X120396705Y-38334626D01*
X120404763Y-38335686D01*
X120404764Y-38335687D01*
X120517280Y-38350500D01*
X120517287Y-38350500D01*
X120742713Y-38350500D01*
X120742720Y-38350500D01*
X120855236Y-38335687D01*
X120855236Y-38335686D01*
X120863295Y-38334626D01*
X120863698Y-38337689D01*
X120896302Y-38337689D01*
X120896705Y-38334626D01*
X120904763Y-38335686D01*
X120904764Y-38335687D01*
X121017280Y-38350500D01*
X121017287Y-38350500D01*
X121242713Y-38350500D01*
X121242720Y-38350500D01*
X121355236Y-38335687D01*
X121355236Y-38335686D01*
X121363295Y-38334626D01*
X121363698Y-38337689D01*
X121396302Y-38337689D01*
X121396705Y-38334626D01*
X121404763Y-38335686D01*
X121404764Y-38335687D01*
X121517280Y-38350500D01*
X121517287Y-38350500D01*
X121742713Y-38350500D01*
X121742720Y-38350500D01*
X121855236Y-38335687D01*
X121855236Y-38335686D01*
X121863295Y-38334626D01*
X121863698Y-38337689D01*
X121896302Y-38337689D01*
X121896705Y-38334626D01*
X121904763Y-38335686D01*
G37*
%TD.AperFunction*%
%TA.AperFunction,Conductor*%
G36*
X108884125Y-38138143D02*
G01*
X108918780Y-38147428D01*
X108984592Y-38165063D01*
X109155319Y-38180000D01*
X109219999Y-38185659D01*
X109220387Y-38185659D01*
X109220551Y-38185707D01*
X109225394Y-38186131D01*
X109225308Y-38187104D01*
X109287426Y-38205344D01*
X109333181Y-38258148D01*
X109343125Y-38327306D01*
X109314100Y-38390862D01*
X109308068Y-38397340D01*
X108186269Y-39519140D01*
X108099144Y-39606264D01*
X108099138Y-39606272D01*
X108030692Y-39708705D01*
X108030684Y-39708720D01*
X107997346Y-39789205D01*
X107997347Y-39789206D01*
X107984060Y-39821286D01*
X107984046Y-39821321D01*
X107983538Y-39822544D01*
X107983537Y-39822548D01*
X107983537Y-39822549D01*
X107963296Y-39924312D01*
X107963296Y-39924314D01*
X107959500Y-39943394D01*
X107959500Y-40702598D01*
X107939815Y-40769637D01*
X107887011Y-40815392D01*
X107817853Y-40825336D01*
X107754297Y-40796311D01*
X107719318Y-40745931D01*
X107688354Y-40662913D01*
X107688350Y-40662906D01*
X107602190Y-40547812D01*
X107602187Y-40547809D01*
X107487093Y-40461649D01*
X107487086Y-40461645D01*
X107352379Y-40411403D01*
X107352372Y-40411401D01*
X107292844Y-40405000D01*
X106295000Y-40405000D01*
X106295000Y-42671000D01*
X106275315Y-42738039D01*
X106222511Y-42783794D01*
X106171000Y-42795000D01*
X105919000Y-42795000D01*
X105851961Y-42775315D01*
X105806206Y-42722511D01*
X105795000Y-42671000D01*
X105795000Y-40405000D01*
X105774976Y-40384976D01*
X105741491Y-40323653D01*
X105746475Y-40253961D01*
X105774976Y-40209614D01*
X106209591Y-39775000D01*
X107222772Y-38761819D01*
X107284095Y-38728334D01*
X107310453Y-38725500D01*
X108011608Y-38725500D01*
X108011608Y-38725499D01*
X108102347Y-38707451D01*
X108102348Y-38707451D01*
X108112473Y-38705436D01*
X108132452Y-38701463D01*
X108132457Y-38701460D01*
X108132460Y-38701460D01*
X108165787Y-38687654D01*
X108165786Y-38687654D01*
X108165792Y-38687652D01*
X108246286Y-38654312D01*
X108297509Y-38620084D01*
X108348733Y-38585858D01*
X108435858Y-38498733D01*
X108435859Y-38498731D01*
X108442925Y-38491665D01*
X108442928Y-38491661D01*
X108764353Y-38170235D01*
X108825674Y-38136752D01*
X108884125Y-38138143D01*
G37*
%TD.AperFunction*%
%TA.AperFunction,Conductor*%
G36*
X119522661Y-35250185D02*
G01*
X119561159Y-35289401D01*
X119582288Y-35323656D01*
X119706344Y-35447712D01*
X119855666Y-35539814D01*
X120022203Y-35594999D01*
X120124991Y-35605500D01*
X121175008Y-35605499D01*
X121175016Y-35605498D01*
X121175019Y-35605498D01*
X121231302Y-35599748D01*
X121277797Y-35594999D01*
X121444334Y-35539814D01*
X121593656Y-35447712D01*
X121717712Y-35323656D01*
X121738839Y-35289402D01*
X121790787Y-35242679D01*
X121844378Y-35230500D01*
X121924548Y-35230500D01*
X121991587Y-35250185D01*
X122012229Y-35266819D01*
X122418796Y-35673386D01*
X122452281Y-35734709D01*
X122447297Y-35804401D01*
X122405425Y-35860334D01*
X122339961Y-35884751D01*
X122314930Y-35884006D01*
X122242730Y-35874501D01*
X122242725Y-35874500D01*
X122242720Y-35874500D01*
X122017280Y-35874500D01*
X122017272Y-35874500D01*
X121930393Y-35885938D01*
X121904764Y-35889313D01*
X121904762Y-35889313D01*
X121896708Y-35890374D01*
X121896316Y-35887399D01*
X121863684Y-35887399D01*
X121863292Y-35890374D01*
X121855237Y-35889313D01*
X121855236Y-35889313D01*
X121826271Y-35885499D01*
X121742727Y-35874500D01*
X121742720Y-35874500D01*
X121517280Y-35874500D01*
X121517272Y-35874500D01*
X121430393Y-35885938D01*
X121404764Y-35889313D01*
X121404762Y-35889313D01*
X121396708Y-35890374D01*
X121396316Y-35887399D01*
X121363684Y-35887399D01*
X121363292Y-35890374D01*
X121355237Y-35889313D01*
X121355236Y-35889313D01*
X121326271Y-35885499D01*
X121242727Y-35874500D01*
X121242720Y-35874500D01*
X121017280Y-35874500D01*
X121017272Y-35874500D01*
X120930393Y-35885938D01*
X120904764Y-35889313D01*
X120904762Y-35889313D01*
X120896708Y-35890374D01*
X120896316Y-35887399D01*
X120863684Y-35887399D01*
X120863292Y-35890374D01*
X120855237Y-35889313D01*
X120855236Y-35889313D01*
X120826271Y-35885499D01*
X120742727Y-35874500D01*
X120742720Y-35874500D01*
X120517280Y-35874500D01*
X120517272Y-35874500D01*
X120430393Y-35885938D01*
X120404764Y-35889313D01*
X120404762Y-35889313D01*
X120396708Y-35890374D01*
X120396316Y-35887399D01*
X120363684Y-35887399D01*
X120363292Y-35890374D01*
X120355237Y-35889313D01*
X120355236Y-35889313D01*
X120326271Y-35885499D01*
X120242727Y-35874500D01*
X120242720Y-35874500D01*
X120017280Y-35874500D01*
X120017272Y-35874500D01*
X119930393Y-35885938D01*
X119904764Y-35889313D01*
X119904762Y-35889313D01*
X119896708Y-35890374D01*
X119896316Y-35887399D01*
X119863684Y-35887399D01*
X119863292Y-35890374D01*
X119855237Y-35889313D01*
X119855236Y-35889313D01*
X119826271Y-35885499D01*
X119742727Y-35874500D01*
X119742720Y-35874500D01*
X119517280Y-35874500D01*
X119517272Y-35874500D01*
X119430393Y-35885938D01*
X119404764Y-35889313D01*
X119404762Y-35889313D01*
X119396708Y-35890374D01*
X119396316Y-35887399D01*
X119363684Y-35887399D01*
X119363292Y-35890374D01*
X119355237Y-35889313D01*
X119355236Y-35889313D01*
X119326271Y-35885499D01*
X119242727Y-35874500D01*
X119242720Y-35874500D01*
X119017280Y-35874500D01*
X119017272Y-35874500D01*
X118930393Y-35885938D01*
X118904764Y-35889313D01*
X118904762Y-35889313D01*
X118896708Y-35890374D01*
X118896316Y-35887399D01*
X118863684Y-35887399D01*
X118863292Y-35890374D01*
X118855237Y-35889313D01*
X118855236Y-35889313D01*
X118826271Y-35885499D01*
X118742727Y-35874500D01*
X118742720Y-35874500D01*
X118517280Y-35874500D01*
X118517272Y-35874500D01*
X118430393Y-35885938D01*
X118404764Y-35889313D01*
X118404762Y-35889313D01*
X118396708Y-35890374D01*
X118396316Y-35887399D01*
X118363684Y-35887399D01*
X118363292Y-35890374D01*
X118355237Y-35889313D01*
X118355236Y-35889313D01*
X118326271Y-35885499D01*
X118242727Y-35874500D01*
X118242720Y-35874500D01*
X118017280Y-35874500D01*
X118017272Y-35874500D01*
X117930393Y-35885938D01*
X117904764Y-35889313D01*
X117904762Y-35889313D01*
X117896708Y-35890374D01*
X117896316Y-35887399D01*
X117863684Y-35887399D01*
X117863292Y-35890374D01*
X117855237Y-35889313D01*
X117855236Y-35889313D01*
X117826271Y-35885499D01*
X117742727Y-35874500D01*
X117742720Y-35874500D01*
X117566291Y-35874500D01*
X117499252Y-35854815D01*
X117453497Y-35802011D01*
X117443553Y-35732853D01*
X117444674Y-35726307D01*
X117444935Y-35724999D01*
X117447911Y-35710037D01*
X117456920Y-35664741D01*
X117489303Y-35602832D01*
X117539531Y-35571228D01*
X117634334Y-35539814D01*
X117783656Y-35447712D01*
X117907712Y-35323656D01*
X117928839Y-35289402D01*
X117980787Y-35242679D01*
X118034378Y-35230500D01*
X119455622Y-35230500D01*
X119522661Y-35250185D01*
G37*
%TD.AperFunction*%
%TD*%
M02*
