M48
; DRILL file {KiCad 7.0.9} date zo 31 dec 2023 17:17:47 CET
; FORMAT={-:-/ absolute / inch / decimal}
; #@! TF.CreationDate,2023-12-31T17:17:47+01:00
; #@! TF.GenerationSoftware,Kicad,Pcbnew,7.0.9
; #@! TF.FileFunction,Plated,1,2,PTH
FMAT,2
INCH
; #@! TA.AperFunction,Plated,PTH,ViaDrill
T1C0.0157
; #@! TA.AperFunction,Plated,PTH,ComponentDrill
T2C0.0256
; #@! TA.AperFunction,Plated,PTH,ComponentDrill
T3C0.0300
; #@! TA.AperFunction,Plated,PTH,ComponentDrill
T4C0.0315
; #@! TA.AperFunction,Plated,PTH,ComponentDrill
T5C0.0394
; #@! TA.AperFunction,Plated,PTH,ComponentDrill
T6C0.0433
; #@! TA.AperFunction,Plated,PTH,ComponentDrill
T7C0.0591
; #@! TA.AperFunction,Plated,PTH,ComponentDrill
T8C0.0598
%
G90
G05
T1
X4.2913Y-1.5748
X4.3Y-1.9
X4.3307Y-1.4173
X4.5158Y-1.3785
X4.5193Y-1.4885
X4.5276Y-1.6535
X4.55Y-2.0
X4.575Y-1.55
X4.575Y-1.6
X4.6134Y-1.6535
X4.6154Y-1.8971
X4.625Y-1.5
X4.6921Y-1.8898
X4.7244Y-1.8504
X4.8Y-1.95
X4.9Y-1.5793
X4.9213Y-2.2441
X4.925Y-1.5
X5.0472Y-1.5222
X5.075Y-1.55
X5.075Y-1.725
X5.125Y-1.525
X5.125Y-1.65
X5.15Y-2.0
X5.15Y-2.1
X5.175Y-1.65
X5.425Y-1.1417
X5.5118Y-1.2992
X5.65Y-1.425
X5.65Y-1.675
X5.7087Y-1.378
X5.725Y-1.2376
X5.775Y-1.675
X5.775Y-2.05
X5.8268Y-1.378
T2
X4.4746Y-1.2504
X4.4746Y-1.3004
X4.5246Y-1.2504
X4.5246Y-1.3004
X4.5746Y-1.2504
X4.5746Y-1.3004
X4.6246Y-1.2504
X4.6246Y-1.3004
X4.6746Y-1.2504
X4.6746Y-1.3004
T3
X4.7362Y-2.5315
X4.8287Y-3.7303
X4.8799Y-2.4902
X4.9409Y-3.689
X5.1378Y-3.689
X5.1988Y-2.4902
X5.25Y-3.7303
X5.3425Y-2.5315
X5.5531Y-3.3563
X5.5531Y-3.75
X5.75Y-3.3563
X5.75Y-3.75
T4
X4.1Y-3.1
X4.1Y-3.25
X4.1Y-3.4
X4.1Y-3.6
X4.1996Y-2.6504
X4.1996Y-2.9504
X4.2996Y-2.6504
X4.2996Y-2.9504
X4.3996Y-2.6504
X4.3996Y-2.9504
X4.4937Y-3.6
X4.5Y-2.3516
X4.5Y-2.45
X4.5Y-3.1
X4.5Y-3.25
X4.5Y-3.4
X5.5547Y-3.1366
X5.85Y-3.05
T5
X5.5063Y-2.8
X5.9Y-2.8
X6.05Y-2.0
T6
X4.2Y-3.8
X4.3Y-3.8
X4.4Y-3.8
T7
X4.95Y-4.15
X5.8398Y-4.15
T8
X4.3Y-4.25
X4.5Y-4.25
X4.7Y-4.25
T0
M30
