%TF.GenerationSoftware,KiCad,Pcbnew,7.0.9*%
%TF.CreationDate,2023-12-31T17:17:44+01:00*%
%TF.ProjectId,power_switch,706f7765-725f-4737-9769-7463682e6b69,rev?*%
%TF.SameCoordinates,Original*%
%TF.FileFunction,Soldermask,Bot*%
%TF.FilePolarity,Negative*%
%FSLAX46Y46*%
G04 Gerber Fmt 4.6, Leading zero omitted, Abs format (unit mm)*
G04 Created by KiCad (PCBNEW 7.0.9) date 2023-12-31 17:17:44*
%MOMM*%
%LPD*%
G01*
G04 APERTURE LIST*
%ADD10C,2.200000*%
%ADD11R,1.905000X2.000000*%
%ADD12O,1.905000X2.000000*%
%ADD13C,1.800000*%
%ADD14C,1.600000*%
%ADD15O,1.600000X1.600000*%
%ADD16C,2.000000*%
%ADD17R,1.000000X1.000000*%
%ADD18O,1.000000X1.000000*%
%ADD19C,3.000000*%
%ADD20R,1.600000X1.600000*%
%ADD21R,3.000000X3.000000*%
%ADD22C,1.524000*%
G04 APERTURE END LIST*
D10*
%TO.C,H1*%
X103000000Y-32600000D03*
%TD*%
%TO.C,H4*%
X103000000Y-109000000D03*
%TD*%
%TO.C,H3*%
X153600000Y-109000000D03*
%TD*%
%TO.C,H2*%
X153600000Y-32600000D03*
%TD*%
D11*
%TO.C,Q1*%
X106680000Y-96520000D03*
D12*
X109220000Y-96520000D03*
X111760000Y-96520000D03*
%TD*%
D13*
%TO.C,RV1*%
X148590000Y-77470000D03*
X141090000Y-79670000D03*
%TD*%
D14*
%TO.C,R2*%
X114300000Y-86360000D03*
D15*
X104140000Y-86360000D03*
%TD*%
D16*
%TO.C,AE1*%
X153670000Y-50800000D03*
%TD*%
D17*
%TO.C,J2*%
X113655000Y-31760000D03*
D18*
X113655000Y-33030000D03*
X114925000Y-31760000D03*
X114925000Y-33030000D03*
X116195000Y-31760000D03*
X116195000Y-33030000D03*
X117465000Y-31760000D03*
X117465000Y-33030000D03*
X118735000Y-31760000D03*
X118735000Y-33030000D03*
%TD*%
D14*
%TO.C,R4*%
X104140000Y-82550000D03*
D15*
X114300000Y-82550000D03*
%TD*%
D14*
%TO.C,C5*%
X114140000Y-91440000D03*
X104140000Y-91440000D03*
%TD*%
D19*
%TO.C,F1*%
X125730000Y-105410000D03*
X148330000Y-105410000D03*
%TD*%
D20*
%TO.C,C2*%
X114300000Y-62230000D03*
D14*
X114300000Y-59730000D03*
%TD*%
%TO.C,R3*%
X104140000Y-78740000D03*
D15*
X114300000Y-78740000D03*
%TD*%
D21*
%TO.C,J1*%
X119380000Y-107950000D03*
D19*
X114300000Y-107950000D03*
X109220000Y-107950000D03*
%TD*%
D20*
%TO.C,U2*%
X106670000Y-67320000D03*
D15*
X109210000Y-67320000D03*
X111750000Y-67320000D03*
X111750000Y-74940000D03*
X109210000Y-74940000D03*
X106670000Y-74940000D03*
%TD*%
D16*
%TO.C,C1*%
X149860000Y-71120000D03*
X139860000Y-71120000D03*
%TD*%
D22*
%TO.C,PS1*%
X133350000Y-94750000D03*
X130500000Y-93700000D03*
X122650000Y-94750000D03*
X125500000Y-93700000D03*
X135700000Y-64300000D03*
X132050000Y-63250000D03*
X120300000Y-64300000D03*
X123950000Y-63250000D03*
%TD*%
%TO.C,FL1*%
X141050000Y-95250000D03*
X146050000Y-95250000D03*
X146050000Y-85250000D03*
X141050000Y-85250000D03*
%TD*%
M02*
