%TF.GenerationSoftware,KiCad,Pcbnew,7.0.9*%
%TF.CreationDate,2023-12-31T17:17:43+01:00*%
%TF.ProjectId,power_switch,706f7765-725f-4737-9769-7463682e6b69,rev?*%
%TF.SameCoordinates,Original*%
%TF.FileFunction,Copper,L1,Top*%
%TF.FilePolarity,Positive*%
%FSLAX46Y46*%
G04 Gerber Fmt 4.6, Leading zero omitted, Abs format (unit mm)*
G04 Created by KiCad (PCBNEW 7.0.9) date 2023-12-31 17:17:43*
%MOMM*%
%LPD*%
G01*
G04 APERTURE LIST*
G04 Aperture macros list*
%AMRoundRect*
0 Rectangle with rounded corners*
0 $1 Rounding radius*
0 $2 $3 $4 $5 $6 $7 $8 $9 X,Y pos of 4 corners*
0 Add a 4 corners polygon primitive as box body*
4,1,4,$2,$3,$4,$5,$6,$7,$8,$9,$2,$3,0*
0 Add four circle primitives for the rounded corners*
1,1,$1+$1,$2,$3*
1,1,$1+$1,$4,$5*
1,1,$1+$1,$6,$7*
1,1,$1+$1,$8,$9*
0 Add four rect primitives between the rounded corners*
20,1,$1+$1,$2,$3,$4,$5,0*
20,1,$1+$1,$4,$5,$6,$7,0*
20,1,$1+$1,$6,$7,$8,$9,0*
20,1,$1+$1,$8,$9,$2,$3,0*%
G04 Aperture macros list end*
%TA.AperFunction,SMDPad,CuDef*%
%ADD10RoundRect,0.250000X-0.475000X0.250000X-0.475000X-0.250000X0.475000X-0.250000X0.475000X0.250000X0*%
%TD*%
%TA.AperFunction,SMDPad,CuDef*%
%ADD11RoundRect,0.250000X-0.450000X0.262500X-0.450000X-0.262500X0.450000X-0.262500X0.450000X0.262500X0*%
%TD*%
%TA.AperFunction,SMDPad,CuDef*%
%ADD12RoundRect,0.243750X0.456250X-0.243750X0.456250X0.243750X-0.456250X0.243750X-0.456250X-0.243750X0*%
%TD*%
%TA.AperFunction,SMDPad,CuDef*%
%ADD13RoundRect,0.317500X-1.157500X-0.317500X1.157500X-0.317500X1.157500X0.317500X-1.157500X0.317500X0*%
%TD*%
%TA.AperFunction,SMDPad,CuDef*%
%ADD14RoundRect,0.150000X0.587500X0.150000X-0.587500X0.150000X-0.587500X-0.150000X0.587500X-0.150000X0*%
%TD*%
%TA.AperFunction,SMDPad,CuDef*%
%ADD15RoundRect,0.150000X-0.825000X-0.150000X0.825000X-0.150000X0.825000X0.150000X-0.825000X0.150000X0*%
%TD*%
%TA.AperFunction,SMDPad,CuDef*%
%ADD16RoundRect,0.250000X0.475000X-0.250000X0.475000X0.250000X-0.475000X0.250000X-0.475000X-0.250000X0*%
%TD*%
%TA.AperFunction,SMDPad,CuDef*%
%ADD17RoundRect,0.250000X0.450000X-0.262500X0.450000X0.262500X-0.450000X0.262500X-0.450000X-0.262500X0*%
%TD*%
%TA.AperFunction,SMDPad,CuDef*%
%ADD18R,1.800000X1.100000*%
%TD*%
%TA.AperFunction,SMDPad,CuDef*%
%ADD19RoundRect,0.250000X0.250000X0.475000X-0.250000X0.475000X-0.250000X-0.475000X0.250000X-0.475000X0*%
%TD*%
%TA.AperFunction,SMDPad,CuDef*%
%ADD20RoundRect,0.075000X0.075000X-0.662500X0.075000X0.662500X-0.075000X0.662500X-0.075000X-0.662500X0*%
%TD*%
%TA.AperFunction,SMDPad,CuDef*%
%ADD21RoundRect,0.075000X0.662500X-0.075000X0.662500X0.075000X-0.662500X0.075000X-0.662500X-0.075000X0*%
%TD*%
%TA.AperFunction,SMDPad,CuDef*%
%ADD22RoundRect,0.250000X-0.262500X-0.450000X0.262500X-0.450000X0.262500X0.450000X-0.262500X0.450000X0*%
%TD*%
%TA.AperFunction,ComponentPad*%
%ADD23R,1.905000X2.000000*%
%TD*%
%TA.AperFunction,ComponentPad*%
%ADD24O,1.905000X2.000000*%
%TD*%
%TA.AperFunction,ComponentPad*%
%ADD25C,1.800000*%
%TD*%
%TA.AperFunction,ComponentPad*%
%ADD26C,1.600000*%
%TD*%
%TA.AperFunction,ComponentPad*%
%ADD27O,1.600000X1.600000*%
%TD*%
%TA.AperFunction,ComponentPad*%
%ADD28C,2.000000*%
%TD*%
%TA.AperFunction,ComponentPad*%
%ADD29R,1.000000X1.000000*%
%TD*%
%TA.AperFunction,ComponentPad*%
%ADD30O,1.000000X1.000000*%
%TD*%
%TA.AperFunction,ComponentPad*%
%ADD31C,3.000000*%
%TD*%
%TA.AperFunction,ComponentPad*%
%ADD32R,1.600000X1.600000*%
%TD*%
%TA.AperFunction,ComponentPad*%
%ADD33R,3.000000X3.000000*%
%TD*%
%TA.AperFunction,ComponentPad*%
%ADD34C,1.524000*%
%TD*%
%TA.AperFunction,ViaPad*%
%ADD35C,0.800000*%
%TD*%
%TA.AperFunction,Conductor*%
%ADD36C,0.250000*%
%TD*%
G04 APERTURE END LIST*
D10*
%TO.P,C7,1*%
%TO.N,+3V3*%
X153670000Y-42865000D03*
%TO.P,C7,2*%
%TO.N,GND*%
X153670000Y-44765000D03*
%TD*%
%TO.P,C8,1*%
%TO.N,+3V3*%
X111125000Y-44770000D03*
%TO.P,C8,2*%
%TO.N,GND*%
X111125000Y-46670000D03*
%TD*%
D11*
%TO.P,R1,1*%
%TO.N,AC_POWER_ON*%
X106680000Y-62587500D03*
%TO.P,R1,2*%
%TO.N,Net-(R1-Pad2)*%
X106680000Y-64412500D03*
%TD*%
D12*
%TO.P,D1,1,K*%
%TO.N,GND*%
X106850000Y-71937500D03*
%TO.P,D1,2,A*%
%TO.N,Net-(D1-A)*%
X106850000Y-70062500D03*
%TD*%
D13*
%TO.P,U4,1,GND*%
%TO.N,GND*%
X134715000Y-36800000D03*
%TO.P,U4,2,MISO*%
%TO.N,SPI_MISO*%
X134715000Y-38800000D03*
%TO.P,U4,3,MOSI*%
%TO.N,SPI_MOSI*%
X134715000Y-40800000D03*
%TO.P,U4,4,SCK*%
%TO.N,SPI_SCK*%
X134715000Y-42800000D03*
%TO.P,U4,5,NSS*%
%TO.N,SPI_CS*%
X134715000Y-44800000D03*
%TO.P,U4,6,RESET*%
%TO.N,SPI_RST*%
X134715000Y-46800000D03*
%TO.P,U4,7,DIO5*%
%TO.N,unconnected-(U4-DIO5-Pad7)*%
X134715000Y-48800000D03*
%TO.P,U4,8,GND*%
%TO.N,GND*%
X134715000Y-50800000D03*
%TO.P,U4,9,ANT*%
%TO.N,Net-(AE1-A)*%
X149765000Y-50800000D03*
%TO.P,U4,10,GND*%
%TO.N,GND*%
X149765000Y-48800000D03*
%TO.P,U4,11,DIO3*%
%TO.N,unconnected-(U4-DIO3-Pad11)*%
X149765000Y-46800000D03*
%TO.P,U4,12,DIO4*%
%TO.N,unconnected-(U4-DIO4-Pad12)*%
X149765000Y-44800000D03*
%TO.P,U4,13,3.3V*%
%TO.N,+3V3*%
X149765000Y-42800000D03*
%TO.P,U4,14,DIO0*%
%TO.N,SPI_INT*%
X149765000Y-40800000D03*
%TO.P,U4,15,DIO1*%
%TO.N,unconnected-(U4-DIO1-Pad15)*%
X149765000Y-38800000D03*
%TO.P,U4,16,DIO2*%
%TO.N,unconnected-(U4-DIO2-Pad16)*%
X149765000Y-36800000D03*
%TD*%
D10*
%TO.P,C11,1*%
%TO.N,GND*%
X143000000Y-54900000D03*
%TO.P,C11,2*%
%TO.N,BTN2*%
X143000000Y-56800000D03*
%TD*%
%TO.P,C4,1*%
%TO.N,+3V3*%
X129213750Y-52070000D03*
%TO.P,C4,2*%
%TO.N,GND*%
X129213750Y-53970000D03*
%TD*%
D14*
%TO.P,U3,1,GND*%
%TO.N,GND*%
X126341250Y-53970000D03*
%TO.P,U3,2,VO*%
%TO.N,+3V3*%
X126341250Y-52070000D03*
%TO.P,U3,3,VI*%
%TO.N,+5V*%
X124466250Y-53020000D03*
%TD*%
D15*
%TO.P,U5,1,~{CS}*%
%TO.N,SPI_CS2*%
X137225000Y-30480000D03*
%TO.P,U5,2,MISO*%
%TO.N,SPI_MISO*%
X137225000Y-31750000D03*
%TO.P,U5,3,~{WP}*%
%TO.N,+3V3*%
X137225000Y-33020000D03*
%TO.P,U5,4,GND*%
%TO.N,GND*%
X137225000Y-34290000D03*
%TO.P,U5,5,MOSI*%
%TO.N,SPI_MOSI*%
X142175000Y-34290000D03*
%TO.P,U5,6,SCK*%
%TO.N,SPI_SCK*%
X142175000Y-33020000D03*
%TO.P,U5,7,~{HOLD}*%
%TO.N,+3V3*%
X142175000Y-31750000D03*
%TO.P,U5,8,VCC*%
X142175000Y-30480000D03*
%TD*%
D16*
%TO.P,C10,1*%
%TO.N,+3V3*%
X121285000Y-36195000D03*
%TO.P,C10,2*%
%TO.N,GND*%
X121285000Y-34295000D03*
%TD*%
D17*
%TO.P,R7,1*%
%TO.N,Net-(U1-BOOT0)*%
X108585000Y-41552500D03*
%TO.P,R7,2*%
%TO.N,GND*%
X108585000Y-39727500D03*
%TD*%
%TO.P,R5,1*%
%TO.N,Net-(D1-A)*%
X109220000Y-64412500D03*
%TO.P,R5,2*%
%TO.N,AC_POWER_ON*%
X109220000Y-62587500D03*
%TD*%
D18*
%TO.P,SW2,2,2*%
%TO.N,BTN2*%
X151750000Y-57700000D03*
X145450000Y-57700000D03*
%TO.P,SW2,1,1*%
%TO.N,GND*%
X151750000Y-54000000D03*
X145450000Y-54000000D03*
%TD*%
D19*
%TO.P,C9,1*%
%TO.N,+3V3*%
X112075000Y-35560000D03*
%TO.P,C9,2*%
%TO.N,GND*%
X110175000Y-35560000D03*
%TD*%
D10*
%TO.P,C3,1*%
%TO.N,+5V*%
X121593750Y-52070000D03*
%TO.P,C3,2*%
%TO.N,GND*%
X121593750Y-53970000D03*
%TD*%
%TO.P,C12,1*%
%TO.N,GND*%
X113500000Y-54900000D03*
%TO.P,C12,2*%
%TO.N,BTN1*%
X113500000Y-56800000D03*
%TD*%
D20*
%TO.P,U1,1,VBAT*%
%TO.N,+3V3*%
X113455000Y-44802500D03*
%TO.P,U1,2,PC13*%
%TO.N,unconnected-(U1-PC13-Pad2)*%
X113955000Y-44802500D03*
%TO.P,U1,3,PC14*%
%TO.N,unconnected-(U1-PC14-Pad3)*%
X114455000Y-44802500D03*
%TO.P,U1,4,PC15*%
%TO.N,unconnected-(U1-PC15-Pad4)*%
X114955000Y-44802500D03*
%TO.P,U1,5,PD0*%
%TO.N,unconnected-(U1-PD0-Pad5)*%
X115455000Y-44802500D03*
%TO.P,U1,6,PD1*%
%TO.N,unconnected-(U1-PD1-Pad6)*%
X115955000Y-44802500D03*
%TO.P,U1,7,NRST*%
%TO.N,nSRST*%
X116455000Y-44802500D03*
%TO.P,U1,8,VSSA*%
%TO.N,GND*%
X116955000Y-44802500D03*
%TO.P,U1,9,VDDA*%
%TO.N,+3V3*%
X117455000Y-44802500D03*
%TO.P,U1,10,PA0*%
%TO.N,BTN1*%
X117955000Y-44802500D03*
%TO.P,U1,11,PA1*%
%TO.N,AC_POWER_ON*%
X118455000Y-44802500D03*
%TO.P,U1,12,PA2*%
%TO.N,BTN2*%
X118955000Y-44802500D03*
D21*
%TO.P,U1,13,PA3*%
%TO.N,unconnected-(U1-PA3-Pad13)*%
X120367500Y-43390000D03*
%TO.P,U1,14,PA4*%
%TO.N,SPI_CS*%
X120367500Y-42890000D03*
%TO.P,U1,15,PA5*%
%TO.N,SPI_SCK*%
X120367500Y-42390000D03*
%TO.P,U1,16,PA6*%
%TO.N,SPI_MISO*%
X120367500Y-41890000D03*
%TO.P,U1,17,PA7*%
%TO.N,SPI_MOSI*%
X120367500Y-41390000D03*
%TO.P,U1,18,PB0*%
%TO.N,SPI_CS3*%
X120367500Y-40890000D03*
%TO.P,U1,19,PB1*%
%TO.N,SPI_CS2*%
X120367500Y-40390000D03*
%TO.P,U1,20,PB2*%
%TO.N,unconnected-(U1-PB2-Pad20)*%
X120367500Y-39890000D03*
%TO.P,U1,21,PB10*%
%TO.N,SPI_RST*%
X120367500Y-39390000D03*
%TO.P,U1,22,PB11*%
%TO.N,SPI_INT*%
X120367500Y-38890000D03*
%TO.P,U1,23,VSS*%
%TO.N,GND*%
X120367500Y-38390000D03*
%TO.P,U1,24,VDD*%
%TO.N,+3V3*%
X120367500Y-37890000D03*
D20*
%TO.P,U1,25,PB12*%
%TO.N,unconnected-(U1-PB12-Pad25)*%
X118955000Y-36477500D03*
%TO.P,U1,26,PB13*%
%TO.N,unconnected-(U1-PB13-Pad26)*%
X118455000Y-36477500D03*
%TO.P,U1,27,PB14*%
%TO.N,unconnected-(U1-PB14-Pad27)*%
X117955000Y-36477500D03*
%TO.P,U1,28,PB15*%
%TO.N,unconnected-(U1-PB15-Pad28)*%
X117455000Y-36477500D03*
%TO.P,U1,29,PA8*%
%TO.N,unconnected-(U1-PA8-Pad29)*%
X116955000Y-36477500D03*
%TO.P,U1,30,PA9*%
%TO.N,unconnected-(U1-PA9-Pad30)*%
X116455000Y-36477500D03*
%TO.P,U1,31,PA10*%
%TO.N,unconnected-(U1-PA10-Pad31)*%
X115955000Y-36477500D03*
%TO.P,U1,32,PA11*%
%TO.N,unconnected-(U1-PA11-Pad32)*%
X115455000Y-36477500D03*
%TO.P,U1,33,PA12*%
%TO.N,unconnected-(U1-PA12-Pad33)*%
X114955000Y-36477500D03*
%TO.P,U1,34,PA13*%
%TO.N,TMS*%
X114455000Y-36477500D03*
%TO.P,U1,35,VSS*%
%TO.N,GND*%
X113955000Y-36477500D03*
%TO.P,U1,36,VDD*%
%TO.N,+3V3*%
X113455000Y-36477500D03*
D21*
%TO.P,U1,37,PA14*%
%TO.N,TCK*%
X112042500Y-37890000D03*
%TO.P,U1,38,PA15*%
%TO.N,TDI*%
X112042500Y-38390000D03*
%TO.P,U1,39,PB3*%
%TO.N,TDO*%
X112042500Y-38890000D03*
%TO.P,U1,40,PB4*%
%TO.N,nTRST*%
X112042500Y-39390000D03*
%TO.P,U1,41,PB5*%
%TO.N,unconnected-(U1-PB5-Pad41)*%
X112042500Y-39890000D03*
%TO.P,U1,42,PB6*%
%TO.N,unconnected-(U1-PB6-Pad42)*%
X112042500Y-40390000D03*
%TO.P,U1,43,PB7*%
%TO.N,unconnected-(U1-PB7-Pad43)*%
X112042500Y-40890000D03*
%TO.P,U1,44,BOOT0*%
%TO.N,Net-(U1-BOOT0)*%
X112042500Y-41390000D03*
%TO.P,U1,45,PB8*%
%TO.N,unconnected-(U1-PB8-Pad45)*%
X112042500Y-41890000D03*
%TO.P,U1,46,PB9*%
%TO.N,unconnected-(U1-PB9-Pad46)*%
X112042500Y-42390000D03*
%TO.P,U1,47,VSS*%
%TO.N,GND*%
X112042500Y-42890000D03*
%TO.P,U1,48,VDD*%
%TO.N,+3V3*%
X112042500Y-43390000D03*
%TD*%
D22*
%TO.P,R6,2*%
%TO.N,nSRST*%
X115847500Y-48260000D03*
%TO.P,R6,1*%
%TO.N,+3V3*%
X114022500Y-48260000D03*
%TD*%
D10*
%TO.P,C6,1*%
%TO.N,+3V3*%
X145415000Y-31435000D03*
%TO.P,C6,2*%
%TO.N,GND*%
X145415000Y-33335000D03*
%TD*%
D18*
%TO.P,SW1,1,1*%
%TO.N,GND*%
X104850000Y-54000000D03*
X111150000Y-54000000D03*
%TO.P,SW1,2,2*%
%TO.N,BTN1*%
X104850000Y-57700000D03*
X111150000Y-57700000D03*
%TD*%
D11*
%TO.P,R8,1*%
%TO.N,+3V3*%
X154000000Y-54937500D03*
%TO.P,R8,2*%
%TO.N,BTN2*%
X154000000Y-56762500D03*
%TD*%
%TO.P,R9,1*%
%TO.N,+3V3*%
X102500000Y-54937500D03*
%TO.P,R9,2*%
%TO.N,BTN1*%
X102500000Y-56762500D03*
%TD*%
D23*
%TO.P,Q1,1,A1*%
%TO.N,L_OUT*%
X106680000Y-96520000D03*
D24*
%TO.P,Q1,2,A2*%
%TO.N,L_FUSED*%
X109220000Y-96520000D03*
%TO.P,Q1,3,G*%
%TO.N,Net-(Q1-G)*%
X111760000Y-96520000D03*
%TD*%
D25*
%TO.P,RV1,1*%
%TO.N,L_FUSED*%
X148590000Y-77470000D03*
%TO.P,RV1,2*%
%TO.N,N*%
X141090000Y-79670000D03*
%TD*%
D26*
%TO.P,R2,1*%
%TO.N,Net-(Q1-G)*%
X114300000Y-86360000D03*
D27*
%TO.P,R2,2*%
%TO.N,L_OUT*%
X104140000Y-86360000D03*
%TD*%
D28*
%TO.P,AE1,1,A*%
%TO.N,Net-(AE1-A)*%
X153670000Y-50800000D03*
%TD*%
D29*
%TO.P,J2,1,Pin_1*%
%TO.N,+3V3*%
X113655000Y-31760000D03*
D30*
%TO.P,J2,2,Pin_2*%
%TO.N,TMS*%
X113655000Y-33030000D03*
%TO.P,J2,3,Pin_3*%
%TO.N,GND*%
X114925000Y-31760000D03*
%TO.P,J2,4,Pin_4*%
%TO.N,TCK*%
X114925000Y-33030000D03*
%TO.P,J2,5,Pin_5*%
%TO.N,unconnected-(J2-Pin_5-Pad5)*%
X116195000Y-31760000D03*
%TO.P,J2,6,Pin_6*%
%TO.N,TDO*%
X116195000Y-33030000D03*
%TO.P,J2,7,Pin_7*%
%TO.N,GND*%
X117465000Y-31760000D03*
%TO.P,J2,8,Pin_8*%
%TO.N,TDI*%
X117465000Y-33030000D03*
%TO.P,J2,9,Pin_9*%
%TO.N,GND*%
X118735000Y-31760000D03*
%TO.P,J2,10,Pin_10*%
%TO.N,nSRST*%
X118735000Y-33030000D03*
%TD*%
D26*
%TO.P,R4,1*%
%TO.N,Net-(C5-Pad1)*%
X104140000Y-82550000D03*
D27*
%TO.P,R4,2*%
%TO.N,L_FUSED*%
X114300000Y-82550000D03*
%TD*%
D26*
%TO.P,C5,1*%
%TO.N,Net-(C5-Pad1)*%
X114140000Y-91440000D03*
%TO.P,C5,2*%
%TO.N,L_OUT*%
X104140000Y-91440000D03*
%TD*%
D31*
%TO.P,F1,1*%
%TO.N,L_IN*%
X125730000Y-105410000D03*
%TO.P,F1,2*%
%TO.N,L_FUSED*%
X148330000Y-105410000D03*
%TD*%
D32*
%TO.P,C2,1*%
%TO.N,+5V*%
X114300000Y-62230000D03*
D26*
%TO.P,C2,2*%
%TO.N,GND*%
X114300000Y-59730000D03*
%TD*%
%TO.P,R3,1*%
%TO.N,Net-(R3-Pad1)*%
X104140000Y-78740000D03*
D27*
%TO.P,R3,2*%
%TO.N,L_FUSED*%
X114300000Y-78740000D03*
%TD*%
D33*
%TO.P,J1,1,Pin_1*%
%TO.N,L_IN*%
X119380000Y-107950000D03*
D31*
%TO.P,J1,2,Pin_2*%
%TO.N,N*%
X114300000Y-107950000D03*
%TO.P,J1,3,Pin_3*%
%TO.N,L_OUT*%
X109220000Y-107950000D03*
%TD*%
D32*
%TO.P,U2,1*%
%TO.N,Net-(R1-Pad2)*%
X106670000Y-67320000D03*
D27*
%TO.P,U2,2*%
%TO.N,GND*%
X109210000Y-67320000D03*
%TO.P,U2,3,NC*%
%TO.N,unconnected-(U2-NC-Pad3)*%
X111750000Y-67320000D03*
%TO.P,U2,4*%
%TO.N,Net-(Q1-G)*%
X111750000Y-74940000D03*
%TO.P,U2,5,NC*%
%TO.N,unconnected-(U2-NC-Pad5)*%
X109210000Y-74940000D03*
%TO.P,U2,6*%
%TO.N,Net-(R3-Pad1)*%
X106670000Y-74940000D03*
%TD*%
D28*
%TO.P,C1,1*%
%TO.N,L_FUSED*%
X149860000Y-71120000D03*
%TO.P,C1,2*%
%TO.N,N*%
X139860000Y-71120000D03*
%TD*%
D34*
%TO.P,PS1,1,AC/L*%
%TO.N,Net-(PS1-AC{slash}L)*%
X133350000Y-94750000D03*
X130500000Y-93700000D03*
%TO.P,PS1,2,AC/N*%
%TO.N,Net-(PS1-AC{slash}N)*%
X122650000Y-94750000D03*
X125500000Y-93700000D03*
%TO.P,PS1,3,-Vout*%
%TO.N,GND*%
X135700000Y-64300000D03*
X132050000Y-63250000D03*
%TO.P,PS1,4,+Vout*%
%TO.N,+5V*%
X120300000Y-64300000D03*
X123950000Y-63250000D03*
%TD*%
%TO.P,FL1,1,1*%
%TO.N,L_FUSED*%
X141050000Y-95250000D03*
%TO.P,FL1,2,2*%
%TO.N,Net-(PS1-AC{slash}L)*%
X146050000Y-95250000D03*
%TO.P,FL1,3,3*%
%TO.N,N*%
X146050000Y-85250000D03*
%TO.P,FL1,4,4*%
%TO.N,Net-(PS1-AC{slash}N)*%
X141050000Y-85250000D03*
%TD*%
D35*
%TO.N,GND*%
X109220000Y-48260000D03*
X115570000Y-50800000D03*
X121920000Y-49530000D03*
X130810000Y-53340000D03*
X130810000Y-50800000D03*
X137795000Y-29000000D03*
X145000000Y-35000000D03*
X109000000Y-40000000D03*
X110000000Y-36000000D03*
X140000000Y-33000000D03*
X148000000Y-35000000D03*
X115000000Y-42000000D03*
X117179500Y-42000000D03*
%TO.N,+3V3*%
X146685000Y-42545000D03*
X119179500Y-48000000D03*
X146685000Y-52070000D03*
X145415000Y-31435000D03*
X117230500Y-48185100D03*
%TO.N,BTN2*%
X120000000Y-47000000D03*
X125000000Y-57000000D03*
%TO.N,TMS*%
X114700499Y-35014500D03*
%TO.N,TCK*%
X114791382Y-37808972D03*
%TO.N,SPI_SCK*%
X143510000Y-42545000D03*
X143510000Y-36195000D03*
%TO.N,SPI_MISO*%
X130175000Y-41910000D03*
X130175000Y-38735000D03*
%TO.N,SPI_CS2*%
X124460000Y-40114500D03*
X125095000Y-38100000D03*
%TO.N,SPI_RST*%
X128905000Y-43815000D03*
X128905000Y-39370000D03*
%TO.N,SPI_INT*%
X128198245Y-38663245D03*
X131445000Y-41910000D03*
%TO.N,TDO*%
X116205000Y-39370000D03*
%TO.N,TDI*%
X117475000Y-38100000D03*
%TO.N,nSRST*%
X116205000Y-40640000D03*
%TD*%
D36*
%TO.N,AC_POWER_ON*%
X109220000Y-62587500D02*
X109257600Y-62587500D01*
X109257600Y-62587500D02*
X118455000Y-53390100D01*
X118455000Y-53390100D02*
X118455000Y-44802500D01*
%TO.N,+3V3*%
X102500000Y-54937500D02*
X102500000Y-54250000D01*
X102500000Y-54250000D02*
X106467500Y-50282500D01*
X106467500Y-50282500D02*
X112000000Y-50282500D01*
X154000000Y-54937500D02*
X154000000Y-54150000D01*
X154000000Y-54150000D02*
X151920000Y-52070000D01*
X151920000Y-52070000D02*
X146685000Y-52070000D01*
%TO.N,BTN2*%
X151750000Y-57700000D02*
X153062500Y-57700000D01*
X153062500Y-57700000D02*
X154000000Y-56762500D01*
%TO.N,BTN1*%
X104850000Y-57700000D02*
X103437500Y-57700000D01*
X103437500Y-57700000D02*
X102500000Y-56762500D01*
X111150000Y-57700000D02*
X112600000Y-57700000D01*
X112600000Y-57700000D02*
X113500000Y-56800000D01*
X113500000Y-56800000D02*
X117955000Y-52345000D01*
X117955000Y-52345000D02*
X117955000Y-44802500D01*
X104850000Y-57700000D02*
X111150000Y-57700000D01*
%TO.N,BTN2*%
X143000000Y-56800000D02*
X125200000Y-56800000D01*
X125200000Y-56800000D02*
X125000000Y-57000000D01*
X145450000Y-57700000D02*
X143900000Y-57700000D01*
X143900000Y-57700000D02*
X143000000Y-56800000D01*
X151750000Y-57700000D02*
X145450000Y-57700000D01*
%TO.N,N*%
X141090000Y-79670000D02*
X146050000Y-84630000D01*
X139860000Y-71120000D02*
X139860000Y-78440000D01*
X146050000Y-84630000D02*
X146050000Y-85250000D01*
X139860000Y-78440000D02*
X141090000Y-79670000D01*
%TO.N,L_IN*%
X119380000Y-107950000D02*
X123190000Y-107950000D01*
X123190000Y-107950000D02*
X125730000Y-105410000D01*
%TO.N,Net-(Q1-G)*%
X111750000Y-83810000D02*
X114300000Y-86360000D01*
X111750000Y-74940000D02*
X111750000Y-83810000D01*
%TO.N,Net-(R1-Pad2)*%
X106680000Y-64412500D02*
X106680000Y-67310000D01*
X106680000Y-67310000D02*
X106670000Y-67320000D01*
%TO.N,GND*%
X113955000Y-35672236D02*
X112792764Y-34510000D01*
X111225000Y-34510000D02*
X110175000Y-35560000D01*
X133100000Y-64300000D02*
X132050000Y-63250000D01*
X114110000Y-42890000D02*
X115000000Y-42000000D01*
X120367500Y-38390000D02*
X121610000Y-38390000D01*
X112042500Y-42890000D02*
X114110000Y-42890000D01*
X113175000Y-63355000D02*
X113175000Y-60855000D01*
X113955000Y-36477500D02*
X113955000Y-35672236D01*
X113175000Y-60855000D02*
X114300000Y-59730000D01*
X135700000Y-64300000D02*
X133100000Y-64300000D01*
X112792764Y-34510000D02*
X111225000Y-34510000D01*
X109210000Y-67320000D02*
X113175000Y-63355000D01*
X106850000Y-71937500D02*
X109210000Y-69577500D01*
X116955000Y-44802500D02*
X116955000Y-42224500D01*
X121610000Y-38390000D02*
X122000000Y-38000000D01*
X116955000Y-42224500D02*
X117179500Y-42000000D01*
X109210000Y-69577500D02*
X109210000Y-67320000D01*
%TO.N,L_FUSED*%
X141050000Y-99140000D02*
X142240000Y-100330000D01*
X141050000Y-95250000D02*
X141050000Y-99140000D01*
X142240000Y-100330000D02*
X146050000Y-100330000D01*
X148330000Y-105410000D02*
X150495000Y-103245000D01*
X150495000Y-103245000D02*
X150495000Y-79375000D01*
X146050000Y-100330000D02*
X148330000Y-102610000D01*
X150495000Y-79375000D02*
X148590000Y-77470000D01*
X148590000Y-77470000D02*
X148590000Y-72390000D01*
X148590000Y-72390000D02*
X149860000Y-71120000D01*
X148330000Y-102610000D02*
X148330000Y-105410000D01*
%TO.N,+5V*%
X123950000Y-63250000D02*
X123950000Y-53536250D01*
X120300000Y-64300000D02*
X116370000Y-64300000D01*
X123950000Y-53536250D02*
X124466250Y-53020000D01*
X116370000Y-64300000D02*
X114300000Y-62230000D01*
X121593750Y-52070000D02*
X121083750Y-51560000D01*
X120300000Y-64300000D02*
X122900000Y-64300000D01*
X123516250Y-52070000D02*
X124466250Y-53020000D01*
X121593750Y-52070000D02*
X123516250Y-52070000D01*
X122900000Y-64300000D02*
X123950000Y-63250000D01*
%TO.N,Net-(PS1-AC{slash}L)*%
X131550000Y-94750000D02*
X130500000Y-93700000D01*
X133350000Y-94750000D02*
X131550000Y-94750000D01*
X146050000Y-95250000D02*
X143510000Y-92710000D01*
X143510000Y-92710000D02*
X135390000Y-92710000D01*
X135390000Y-92710000D02*
X133350000Y-94750000D01*
%TO.N,Net-(PS1-AC{slash}N)*%
X125500000Y-93700000D02*
X127760000Y-91440000D01*
X122650000Y-94750000D02*
X124450000Y-94750000D01*
X137160000Y-91440000D02*
X141050000Y-87550000D01*
X124450000Y-94750000D02*
X125500000Y-93700000D01*
X141050000Y-87550000D02*
X141050000Y-85250000D01*
X127760000Y-91440000D02*
X137160000Y-91440000D01*
%TO.N,+3V3*%
X121285000Y-36972500D02*
X120367500Y-37890000D01*
X117455000Y-44802500D02*
X117455000Y-48185100D01*
X109940000Y-34060000D02*
X109275000Y-34725000D01*
X113455000Y-44802500D02*
X111157500Y-44802500D01*
X126341250Y-52070000D02*
X122271250Y-48000000D01*
X113115000Y-34060000D02*
X112000000Y-34060000D01*
X107560000Y-42155000D02*
X107560000Y-39125000D01*
X153605000Y-42800000D02*
X153670000Y-42865000D01*
X137795000Y-33020000D02*
X140335000Y-30480000D01*
X111125000Y-44770000D02*
X110175000Y-44770000D01*
X108270000Y-38415000D02*
X109220000Y-38415000D01*
X109792195Y-36817500D02*
X110817500Y-36817500D01*
X111125000Y-44770000D02*
X111125000Y-44307500D01*
X112537500Y-35560000D02*
X113455000Y-36477500D01*
X112075000Y-33340000D02*
X112075000Y-33985000D01*
X129213750Y-52070000D02*
X126341250Y-52070000D01*
X113345000Y-34290000D02*
X119380000Y-34290000D01*
X122271250Y-48000000D02*
X119179500Y-48000000D01*
X112000000Y-50282500D02*
X114022500Y-48260000D01*
X109275000Y-34725000D02*
X109275000Y-36300305D01*
X110817500Y-36817500D02*
X112075000Y-35560000D01*
X112075000Y-33985000D02*
X112000000Y-34060000D01*
X110175000Y-44770000D02*
X107560000Y-42155000D01*
X144460000Y-30480000D02*
X142175000Y-30480000D01*
X116110100Y-49530000D02*
X115292500Y-49530000D01*
X114022500Y-48260000D02*
X113455000Y-47692500D01*
X117455000Y-48185100D02*
X116110100Y-49530000D01*
X113345000Y-34290000D02*
X113115000Y-34060000D01*
X109275000Y-36300305D02*
X109792195Y-36817500D01*
X112075000Y-33340000D02*
X113655000Y-31760000D01*
X119380000Y-34290000D02*
X121285000Y-36195000D01*
X113455000Y-47692500D02*
X113455000Y-44802500D01*
X121285000Y-36195000D02*
X121285000Y-36972500D01*
X137225000Y-33020000D02*
X137795000Y-33020000D01*
X111125000Y-44307500D02*
X112042500Y-43390000D01*
X149765000Y-42800000D02*
X153605000Y-42800000D01*
X146940000Y-42800000D02*
X146685000Y-42545000D01*
X142175000Y-30480000D02*
X142175000Y-31750000D01*
X107560000Y-39125000D02*
X108270000Y-38415000D01*
X111157500Y-44802500D02*
X111125000Y-44770000D01*
X145415000Y-31435000D02*
X144460000Y-30480000D01*
X149765000Y-42800000D02*
X146940000Y-42800000D01*
X109220000Y-38415000D02*
X112075000Y-35560000D01*
X129213750Y-52070000D02*
X146685000Y-52070000D01*
X112075000Y-35560000D02*
X112537500Y-35560000D01*
X115292500Y-49530000D02*
X114022500Y-48260000D01*
X112000000Y-34060000D02*
X109940000Y-34060000D01*
X140335000Y-30480000D02*
X142175000Y-30480000D01*
%TO.N,AC_POWER_ON*%
X109220000Y-62587500D02*
X106680000Y-62587500D01*
%TO.N,Net-(AE1-A)*%
X149765000Y-50800000D02*
X153670000Y-50800000D01*
%TO.N,BTN1*%
X110000000Y-57700000D02*
X111212500Y-57700000D01*
%TO.N,BTN2*%
X118955000Y-44802500D02*
X118955000Y-45955000D01*
X118955000Y-45955000D02*
X120000000Y-47000000D01*
%TO.N,Net-(C5-Pad1)*%
X104140000Y-82550000D02*
X113030000Y-91440000D01*
X113030000Y-91440000D02*
X114140000Y-91440000D01*
%TO.N,TMS*%
X114700499Y-35014500D02*
X114455000Y-35259999D01*
X114455000Y-35259999D02*
X114455000Y-36477500D01*
%TO.N,TCK*%
X114710354Y-37890000D02*
X114791382Y-37808972D01*
X114791382Y-37808972D02*
X114610354Y-37990000D01*
X112042500Y-37890000D02*
X114710354Y-37890000D01*
X114600354Y-38000000D02*
X114791382Y-37808972D01*
%TO.N,SPI_CS*%
X131403299Y-44800000D02*
X129493299Y-42890000D01*
X134715000Y-44800000D02*
X131403299Y-44800000D01*
X129493299Y-42890000D02*
X120367500Y-42890000D01*
%TO.N,SPI_SCK*%
X143475000Y-36160000D02*
X143510000Y-36195000D01*
X143255000Y-42800000D02*
X134715000Y-42800000D01*
X134330000Y-42415000D02*
X134715000Y-42800000D01*
X143475000Y-35515000D02*
X143475000Y-33345001D01*
X130039695Y-42800000D02*
X134715000Y-42800000D01*
X143475000Y-33345001D02*
X143149999Y-33020000D01*
X143475000Y-35515000D02*
X143475000Y-36160000D01*
X143510000Y-42545000D02*
X143255000Y-42800000D01*
X143149999Y-33020000D02*
X142175000Y-33020000D01*
X120367500Y-42390000D02*
X120392500Y-42415000D01*
X129629695Y-42390000D02*
X130039695Y-42800000D01*
X120367500Y-42390000D02*
X129629695Y-42390000D01*
%TO.N,SPI_MISO*%
X137225000Y-31750000D02*
X134620000Y-31750000D01*
X134620000Y-31750000D02*
X130175000Y-36195000D01*
X130175000Y-36195000D02*
X130175000Y-38735000D01*
X130155000Y-41890000D02*
X120367500Y-41890000D01*
X130175000Y-41910000D02*
X130155000Y-41890000D01*
X130240000Y-38800000D02*
X130175000Y-38735000D01*
X134715000Y-38800000D02*
X130240000Y-38800000D01*
%TO.N,SPI_MOSI*%
X134715000Y-40800000D02*
X141445000Y-40800000D01*
X124935000Y-40800000D02*
X124345000Y-41390000D01*
X141445000Y-40800000D02*
X142175000Y-40070000D01*
X142175000Y-40070000D02*
X142175000Y-34290000D01*
X134715000Y-40800000D02*
X124935000Y-40800000D01*
X124345000Y-41390000D02*
X120367500Y-41390000D01*
%TO.N,SPI_CS2*%
X127000000Y-38100000D02*
X125095000Y-38100000D01*
X134620000Y-30480000D02*
X127000000Y-38100000D01*
X137225000Y-30480000D02*
X134620000Y-30480000D01*
X124184500Y-40390000D02*
X120367500Y-40390000D01*
X124460000Y-40114500D02*
X124184500Y-40390000D01*
%TO.N,SPI_RST*%
X134715000Y-46800000D02*
X131890000Y-46800000D01*
X131890000Y-46800000D02*
X128905000Y-43815000D01*
X128905000Y-39370000D02*
X128885000Y-39390000D01*
X128885000Y-39390000D02*
X120367500Y-39390000D01*
%TO.N,SPI_INT*%
X148805000Y-41760000D02*
X131595000Y-41760000D01*
X149765000Y-40800000D02*
X148805000Y-41760000D01*
X128198245Y-38663245D02*
X127971490Y-38890000D01*
X127971490Y-38890000D02*
X120367500Y-38890000D01*
X131595000Y-41760000D02*
X131445000Y-41910000D01*
%TO.N,TDO*%
X114690709Y-39370000D02*
X116205000Y-39370000D01*
X112042500Y-38890000D02*
X114210709Y-38890000D01*
X114210709Y-38890000D02*
X114690709Y-39370000D01*
%TO.N,TDI*%
X114491077Y-38533972D02*
X117041028Y-38533972D01*
X117041028Y-38533972D02*
X117475000Y-38100000D01*
X112042500Y-38390000D02*
X114347105Y-38390000D01*
X114347105Y-38390000D02*
X114491077Y-38533972D01*
%TO.N,nSRST*%
X116205000Y-40640000D02*
X116455000Y-40890000D01*
X116455000Y-40890000D02*
X116455000Y-44802500D01*
X116455000Y-47652500D02*
X116455000Y-44802500D01*
X115847500Y-48260000D02*
X116455000Y-47652500D01*
%TO.N,Net-(U1-BOOT0)*%
X108747500Y-41390000D02*
X112042500Y-41390000D01*
X108585000Y-41552500D02*
X108747500Y-41390000D01*
%TO.N,Net-(D1-A)*%
X107950000Y-68962500D02*
X106850000Y-70062500D01*
X109220000Y-65405000D02*
X107950000Y-66675000D01*
X107950000Y-66675000D02*
X107950000Y-68962500D01*
X109220000Y-64412500D02*
X109220000Y-65405000D01*
%TD*%
%TA.AperFunction,Conductor*%
%TO.N,GND*%
G36*
X156490722Y-29986987D02*
G01*
X156554836Y-30014751D01*
X156593764Y-30072771D01*
X156599500Y-30110049D01*
X156599500Y-64876000D01*
X156579815Y-64943039D01*
X156527011Y-64988794D01*
X156475500Y-65000000D01*
X136960689Y-65000000D01*
X136893650Y-64980315D01*
X136847895Y-64927511D01*
X136837951Y-64858353D01*
X136848307Y-64823596D01*
X136890419Y-64733284D01*
X136890424Y-64733270D01*
X136947573Y-64519986D01*
X136947575Y-64519976D01*
X136966821Y-64300000D01*
X136966821Y-64299999D01*
X136947575Y-64080023D01*
X136947573Y-64080013D01*
X136890424Y-63866729D01*
X136890420Y-63866720D01*
X136797098Y-63666590D01*
X136751740Y-63601811D01*
X136084903Y-64268647D01*
X136084949Y-64268102D01*
X136053734Y-64144838D01*
X135984187Y-64038388D01*
X135883843Y-63960287D01*
X135763578Y-63919000D01*
X135727447Y-63919000D01*
X136398187Y-63248258D01*
X136333409Y-63202900D01*
X136333407Y-63202899D01*
X136133284Y-63109580D01*
X136133270Y-63109575D01*
X135919986Y-63052426D01*
X135919976Y-63052424D01*
X135700001Y-63033179D01*
X135699999Y-63033179D01*
X135480023Y-63052424D01*
X135480013Y-63052426D01*
X135266729Y-63109575D01*
X135266720Y-63109579D01*
X135066586Y-63202903D01*
X135001812Y-63248257D01*
X135001811Y-63248258D01*
X135672554Y-63919000D01*
X135668431Y-63919000D01*
X135574579Y-63934661D01*
X135462749Y-63995180D01*
X135376629Y-64088731D01*
X135325552Y-64205177D01*
X135319894Y-64273448D01*
X134648258Y-63601812D01*
X134648257Y-63601812D01*
X134602903Y-63666586D01*
X134509579Y-63866720D01*
X134509575Y-63866729D01*
X134452426Y-64080013D01*
X134452424Y-64080023D01*
X134433179Y-64299999D01*
X134433179Y-64300000D01*
X134452424Y-64519976D01*
X134452426Y-64519986D01*
X134509575Y-64733270D01*
X134509580Y-64733284D01*
X134551693Y-64823596D01*
X134562185Y-64892673D01*
X134533665Y-64956457D01*
X134475188Y-64994696D01*
X134439311Y-65000000D01*
X123383952Y-65000000D01*
X123316913Y-64980315D01*
X123271158Y-64927511D01*
X123261214Y-64858353D01*
X123290239Y-64794797D01*
X123296242Y-64788346D01*
X123300575Y-64784013D01*
X123315379Y-64771368D01*
X123331587Y-64759594D01*
X123361299Y-64723676D01*
X123365212Y-64719376D01*
X123566204Y-64518384D01*
X123627525Y-64484901D01*
X123685976Y-64486292D01*
X123729932Y-64498070D01*
X123880801Y-64511269D01*
X123949998Y-64517323D01*
X123950000Y-64517323D01*
X123950002Y-64517323D01*
X124019199Y-64511269D01*
X124170068Y-64498070D01*
X124383450Y-64440894D01*
X124583662Y-64347534D01*
X124764620Y-64220826D01*
X124920826Y-64064620D01*
X125047534Y-63883662D01*
X125140894Y-63683450D01*
X125198070Y-63470068D01*
X125217323Y-63250000D01*
X130783179Y-63250000D01*
X130802424Y-63469976D01*
X130802426Y-63469986D01*
X130859575Y-63683270D01*
X130859580Y-63683284D01*
X130952899Y-63883407D01*
X130952900Y-63883409D01*
X130998258Y-63948187D01*
X131665096Y-63281349D01*
X131665051Y-63281898D01*
X131696266Y-63405162D01*
X131765813Y-63511612D01*
X131866157Y-63589713D01*
X131986422Y-63631000D01*
X132022553Y-63631000D01*
X131351811Y-64301741D01*
X131416582Y-64347094D01*
X131416592Y-64347100D01*
X131616715Y-64440419D01*
X131616729Y-64440424D01*
X131830013Y-64497573D01*
X131830023Y-64497575D01*
X132049999Y-64516821D01*
X132050001Y-64516821D01*
X132269976Y-64497575D01*
X132269986Y-64497573D01*
X132483270Y-64440424D01*
X132483284Y-64440419D01*
X132683408Y-64347100D01*
X132683420Y-64347093D01*
X132748186Y-64301742D01*
X132748187Y-64301740D01*
X132077448Y-63631000D01*
X132081569Y-63631000D01*
X132175421Y-63615339D01*
X132287251Y-63554820D01*
X132373371Y-63461269D01*
X132424448Y-63344823D01*
X132430105Y-63276552D01*
X133101740Y-63948187D01*
X133101742Y-63948186D01*
X133147093Y-63883420D01*
X133147100Y-63883408D01*
X133240419Y-63683284D01*
X133240424Y-63683270D01*
X133297573Y-63469986D01*
X133297575Y-63469976D01*
X133316821Y-63250000D01*
X133316821Y-63249999D01*
X133297575Y-63030023D01*
X133297573Y-63030013D01*
X133240424Y-62816729D01*
X133240420Y-62816720D01*
X133147098Y-62616590D01*
X133101740Y-62551811D01*
X132434903Y-63218648D01*
X132434949Y-63218102D01*
X132403734Y-63094838D01*
X132334187Y-62988388D01*
X132233843Y-62910287D01*
X132113578Y-62869000D01*
X132077447Y-62869000D01*
X132748187Y-62198258D01*
X132683409Y-62152900D01*
X132683407Y-62152899D01*
X132483284Y-62059580D01*
X132483270Y-62059575D01*
X132269986Y-62002426D01*
X132269976Y-62002424D01*
X132050001Y-61983179D01*
X132049999Y-61983179D01*
X131830023Y-62002424D01*
X131830013Y-62002426D01*
X131616729Y-62059575D01*
X131616720Y-62059579D01*
X131416586Y-62152903D01*
X131351812Y-62198257D01*
X131351811Y-62198258D01*
X132022554Y-62869000D01*
X132018431Y-62869000D01*
X131924579Y-62884661D01*
X131812749Y-62945180D01*
X131726629Y-63038731D01*
X131675552Y-63155177D01*
X131669894Y-63223447D01*
X130998258Y-62551811D01*
X130998257Y-62551812D01*
X130952903Y-62616586D01*
X130859579Y-62816720D01*
X130859575Y-62816729D01*
X130802426Y-63030013D01*
X130802424Y-63030023D01*
X130783179Y-63249999D01*
X130783179Y-63250000D01*
X125217323Y-63250000D01*
X125215151Y-63225179D01*
X125204997Y-63109107D01*
X125198070Y-63029932D01*
X125140894Y-62816550D01*
X125047534Y-62616339D01*
X124920826Y-62435380D01*
X124764620Y-62279174D01*
X124628376Y-62183775D01*
X124584752Y-62129198D01*
X124575500Y-62082200D01*
X124575500Y-57983514D01*
X124595185Y-57916475D01*
X124647989Y-57870720D01*
X124717147Y-57860776D01*
X124725262Y-57862220D01*
X124905354Y-57900500D01*
X124905355Y-57900500D01*
X125094644Y-57900500D01*
X125094646Y-57900500D01*
X125279803Y-57861144D01*
X125452730Y-57784151D01*
X125605871Y-57672888D01*
X125732533Y-57532216D01*
X125754795Y-57493657D01*
X125758350Y-57487500D01*
X125808917Y-57439285D01*
X125865737Y-57425500D01*
X141805622Y-57425500D01*
X141872661Y-57445185D01*
X141911159Y-57484401D01*
X141932288Y-57518656D01*
X142056344Y-57642712D01*
X142205666Y-57734814D01*
X142372203Y-57789999D01*
X142474991Y-57800500D01*
X143064546Y-57800499D01*
X143131585Y-57820183D01*
X143152227Y-57836818D01*
X143399197Y-58083788D01*
X143409022Y-58096051D01*
X143409243Y-58095869D01*
X143414214Y-58101878D01*
X143435043Y-58121437D01*
X143464635Y-58149226D01*
X143485529Y-58170120D01*
X143491011Y-58174373D01*
X143495443Y-58178157D01*
X143529418Y-58210062D01*
X143546976Y-58219714D01*
X143563235Y-58230395D01*
X143579064Y-58242673D01*
X143621838Y-58261182D01*
X143627056Y-58263738D01*
X143667908Y-58286197D01*
X143687316Y-58291180D01*
X143705717Y-58297480D01*
X143724104Y-58305437D01*
X143758919Y-58310951D01*
X143770119Y-58312725D01*
X143775839Y-58313909D01*
X143820981Y-58325500D01*
X143841016Y-58325500D01*
X143860414Y-58327026D01*
X143880194Y-58330159D01*
X143880195Y-58330160D01*
X143880195Y-58330159D01*
X143880196Y-58330160D01*
X143926584Y-58325775D01*
X143932422Y-58325500D01*
X143957885Y-58325500D01*
X144024924Y-58345185D01*
X144070679Y-58397989D01*
X144074067Y-58406167D01*
X144106202Y-58492328D01*
X144106206Y-58492335D01*
X144192452Y-58607544D01*
X144192455Y-58607547D01*
X144307664Y-58693793D01*
X144307671Y-58693797D01*
X144442517Y-58744091D01*
X144442516Y-58744091D01*
X144449444Y-58744835D01*
X144502127Y-58750500D01*
X146397872Y-58750499D01*
X146457483Y-58744091D01*
X146592331Y-58693796D01*
X146707546Y-58607546D01*
X146793796Y-58492331D01*
X146823389Y-58412988D01*
X146825934Y-58406166D01*
X146867806Y-58350233D01*
X146933270Y-58325816D01*
X146942116Y-58325500D01*
X150257885Y-58325500D01*
X150324924Y-58345185D01*
X150370679Y-58397989D01*
X150374067Y-58406167D01*
X150406202Y-58492328D01*
X150406206Y-58492335D01*
X150492452Y-58607544D01*
X150492455Y-58607547D01*
X150607664Y-58693793D01*
X150607671Y-58693797D01*
X150742517Y-58744091D01*
X150742516Y-58744091D01*
X150749444Y-58744835D01*
X150802127Y-58750500D01*
X152697872Y-58750499D01*
X152757483Y-58744091D01*
X152892331Y-58693796D01*
X153007546Y-58607546D01*
X153093796Y-58492331D01*
X153132811Y-58387725D01*
X153174682Y-58331793D01*
X153212155Y-58313832D01*
X153212038Y-58313536D01*
X153216273Y-58311858D01*
X153218168Y-58310951D01*
X153219279Y-58310665D01*
X153219292Y-58310664D01*
X153262622Y-58293507D01*
X153268146Y-58291617D01*
X153271896Y-58290527D01*
X153312890Y-58278618D01*
X153330129Y-58268422D01*
X153347603Y-58259862D01*
X153366227Y-58252488D01*
X153366227Y-58252487D01*
X153366232Y-58252486D01*
X153403949Y-58225082D01*
X153408805Y-58221892D01*
X153448920Y-58198170D01*
X153463089Y-58183999D01*
X153477879Y-58171368D01*
X153494087Y-58159594D01*
X153523799Y-58123676D01*
X153527712Y-58119376D01*
X153835271Y-57811818D01*
X153896594Y-57778333D01*
X153922952Y-57775499D01*
X154500002Y-57775499D01*
X154500008Y-57775499D01*
X154602797Y-57764999D01*
X154769334Y-57709814D01*
X154918656Y-57617712D01*
X155042712Y-57493656D01*
X155134814Y-57344334D01*
X155189999Y-57177797D01*
X155200500Y-57075009D01*
X155200499Y-56449992D01*
X155189999Y-56347203D01*
X155134814Y-56180666D01*
X155042712Y-56031344D01*
X154949049Y-55937681D01*
X154915564Y-55876358D01*
X154920548Y-55806666D01*
X154949049Y-55762319D01*
X154969052Y-55742316D01*
X155042712Y-55668656D01*
X155134814Y-55519334D01*
X155189999Y-55352797D01*
X155200500Y-55250009D01*
X155200499Y-54624992D01*
X155197947Y-54600013D01*
X155189999Y-54522203D01*
X155189998Y-54522200D01*
X155142943Y-54380198D01*
X155134814Y-54355666D01*
X155042712Y-54206344D01*
X154918656Y-54082288D01*
X154769334Y-53990186D01*
X154642840Y-53948270D01*
X154585397Y-53908498D01*
X154575110Y-53893679D01*
X154568414Y-53882355D01*
X154559857Y-53864887D01*
X154552486Y-53846268D01*
X154552484Y-53846265D01*
X154552483Y-53846263D01*
X154525098Y-53808571D01*
X154521890Y-53803687D01*
X154498172Y-53763582D01*
X154498163Y-53763571D01*
X154484005Y-53749413D01*
X154471370Y-53734620D01*
X154460747Y-53720000D01*
X154459594Y-53718413D01*
X154423693Y-53688713D01*
X154419381Y-53684790D01*
X153206526Y-52471935D01*
X153173041Y-52410612D01*
X153178025Y-52340920D01*
X153219897Y-52284987D01*
X153285361Y-52260570D01*
X153314611Y-52261944D01*
X153545665Y-52300500D01*
X153545666Y-52300500D01*
X153794335Y-52300500D01*
X154039614Y-52259571D01*
X154274810Y-52178828D01*
X154493509Y-52060474D01*
X154689744Y-51907738D01*
X154858164Y-51724785D01*
X154994173Y-51516607D01*
X155094063Y-51288881D01*
X155155108Y-51047821D01*
X155163652Y-50944713D01*
X155175643Y-50800005D01*
X155175643Y-50799994D01*
X155155109Y-50552187D01*
X155155107Y-50552175D01*
X155094063Y-50311118D01*
X154994173Y-50083393D01*
X154858166Y-49875217D01*
X154828490Y-49842980D01*
X154689744Y-49692262D01*
X154493509Y-49539526D01*
X154493507Y-49539525D01*
X154493506Y-49539524D01*
X154274811Y-49421172D01*
X154274802Y-49421169D01*
X154039616Y-49340429D01*
X153794335Y-49299500D01*
X153545665Y-49299500D01*
X153300383Y-49340429D01*
X153065197Y-49421169D01*
X153065188Y-49421172D01*
X152846493Y-49539524D01*
X152650257Y-49692261D01*
X152481833Y-49875217D01*
X152345824Y-50083396D01*
X152338405Y-50100311D01*
X152293449Y-50153797D01*
X152226713Y-50174486D01*
X152224850Y-50174500D01*
X151763580Y-50174500D01*
X151696541Y-50154815D01*
X151658586Y-50116472D01*
X151619592Y-50054414D01*
X151566085Y-49969258D01*
X151484154Y-49887327D01*
X151450669Y-49826004D01*
X151455653Y-49756312D01*
X151484154Y-49711964D01*
X151565693Y-49630425D01*
X151663703Y-49474443D01*
X151724547Y-49300559D01*
X151724548Y-49300553D01*
X151739999Y-49163418D01*
X151740000Y-49163414D01*
X151740000Y-49050000D01*
X147790000Y-49050000D01*
X147790000Y-49163418D01*
X147805451Y-49300553D01*
X147805452Y-49300559D01*
X147866296Y-49474443D01*
X147964308Y-49630428D01*
X148045845Y-49711965D01*
X148079330Y-49773288D01*
X148074346Y-49842980D01*
X148045846Y-49887327D01*
X147963914Y-49969259D01*
X147865845Y-50125334D01*
X147804961Y-50299328D01*
X147789500Y-50436557D01*
X147789500Y-51163442D01*
X147805632Y-51306616D01*
X147793578Y-51375438D01*
X147746229Y-51426818D01*
X147682412Y-51444500D01*
X147388748Y-51444500D01*
X147321709Y-51424815D01*
X147296600Y-51403474D01*
X147290873Y-51397114D01*
X147290869Y-51397110D01*
X147137734Y-51285851D01*
X147137729Y-51285848D01*
X146964807Y-51208857D01*
X146964802Y-51208855D01*
X146819001Y-51177865D01*
X146779646Y-51169500D01*
X146590354Y-51169500D01*
X146557897Y-51176398D01*
X146405197Y-51208855D01*
X146405192Y-51208857D01*
X146232270Y-51285848D01*
X146232265Y-51285851D01*
X146079130Y-51397110D01*
X146079126Y-51397114D01*
X146073400Y-51403474D01*
X146013913Y-51440121D01*
X145981252Y-51444500D01*
X136797085Y-51444500D01*
X136730046Y-51424815D01*
X136684291Y-51372011D01*
X136673865Y-51306616D01*
X136689999Y-51163416D01*
X136690000Y-51163414D01*
X136690000Y-51050000D01*
X132740000Y-51050000D01*
X132740000Y-51163416D01*
X132756135Y-51306616D01*
X132744081Y-51375438D01*
X132696732Y-51426818D01*
X132632915Y-51444500D01*
X130408128Y-51444500D01*
X130341089Y-51424815D01*
X130302589Y-51385597D01*
X130294209Y-51372011D01*
X130281462Y-51351344D01*
X130157406Y-51227288D01*
X130008084Y-51135186D01*
X129841547Y-51080001D01*
X129841545Y-51080000D01*
X129738760Y-51069500D01*
X128688748Y-51069500D01*
X128688730Y-51069501D01*
X128585953Y-51080000D01*
X128585950Y-51080001D01*
X128419418Y-51135185D01*
X128419413Y-51135187D01*
X128270092Y-51227289D01*
X128146039Y-51351342D01*
X128124911Y-51385597D01*
X128072963Y-51432321D01*
X128019372Y-51444500D01*
X127424559Y-51444500D01*
X127357520Y-51424815D01*
X127336878Y-51408181D01*
X127330620Y-51401923D01*
X127330612Y-51401917D01*
X127189146Y-51318255D01*
X127189143Y-51318254D01*
X127031323Y-51272402D01*
X127031317Y-51272401D01*
X126994446Y-51269500D01*
X126994444Y-51269500D01*
X126476703Y-51269500D01*
X126409664Y-51249815D01*
X126389022Y-51233181D01*
X122772053Y-47616212D01*
X122762230Y-47603950D01*
X122762009Y-47604134D01*
X122757036Y-47598123D01*
X122706614Y-47550773D01*
X122696169Y-47540328D01*
X122685725Y-47529883D01*
X122680236Y-47525625D01*
X122675811Y-47521847D01*
X122641832Y-47489938D01*
X122641830Y-47489936D01*
X122641827Y-47489935D01*
X122624279Y-47480288D01*
X122608013Y-47469604D01*
X122592183Y-47457325D01*
X122549418Y-47438818D01*
X122544172Y-47436248D01*
X122503343Y-47413803D01*
X122503342Y-47413802D01*
X122483943Y-47408822D01*
X122465531Y-47402518D01*
X122447148Y-47394562D01*
X122447142Y-47394560D01*
X122401124Y-47387272D01*
X122395402Y-47386087D01*
X122350271Y-47374500D01*
X122350269Y-47374500D01*
X122330234Y-47374500D01*
X122310836Y-47372973D01*
X122303412Y-47371797D01*
X122291055Y-47369840D01*
X122291054Y-47369840D01*
X122244666Y-47374225D01*
X122238828Y-47374500D01*
X120995831Y-47374500D01*
X120928792Y-47354815D01*
X120883037Y-47302011D01*
X120873093Y-47232853D01*
X120877900Y-47212182D01*
X120883200Y-47195869D01*
X120885674Y-47188256D01*
X120905460Y-47000000D01*
X120885674Y-46811744D01*
X120827179Y-46631716D01*
X120732533Y-46467784D01*
X120605871Y-46327112D01*
X120605870Y-46327111D01*
X120452734Y-46215851D01*
X120452729Y-46215848D01*
X120279807Y-46138857D01*
X120279802Y-46138855D01*
X120101138Y-46100880D01*
X120094646Y-46099500D01*
X120094645Y-46099500D01*
X120035453Y-46099500D01*
X119968414Y-46079815D01*
X119947772Y-46063181D01*
X119622108Y-45737517D01*
X119588623Y-45676194D01*
X119589883Y-45623326D01*
X119589626Y-45623293D01*
X119589941Y-45620895D01*
X119590017Y-45617733D01*
X119590683Y-45615243D01*
X119590687Y-45615236D01*
X119605500Y-45502720D01*
X119605500Y-44164500D01*
X119625185Y-44097461D01*
X119677989Y-44051706D01*
X119729500Y-44040500D01*
X121067713Y-44040500D01*
X121067720Y-44040500D01*
X121180236Y-44025687D01*
X121320233Y-43967698D01*
X121440451Y-43875451D01*
X121532698Y-43755233D01*
X121590687Y-43615236D01*
X121590688Y-43615225D01*
X121592783Y-43607410D01*
X121629147Y-43547748D01*
X121691993Y-43517217D01*
X121712559Y-43515500D01*
X127893303Y-43515500D01*
X127960342Y-43535185D01*
X128006097Y-43587989D01*
X128016623Y-43652458D01*
X127999540Y-43815000D01*
X128019326Y-44003256D01*
X128019327Y-44003259D01*
X128077818Y-44183277D01*
X128077821Y-44183284D01*
X128172467Y-44347216D01*
X128252911Y-44436558D01*
X128299129Y-44487888D01*
X128452265Y-44599148D01*
X128452270Y-44599151D01*
X128625192Y-44676142D01*
X128625197Y-44676144D01*
X128810354Y-44715500D01*
X128869548Y-44715500D01*
X128936587Y-44735185D01*
X128957229Y-44751819D01*
X131389197Y-47183788D01*
X131399022Y-47196051D01*
X131399243Y-47195869D01*
X131404214Y-47201878D01*
X131420626Y-47217289D01*
X131454635Y-47249226D01*
X131475529Y-47270120D01*
X131481011Y-47274373D01*
X131485443Y-47278157D01*
X131519418Y-47310062D01*
X131536976Y-47319714D01*
X131553235Y-47330395D01*
X131569064Y-47342673D01*
X131611838Y-47361182D01*
X131617056Y-47363738D01*
X131657908Y-47386197D01*
X131677316Y-47391180D01*
X131695717Y-47397480D01*
X131714104Y-47405437D01*
X131757488Y-47412308D01*
X131760119Y-47412725D01*
X131765839Y-47413909D01*
X131810981Y-47425500D01*
X131831016Y-47425500D01*
X131850414Y-47427026D01*
X131870194Y-47430159D01*
X131870195Y-47430160D01*
X131870195Y-47430159D01*
X131870196Y-47430160D01*
X131916584Y-47425775D01*
X131922422Y-47425500D01*
X132716420Y-47425500D01*
X132783459Y-47445185D01*
X132821414Y-47483528D01*
X132913915Y-47630742D01*
X132995492Y-47712319D01*
X133028977Y-47773642D01*
X133023993Y-47843334D01*
X132995492Y-47887681D01*
X132913915Y-47969257D01*
X132815845Y-48125334D01*
X132754961Y-48299328D01*
X132739500Y-48436557D01*
X132739500Y-49163442D01*
X132754961Y-49300671D01*
X132782149Y-49378369D01*
X132811879Y-49463333D01*
X132815845Y-49474665D01*
X132913915Y-49630742D01*
X132995845Y-49712672D01*
X133029330Y-49773995D01*
X133024346Y-49843687D01*
X132995846Y-49888034D01*
X132914307Y-49969573D01*
X132816296Y-50125556D01*
X132755452Y-50299440D01*
X132755451Y-50299446D01*
X132740000Y-50436581D01*
X132740000Y-50550000D01*
X136690000Y-50550000D01*
X136690000Y-50436585D01*
X136689999Y-50436581D01*
X136674548Y-50299446D01*
X136674547Y-50299440D01*
X136613703Y-50125556D01*
X136515691Y-49969571D01*
X136434154Y-49888034D01*
X136400669Y-49826711D01*
X136405653Y-49757019D01*
X136434150Y-49712676D01*
X136516085Y-49630742D01*
X136614156Y-49474663D01*
X136675037Y-49300674D01*
X136675037Y-49300673D01*
X136675038Y-49300671D01*
X136686922Y-49195190D01*
X136690500Y-49163438D01*
X136690500Y-48436562D01*
X136684925Y-48387090D01*
X136675038Y-48299328D01*
X136660422Y-48257559D01*
X136614156Y-48125337D01*
X136516085Y-47969258D01*
X136434508Y-47887681D01*
X136401023Y-47826358D01*
X136406007Y-47756666D01*
X136434508Y-47712319D01*
X136444513Y-47702314D01*
X136516085Y-47630742D01*
X136614156Y-47474663D01*
X136675037Y-47300674D01*
X136675037Y-47300673D01*
X136675038Y-47300671D01*
X136687703Y-47188259D01*
X136690500Y-47163438D01*
X136690500Y-46436562D01*
X136678168Y-46327111D01*
X136675038Y-46299328D01*
X136645827Y-46215848D01*
X136614156Y-46125337D01*
X136516085Y-45969258D01*
X136434508Y-45887681D01*
X136401023Y-45826358D01*
X136406007Y-45756666D01*
X136434508Y-45712319D01*
X136470633Y-45676194D01*
X136516085Y-45630742D01*
X136614156Y-45474663D01*
X136675037Y-45300674D01*
X136675037Y-45300673D01*
X136675038Y-45300671D01*
X136690020Y-45167697D01*
X136690500Y-45163438D01*
X136690500Y-44436562D01*
X136680433Y-44347214D01*
X136675038Y-44299328D01*
X136660422Y-44257559D01*
X136614156Y-44125337D01*
X136516085Y-43969258D01*
X136434508Y-43887681D01*
X136401023Y-43826358D01*
X136406007Y-43756666D01*
X136434508Y-43712319D01*
X136463565Y-43683262D01*
X136516085Y-43630742D01*
X136608586Y-43483528D01*
X136660921Y-43437237D01*
X136713580Y-43425500D01*
X143172257Y-43425500D01*
X143187877Y-43427224D01*
X143187904Y-43426939D01*
X143195660Y-43427671D01*
X143195667Y-43427673D01*
X143264814Y-43425500D01*
X143294350Y-43425500D01*
X143294355Y-43425499D01*
X143298155Y-43425260D01*
X143331730Y-43427725D01*
X143415354Y-43445500D01*
X143604644Y-43445500D01*
X143604646Y-43445500D01*
X143789803Y-43406144D01*
X143962730Y-43329151D01*
X144115871Y-43217888D01*
X144242533Y-43077216D01*
X144337179Y-42913284D01*
X144395674Y-42733256D01*
X144415460Y-42545000D01*
X144413091Y-42522460D01*
X144425661Y-42453731D01*
X144473393Y-42402708D01*
X144536412Y-42385500D01*
X145658588Y-42385500D01*
X145725627Y-42405185D01*
X145771382Y-42457989D01*
X145781908Y-42522460D01*
X145779540Y-42545000D01*
X145799326Y-42733256D01*
X145799327Y-42733259D01*
X145857818Y-42913277D01*
X145857821Y-42913284D01*
X145952467Y-43077216D01*
X146031523Y-43165016D01*
X146079129Y-43217888D01*
X146232265Y-43329148D01*
X146232270Y-43329151D01*
X146405192Y-43406142D01*
X146405197Y-43406144D01*
X146590354Y-43445500D01*
X146590355Y-43445500D01*
X146779644Y-43445500D01*
X146779646Y-43445500D01*
X146858533Y-43428731D01*
X146903711Y-43427549D01*
X146920196Y-43430160D01*
X146966584Y-43425775D01*
X146972422Y-43425500D01*
X147766420Y-43425500D01*
X147833459Y-43445185D01*
X147871414Y-43483528D01*
X147963915Y-43630742D01*
X148045492Y-43712319D01*
X148078977Y-43773642D01*
X148073993Y-43843334D01*
X148045492Y-43887681D01*
X147963915Y-43969257D01*
X147865845Y-44125334D01*
X147804961Y-44299328D01*
X147789500Y-44436557D01*
X147789500Y-45163442D01*
X147804961Y-45300671D01*
X147865845Y-45474665D01*
X147963915Y-45630742D01*
X148045492Y-45712319D01*
X148078977Y-45773642D01*
X148073993Y-45843334D01*
X148045492Y-45887681D01*
X147963915Y-45969257D01*
X147865845Y-46125334D01*
X147804961Y-46299328D01*
X147789500Y-46436557D01*
X147789500Y-47163442D01*
X147804961Y-47300671D01*
X147841621Y-47405437D01*
X147852895Y-47437658D01*
X147865845Y-47474665D01*
X147963915Y-47630742D01*
X148045845Y-47712672D01*
X148079330Y-47773995D01*
X148074346Y-47843687D01*
X148045846Y-47888034D01*
X147964307Y-47969573D01*
X147866296Y-48125556D01*
X147805452Y-48299440D01*
X147805451Y-48299446D01*
X147790000Y-48436581D01*
X147790000Y-48550000D01*
X151740000Y-48550000D01*
X151740000Y-48436585D01*
X151739999Y-48436581D01*
X151724548Y-48299446D01*
X151724547Y-48299440D01*
X151663703Y-48125556D01*
X151565691Y-47969571D01*
X151484154Y-47888034D01*
X151450669Y-47826711D01*
X151455653Y-47757019D01*
X151484150Y-47712676D01*
X151566085Y-47630742D01*
X151664156Y-47474663D01*
X151725037Y-47300674D01*
X151725037Y-47300673D01*
X151725038Y-47300671D01*
X151737703Y-47188259D01*
X151740500Y-47163438D01*
X151740500Y-46436562D01*
X151728168Y-46327111D01*
X151725038Y-46299328D01*
X151695827Y-46215848D01*
X151664156Y-46125337D01*
X151566085Y-45969258D01*
X151484508Y-45887681D01*
X151451023Y-45826358D01*
X151456007Y-45756666D01*
X151484508Y-45712319D01*
X151520633Y-45676194D01*
X151566085Y-45630742D01*
X151664156Y-45474663D01*
X151725037Y-45300674D01*
X151725037Y-45300673D01*
X151725038Y-45300671D01*
X151740020Y-45167697D01*
X151740500Y-45163438D01*
X151740500Y-45015000D01*
X152445001Y-45015000D01*
X152445001Y-45064986D01*
X152455494Y-45167697D01*
X152510641Y-45334119D01*
X152510643Y-45334124D01*
X152602684Y-45483345D01*
X152726654Y-45607315D01*
X152875875Y-45699356D01*
X152875880Y-45699358D01*
X153042302Y-45754505D01*
X153042309Y-45754506D01*
X153145019Y-45764999D01*
X153419999Y-45764999D01*
X153420000Y-45764998D01*
X153420000Y-45015000D01*
X153920000Y-45015000D01*
X153920000Y-45764999D01*
X154194972Y-45764999D01*
X154194986Y-45764998D01*
X154297697Y-45754505D01*
X154464119Y-45699358D01*
X154464124Y-45699356D01*
X154613345Y-45607315D01*
X154737315Y-45483345D01*
X154829356Y-45334124D01*
X154829358Y-45334119D01*
X154884505Y-45167697D01*
X154884506Y-45167690D01*
X154894999Y-45064986D01*
X154895000Y-45064973D01*
X154895000Y-45015000D01*
X153920000Y-45015000D01*
X153420000Y-45015000D01*
X152445001Y-45015000D01*
X151740500Y-45015000D01*
X151740500Y-44436562D01*
X151730433Y-44347214D01*
X151725038Y-44299328D01*
X151710422Y-44257559D01*
X151664156Y-44125337D01*
X151566085Y-43969258D01*
X151484508Y-43887681D01*
X151451023Y-43826358D01*
X151456007Y-43756666D01*
X151484508Y-43712319D01*
X151513565Y-43683262D01*
X151566085Y-43630742D01*
X151658586Y-43483528D01*
X151710921Y-43437237D01*
X151763580Y-43425500D01*
X152435530Y-43425500D01*
X152502569Y-43445185D01*
X152541067Y-43484401D01*
X152602288Y-43583656D01*
X152726344Y-43707712D01*
X152729628Y-43709737D01*
X152729653Y-43709753D01*
X152731445Y-43711746D01*
X152732011Y-43712193D01*
X152731934Y-43712289D01*
X152776379Y-43761699D01*
X152787603Y-43830661D01*
X152759761Y-43894744D01*
X152729665Y-43920826D01*
X152726660Y-43922679D01*
X152726655Y-43922683D01*
X152602684Y-44046654D01*
X152510643Y-44195875D01*
X152510641Y-44195880D01*
X152455494Y-44362302D01*
X152455493Y-44362309D01*
X152445000Y-44465013D01*
X152445000Y-44515000D01*
X154894999Y-44515000D01*
X154894999Y-44465028D01*
X154894998Y-44465013D01*
X154884505Y-44362302D01*
X154829358Y-44195880D01*
X154829356Y-44195875D01*
X154737315Y-44046654D01*
X154613344Y-43922683D01*
X154613341Y-43922681D01*
X154610339Y-43920829D01*
X154608713Y-43919021D01*
X154607677Y-43918202D01*
X154607817Y-43918024D01*
X154563617Y-43868880D01*
X154552397Y-43799917D01*
X154580243Y-43735836D01*
X154610344Y-43709754D01*
X154613656Y-43707712D01*
X154737712Y-43583656D01*
X154829814Y-43434334D01*
X154884999Y-43267797D01*
X154895500Y-43165009D01*
X154895499Y-42564992D01*
X154891154Y-42522461D01*
X154884999Y-42462203D01*
X154884998Y-42462200D01*
X154859582Y-42385500D01*
X154829814Y-42295666D01*
X154737712Y-42146344D01*
X154613656Y-42022288D01*
X154464334Y-41930186D01*
X154297797Y-41875001D01*
X154297795Y-41875000D01*
X154195010Y-41864500D01*
X153144998Y-41864500D01*
X153144980Y-41864501D01*
X153042203Y-41875000D01*
X153042200Y-41875001D01*
X152875668Y-41930185D01*
X152875663Y-41930187D01*
X152726342Y-42022289D01*
X152610451Y-42138181D01*
X152549128Y-42171666D01*
X152522770Y-42174500D01*
X151763580Y-42174500D01*
X151696541Y-42154815D01*
X151658586Y-42116472D01*
X151607510Y-42035185D01*
X151566085Y-41969258D01*
X151484508Y-41887681D01*
X151451023Y-41826358D01*
X151456007Y-41756666D01*
X151484508Y-41712319D01*
X151566085Y-41630742D01*
X151664156Y-41474663D01*
X151725037Y-41300674D01*
X151725037Y-41300673D01*
X151725038Y-41300671D01*
X151733487Y-41225673D01*
X151740500Y-41163438D01*
X151740500Y-40436562D01*
X151730238Y-40345485D01*
X151725038Y-40299328D01*
X151706341Y-40245896D01*
X151664156Y-40125337D01*
X151566085Y-39969258D01*
X151484508Y-39887681D01*
X151451023Y-39826358D01*
X151456007Y-39756666D01*
X151484508Y-39712319D01*
X151517726Y-39679101D01*
X151566085Y-39630742D01*
X151664156Y-39474663D01*
X151725037Y-39300674D01*
X151725037Y-39300673D01*
X151725038Y-39300671D01*
X151733487Y-39225673D01*
X151740500Y-39163438D01*
X151740500Y-38436562D01*
X151732630Y-38366715D01*
X151725038Y-38299328D01*
X151704278Y-38239999D01*
X151664156Y-38125337D01*
X151566085Y-37969258D01*
X151484508Y-37887681D01*
X151451023Y-37826358D01*
X151456007Y-37756666D01*
X151484508Y-37712319D01*
X151516864Y-37679963D01*
X151566085Y-37630742D01*
X151664156Y-37474663D01*
X151725037Y-37300674D01*
X151725037Y-37300673D01*
X151725038Y-37300671D01*
X151734875Y-37213363D01*
X151740500Y-37163438D01*
X151740500Y-36436562D01*
X151730683Y-36349435D01*
X151725038Y-36299328D01*
X151701900Y-36233204D01*
X151664156Y-36125337D01*
X151566085Y-35969258D01*
X151435742Y-35838915D01*
X151402092Y-35817771D01*
X151279665Y-35740845D01*
X151279664Y-35740844D01*
X151279663Y-35740844D01*
X151237896Y-35726229D01*
X151105671Y-35679961D01*
X150968442Y-35664500D01*
X150968438Y-35664500D01*
X148561562Y-35664500D01*
X148561558Y-35664500D01*
X148424328Y-35679961D01*
X148250334Y-35740845D01*
X148094257Y-35838915D01*
X147963915Y-35969257D01*
X147865845Y-36125334D01*
X147804961Y-36299328D01*
X147789500Y-36436557D01*
X147789500Y-37163442D01*
X147804961Y-37300671D01*
X147819802Y-37343083D01*
X147864795Y-37471666D01*
X147865845Y-37474665D01*
X147963915Y-37630742D01*
X148045492Y-37712319D01*
X148078977Y-37773642D01*
X148073993Y-37843334D01*
X148045492Y-37887681D01*
X147963915Y-37969257D01*
X147865845Y-38125334D01*
X147804961Y-38299328D01*
X147789500Y-38436557D01*
X147789500Y-39163442D01*
X147804961Y-39300671D01*
X147865845Y-39474665D01*
X147963915Y-39630742D01*
X148045492Y-39712319D01*
X148078977Y-39773642D01*
X148073993Y-39843334D01*
X148045492Y-39887681D01*
X147963915Y-39969257D01*
X147865845Y-40125334D01*
X147804961Y-40299328D01*
X147789500Y-40436557D01*
X147789500Y-41010500D01*
X147769815Y-41077539D01*
X147717011Y-41123294D01*
X147665500Y-41134500D01*
X142294452Y-41134500D01*
X142227413Y-41114815D01*
X142181658Y-41062011D01*
X142171714Y-40992853D01*
X142200739Y-40929297D01*
X142206771Y-40922819D01*
X142366826Y-40762764D01*
X142558788Y-40570801D01*
X142571042Y-40560986D01*
X142570859Y-40560764D01*
X142576866Y-40555792D01*
X142576877Y-40555786D01*
X142607775Y-40522882D01*
X142624227Y-40505364D01*
X142634671Y-40494918D01*
X142645120Y-40484471D01*
X142649379Y-40478978D01*
X142653152Y-40474561D01*
X142685062Y-40440582D01*
X142694715Y-40423020D01*
X142705389Y-40406770D01*
X142717673Y-40390936D01*
X142736180Y-40348167D01*
X142738749Y-40342924D01*
X142757331Y-40309124D01*
X142761197Y-40302092D01*
X142766177Y-40282691D01*
X142772478Y-40264288D01*
X142780438Y-40245896D01*
X142787730Y-40199849D01*
X142788911Y-40194152D01*
X142800500Y-40149019D01*
X142800500Y-40128983D01*
X142802027Y-40109582D01*
X142802312Y-40107784D01*
X142805160Y-40089804D01*
X142800775Y-40043415D01*
X142800500Y-40037577D01*
X142800500Y-37035960D01*
X142820185Y-36968921D01*
X142872989Y-36923166D01*
X142942147Y-36913222D01*
X142997383Y-36935640D01*
X143043190Y-36968921D01*
X143057270Y-36979151D01*
X143230192Y-37056142D01*
X143230197Y-37056144D01*
X143415354Y-37095500D01*
X143415355Y-37095500D01*
X143604644Y-37095500D01*
X143604646Y-37095500D01*
X143789803Y-37056144D01*
X143962730Y-36979151D01*
X144115871Y-36867888D01*
X144242533Y-36727216D01*
X144337179Y-36563284D01*
X144395674Y-36383256D01*
X144415460Y-36195000D01*
X144395674Y-36006744D01*
X144337179Y-35826716D01*
X144242533Y-35662784D01*
X144170500Y-35582783D01*
X144132350Y-35540413D01*
X144102120Y-35477421D01*
X144100500Y-35457441D01*
X144100500Y-34089834D01*
X144120185Y-34022795D01*
X144172989Y-33977040D01*
X144242147Y-33967096D01*
X144305703Y-33996121D01*
X144330039Y-34024738D01*
X144347682Y-34053343D01*
X144471654Y-34177315D01*
X144620875Y-34269356D01*
X144620880Y-34269358D01*
X144787302Y-34324505D01*
X144787309Y-34324506D01*
X144890019Y-34334999D01*
X145164999Y-34334999D01*
X145165000Y-34334998D01*
X145165000Y-33585000D01*
X145665000Y-33585000D01*
X145665000Y-34334999D01*
X145939972Y-34334999D01*
X145939986Y-34334998D01*
X146042697Y-34324505D01*
X146209119Y-34269358D01*
X146209124Y-34269356D01*
X146358345Y-34177315D01*
X146482315Y-34053345D01*
X146574356Y-33904124D01*
X146574358Y-33904119D01*
X146629505Y-33737697D01*
X146629506Y-33737690D01*
X146639999Y-33634986D01*
X146640000Y-33634973D01*
X146640000Y-33585000D01*
X145665000Y-33585000D01*
X145165000Y-33585000D01*
X145165000Y-33209000D01*
X145184685Y-33141961D01*
X145237489Y-33096206D01*
X145289000Y-33085000D01*
X146639999Y-33085000D01*
X146639999Y-33035028D01*
X146639998Y-33035013D01*
X146629505Y-32932302D01*
X146574358Y-32765880D01*
X146574356Y-32765875D01*
X146482315Y-32616654D01*
X146465661Y-32600000D01*
X152244341Y-32600000D01*
X152264936Y-32835403D01*
X152264938Y-32835413D01*
X152326094Y-33063655D01*
X152326096Y-33063659D01*
X152326097Y-33063663D01*
X152372933Y-33164102D01*
X152425964Y-33277828D01*
X152425965Y-33277830D01*
X152561505Y-33471402D01*
X152728597Y-33638494D01*
X152922169Y-33774034D01*
X152922171Y-33774035D01*
X153136337Y-33873903D01*
X153364592Y-33935063D01*
X153541034Y-33950500D01*
X153658966Y-33950500D01*
X153835408Y-33935063D01*
X154063663Y-33873903D01*
X154277829Y-33774035D01*
X154471401Y-33638495D01*
X154638495Y-33471401D01*
X154774035Y-33277830D01*
X154873903Y-33063663D01*
X154935063Y-32835408D01*
X154955659Y-32600000D01*
X154935063Y-32364592D01*
X154873903Y-32136337D01*
X154774035Y-31922171D01*
X154774034Y-31922169D01*
X154638494Y-31728597D01*
X154471402Y-31561505D01*
X154277830Y-31425965D01*
X154277828Y-31425964D01*
X154169120Y-31375273D01*
X154063663Y-31326097D01*
X154063659Y-31326096D01*
X154063655Y-31326094D01*
X153835413Y-31264938D01*
X153835403Y-31264936D01*
X153658966Y-31249500D01*
X153541034Y-31249500D01*
X153364596Y-31264936D01*
X153364586Y-31264938D01*
X153136344Y-31326094D01*
X153136335Y-31326098D01*
X152922171Y-31425964D01*
X152922169Y-31425965D01*
X152728597Y-31561505D01*
X152561506Y-31728597D01*
X152561501Y-31728604D01*
X152425967Y-31922165D01*
X152425965Y-31922169D01*
X152326098Y-32136335D01*
X152326094Y-32136344D01*
X152264938Y-32364586D01*
X152264936Y-32364596D01*
X152244341Y-32599999D01*
X152244341Y-32600000D01*
X146465661Y-32600000D01*
X146358344Y-32492683D01*
X146358341Y-32492681D01*
X146355339Y-32490829D01*
X146353713Y-32489021D01*
X146352677Y-32488202D01*
X146352817Y-32488024D01*
X146308617Y-32438880D01*
X146297397Y-32369917D01*
X146325243Y-32305836D01*
X146355344Y-32279754D01*
X146358656Y-32277712D01*
X146482712Y-32153656D01*
X146574814Y-32004334D01*
X146629999Y-31837797D01*
X146640500Y-31735009D01*
X146640499Y-31134992D01*
X146637486Y-31105500D01*
X146629999Y-31032203D01*
X146629998Y-31032200D01*
X146626096Y-31020424D01*
X146574814Y-30865666D01*
X146482712Y-30716344D01*
X146358656Y-30592288D01*
X146209334Y-30500186D01*
X146042797Y-30445001D01*
X146042795Y-30445000D01*
X145940016Y-30434500D01*
X145940009Y-30434500D01*
X145350453Y-30434500D01*
X145283414Y-30414815D01*
X145262772Y-30398181D01*
X144960803Y-30096212D01*
X144950980Y-30083950D01*
X144950759Y-30084134D01*
X144945786Y-30078123D01*
X144927159Y-30060631D01*
X144895364Y-30030773D01*
X144884919Y-30020328D01*
X144874475Y-30009883D01*
X144868986Y-30005625D01*
X144864561Y-30001847D01*
X144830582Y-29969938D01*
X144830580Y-29969936D01*
X144830577Y-29969935D01*
X144813029Y-29960288D01*
X144796763Y-29949604D01*
X144780936Y-29937327D01*
X144780935Y-29937326D01*
X144780933Y-29937325D01*
X144738168Y-29918818D01*
X144732922Y-29916248D01*
X144692093Y-29893803D01*
X144692092Y-29893802D01*
X144672693Y-29888822D01*
X144654281Y-29882518D01*
X144635898Y-29874562D01*
X144635892Y-29874560D01*
X144589874Y-29867272D01*
X144584152Y-29866087D01*
X144539021Y-29854500D01*
X144539019Y-29854500D01*
X144518984Y-29854500D01*
X144499586Y-29852973D01*
X144491333Y-29851666D01*
X144479805Y-29849840D01*
X144479804Y-29849840D01*
X144433416Y-29854225D01*
X144427578Y-29854500D01*
X143495809Y-29854500D01*
X143428770Y-29834815D01*
X143408128Y-29818181D01*
X143401870Y-29811923D01*
X143401862Y-29811917D01*
X143260396Y-29728255D01*
X143260393Y-29728254D01*
X143102573Y-29682402D01*
X143102567Y-29682401D01*
X143065696Y-29679500D01*
X143065694Y-29679500D01*
X141284306Y-29679500D01*
X141284304Y-29679500D01*
X141247432Y-29682401D01*
X141247426Y-29682402D01*
X141089606Y-29728254D01*
X141089603Y-29728255D01*
X140948137Y-29811917D01*
X140948129Y-29811923D01*
X140941872Y-29818181D01*
X140880549Y-29851666D01*
X140854191Y-29854500D01*
X140417737Y-29854500D01*
X140402120Y-29852776D01*
X140402093Y-29853062D01*
X140394331Y-29852327D01*
X140325203Y-29854500D01*
X140295650Y-29854500D01*
X140294929Y-29854590D01*
X140288757Y-29855369D01*
X140282945Y-29855826D01*
X140236372Y-29857290D01*
X140236369Y-29857291D01*
X140217126Y-29862881D01*
X140198083Y-29866825D01*
X140178204Y-29869336D01*
X140178203Y-29869337D01*
X140134878Y-29886490D01*
X140129352Y-29888382D01*
X140084608Y-29901383D01*
X140084604Y-29901385D01*
X140067365Y-29911580D01*
X140049898Y-29920137D01*
X140031269Y-29927512D01*
X140031267Y-29927513D01*
X139993564Y-29954906D01*
X139988682Y-29958112D01*
X139948580Y-29981828D01*
X139934408Y-29996000D01*
X139919623Y-30008628D01*
X139903412Y-30020407D01*
X139873709Y-30056310D01*
X139869777Y-30060631D01*
X138783847Y-31146560D01*
X138722524Y-31180045D01*
X138652832Y-31175061D01*
X138596899Y-31133189D01*
X138572482Y-31067725D01*
X138587334Y-30999452D01*
X138589420Y-30995781D01*
X138651744Y-30890398D01*
X138687912Y-30765908D01*
X138697597Y-30732573D01*
X138697598Y-30732567D01*
X138700500Y-30695696D01*
X138700500Y-30264304D01*
X138697598Y-30227432D01*
X138697597Y-30227426D01*
X138655966Y-30084134D01*
X138651744Y-30069602D01*
X138568081Y-29928135D01*
X138568079Y-29928133D01*
X138568076Y-29928129D01*
X138451870Y-29811923D01*
X138451862Y-29811917D01*
X138310396Y-29728255D01*
X138310393Y-29728254D01*
X138152573Y-29682402D01*
X138152567Y-29682401D01*
X138115696Y-29679500D01*
X138115694Y-29679500D01*
X136334306Y-29679500D01*
X136334304Y-29679500D01*
X136297432Y-29682401D01*
X136297426Y-29682402D01*
X136139606Y-29728254D01*
X136139603Y-29728255D01*
X135998137Y-29811917D01*
X135998129Y-29811923D01*
X135991872Y-29818181D01*
X135930549Y-29851666D01*
X135904191Y-29854500D01*
X134702737Y-29854500D01*
X134687120Y-29852776D01*
X134687093Y-29853062D01*
X134679331Y-29852327D01*
X134610203Y-29854500D01*
X134580650Y-29854500D01*
X134579929Y-29854590D01*
X134573757Y-29855369D01*
X134567945Y-29855826D01*
X134521378Y-29857290D01*
X134521367Y-29857292D01*
X134502134Y-29862879D01*
X134483094Y-29866822D01*
X134463217Y-29869334D01*
X134463210Y-29869335D01*
X134463208Y-29869336D01*
X134463206Y-29869336D01*
X134463205Y-29869337D01*
X134419868Y-29886494D01*
X134414342Y-29888386D01*
X134369611Y-29901382D01*
X134369608Y-29901383D01*
X134352363Y-29911581D01*
X134334901Y-29920135D01*
X134316272Y-29927511D01*
X134316267Y-29927513D01*
X134278564Y-29954906D01*
X134273682Y-29958112D01*
X134233580Y-29981828D01*
X134219408Y-29996000D01*
X134204623Y-30008628D01*
X134188412Y-30020407D01*
X134158709Y-30056310D01*
X134154777Y-30060631D01*
X131269876Y-32945531D01*
X131208553Y-32979016D01*
X131138861Y-32974032D01*
X131082928Y-32932160D01*
X131058511Y-32866696D01*
X131073362Y-32798424D01*
X131082932Y-32781109D01*
X131084644Y-32778207D01*
X131102921Y-32749120D01*
X131117818Y-32718184D01*
X131119384Y-32715153D01*
X131188094Y-32590833D01*
X131242444Y-32459621D01*
X131243839Y-32456500D01*
X131258744Y-32425552D01*
X131270090Y-32393125D01*
X131271288Y-32389984D01*
X131325659Y-32258724D01*
X131364978Y-32122242D01*
X131366017Y-32118982D01*
X131377358Y-32086572D01*
X131384994Y-32053112D01*
X131385862Y-32049752D01*
X131425173Y-31913300D01*
X131448968Y-31773249D01*
X131449623Y-31769955D01*
X131457273Y-31736442D01*
X131461120Y-31702292D01*
X131461594Y-31698940D01*
X131485387Y-31558907D01*
X131493352Y-31417078D01*
X131493634Y-31413726D01*
X131497483Y-31379567D01*
X131498155Y-31331541D01*
X131505543Y-31200000D01*
X131498155Y-31068462D01*
X131498146Y-31067725D01*
X131497483Y-31020433D01*
X131493634Y-30986273D01*
X131493351Y-30982918D01*
X131485387Y-30841093D01*
X131461596Y-30701069D01*
X131461120Y-30697702D01*
X131457273Y-30663558D01*
X131449633Y-30630085D01*
X131448963Y-30626722D01*
X131425173Y-30486700D01*
X131385854Y-30350219D01*
X131385001Y-30346915D01*
X131377358Y-30313428D01*
X131371825Y-30297618D01*
X131366027Y-30281044D01*
X131364971Y-30277730D01*
X131325660Y-30141281D01*
X131325659Y-30141276D01*
X131271301Y-30010045D01*
X131270084Y-30006855D01*
X131258744Y-29974448D01*
X131243849Y-29943518D01*
X131242435Y-29940358D01*
X131237114Y-29927513D01*
X131188094Y-29809167D01*
X131119394Y-29684864D01*
X131117817Y-29681811D01*
X131102921Y-29650880D01*
X131084649Y-29621800D01*
X131082930Y-29618886D01*
X131014211Y-29494548D01*
X130932027Y-29378721D01*
X130930110Y-29375851D01*
X130911852Y-29346794D01*
X130890451Y-29319958D01*
X130888369Y-29317192D01*
X130806194Y-29201377D01*
X130711565Y-29095487D01*
X130709327Y-29092836D01*
X130687934Y-29066010D01*
X130663677Y-29041753D01*
X130661287Y-29039226D01*
X130566662Y-28933340D01*
X130566659Y-28933337D01*
X130460772Y-28838710D01*
X130458262Y-28836338D01*
X130433989Y-28812065D01*
X130433988Y-28812064D01*
X130433985Y-28812061D01*
X130433982Y-28812059D01*
X130407162Y-28790671D01*
X130404504Y-28788427D01*
X130298622Y-28693805D01*
X130182811Y-28611632D01*
X130180033Y-28609541D01*
X130153212Y-28588153D01*
X130153211Y-28588152D01*
X130153207Y-28588149D01*
X130153204Y-28588147D01*
X130153200Y-28588144D01*
X130124163Y-28569898D01*
X130121272Y-28567967D01*
X130005452Y-28485789D01*
X129881151Y-28417090D01*
X129878174Y-28415334D01*
X129849120Y-28397079D01*
X129831503Y-28388595D01*
X129818216Y-28382196D01*
X129815127Y-28380600D01*
X129690837Y-28311908D01*
X129690835Y-28311907D01*
X129690833Y-28311906D01*
X129669889Y-28303230D01*
X129559633Y-28257559D01*
X129556460Y-28256140D01*
X129525547Y-28241253D01*
X129493163Y-28229922D01*
X129489914Y-28228682D01*
X129472726Y-28221562D01*
X129358724Y-28174341D01*
X129335224Y-28167570D01*
X129222252Y-28135023D01*
X129218939Y-28133967D01*
X129186571Y-28122641D01*
X129153119Y-28115006D01*
X129149752Y-28114137D01*
X129013305Y-28074828D01*
X129013301Y-28074827D01*
X129013300Y-28074827D01*
X128953184Y-28064612D01*
X128873297Y-28051039D01*
X128869888Y-28050360D01*
X128844835Y-28044642D01*
X128836442Y-28042727D01*
X128836439Y-28042726D01*
X128836432Y-28042725D01*
X128802345Y-28038884D01*
X128798902Y-28038398D01*
X128658917Y-28014614D01*
X128658901Y-28014612D01*
X128517116Y-28006649D01*
X128513651Y-28006357D01*
X128479572Y-28002517D01*
X128479567Y-28002517D01*
X128445262Y-28002517D01*
X128441785Y-28002419D01*
X128300000Y-27994457D01*
X128158215Y-28002419D01*
X128154738Y-28002517D01*
X128120424Y-28002517D01*
X128086347Y-28006357D01*
X128082881Y-28006649D01*
X127941098Y-28014612D01*
X127941082Y-28014614D01*
X127801098Y-28038398D01*
X127797655Y-28038884D01*
X127763566Y-28042725D01*
X127763548Y-28042728D01*
X127730096Y-28050363D01*
X127726687Y-28051041D01*
X127604450Y-28071811D01*
X127586700Y-28074827D01*
X127586698Y-28074827D01*
X127586689Y-28074829D01*
X127450249Y-28114136D01*
X127446884Y-28115004D01*
X127413435Y-28122639D01*
X127413425Y-28122642D01*
X127381046Y-28133971D01*
X127377736Y-28135025D01*
X127241279Y-28174340D01*
X127241264Y-28174345D01*
X127110074Y-28228686D01*
X127106825Y-28229926D01*
X127074448Y-28241255D01*
X127043529Y-28256143D01*
X127040358Y-28257562D01*
X126909168Y-28311905D01*
X126909163Y-28311907D01*
X126784878Y-28380597D01*
X126781789Y-28382193D01*
X126750886Y-28397075D01*
X126750874Y-28397081D01*
X126721845Y-28415322D01*
X126718850Y-28417088D01*
X126594549Y-28485787D01*
X126594541Y-28485792D01*
X126478721Y-28567971D01*
X126475831Y-28569902D01*
X126446789Y-28588151D01*
X126446788Y-28588152D01*
X126419972Y-28609537D01*
X126417194Y-28611628D01*
X126301372Y-28693809D01*
X126195498Y-28788423D01*
X126192843Y-28790666D01*
X126166008Y-28812067D01*
X126141733Y-28836341D01*
X126139208Y-28838727D01*
X126033339Y-28933339D01*
X125938727Y-29039208D01*
X125936341Y-29041733D01*
X125912067Y-29066008D01*
X125890666Y-29092843D01*
X125888423Y-29095498D01*
X125793809Y-29201372D01*
X125711628Y-29317194D01*
X125709537Y-29319972D01*
X125688152Y-29346788D01*
X125688151Y-29346789D01*
X125669902Y-29375831D01*
X125667971Y-29378721D01*
X125585792Y-29494541D01*
X125585787Y-29494549D01*
X125517088Y-29618850D01*
X125515322Y-29621845D01*
X125497081Y-29650874D01*
X125497075Y-29650886D01*
X125482193Y-29681789D01*
X125480597Y-29684878D01*
X125411907Y-29809163D01*
X125411905Y-29809168D01*
X125357562Y-29940358D01*
X125356143Y-29943529D01*
X125341255Y-29974448D01*
X125329926Y-30006825D01*
X125328686Y-30010074D01*
X125274345Y-30141264D01*
X125274340Y-30141279D01*
X125235025Y-30277736D01*
X125233971Y-30281046D01*
X125222642Y-30313425D01*
X125222639Y-30313435D01*
X125215004Y-30346884D01*
X125214136Y-30350249D01*
X125174829Y-30486689D01*
X125174827Y-30486698D01*
X125174827Y-30486700D01*
X125174599Y-30488044D01*
X125151041Y-30626687D01*
X125150363Y-30630096D01*
X125142728Y-30663548D01*
X125142725Y-30663566D01*
X125138884Y-30697655D01*
X125138398Y-30701098D01*
X125114614Y-30841082D01*
X125114612Y-30841098D01*
X125106649Y-30982881D01*
X125106357Y-30986347D01*
X125102517Y-31020424D01*
X125102517Y-31054737D01*
X125102419Y-31058214D01*
X125095693Y-31177989D01*
X125094457Y-31200000D01*
X125095255Y-31214222D01*
X125102419Y-31341784D01*
X125102517Y-31345261D01*
X125102517Y-31379572D01*
X125106357Y-31413651D01*
X125106649Y-31417116D01*
X125114612Y-31558901D01*
X125114614Y-31558917D01*
X125138398Y-31698902D01*
X125138884Y-31702345D01*
X125142725Y-31736432D01*
X125150360Y-31769888D01*
X125151039Y-31773297D01*
X125171137Y-31891585D01*
X125174827Y-31913298D01*
X125174828Y-31913305D01*
X125214137Y-32049752D01*
X125215006Y-32053119D01*
X125222641Y-32086571D01*
X125233967Y-32118939D01*
X125235023Y-32122252D01*
X125255720Y-32194090D01*
X125274341Y-32258724D01*
X125308046Y-32340094D01*
X125328682Y-32389914D01*
X125329922Y-32393163D01*
X125341253Y-32425547D01*
X125356140Y-32456460D01*
X125357559Y-32459633D01*
X125411908Y-32590837D01*
X125480600Y-32715127D01*
X125482196Y-32718216D01*
X125488595Y-32731503D01*
X125497079Y-32749120D01*
X125515334Y-32778174D01*
X125517090Y-32781151D01*
X125585789Y-32905452D01*
X125667967Y-33021272D01*
X125669898Y-33024163D01*
X125688144Y-33053200D01*
X125688153Y-33053212D01*
X125709541Y-33080033D01*
X125711632Y-33082811D01*
X125793805Y-33198622D01*
X125888427Y-33304504D01*
X125890671Y-33307162D01*
X125912059Y-33333982D01*
X125912061Y-33333985D01*
X125912064Y-33333988D01*
X125912065Y-33333989D01*
X125936338Y-33358262D01*
X125938710Y-33360772D01*
X126017856Y-33449336D01*
X126033339Y-33466661D01*
X126128888Y-33552049D01*
X126139226Y-33561287D01*
X126141753Y-33563677D01*
X126166011Y-33587935D01*
X126181650Y-33600407D01*
X126192836Y-33609327D01*
X126195487Y-33611565D01*
X126301377Y-33706194D01*
X126417192Y-33788369D01*
X126419958Y-33790451D01*
X126446794Y-33811852D01*
X126475851Y-33830110D01*
X126478729Y-33832033D01*
X126589748Y-33910805D01*
X126594547Y-33914210D01*
X126594549Y-33914212D01*
X126614636Y-33925313D01*
X126718886Y-33982930D01*
X126721800Y-33984649D01*
X126750880Y-34002921D01*
X126781811Y-34017817D01*
X126784864Y-34019394D01*
X126909167Y-34088094D01*
X127040372Y-34142441D01*
X127043518Y-34143849D01*
X127074448Y-34158744D01*
X127106855Y-34170084D01*
X127110045Y-34171301D01*
X127241276Y-34225659D01*
X127288327Y-34239214D01*
X127377730Y-34264971D01*
X127381044Y-34266027D01*
X127390565Y-34269358D01*
X127413428Y-34277358D01*
X127446915Y-34285001D01*
X127450219Y-34285854D01*
X127586700Y-34325173D01*
X127726722Y-34348963D01*
X127730085Y-34349633D01*
X127763558Y-34357273D01*
X127797702Y-34361120D01*
X127801069Y-34361596D01*
X127941093Y-34385387D01*
X128082922Y-34393352D01*
X128086270Y-34393633D01*
X128120433Y-34397483D01*
X128120435Y-34397483D01*
X128154738Y-34397483D01*
X128158215Y-34397581D01*
X128209102Y-34400438D01*
X128300000Y-34405543D01*
X128390897Y-34400438D01*
X128441785Y-34397581D01*
X128445262Y-34397483D01*
X128479565Y-34397483D01*
X128479567Y-34397483D01*
X128513729Y-34393633D01*
X128517077Y-34393352D01*
X128658907Y-34385387D01*
X128798940Y-34361594D01*
X128802292Y-34361120D01*
X128836442Y-34357273D01*
X128869955Y-34349623D01*
X128873249Y-34348968D01*
X129013300Y-34325173D01*
X129149768Y-34285857D01*
X129153112Y-34284994D01*
X129186572Y-34277358D01*
X129218982Y-34266017D01*
X129222242Y-34264978D01*
X129358724Y-34225659D01*
X129489984Y-34171288D01*
X129493125Y-34170090D01*
X129525552Y-34158744D01*
X129556500Y-34143839D01*
X129559621Y-34142444D01*
X129690833Y-34088094D01*
X129815153Y-34019384D01*
X129818184Y-34017818D01*
X129849120Y-34002921D01*
X129878218Y-33984637D01*
X129881087Y-33982944D01*
X129897878Y-33973664D01*
X129966069Y-33958468D01*
X130031656Y-33982552D01*
X130073811Y-34038272D01*
X130079149Y-34107938D01*
X130045976Y-34169430D01*
X130045532Y-34169876D01*
X126777228Y-37438181D01*
X126715905Y-37471666D01*
X126689547Y-37474500D01*
X125798748Y-37474500D01*
X125731709Y-37454815D01*
X125706600Y-37433474D01*
X125700873Y-37427114D01*
X125700869Y-37427110D01*
X125547734Y-37315851D01*
X125547729Y-37315848D01*
X125374807Y-37238857D01*
X125374802Y-37238855D01*
X125213602Y-37204592D01*
X125189646Y-37199500D01*
X125000354Y-37199500D01*
X124976398Y-37204592D01*
X124815197Y-37238855D01*
X124815192Y-37238857D01*
X124642270Y-37315848D01*
X124642265Y-37315851D01*
X124489129Y-37427111D01*
X124362466Y-37567785D01*
X124267821Y-37731715D01*
X124267818Y-37731722D01*
X124209327Y-37911740D01*
X124209326Y-37911744D01*
X124189540Y-38100000D01*
X124192434Y-38127540D01*
X124179866Y-38196267D01*
X124132134Y-38247292D01*
X124069114Y-38264500D01*
X121712292Y-38264500D01*
X121645253Y-38244815D01*
X121599498Y-38192011D01*
X121589554Y-38122853D01*
X121589918Y-38121076D01*
X121590687Y-38115236D01*
X121605500Y-38002720D01*
X121605500Y-37777280D01*
X121590687Y-37664764D01*
X121589192Y-37661155D01*
X121588838Y-37657867D01*
X121588583Y-37656913D01*
X121588731Y-37656873D01*
X121581720Y-37591692D01*
X121612990Y-37529211D01*
X121616042Y-37526047D01*
X121668788Y-37473301D01*
X121681042Y-37463486D01*
X121680859Y-37463264D01*
X121686866Y-37458292D01*
X121686877Y-37458286D01*
X121724109Y-37418638D01*
X121734227Y-37407864D01*
X121744671Y-37397418D01*
X121755120Y-37386971D01*
X121759379Y-37381478D01*
X121763152Y-37377061D01*
X121795062Y-37343082D01*
X121804715Y-37325520D01*
X121815389Y-37309270D01*
X121827673Y-37293436D01*
X121846176Y-37250675D01*
X121848745Y-37245431D01*
X121851646Y-37240154D01*
X121901189Y-37190886D01*
X121921300Y-37182181D01*
X122079334Y-37129814D01*
X122228656Y-37037712D01*
X122352712Y-36913656D01*
X122444814Y-36764334D01*
X122499999Y-36597797D01*
X122510500Y-36495009D01*
X122510499Y-35894992D01*
X122503524Y-35826715D01*
X122499999Y-35792203D01*
X122499998Y-35792200D01*
X122483130Y-35741296D01*
X122444814Y-35625666D01*
X122352712Y-35476344D01*
X122228656Y-35352288D01*
X122225342Y-35350243D01*
X122223546Y-35348248D01*
X122222989Y-35347807D01*
X122223064Y-35347711D01*
X122178618Y-35298297D01*
X122167397Y-35229334D01*
X122195240Y-35165252D01*
X122225348Y-35139165D01*
X122228342Y-35137318D01*
X122352315Y-35013345D01*
X122444356Y-34864124D01*
X122444358Y-34864119D01*
X122499505Y-34697697D01*
X122499506Y-34697690D01*
X122509999Y-34594986D01*
X122510000Y-34594973D01*
X122510000Y-34545000D01*
X121159000Y-34545000D01*
X121091961Y-34525315D01*
X121046206Y-34472511D01*
X121035000Y-34421000D01*
X121035000Y-33295000D01*
X121535000Y-33295000D01*
X121535000Y-34045000D01*
X122509999Y-34045000D01*
X122509999Y-33995028D01*
X122509998Y-33995013D01*
X122499505Y-33892302D01*
X122444358Y-33725880D01*
X122444356Y-33725875D01*
X122352315Y-33576654D01*
X122228345Y-33452684D01*
X122079124Y-33360643D01*
X122079119Y-33360641D01*
X121912697Y-33305494D01*
X121912690Y-33305493D01*
X121809986Y-33295000D01*
X121535000Y-33295000D01*
X121035000Y-33295000D01*
X120760029Y-33295000D01*
X120760012Y-33295001D01*
X120657302Y-33305494D01*
X120490880Y-33360641D01*
X120490875Y-33360643D01*
X120341654Y-33452684D01*
X120217684Y-33576654D01*
X120125643Y-33725875D01*
X120125642Y-33725878D01*
X120083398Y-33853361D01*
X120043625Y-33910805D01*
X119979109Y-33937628D01*
X119910333Y-33925313D01*
X119870144Y-33893392D01*
X119865788Y-33888126D01*
X119865786Y-33888123D01*
X119815364Y-33840773D01*
X119804701Y-33830110D01*
X119794475Y-33819883D01*
X119788986Y-33815625D01*
X119784561Y-33811847D01*
X119750582Y-33779938D01*
X119750580Y-33779936D01*
X119750577Y-33779935D01*
X119733029Y-33770288D01*
X119716763Y-33759604D01*
X119700933Y-33747325D01*
X119658170Y-33728819D01*
X119652925Y-33726250D01*
X119640041Y-33719167D01*
X119590774Y-33669624D01*
X119576113Y-33601310D01*
X119590414Y-33552049D01*
X119628188Y-33481379D01*
X119663814Y-33414727D01*
X119721024Y-33226132D01*
X119740341Y-33030000D01*
X119721024Y-32833868D01*
X119663814Y-32645273D01*
X119570910Y-32471462D01*
X119570906Y-32471457D01*
X119567526Y-32466399D01*
X119569044Y-32465384D01*
X119545081Y-32408962D01*
X119556872Y-32340094D01*
X119567492Y-32323574D01*
X119567111Y-32323320D01*
X119570497Y-32318252D01*
X119663347Y-32144541D01*
X119704160Y-32010000D01*
X118949483Y-32010000D01*
X119020801Y-31925007D01*
X119060000Y-31817306D01*
X119060000Y-31702694D01*
X119020801Y-31594993D01*
X118947129Y-31507195D01*
X118847871Y-31449888D01*
X118763436Y-31435000D01*
X118706564Y-31435000D01*
X118622129Y-31449888D01*
X118522871Y-31507195D01*
X118449199Y-31594993D01*
X118410000Y-31702694D01*
X118410000Y-31817306D01*
X118449199Y-31925007D01*
X118520517Y-32010000D01*
X117679483Y-32010000D01*
X117750801Y-31925007D01*
X117790000Y-31817306D01*
X117790000Y-31702694D01*
X117750801Y-31594993D01*
X117679483Y-31510000D01*
X117715000Y-31510000D01*
X118485000Y-31510000D01*
X118485000Y-30790839D01*
X118985000Y-30790839D01*
X118985000Y-31510000D01*
X119704160Y-31510000D01*
X119704160Y-31509999D01*
X119663347Y-31375458D01*
X119570496Y-31201746D01*
X119570492Y-31201739D01*
X119445528Y-31049471D01*
X119293260Y-30924507D01*
X119293253Y-30924503D01*
X119119541Y-30831652D01*
X118985000Y-30790839D01*
X118485000Y-30790839D01*
X118484999Y-30790839D01*
X118350458Y-30831652D01*
X118176746Y-30924503D01*
X118171678Y-30927890D01*
X118170641Y-30926338D01*
X118114339Y-30950242D01*
X118045473Y-30938442D01*
X118028541Y-30927560D01*
X118028322Y-30927890D01*
X118023253Y-30924503D01*
X117849541Y-30831652D01*
X117715000Y-30790839D01*
X117715000Y-31510000D01*
X117679483Y-31510000D01*
X117677129Y-31507195D01*
X117577871Y-31449888D01*
X117493436Y-31435000D01*
X117436564Y-31435000D01*
X117352129Y-31449888D01*
X117252871Y-31507195D01*
X117215000Y-31552327D01*
X117215000Y-30790839D01*
X117080458Y-30831652D01*
X116906742Y-30924505D01*
X116901673Y-30927893D01*
X116900556Y-30926221D01*
X116844715Y-30949921D01*
X116775851Y-30938111D01*
X116758811Y-30927158D01*
X116758601Y-30927473D01*
X116753532Y-30924086D01*
X116579733Y-30831188D01*
X116579727Y-30831186D01*
X116391132Y-30773976D01*
X116391129Y-30773975D01*
X116195000Y-30754659D01*
X115998870Y-30773975D01*
X115810266Y-30831188D01*
X115636467Y-30924086D01*
X115631399Y-30927473D01*
X115630386Y-30925958D01*
X115573936Y-30949920D01*
X115505071Y-30938115D01*
X115488574Y-30927511D01*
X115488322Y-30927890D01*
X115483253Y-30924503D01*
X115309541Y-30831652D01*
X115175000Y-30790839D01*
X115175000Y-31552327D01*
X115137129Y-31507195D01*
X115037871Y-31449888D01*
X114953436Y-31435000D01*
X114896564Y-31435000D01*
X114812129Y-31449888D01*
X114712871Y-31507195D01*
X114675000Y-31552327D01*
X114675000Y-30790839D01*
X114540464Y-30831650D01*
X114538586Y-30832655D01*
X114537486Y-30832883D01*
X114534838Y-30833981D01*
X114534629Y-30833478D01*
X114470183Y-30846895D01*
X114405824Y-30822561D01*
X114397335Y-30816206D01*
X114397328Y-30816202D01*
X114262482Y-30765908D01*
X114262483Y-30765908D01*
X114202883Y-30759501D01*
X114202881Y-30759500D01*
X114202873Y-30759500D01*
X114202864Y-30759500D01*
X113107129Y-30759500D01*
X113107123Y-30759501D01*
X113047516Y-30765908D01*
X112912671Y-30816202D01*
X112912664Y-30816206D01*
X112797455Y-30902452D01*
X112797452Y-30902455D01*
X112711206Y-31017664D01*
X112711202Y-31017671D01*
X112660908Y-31152517D01*
X112654501Y-31212116D01*
X112654500Y-31212135D01*
X112654500Y-31824546D01*
X112634815Y-31891585D01*
X112618181Y-31912227D01*
X111691208Y-32839199D01*
X111678951Y-32849020D01*
X111679134Y-32849241D01*
X111673123Y-32854213D01*
X111625772Y-32904636D01*
X111604889Y-32925519D01*
X111604877Y-32925532D01*
X111600621Y-32931017D01*
X111596837Y-32935447D01*
X111564937Y-32969418D01*
X111564936Y-32969420D01*
X111555284Y-32986976D01*
X111544610Y-33003226D01*
X111532329Y-33019061D01*
X111532324Y-33019068D01*
X111513815Y-33061838D01*
X111511245Y-33067084D01*
X111488803Y-33107906D01*
X111483822Y-33127307D01*
X111477521Y-33145710D01*
X111469562Y-33164102D01*
X111469561Y-33164105D01*
X111462271Y-33210127D01*
X111461087Y-33215846D01*
X111449501Y-33260972D01*
X111449500Y-33260982D01*
X111449500Y-33281016D01*
X111447973Y-33300413D01*
X111447144Y-33305651D01*
X111443619Y-33327903D01*
X111440742Y-33327447D01*
X111423232Y-33380797D01*
X111369010Y-33424863D01*
X111321083Y-33434500D01*
X110022743Y-33434500D01*
X110007122Y-33432775D01*
X110007096Y-33433061D01*
X109999334Y-33432327D01*
X109999333Y-33432327D01*
X109930186Y-33434500D01*
X109900649Y-33434500D01*
X109893766Y-33435369D01*
X109887949Y-33435826D01*
X109841373Y-33437290D01*
X109822129Y-33442881D01*
X109803079Y-33446825D01*
X109783211Y-33449334D01*
X109739884Y-33466488D01*
X109734358Y-33468379D01*
X109689614Y-33481379D01*
X109689610Y-33481381D01*
X109672366Y-33491579D01*
X109654905Y-33500133D01*
X109636274Y-33507510D01*
X109636262Y-33507517D01*
X109598570Y-33534902D01*
X109593687Y-33538109D01*
X109553580Y-33561829D01*
X109539414Y-33575995D01*
X109524624Y-33588627D01*
X109508414Y-33600404D01*
X109508411Y-33600407D01*
X109478710Y-33636309D01*
X109474777Y-33640631D01*
X108891208Y-34224199D01*
X108878951Y-34234020D01*
X108879134Y-34234241D01*
X108873123Y-34239213D01*
X108825772Y-34289636D01*
X108804889Y-34310519D01*
X108804877Y-34310532D01*
X108800621Y-34316017D01*
X108796837Y-34320447D01*
X108764937Y-34354418D01*
X108764936Y-34354420D01*
X108755284Y-34371976D01*
X108744610Y-34388226D01*
X108732329Y-34404061D01*
X108732324Y-34404068D01*
X108713815Y-34446838D01*
X108711245Y-34452084D01*
X108688803Y-34492906D01*
X108683822Y-34512307D01*
X108677521Y-34530710D01*
X108669562Y-34549102D01*
X108669561Y-34549105D01*
X108662271Y-34595127D01*
X108661087Y-34600846D01*
X108649501Y-34645972D01*
X108649500Y-34645982D01*
X108649500Y-34666016D01*
X108647973Y-34685413D01*
X108647249Y-34689983D01*
X108644840Y-34705194D01*
X108644840Y-34705195D01*
X108649225Y-34751583D01*
X108649500Y-34757421D01*
X108649500Y-36217560D01*
X108647775Y-36233177D01*
X108648061Y-36233204D01*
X108647326Y-36240970D01*
X108649500Y-36310119D01*
X108649500Y-36339648D01*
X108649501Y-36339665D01*
X108650368Y-36346536D01*
X108650826Y-36352355D01*
X108652290Y-36398929D01*
X108652291Y-36398932D01*
X108657880Y-36418172D01*
X108661824Y-36437216D01*
X108661976Y-36438413D01*
X108664336Y-36457096D01*
X108681490Y-36500424D01*
X108683382Y-36505952D01*
X108696381Y-36550693D01*
X108706580Y-36567939D01*
X108715136Y-36585405D01*
X108720043Y-36597796D01*
X108722514Y-36604037D01*
X108749898Y-36641728D01*
X108753106Y-36646612D01*
X108776827Y-36686721D01*
X108776833Y-36686729D01*
X108790990Y-36700885D01*
X108803628Y-36715681D01*
X108812008Y-36727216D01*
X108815406Y-36731892D01*
X108842229Y-36754082D01*
X108851309Y-36761593D01*
X108855620Y-36765515D01*
X109098385Y-37008280D01*
X109291389Y-37201284D01*
X109301212Y-37213545D01*
X109301434Y-37213363D01*
X109306406Y-37219373D01*
X109306409Y-37219377D01*
X109315905Y-37228294D01*
X109328973Y-37240566D01*
X109364367Y-37300807D01*
X109361573Y-37370621D01*
X109331769Y-37418638D01*
X108997226Y-37753182D01*
X108935905Y-37786666D01*
X108909547Y-37789500D01*
X108352743Y-37789500D01*
X108337122Y-37787775D01*
X108337095Y-37788061D01*
X108329333Y-37787326D01*
X108260172Y-37789500D01*
X108230649Y-37789500D01*
X108223778Y-37790367D01*
X108217959Y-37790825D01*
X108171374Y-37792289D01*
X108171368Y-37792290D01*
X108152126Y-37797880D01*
X108133087Y-37801823D01*
X108113217Y-37804334D01*
X108113203Y-37804337D01*
X108069883Y-37821488D01*
X108064358Y-37823380D01*
X108019613Y-37836380D01*
X108019610Y-37836381D01*
X108002366Y-37846579D01*
X107984905Y-37855133D01*
X107966274Y-37862510D01*
X107966262Y-37862517D01*
X107928570Y-37889902D01*
X107923687Y-37893109D01*
X107883580Y-37916829D01*
X107869414Y-37930995D01*
X107854624Y-37943627D01*
X107838414Y-37955404D01*
X107838411Y-37955407D01*
X107808710Y-37991309D01*
X107804777Y-37995631D01*
X107176208Y-38624199D01*
X107163951Y-38634020D01*
X107164134Y-38634241D01*
X107158123Y-38639213D01*
X107110772Y-38689636D01*
X107089889Y-38710519D01*
X107089877Y-38710532D01*
X107085621Y-38716017D01*
X107081837Y-38720447D01*
X107049937Y-38754418D01*
X107049936Y-38754420D01*
X107040284Y-38771976D01*
X107029610Y-38788226D01*
X107017329Y-38804061D01*
X107017324Y-38804068D01*
X106998815Y-38846838D01*
X106996245Y-38852084D01*
X106973803Y-38892906D01*
X106968822Y-38912307D01*
X106962521Y-38930710D01*
X106954562Y-38949102D01*
X106954561Y-38949105D01*
X106947271Y-38995127D01*
X106946087Y-39000846D01*
X106934501Y-39045972D01*
X106934500Y-39045982D01*
X106934500Y-39066016D01*
X106932973Y-39085415D01*
X106929840Y-39105194D01*
X106929840Y-39105195D01*
X106934225Y-39151583D01*
X106934500Y-39157421D01*
X106934500Y-42072255D01*
X106932775Y-42087872D01*
X106933061Y-42087899D01*
X106932326Y-42095665D01*
X106934500Y-42164814D01*
X106934500Y-42194343D01*
X106934501Y-42194360D01*
X106935368Y-42201231D01*
X106935826Y-42207050D01*
X106937290Y-42253624D01*
X106937291Y-42253627D01*
X106942880Y-42272867D01*
X106946824Y-42291911D01*
X106949336Y-42311791D01*
X106966490Y-42355119D01*
X106968382Y-42360647D01*
X106981381Y-42405388D01*
X106991580Y-42422634D01*
X107000138Y-42440103D01*
X107007514Y-42458732D01*
X107034898Y-42496423D01*
X107038106Y-42501307D01*
X107061827Y-42541416D01*
X107061833Y-42541424D01*
X107075990Y-42555580D01*
X107088628Y-42570376D01*
X107100405Y-42586586D01*
X107100406Y-42586587D01*
X107136309Y-42616288D01*
X107140620Y-42620210D01*
X109119557Y-44599148D01*
X109674197Y-45153788D01*
X109684022Y-45166051D01*
X109684243Y-45165869D01*
X109689214Y-45171878D01*
X109715217Y-45196295D01*
X109739635Y-45219226D01*
X109760529Y-45240120D01*
X109766011Y-45244373D01*
X109770443Y-45248157D01*
X109804418Y-45280062D01*
X109821976Y-45289714D01*
X109838235Y-45300395D01*
X109854064Y-45312673D01*
X109896838Y-45331182D01*
X109902056Y-45333738D01*
X109942908Y-45356197D01*
X109942915Y-45356198D01*
X109947863Y-45358158D01*
X110002949Y-45401137D01*
X110007757Y-45408355D01*
X110057285Y-45488652D01*
X110057288Y-45488656D01*
X110181344Y-45612712D01*
X110184628Y-45614737D01*
X110184653Y-45614753D01*
X110186445Y-45616746D01*
X110187011Y-45617193D01*
X110186934Y-45617289D01*
X110231379Y-45666699D01*
X110242603Y-45735661D01*
X110214761Y-45799744D01*
X110184665Y-45825826D01*
X110181660Y-45827679D01*
X110181655Y-45827683D01*
X110057684Y-45951654D01*
X109965643Y-46100875D01*
X109965641Y-46100880D01*
X109910494Y-46267302D01*
X109910493Y-46267309D01*
X109900000Y-46370013D01*
X109900000Y-46420000D01*
X112349999Y-46420000D01*
X112349999Y-46370028D01*
X112349998Y-46370013D01*
X112339505Y-46267302D01*
X112284358Y-46100880D01*
X112284356Y-46100875D01*
X112192315Y-45951654D01*
X112068344Y-45827683D01*
X112068341Y-45827681D01*
X112065339Y-45825829D01*
X112063713Y-45824021D01*
X112062677Y-45823202D01*
X112062817Y-45823024D01*
X112018617Y-45773880D01*
X112007397Y-45704917D01*
X112035243Y-45640836D01*
X112065344Y-45614754D01*
X112068656Y-45612712D01*
X112192712Y-45488656D01*
X112193233Y-45487810D01*
X112193795Y-45486901D01*
X112194849Y-45485952D01*
X112197193Y-45482989D01*
X112197699Y-45483389D01*
X112245744Y-45440177D01*
X112299332Y-45428000D01*
X112685918Y-45428000D01*
X112752957Y-45447685D01*
X112798712Y-45500489D01*
X112808857Y-45535815D01*
X112819313Y-45615236D01*
X112820061Y-45617042D01*
X112820823Y-45620873D01*
X112821417Y-45623090D01*
X112821271Y-45623128D01*
X112829500Y-45664495D01*
X112829500Y-47609755D01*
X112827775Y-47625372D01*
X112828061Y-47625399D01*
X112827326Y-47633165D01*
X112829500Y-47702314D01*
X112829500Y-47731843D01*
X112829501Y-47731860D01*
X112830368Y-47738731D01*
X112830826Y-47744550D01*
X112832290Y-47791124D01*
X112832291Y-47791127D01*
X112837880Y-47810367D01*
X112841824Y-47829411D01*
X112844336Y-47849292D01*
X112859535Y-47887681D01*
X112861490Y-47892619D01*
X112863382Y-47898147D01*
X112876381Y-47942888D01*
X112886580Y-47960134D01*
X112895138Y-47977603D01*
X112902514Y-47996232D01*
X112929898Y-48033923D01*
X112933106Y-48038807D01*
X112956827Y-48078916D01*
X112956833Y-48078924D01*
X112970989Y-48093079D01*
X112983625Y-48107872D01*
X112985815Y-48110886D01*
X113009297Y-48176692D01*
X113009500Y-48183776D01*
X113009500Y-48337047D01*
X112989815Y-48404086D01*
X112973181Y-48424728D01*
X111777228Y-49620681D01*
X111715905Y-49654166D01*
X111689547Y-49657000D01*
X106550237Y-49657000D01*
X106534620Y-49655276D01*
X106534593Y-49655562D01*
X106526831Y-49654827D01*
X106457703Y-49657000D01*
X106428150Y-49657000D01*
X106427429Y-49657090D01*
X106421257Y-49657869D01*
X106415445Y-49658326D01*
X106368878Y-49659790D01*
X106368867Y-49659792D01*
X106349634Y-49665379D01*
X106330594Y-49669322D01*
X106310717Y-49671834D01*
X106310710Y-49671835D01*
X106310708Y-49671836D01*
X106310706Y-49671836D01*
X106310705Y-49671837D01*
X106267368Y-49688994D01*
X106261842Y-49690886D01*
X106217111Y-49703882D01*
X106217108Y-49703883D01*
X106199863Y-49714081D01*
X106182401Y-49722635D01*
X106163772Y-49730011D01*
X106163767Y-49730013D01*
X106126064Y-49757406D01*
X106121182Y-49760612D01*
X106081080Y-49784328D01*
X106066908Y-49798500D01*
X106052123Y-49811128D01*
X106035912Y-49822907D01*
X106006209Y-49858810D01*
X106002277Y-49863131D01*
X102116208Y-53749199D01*
X102103951Y-53759020D01*
X102104134Y-53759241D01*
X102098123Y-53764213D01*
X102050772Y-53814636D01*
X102029889Y-53835519D01*
X102029877Y-53835532D01*
X102025621Y-53841017D01*
X102021837Y-53845447D01*
X101989934Y-53879421D01*
X101986323Y-53884392D01*
X101930989Y-53927053D01*
X101898625Y-53934855D01*
X101897213Y-53934999D01*
X101897201Y-53935001D01*
X101730668Y-53990185D01*
X101730663Y-53990187D01*
X101581342Y-54082289D01*
X101457289Y-54206342D01*
X101365187Y-54355663D01*
X101365186Y-54355666D01*
X101310001Y-54522203D01*
X101310001Y-54522204D01*
X101310000Y-54522204D01*
X101299500Y-54624983D01*
X101299500Y-55250001D01*
X101299501Y-55250019D01*
X101310000Y-55352796D01*
X101310001Y-55352799D01*
X101365185Y-55519331D01*
X101365187Y-55519336D01*
X101457289Y-55668657D01*
X101550951Y-55762319D01*
X101584436Y-55823642D01*
X101579452Y-55893334D01*
X101550951Y-55937681D01*
X101457289Y-56031342D01*
X101365187Y-56180663D01*
X101365185Y-56180668D01*
X101348617Y-56230668D01*
X101310001Y-56347203D01*
X101310001Y-56347204D01*
X101310000Y-56347204D01*
X101299500Y-56449983D01*
X101299500Y-57075001D01*
X101299501Y-57075019D01*
X101310000Y-57177796D01*
X101310001Y-57177799D01*
X101365185Y-57344331D01*
X101365186Y-57344334D01*
X101457288Y-57493656D01*
X101581344Y-57617712D01*
X101730666Y-57709814D01*
X101897203Y-57764999D01*
X101999991Y-57775500D01*
X102577046Y-57775499D01*
X102644085Y-57795183D01*
X102664727Y-57811818D01*
X102936697Y-58083788D01*
X102946522Y-58096051D01*
X102946743Y-58095869D01*
X102951714Y-58101878D01*
X102972543Y-58121437D01*
X103002135Y-58149226D01*
X103023029Y-58170120D01*
X103028511Y-58174373D01*
X103032943Y-58178157D01*
X103066918Y-58210062D01*
X103084476Y-58219714D01*
X103100735Y-58230395D01*
X103116564Y-58242673D01*
X103159338Y-58261182D01*
X103164556Y-58263738D01*
X103205408Y-58286197D01*
X103224816Y-58291180D01*
X103243217Y-58297480D01*
X103261604Y-58305437D01*
X103296419Y-58310951D01*
X103307619Y-58312725D01*
X103313339Y-58313909D01*
X103358481Y-58325500D01*
X103358487Y-58325500D01*
X103366224Y-58326478D01*
X103366044Y-58327896D01*
X103424924Y-58345185D01*
X103470679Y-58397989D01*
X103474067Y-58406167D01*
X103506202Y-58492328D01*
X103506206Y-58492335D01*
X103592452Y-58607544D01*
X103592455Y-58607547D01*
X103707664Y-58693793D01*
X103707671Y-58693797D01*
X103842517Y-58744091D01*
X103842516Y-58744091D01*
X103849444Y-58744835D01*
X103902127Y-58750500D01*
X105797872Y-58750499D01*
X105857483Y-58744091D01*
X105992331Y-58693796D01*
X106107546Y-58607546D01*
X106193796Y-58492331D01*
X106223389Y-58412988D01*
X106225934Y-58406166D01*
X106267806Y-58350233D01*
X106333270Y-58325816D01*
X106342116Y-58325500D01*
X109657885Y-58325500D01*
X109724924Y-58345185D01*
X109770679Y-58397989D01*
X109774067Y-58406167D01*
X109806202Y-58492328D01*
X109806206Y-58492335D01*
X109892452Y-58607544D01*
X109892455Y-58607547D01*
X110007664Y-58693793D01*
X110007671Y-58693797D01*
X110142517Y-58744091D01*
X110142516Y-58744091D01*
X110149444Y-58744835D01*
X110202127Y-58750500D01*
X111910647Y-58750499D01*
X111977686Y-58770184D01*
X112023441Y-58822987D01*
X112033385Y-58892146D01*
X112004360Y-58955702D01*
X111998328Y-58962180D01*
X109422326Y-61538181D01*
X109361003Y-61571666D01*
X109334645Y-61574500D01*
X108719998Y-61574500D01*
X108719980Y-61574501D01*
X108617203Y-61585000D01*
X108617200Y-61585001D01*
X108450668Y-61640185D01*
X108450663Y-61640187D01*
X108301342Y-61732289D01*
X108177289Y-61856342D01*
X108148451Y-61903097D01*
X108096503Y-61949821D01*
X108042912Y-61962000D01*
X107857088Y-61962000D01*
X107790049Y-61942315D01*
X107751549Y-61903097D01*
X107722712Y-61856344D01*
X107598656Y-61732288D01*
X107449334Y-61640186D01*
X107282797Y-61585001D01*
X107282795Y-61585000D01*
X107180010Y-61574500D01*
X106179998Y-61574500D01*
X106179980Y-61574501D01*
X106077203Y-61585000D01*
X106077200Y-61585001D01*
X105910668Y-61640185D01*
X105910663Y-61640187D01*
X105761342Y-61732289D01*
X105637289Y-61856342D01*
X105545187Y-62005663D01*
X105545186Y-62005666D01*
X105490001Y-62172203D01*
X105490001Y-62172204D01*
X105490000Y-62172204D01*
X105479500Y-62274983D01*
X105479500Y-62900001D01*
X105479501Y-62900019D01*
X105490000Y-63002796D01*
X105490001Y-63002799D01*
X105545185Y-63169331D01*
X105545187Y-63169336D01*
X105565891Y-63202903D01*
X105593866Y-63248258D01*
X105637289Y-63318657D01*
X105730951Y-63412319D01*
X105764436Y-63473642D01*
X105759452Y-63543334D01*
X105730951Y-63587681D01*
X105637289Y-63681342D01*
X105545187Y-63830663D01*
X105545185Y-63830668D01*
X105519617Y-63907828D01*
X105490001Y-63997203D01*
X105490001Y-63997204D01*
X105490000Y-63997204D01*
X105479500Y-64099983D01*
X105479500Y-64725001D01*
X105479501Y-64725019D01*
X105490000Y-64827796D01*
X105490001Y-64827799D01*
X105493049Y-64836996D01*
X105495451Y-64906824D01*
X105459719Y-64966866D01*
X105397199Y-64998059D01*
X105375343Y-65000000D01*
X100124500Y-65000000D01*
X100057461Y-64980315D01*
X100011706Y-64927511D01*
X100000500Y-64876000D01*
X100000500Y-46920000D01*
X109900001Y-46920000D01*
X109900001Y-46969986D01*
X109910494Y-47072697D01*
X109965641Y-47239119D01*
X109965643Y-47239124D01*
X110057684Y-47388345D01*
X110181654Y-47512315D01*
X110330875Y-47604356D01*
X110330880Y-47604358D01*
X110497302Y-47659505D01*
X110497309Y-47659506D01*
X110600019Y-47669999D01*
X110874999Y-47669999D01*
X110875000Y-47669998D01*
X110875000Y-46920000D01*
X111375000Y-46920000D01*
X111375000Y-47669999D01*
X111649972Y-47669999D01*
X111649986Y-47669998D01*
X111752697Y-47659505D01*
X111919119Y-47604358D01*
X111919124Y-47604356D01*
X112068345Y-47512315D01*
X112192315Y-47388345D01*
X112284356Y-47239124D01*
X112284358Y-47239119D01*
X112339505Y-47072697D01*
X112339506Y-47072690D01*
X112349999Y-46969986D01*
X112350000Y-46969973D01*
X112350000Y-46920000D01*
X111375000Y-46920000D01*
X110875000Y-46920000D01*
X109900001Y-46920000D01*
X100000500Y-46920000D01*
X100000500Y-32600000D01*
X101644341Y-32600000D01*
X101664936Y-32835403D01*
X101664938Y-32835413D01*
X101726094Y-33063655D01*
X101726096Y-33063659D01*
X101726097Y-33063663D01*
X101772933Y-33164102D01*
X101825964Y-33277828D01*
X101825965Y-33277830D01*
X101961505Y-33471402D01*
X102128597Y-33638494D01*
X102322169Y-33774034D01*
X102322171Y-33774035D01*
X102536337Y-33873903D01*
X102764592Y-33935063D01*
X102941034Y-33950500D01*
X103058966Y-33950500D01*
X103235408Y-33935063D01*
X103463663Y-33873903D01*
X103677829Y-33774035D01*
X103871401Y-33638495D01*
X104038495Y-33471401D01*
X104174035Y-33277830D01*
X104273903Y-33063663D01*
X104335063Y-32835408D01*
X104355659Y-32600000D01*
X104335063Y-32364592D01*
X104273903Y-32136337D01*
X104174035Y-31922171D01*
X104174034Y-31922169D01*
X104038494Y-31728597D01*
X103871402Y-31561505D01*
X103677830Y-31425965D01*
X103677828Y-31425964D01*
X103569120Y-31375273D01*
X103463663Y-31326097D01*
X103463659Y-31326096D01*
X103463655Y-31326094D01*
X103235413Y-31264938D01*
X103235403Y-31264936D01*
X103058966Y-31249500D01*
X102941034Y-31249500D01*
X102764596Y-31264936D01*
X102764586Y-31264938D01*
X102536344Y-31326094D01*
X102536335Y-31326098D01*
X102322171Y-31425964D01*
X102322169Y-31425965D01*
X102128597Y-31561505D01*
X101961506Y-31728597D01*
X101961501Y-31728604D01*
X101825967Y-31922165D01*
X101825965Y-31922169D01*
X101726098Y-32136335D01*
X101726094Y-32136344D01*
X101664938Y-32364586D01*
X101664936Y-32364596D01*
X101644341Y-32599999D01*
X101644341Y-32600000D01*
X100000500Y-32600000D01*
X100000500Y-30110049D01*
X100020185Y-30043010D01*
X100072989Y-29997255D01*
X100109275Y-29986988D01*
X128284783Y-26502385D01*
X128315217Y-26502385D01*
X156490722Y-29986987D01*
G37*
%TD.AperFunction*%
%TA.AperFunction,Conductor*%
G36*
X113914835Y-59855148D02*
G01*
X113972359Y-59968045D01*
X114061955Y-60057641D01*
X114174852Y-60115165D01*
X114255599Y-60127953D01*
X113569351Y-60814200D01*
X113559505Y-60863194D01*
X113510889Y-60913376D01*
X113455367Y-60928048D01*
X113455423Y-60929099D01*
X113455429Y-60929146D01*
X113455426Y-60929146D01*
X113455436Y-60929324D01*
X113452123Y-60929501D01*
X113392516Y-60935908D01*
X113257671Y-60986202D01*
X113257664Y-60986206D01*
X113142455Y-61072452D01*
X113142452Y-61072455D01*
X113056206Y-61187664D01*
X113056202Y-61187671D01*
X113005908Y-61322517D01*
X112999501Y-61382116D01*
X112999501Y-61382123D01*
X112999500Y-61382135D01*
X112999500Y-63077870D01*
X112999501Y-63077876D01*
X113005908Y-63137483D01*
X113056202Y-63272328D01*
X113056206Y-63272335D01*
X113142452Y-63387544D01*
X113142455Y-63387547D01*
X113257664Y-63473793D01*
X113257671Y-63473797D01*
X113392517Y-63524091D01*
X113392516Y-63524091D01*
X113399444Y-63524835D01*
X113452127Y-63530500D01*
X114664546Y-63530499D01*
X114731585Y-63550184D01*
X114752227Y-63566818D01*
X115869197Y-64683788D01*
X115879022Y-64696051D01*
X115879243Y-64695869D01*
X115884214Y-64701878D01*
X115905043Y-64721437D01*
X115934635Y-64749226D01*
X115945003Y-64759594D01*
X115955524Y-64770116D01*
X115955528Y-64770119D01*
X115955529Y-64770120D01*
X115961009Y-64774371D01*
X115965436Y-64778151D01*
X115972783Y-64785050D01*
X115973379Y-64785610D01*
X116008772Y-64845852D01*
X116005977Y-64915666D01*
X115965882Y-64972886D01*
X115901216Y-64999346D01*
X115888493Y-65000000D01*
X110524656Y-65000000D01*
X110457617Y-64980315D01*
X110411862Y-64927511D01*
X110401918Y-64858353D01*
X110406949Y-64837000D01*
X110409999Y-64827797D01*
X110420500Y-64725009D01*
X110420499Y-64099992D01*
X110409999Y-63997203D01*
X110354814Y-63830666D01*
X110262712Y-63681344D01*
X110169049Y-63587681D01*
X110135564Y-63526358D01*
X110140548Y-63456666D01*
X110169049Y-63412319D01*
X110193824Y-63387544D01*
X110262712Y-63318656D01*
X110354814Y-63169334D01*
X110409999Y-63002797D01*
X110420500Y-62900009D01*
X110420499Y-62360551D01*
X110440183Y-62293513D01*
X110456813Y-62272876D01*
X112811901Y-59917788D01*
X112873220Y-59884306D01*
X112942912Y-59889290D01*
X112998845Y-59931162D01*
X113019353Y-59973378D01*
X113073731Y-60176319D01*
X113073734Y-60176326D01*
X113169865Y-60382481D01*
X113169866Y-60382483D01*
X113220973Y-60455471D01*
X113220973Y-60455472D01*
X113902046Y-59774400D01*
X113914835Y-59855148D01*
G37*
%TD.AperFunction*%
%TA.AperFunction,Conductor*%
G36*
X122027837Y-48645185D02*
G01*
X122048479Y-48661819D01*
X125076345Y-51689686D01*
X125109830Y-51751009D01*
X125107742Y-51811955D01*
X125106154Y-51817421D01*
X125106151Y-51817437D01*
X125103250Y-51854304D01*
X125103250Y-52095500D01*
X125083565Y-52162539D01*
X125030761Y-52208294D01*
X124979250Y-52219500D01*
X124601702Y-52219500D01*
X124534663Y-52199815D01*
X124514021Y-52183181D01*
X124017053Y-51686212D01*
X124007230Y-51673950D01*
X124007009Y-51674134D01*
X124002036Y-51668123D01*
X124001056Y-51667203D01*
X123951614Y-51620773D01*
X123941169Y-51610328D01*
X123930725Y-51599883D01*
X123925236Y-51595625D01*
X123920811Y-51591847D01*
X123886832Y-51559938D01*
X123886830Y-51559936D01*
X123886827Y-51559935D01*
X123869279Y-51550288D01*
X123853013Y-51539604D01*
X123837183Y-51527325D01*
X123794418Y-51508818D01*
X123789172Y-51506248D01*
X123748343Y-51483803D01*
X123748342Y-51483802D01*
X123728943Y-51478822D01*
X123710531Y-51472518D01*
X123692148Y-51464562D01*
X123692142Y-51464560D01*
X123646124Y-51457272D01*
X123640402Y-51456087D01*
X123595271Y-51444500D01*
X123595269Y-51444500D01*
X123575234Y-51444500D01*
X123555836Y-51442973D01*
X123548412Y-51441797D01*
X123536055Y-51439840D01*
X123536054Y-51439840D01*
X123489666Y-51444225D01*
X123483828Y-51444500D01*
X122788128Y-51444500D01*
X122721089Y-51424815D01*
X122682589Y-51385597D01*
X122674209Y-51372011D01*
X122661462Y-51351344D01*
X122537406Y-51227288D01*
X122388084Y-51135186D01*
X122221547Y-51080001D01*
X122221545Y-51080000D01*
X122118766Y-51069500D01*
X122118759Y-51069500D01*
X121514401Y-51069500D01*
X121447362Y-51049815D01*
X121438406Y-51043483D01*
X121404686Y-51017327D01*
X121404684Y-51017326D01*
X121259649Y-50954562D01*
X121259644Y-50954561D01*
X121103557Y-50929840D01*
X121103556Y-50929840D01*
X121103554Y-50929840D01*
X120946217Y-50944713D01*
X120946214Y-50944713D01*
X120946214Y-50944714D01*
X120946209Y-50944715D01*
X120797527Y-50998243D01*
X120797519Y-50998247D01*
X120666815Y-51087073D01*
X120666806Y-51087081D01*
X120562302Y-51205618D01*
X120562301Y-51205620D01*
X120490550Y-51346438D01*
X120490549Y-51346441D01*
X120473203Y-51424043D01*
X120457730Y-51462086D01*
X120433938Y-51500661D01*
X120433936Y-51500664D01*
X120433936Y-51500666D01*
X120378751Y-51667203D01*
X120378751Y-51667204D01*
X120378750Y-51667204D01*
X120368250Y-51769983D01*
X120368250Y-52370001D01*
X120368251Y-52370019D01*
X120378750Y-52472796D01*
X120378751Y-52472799D01*
X120433935Y-52639331D01*
X120433936Y-52639334D01*
X120526038Y-52788656D01*
X120650094Y-52912712D01*
X120653378Y-52914737D01*
X120653403Y-52914753D01*
X120655195Y-52916746D01*
X120655761Y-52917193D01*
X120655684Y-52917289D01*
X120700129Y-52966699D01*
X120711353Y-53035661D01*
X120683511Y-53099744D01*
X120653415Y-53125826D01*
X120650410Y-53127679D01*
X120650405Y-53127683D01*
X120526434Y-53251654D01*
X120434393Y-53400875D01*
X120434391Y-53400880D01*
X120379244Y-53567302D01*
X120379243Y-53567309D01*
X120368750Y-53670013D01*
X120368750Y-53720000D01*
X122818749Y-53720000D01*
X122818749Y-53670028D01*
X122818748Y-53670013D01*
X122808255Y-53567302D01*
X122753108Y-53400880D01*
X122753106Y-53400875D01*
X122661065Y-53251654D01*
X122537094Y-53127683D01*
X122537091Y-53127681D01*
X122534089Y-53125829D01*
X122532463Y-53124021D01*
X122531427Y-53123202D01*
X122531567Y-53123024D01*
X122487367Y-53073880D01*
X122476147Y-53004917D01*
X122503993Y-52940836D01*
X122534094Y-52914754D01*
X122537406Y-52912712D01*
X122661462Y-52788656D01*
X122682589Y-52754402D01*
X122734537Y-52707679D01*
X122788128Y-52695500D01*
X123104250Y-52695500D01*
X123171289Y-52715185D01*
X123217044Y-52767989D01*
X123228250Y-52819500D01*
X123228250Y-53235696D01*
X123231151Y-53272567D01*
X123231152Y-53272573D01*
X123277004Y-53430393D01*
X123277005Y-53430396D01*
X123277006Y-53430398D01*
X123299905Y-53469119D01*
X123304198Y-53476377D01*
X123320916Y-53527828D01*
X123324225Y-53562832D01*
X123324500Y-53568671D01*
X123324500Y-62082201D01*
X123304815Y-62149240D01*
X123271623Y-62183776D01*
X123135377Y-62279175D01*
X122979175Y-62435377D01*
X122852466Y-62616338D01*
X122852465Y-62616340D01*
X122759107Y-62816548D01*
X122759104Y-62816554D01*
X122701930Y-63029929D01*
X122701929Y-63029937D01*
X122684192Y-63232685D01*
X122682677Y-63250000D01*
X122701930Y-63470068D01*
X122709950Y-63500000D01*
X122713707Y-63514019D01*
X122712044Y-63583869D01*
X122681623Y-63633784D01*
X122677237Y-63638171D01*
X122615918Y-63671663D01*
X122589546Y-63674500D01*
X121467799Y-63674500D01*
X121400760Y-63654815D01*
X121366224Y-63621623D01*
X121270827Y-63485381D01*
X121197765Y-63412319D01*
X121114620Y-63329174D01*
X121114616Y-63329171D01*
X121114615Y-63329170D01*
X120933666Y-63202468D01*
X120933662Y-63202466D01*
X120862614Y-63169336D01*
X120733450Y-63109106D01*
X120733447Y-63109105D01*
X120733445Y-63109104D01*
X120520070Y-63051930D01*
X120520062Y-63051929D01*
X120300002Y-63032677D01*
X120299998Y-63032677D01*
X120079937Y-63051929D01*
X120079929Y-63051930D01*
X119866554Y-63109104D01*
X119866548Y-63109107D01*
X119666340Y-63202465D01*
X119666338Y-63202466D01*
X119485377Y-63329175D01*
X119329175Y-63485377D01*
X119233776Y-63621623D01*
X119179199Y-63665248D01*
X119132201Y-63674500D01*
X116680452Y-63674500D01*
X116613413Y-63654815D01*
X116592771Y-63638181D01*
X115636818Y-62682228D01*
X115603333Y-62620905D01*
X115600499Y-62594547D01*
X115600499Y-61382129D01*
X115600498Y-61382123D01*
X115600497Y-61382116D01*
X115594091Y-61322517D01*
X115543796Y-61187669D01*
X115543795Y-61187668D01*
X115543793Y-61187664D01*
X115457547Y-61072455D01*
X115457544Y-61072452D01*
X115342335Y-60986206D01*
X115342328Y-60986202D01*
X115207482Y-60935908D01*
X115207483Y-60935908D01*
X115147883Y-60929501D01*
X115147881Y-60929500D01*
X115147873Y-60929500D01*
X115147864Y-60929500D01*
X115144548Y-60929322D01*
X115144627Y-60927847D01*
X115083215Y-60909815D01*
X115037460Y-60857011D01*
X115029969Y-60813522D01*
X114344401Y-60127953D01*
X114425148Y-60115165D01*
X114538045Y-60057641D01*
X114627641Y-59968045D01*
X114685165Y-59855148D01*
X114697953Y-59774400D01*
X115379025Y-60455472D01*
X115430136Y-60382478D01*
X115526264Y-60176331D01*
X115526269Y-60176317D01*
X115585139Y-59956610D01*
X115585141Y-59956599D01*
X115604966Y-59730002D01*
X115604966Y-59729997D01*
X115585141Y-59503400D01*
X115585139Y-59503389D01*
X115526269Y-59283682D01*
X115526265Y-59283673D01*
X115430133Y-59077516D01*
X115430131Y-59077512D01*
X115379026Y-59004526D01*
X115379025Y-59004526D01*
X114697953Y-59685598D01*
X114685165Y-59604852D01*
X114627641Y-59491955D01*
X114538045Y-59402359D01*
X114425148Y-59344835D01*
X114344400Y-59332046D01*
X115025472Y-58650974D01*
X115025471Y-58650973D01*
X114952483Y-58599866D01*
X114952481Y-58599865D01*
X114746326Y-58503734D01*
X114746319Y-58503731D01*
X114543378Y-58449353D01*
X114483718Y-58412988D01*
X114453189Y-58350141D01*
X114461484Y-58280765D01*
X114487786Y-58241903D01*
X118509689Y-54220000D01*
X120368751Y-54220000D01*
X120368751Y-54269986D01*
X120379244Y-54372697D01*
X120434391Y-54539119D01*
X120434393Y-54539124D01*
X120526434Y-54688345D01*
X120650404Y-54812315D01*
X120799625Y-54904356D01*
X120799630Y-54904358D01*
X120966052Y-54959505D01*
X120966059Y-54959506D01*
X121068769Y-54969999D01*
X121343749Y-54969999D01*
X121343750Y-54969998D01*
X121343750Y-54220000D01*
X121843750Y-54220000D01*
X121843750Y-54969999D01*
X122118722Y-54969999D01*
X122118736Y-54969998D01*
X122221447Y-54959505D01*
X122387869Y-54904358D01*
X122387874Y-54904356D01*
X122537095Y-54812315D01*
X122661065Y-54688345D01*
X122753106Y-54539124D01*
X122753108Y-54539119D01*
X122808255Y-54372697D01*
X122808256Y-54372690D01*
X122818749Y-54269986D01*
X122818750Y-54269973D01*
X122818750Y-54220000D01*
X121843750Y-54220000D01*
X121343750Y-54220000D01*
X120368751Y-54220000D01*
X118509689Y-54220000D01*
X118838788Y-53890901D01*
X118851042Y-53881086D01*
X118850859Y-53880864D01*
X118856866Y-53875892D01*
X118856877Y-53875886D01*
X118894772Y-53835532D01*
X118904227Y-53825464D01*
X118914671Y-53815018D01*
X118925120Y-53804571D01*
X118929379Y-53799078D01*
X118933152Y-53794661D01*
X118965062Y-53760682D01*
X118974715Y-53743120D01*
X118985389Y-53726870D01*
X118997673Y-53711036D01*
X119016180Y-53668267D01*
X119018749Y-53663024D01*
X119041196Y-53622193D01*
X119041197Y-53622192D01*
X119046177Y-53602791D01*
X119052478Y-53584388D01*
X119060438Y-53565996D01*
X119067730Y-53519949D01*
X119068911Y-53514252D01*
X119071106Y-53505703D01*
X119080500Y-53469119D01*
X119080500Y-53449083D01*
X119082027Y-53429682D01*
X119085160Y-53409904D01*
X119080775Y-53363515D01*
X119080500Y-53357677D01*
X119080500Y-49024500D01*
X119100185Y-48957461D01*
X119152989Y-48911706D01*
X119204500Y-48900500D01*
X119274144Y-48900500D01*
X119274146Y-48900500D01*
X119459303Y-48861144D01*
X119632230Y-48784151D01*
X119785371Y-48672888D01*
X119788288Y-48669647D01*
X119791100Y-48666526D01*
X119850587Y-48629879D01*
X119883248Y-48625500D01*
X121960798Y-48625500D01*
X122027837Y-48645185D01*
G37*
%TD.AperFunction*%
%TA.AperFunction,Conductor*%
G36*
X117248834Y-49378369D02*
G01*
X117304767Y-49420241D01*
X117329184Y-49485705D01*
X117329500Y-49494551D01*
X117329500Y-52034546D01*
X117309815Y-52101585D01*
X117293181Y-52122227D01*
X114907332Y-54508075D01*
X114846009Y-54541560D01*
X114776317Y-54536576D01*
X114720384Y-54494704D01*
X114701945Y-54459398D01*
X114659358Y-54330880D01*
X114659356Y-54330875D01*
X114567315Y-54181654D01*
X114443345Y-54057684D01*
X114294124Y-53965643D01*
X114294119Y-53965641D01*
X114127697Y-53910494D01*
X114127690Y-53910493D01*
X114024986Y-53900000D01*
X113750000Y-53900000D01*
X113750000Y-55026000D01*
X113730315Y-55093039D01*
X113677511Y-55138794D01*
X113626000Y-55150000D01*
X113374000Y-55150000D01*
X113306961Y-55130315D01*
X113261206Y-55077511D01*
X113250000Y-55026000D01*
X113250000Y-53900000D01*
X112975029Y-53900000D01*
X112975012Y-53900001D01*
X112872302Y-53910494D01*
X112713004Y-53963281D01*
X112643176Y-53965683D01*
X112583134Y-53929951D01*
X112551941Y-53867431D01*
X112550000Y-53845575D01*
X112550000Y-53402172D01*
X112549999Y-53402155D01*
X112543598Y-53342627D01*
X112543596Y-53342620D01*
X112493354Y-53207913D01*
X112493350Y-53207906D01*
X112407190Y-53092812D01*
X112407187Y-53092809D01*
X112292093Y-53006649D01*
X112292086Y-53006645D01*
X112157379Y-52956403D01*
X112157372Y-52956401D01*
X112097844Y-52950000D01*
X111400000Y-52950000D01*
X111400000Y-55050000D01*
X112097828Y-55050000D01*
X112097836Y-55049999D01*
X112137741Y-55045708D01*
X112206501Y-55058111D01*
X112257640Y-55105720D01*
X112275000Y-55168993D01*
X112275000Y-55199969D01*
X112275001Y-55199987D01*
X112285494Y-55302697D01*
X112340641Y-55469119D01*
X112340643Y-55469124D01*
X112432684Y-55618345D01*
X112556655Y-55742316D01*
X112556659Y-55742319D01*
X112559656Y-55744168D01*
X112561279Y-55745972D01*
X112562323Y-55746798D01*
X112562181Y-55746976D01*
X112606381Y-55796116D01*
X112617602Y-55865079D01*
X112589759Y-55929161D01*
X112559661Y-55955241D01*
X112556349Y-55957283D01*
X112556343Y-55957288D01*
X112432289Y-56081342D01*
X112340187Y-56230663D01*
X112340186Y-56230666D01*
X112285001Y-56397203D01*
X112285001Y-56397204D01*
X112285000Y-56397204D01*
X112274500Y-56499983D01*
X112274500Y-56530443D01*
X112254815Y-56597482D01*
X112202011Y-56643237D01*
X112137247Y-56653733D01*
X112124299Y-56652341D01*
X112097873Y-56649500D01*
X112097867Y-56649500D01*
X110202129Y-56649500D01*
X110202123Y-56649501D01*
X110142516Y-56655908D01*
X110007671Y-56706202D01*
X110007664Y-56706206D01*
X109892455Y-56792452D01*
X109892452Y-56792455D01*
X109806206Y-56907664D01*
X109806203Y-56907669D01*
X109774066Y-56993834D01*
X109732194Y-57049767D01*
X109666730Y-57074184D01*
X109657884Y-57074500D01*
X106342115Y-57074500D01*
X106275076Y-57054815D01*
X106229321Y-57002011D01*
X106225933Y-56993833D01*
X106193797Y-56907671D01*
X106193793Y-56907664D01*
X106107547Y-56792455D01*
X106107544Y-56792452D01*
X105992335Y-56706206D01*
X105992328Y-56706202D01*
X105857482Y-56655908D01*
X105857483Y-56655908D01*
X105797883Y-56649501D01*
X105797881Y-56649500D01*
X105797873Y-56649500D01*
X105797864Y-56649500D01*
X103902129Y-56649500D01*
X103902123Y-56649501D01*
X103837752Y-56656421D01*
X103768993Y-56644014D01*
X103717856Y-56596403D01*
X103700499Y-56533131D01*
X103700499Y-56449998D01*
X103700498Y-56449981D01*
X103689999Y-56347203D01*
X103689998Y-56347200D01*
X103651381Y-56230663D01*
X103634814Y-56180666D01*
X103542712Y-56031344D01*
X103449049Y-55937681D01*
X103415564Y-55876358D01*
X103420548Y-55806666D01*
X103449049Y-55762319D01*
X103469052Y-55742316D01*
X103542712Y-55668656D01*
X103634814Y-55519334D01*
X103689999Y-55352797D01*
X103700500Y-55250009D01*
X103700499Y-55166361D01*
X103720183Y-55099325D01*
X103772986Y-55053569D01*
X103837756Y-55043074D01*
X103902158Y-55049999D01*
X103902172Y-55050000D01*
X104600000Y-55050000D01*
X104600000Y-54250000D01*
X105100000Y-54250000D01*
X105100000Y-55050000D01*
X105797828Y-55050000D01*
X105797844Y-55049999D01*
X105857372Y-55043598D01*
X105857379Y-55043596D01*
X105992086Y-54993354D01*
X105992093Y-54993350D01*
X106107187Y-54907190D01*
X106107190Y-54907187D01*
X106193350Y-54792093D01*
X106193354Y-54792086D01*
X106243596Y-54657379D01*
X106243598Y-54657372D01*
X106249999Y-54597844D01*
X106250000Y-54597827D01*
X106250000Y-54250000D01*
X109750000Y-54250000D01*
X109750000Y-54597844D01*
X109756401Y-54657372D01*
X109756403Y-54657379D01*
X109806645Y-54792086D01*
X109806649Y-54792093D01*
X109892809Y-54907187D01*
X109892812Y-54907190D01*
X110007906Y-54993350D01*
X110007913Y-54993354D01*
X110142620Y-55043596D01*
X110142627Y-55043598D01*
X110202155Y-55049999D01*
X110202172Y-55050000D01*
X110900000Y-55050000D01*
X110900000Y-54250000D01*
X109750000Y-54250000D01*
X106250000Y-54250000D01*
X105100000Y-54250000D01*
X104600000Y-54250000D01*
X104600000Y-53874000D01*
X104619685Y-53806961D01*
X104672489Y-53761206D01*
X104724000Y-53750000D01*
X106250000Y-53750000D01*
X109750000Y-53750000D01*
X110900000Y-53750000D01*
X110900000Y-52950000D01*
X110202155Y-52950000D01*
X110142627Y-52956401D01*
X110142620Y-52956403D01*
X110007913Y-53006645D01*
X110007906Y-53006649D01*
X109892812Y-53092809D01*
X109892809Y-53092812D01*
X109806649Y-53207906D01*
X109806645Y-53207913D01*
X109756403Y-53342620D01*
X109756401Y-53342627D01*
X109750000Y-53402155D01*
X109750000Y-53750000D01*
X106250000Y-53750000D01*
X106250000Y-53402172D01*
X106249999Y-53402155D01*
X106243598Y-53342627D01*
X106243596Y-53342620D01*
X106193354Y-53207913D01*
X106193350Y-53207906D01*
X106107190Y-53092812D01*
X106107187Y-53092809D01*
X105992093Y-53006649D01*
X105992086Y-53006645D01*
X105857379Y-52956403D01*
X105857372Y-52956401D01*
X105797844Y-52950000D01*
X104983952Y-52950000D01*
X104916913Y-52930315D01*
X104871158Y-52877511D01*
X104861214Y-52808353D01*
X104890239Y-52744797D01*
X104896271Y-52738319D01*
X105161792Y-52472799D01*
X106690272Y-50944319D01*
X106751595Y-50910834D01*
X106777953Y-50908000D01*
X111917257Y-50908000D01*
X111932877Y-50909724D01*
X111932904Y-50909439D01*
X111940660Y-50910171D01*
X111940667Y-50910173D01*
X112009814Y-50908000D01*
X112039350Y-50908000D01*
X112046228Y-50907130D01*
X112052041Y-50906672D01*
X112098627Y-50905209D01*
X112117869Y-50899617D01*
X112136912Y-50895674D01*
X112156792Y-50893164D01*
X112200122Y-50876007D01*
X112205646Y-50874117D01*
X112209396Y-50873027D01*
X112250390Y-50861118D01*
X112267629Y-50850922D01*
X112285103Y-50842362D01*
X112303727Y-50834988D01*
X112303727Y-50834987D01*
X112303732Y-50834986D01*
X112341449Y-50807582D01*
X112346305Y-50804392D01*
X112386420Y-50780670D01*
X112400589Y-50766499D01*
X112415379Y-50753868D01*
X112431587Y-50742094D01*
X112461299Y-50706176D01*
X112465212Y-50701876D01*
X113670272Y-49496816D01*
X113731593Y-49463333D01*
X113757942Y-49460499D01*
X114287047Y-49460499D01*
X114354086Y-49480184D01*
X114374727Y-49496817D01*
X114589873Y-49711964D01*
X114791697Y-49913788D01*
X114801522Y-49926051D01*
X114801743Y-49925869D01*
X114806714Y-49931878D01*
X114827543Y-49951437D01*
X114857135Y-49979226D01*
X114878029Y-50000120D01*
X114883511Y-50004373D01*
X114887943Y-50008157D01*
X114921918Y-50040062D01*
X114939476Y-50049714D01*
X114955735Y-50060395D01*
X114971564Y-50072673D01*
X115014338Y-50091182D01*
X115019556Y-50093738D01*
X115060408Y-50116197D01*
X115079816Y-50121180D01*
X115098217Y-50127480D01*
X115116604Y-50135437D01*
X115159988Y-50142308D01*
X115162619Y-50142725D01*
X115168339Y-50143909D01*
X115213481Y-50155500D01*
X115233516Y-50155500D01*
X115252914Y-50157026D01*
X115272694Y-50160159D01*
X115272695Y-50160160D01*
X115272695Y-50160159D01*
X115272696Y-50160160D01*
X115319084Y-50155775D01*
X115324922Y-50155500D01*
X116027357Y-50155500D01*
X116042977Y-50157224D01*
X116043004Y-50156939D01*
X116050760Y-50157671D01*
X116050767Y-50157673D01*
X116119914Y-50155500D01*
X116149450Y-50155500D01*
X116156328Y-50154630D01*
X116162141Y-50154172D01*
X116208727Y-50152709D01*
X116227969Y-50147117D01*
X116247012Y-50143174D01*
X116266892Y-50140664D01*
X116310222Y-50123507D01*
X116315746Y-50121617D01*
X116319496Y-50120527D01*
X116360490Y-50108618D01*
X116377729Y-50098422D01*
X116395203Y-50089862D01*
X116413827Y-50082488D01*
X116413827Y-50082487D01*
X116413832Y-50082486D01*
X116451549Y-50055082D01*
X116456405Y-50051892D01*
X116496520Y-50028170D01*
X116510689Y-50013999D01*
X116525479Y-50001368D01*
X116541687Y-49989594D01*
X116571399Y-49953676D01*
X116575312Y-49949376D01*
X117117820Y-49406869D01*
X117179142Y-49373385D01*
X117248834Y-49378369D01*
G37*
%TD.AperFunction*%
%TA.AperFunction,Conductor*%
G36*
X128086411Y-52715185D02*
G01*
X128124909Y-52754401D01*
X128146038Y-52788656D01*
X128270094Y-52912712D01*
X128273378Y-52914737D01*
X128273403Y-52914753D01*
X128275195Y-52916746D01*
X128275761Y-52917193D01*
X128275684Y-52917289D01*
X128320129Y-52966699D01*
X128331353Y-53035661D01*
X128303511Y-53099744D01*
X128273415Y-53125826D01*
X128270410Y-53127679D01*
X128270405Y-53127683D01*
X128146434Y-53251654D01*
X128054393Y-53400875D01*
X128054391Y-53400880D01*
X127999244Y-53567302D01*
X127999243Y-53567309D01*
X127988750Y-53670013D01*
X127988750Y-53720000D01*
X130438749Y-53720000D01*
X130438749Y-53670028D01*
X130438748Y-53670013D01*
X130428255Y-53567302D01*
X130373108Y-53400880D01*
X130373106Y-53400875D01*
X130281065Y-53251654D01*
X130157094Y-53127683D01*
X130157091Y-53127681D01*
X130154089Y-53125829D01*
X130152463Y-53124021D01*
X130151427Y-53123202D01*
X130151567Y-53123024D01*
X130107367Y-53073880D01*
X130096147Y-53004917D01*
X130123993Y-52940836D01*
X130154094Y-52914754D01*
X130157406Y-52912712D01*
X130281462Y-52788656D01*
X130302589Y-52754402D01*
X130354537Y-52707679D01*
X130408128Y-52695500D01*
X145981252Y-52695500D01*
X146048291Y-52715185D01*
X146073399Y-52736525D01*
X146079252Y-52743025D01*
X146109484Y-52806015D01*
X146100861Y-52875351D01*
X146056122Y-52929018D01*
X145989470Y-52949977D01*
X145987105Y-52950000D01*
X145700000Y-52950000D01*
X145700000Y-53750000D01*
X146850000Y-53750000D01*
X146850000Y-53402172D01*
X146849999Y-53402155D01*
X146843598Y-53342627D01*
X146843596Y-53342620D01*
X146793354Y-53207913D01*
X146793352Y-53207910D01*
X146754381Y-53155852D01*
X146729963Y-53090388D01*
X146744814Y-53022115D01*
X146794219Y-52972709D01*
X146827864Y-52960250D01*
X146964803Y-52931144D01*
X147137730Y-52854151D01*
X147290871Y-52742888D01*
X147294985Y-52738319D01*
X147296600Y-52736526D01*
X147356087Y-52699879D01*
X147388748Y-52695500D01*
X151609548Y-52695500D01*
X151676587Y-52715185D01*
X151697229Y-52731819D01*
X151703729Y-52738319D01*
X151737214Y-52799642D01*
X151732230Y-52869334D01*
X151690358Y-52925267D01*
X151624894Y-52949684D01*
X151616048Y-52950000D01*
X150802155Y-52950000D01*
X150742627Y-52956401D01*
X150742620Y-52956403D01*
X150607913Y-53006645D01*
X150607906Y-53006649D01*
X150492812Y-53092809D01*
X150492809Y-53092812D01*
X150406649Y-53207906D01*
X150406645Y-53207913D01*
X150356403Y-53342620D01*
X150356401Y-53342627D01*
X150350000Y-53402155D01*
X150350000Y-53750000D01*
X151876000Y-53750000D01*
X151943039Y-53769685D01*
X151988794Y-53822489D01*
X152000000Y-53874000D01*
X152000000Y-55050000D01*
X152675501Y-55050000D01*
X152742540Y-55069685D01*
X152788295Y-55122489D01*
X152799501Y-55174000D01*
X152799501Y-55250019D01*
X152810000Y-55352796D01*
X152810001Y-55352799D01*
X152865185Y-55519331D01*
X152865187Y-55519336D01*
X152957289Y-55668657D01*
X153050951Y-55762319D01*
X153084436Y-55823642D01*
X153079452Y-55893334D01*
X153050951Y-55937681D01*
X152957289Y-56031342D01*
X152865187Y-56180663D01*
X152865185Y-56180668D01*
X152848617Y-56230668D01*
X152810001Y-56347203D01*
X152810001Y-56347204D01*
X152810000Y-56347204D01*
X152799500Y-56449983D01*
X152799500Y-56525500D01*
X152779815Y-56592539D01*
X152727011Y-56638294D01*
X152675500Y-56649500D01*
X150802129Y-56649500D01*
X150802123Y-56649501D01*
X150742516Y-56655908D01*
X150607671Y-56706202D01*
X150607664Y-56706206D01*
X150492455Y-56792452D01*
X150492452Y-56792455D01*
X150406206Y-56907664D01*
X150406203Y-56907669D01*
X150374066Y-56993834D01*
X150332194Y-57049767D01*
X150266730Y-57074184D01*
X150257884Y-57074500D01*
X146942115Y-57074500D01*
X146875076Y-57054815D01*
X146829321Y-57002011D01*
X146825933Y-56993833D01*
X146793797Y-56907671D01*
X146793793Y-56907664D01*
X146707547Y-56792455D01*
X146707544Y-56792452D01*
X146592335Y-56706206D01*
X146592328Y-56706202D01*
X146457482Y-56655908D01*
X146457483Y-56655908D01*
X146397883Y-56649501D01*
X146397881Y-56649500D01*
X146397873Y-56649500D01*
X146397864Y-56649500D01*
X144502129Y-56649500D01*
X144502123Y-56649501D01*
X144442517Y-56655908D01*
X144392830Y-56674440D01*
X144323138Y-56679423D01*
X144261816Y-56645936D01*
X144228332Y-56584613D01*
X144225499Y-56558257D01*
X144225499Y-56499998D01*
X144225498Y-56499981D01*
X144214999Y-56397203D01*
X144214998Y-56397200D01*
X144198431Y-56347204D01*
X144159814Y-56230666D01*
X144067712Y-56081344D01*
X143943656Y-55957288D01*
X143940342Y-55955243D01*
X143938546Y-55953248D01*
X143937989Y-55952807D01*
X143938064Y-55952711D01*
X143893618Y-55903297D01*
X143882397Y-55834334D01*
X143910240Y-55770252D01*
X143940348Y-55744165D01*
X143943342Y-55742318D01*
X144067315Y-55618345D01*
X144159356Y-55469124D01*
X144159358Y-55469119D01*
X144214505Y-55302697D01*
X144214506Y-55302690D01*
X144224999Y-55199985D01*
X144224999Y-55141024D01*
X144244682Y-55073984D01*
X144297486Y-55028228D01*
X144366644Y-55018284D01*
X144392333Y-55024840D01*
X144442623Y-55043597D01*
X144442627Y-55043598D01*
X144502155Y-55049999D01*
X144502172Y-55050000D01*
X145200000Y-55050000D01*
X145200000Y-54250000D01*
X145700000Y-54250000D01*
X145700000Y-55050000D01*
X146397828Y-55050000D01*
X146397844Y-55049999D01*
X146457372Y-55043598D01*
X146457379Y-55043596D01*
X146592086Y-54993354D01*
X146592093Y-54993350D01*
X146707187Y-54907190D01*
X146707190Y-54907187D01*
X146793350Y-54792093D01*
X146793354Y-54792086D01*
X146843596Y-54657379D01*
X146843598Y-54657372D01*
X146849999Y-54597844D01*
X146850000Y-54597827D01*
X146850000Y-54250000D01*
X150350000Y-54250000D01*
X150350000Y-54597844D01*
X150356401Y-54657372D01*
X150356403Y-54657379D01*
X150406645Y-54792086D01*
X150406649Y-54792093D01*
X150492809Y-54907187D01*
X150492812Y-54907190D01*
X150607906Y-54993350D01*
X150607913Y-54993354D01*
X150742620Y-55043596D01*
X150742627Y-55043598D01*
X150802155Y-55049999D01*
X150802172Y-55050000D01*
X151500000Y-55050000D01*
X151500000Y-54250000D01*
X150350000Y-54250000D01*
X146850000Y-54250000D01*
X145700000Y-54250000D01*
X145200000Y-54250000D01*
X145200000Y-52950000D01*
X144502155Y-52950000D01*
X144442627Y-52956401D01*
X144442620Y-52956403D01*
X144307913Y-53006645D01*
X144307906Y-53006649D01*
X144192812Y-53092809D01*
X144192809Y-53092812D01*
X144106649Y-53207906D01*
X144106645Y-53207913D01*
X144056403Y-53342620D01*
X144056401Y-53342627D01*
X144050000Y-53402155D01*
X144050000Y-53901294D01*
X144030315Y-53968333D01*
X143977511Y-54014088D01*
X143908353Y-54024032D01*
X143860904Y-54006833D01*
X143794128Y-53965645D01*
X143794119Y-53965641D01*
X143627697Y-53910494D01*
X143627690Y-53910493D01*
X143524986Y-53900000D01*
X143250000Y-53900000D01*
X143250000Y-55026000D01*
X143230315Y-55093039D01*
X143177511Y-55138794D01*
X143126000Y-55150000D01*
X141775001Y-55150000D01*
X141775001Y-55199986D01*
X141785494Y-55302697D01*
X141840641Y-55469119D01*
X141840643Y-55469124D01*
X141932684Y-55618345D01*
X142056655Y-55742316D01*
X142056659Y-55742319D01*
X142059656Y-55744168D01*
X142061279Y-55745972D01*
X142062323Y-55746798D01*
X142062181Y-55746976D01*
X142106381Y-55796116D01*
X142117602Y-55865079D01*
X142089759Y-55929161D01*
X142059661Y-55955241D01*
X142056349Y-55957283D01*
X142056343Y-55957288D01*
X141932289Y-56081342D01*
X141911161Y-56115597D01*
X141859213Y-56162321D01*
X141805622Y-56174500D01*
X125386217Y-56174500D01*
X125335781Y-56163779D01*
X125279806Y-56138857D01*
X125279802Y-56138855D01*
X125134001Y-56107865D01*
X125094646Y-56099500D01*
X124905354Y-56099500D01*
X124905353Y-56099500D01*
X124725280Y-56137775D01*
X124655613Y-56132459D01*
X124599880Y-56090322D01*
X124575775Y-56024742D01*
X124575500Y-56016485D01*
X124575500Y-54220001D01*
X125106454Y-54220001D01*
X125106649Y-54222486D01*
X125152468Y-54380198D01*
X125236064Y-54521552D01*
X125236071Y-54521561D01*
X125352188Y-54637678D01*
X125352197Y-54637685D01*
X125493553Y-54721282D01*
X125493556Y-54721283D01*
X125651254Y-54767099D01*
X125651260Y-54767100D01*
X125688106Y-54770000D01*
X126091250Y-54770000D01*
X126091250Y-54220000D01*
X126591250Y-54220000D01*
X126591250Y-54770000D01*
X126994394Y-54770000D01*
X127031239Y-54767100D01*
X127031245Y-54767099D01*
X127188943Y-54721283D01*
X127188946Y-54721282D01*
X127330302Y-54637685D01*
X127330311Y-54637678D01*
X127446428Y-54521561D01*
X127446435Y-54521552D01*
X127530031Y-54380198D01*
X127575850Y-54222486D01*
X127576045Y-54220001D01*
X127576045Y-54220000D01*
X127988751Y-54220000D01*
X127988751Y-54269986D01*
X127999244Y-54372697D01*
X128054391Y-54539119D01*
X128054393Y-54539124D01*
X128146434Y-54688345D01*
X128270404Y-54812315D01*
X128419625Y-54904356D01*
X128419630Y-54904358D01*
X128586052Y-54959505D01*
X128586059Y-54959506D01*
X128688769Y-54969999D01*
X128963749Y-54969999D01*
X128963750Y-54969998D01*
X128963750Y-54220000D01*
X129463750Y-54220000D01*
X129463750Y-54969999D01*
X129738722Y-54969999D01*
X129738736Y-54969998D01*
X129841447Y-54959505D01*
X130007869Y-54904358D01*
X130007874Y-54904356D01*
X130157095Y-54812315D01*
X130281065Y-54688345D01*
X130304717Y-54650000D01*
X141775000Y-54650000D01*
X142750000Y-54650000D01*
X142750000Y-53900000D01*
X142475029Y-53900000D01*
X142475012Y-53900001D01*
X142372302Y-53910494D01*
X142205880Y-53965641D01*
X142205875Y-53965643D01*
X142056654Y-54057684D01*
X141932684Y-54181654D01*
X141840643Y-54330875D01*
X141840641Y-54330880D01*
X141785494Y-54497302D01*
X141785493Y-54497309D01*
X141775000Y-54600013D01*
X141775000Y-54650000D01*
X130304717Y-54650000D01*
X130373106Y-54539124D01*
X130373108Y-54539119D01*
X130428255Y-54372697D01*
X130428256Y-54372690D01*
X130438749Y-54269986D01*
X130438750Y-54269973D01*
X130438750Y-54220000D01*
X129463750Y-54220000D01*
X128963750Y-54220000D01*
X127988751Y-54220000D01*
X127576045Y-54220000D01*
X126591250Y-54220000D01*
X126091250Y-54220000D01*
X125106455Y-54220000D01*
X125106454Y-54220001D01*
X124575500Y-54220001D01*
X124575500Y-53944500D01*
X124595185Y-53877461D01*
X124647989Y-53831706D01*
X124699500Y-53820500D01*
X125119446Y-53820500D01*
X125137881Y-53819049D01*
X125156319Y-53817598D01*
X125156321Y-53817597D01*
X125156323Y-53817597D01*
X125201158Y-53804571D01*
X125314148Y-53771744D01*
X125372444Y-53737268D01*
X125435565Y-53720000D01*
X126091250Y-53720000D01*
X126091250Y-53170000D01*
X126591250Y-53170000D01*
X126591250Y-53720000D01*
X127576045Y-53720000D01*
X127576045Y-53719998D01*
X127575850Y-53717513D01*
X127530031Y-53559801D01*
X127446435Y-53418447D01*
X127446428Y-53418438D01*
X127330311Y-53302321D01*
X127330302Y-53302314D01*
X127188946Y-53218717D01*
X127188943Y-53218716D01*
X127031245Y-53172900D01*
X127031239Y-53172899D01*
X126994394Y-53170000D01*
X126591250Y-53170000D01*
X126091250Y-53170000D01*
X125828250Y-53170000D01*
X125761211Y-53150315D01*
X125715456Y-53097511D01*
X125704250Y-53046000D01*
X125704250Y-52994500D01*
X125723935Y-52927461D01*
X125776739Y-52881706D01*
X125828250Y-52870500D01*
X126994446Y-52870500D01*
X127012881Y-52869049D01*
X127031319Y-52867598D01*
X127031321Y-52867597D01*
X127031323Y-52867597D01*
X127077614Y-52854148D01*
X127189148Y-52821744D01*
X127330615Y-52738081D01*
X127332171Y-52736525D01*
X127336878Y-52731819D01*
X127398201Y-52698334D01*
X127424559Y-52695500D01*
X128019372Y-52695500D01*
X128086411Y-52715185D01*
G37*
%TD.AperFunction*%
%TA.AperFunction,Conductor*%
G36*
X113967296Y-39535185D02*
G01*
X113987938Y-39551819D01*
X114189903Y-39753784D01*
X114199728Y-39766048D01*
X114199949Y-39765866D01*
X114204919Y-39771873D01*
X114204922Y-39771876D01*
X114204923Y-39771877D01*
X114255360Y-39819241D01*
X114276239Y-39840120D01*
X114281713Y-39844366D01*
X114286151Y-39848156D01*
X114320127Y-39880062D01*
X114320131Y-39880064D01*
X114337682Y-39889713D01*
X114353940Y-39900392D01*
X114369773Y-39912674D01*
X114391390Y-39922028D01*
X114412546Y-39931183D01*
X114417790Y-39933752D01*
X114458617Y-39956197D01*
X114478021Y-39961179D01*
X114496419Y-39967478D01*
X114514814Y-39975438D01*
X114560838Y-39982726D01*
X114566541Y-39983907D01*
X114611690Y-39995500D01*
X114631725Y-39995500D01*
X114651122Y-39997026D01*
X114670905Y-40000160D01*
X114717293Y-39995775D01*
X114723131Y-39995500D01*
X115322520Y-39995500D01*
X115389559Y-40015185D01*
X115435314Y-40067989D01*
X115445258Y-40137147D01*
X115429907Y-40181500D01*
X115377821Y-40271715D01*
X115377818Y-40271722D01*
X115322952Y-40440583D01*
X115319326Y-40451744D01*
X115299540Y-40640000D01*
X115319326Y-40828256D01*
X115319327Y-40828258D01*
X115319327Y-40828259D01*
X115377818Y-41008277D01*
X115377821Y-41008284D01*
X115472467Y-41172216D01*
X115599129Y-41312888D01*
X115752265Y-41424148D01*
X115752268Y-41424150D01*
X115752269Y-41424150D01*
X115752270Y-41424151D01*
X115755934Y-41425782D01*
X115757709Y-41427291D01*
X115757893Y-41427397D01*
X115757873Y-41427430D01*
X115809172Y-41471032D01*
X115829494Y-41537881D01*
X115829500Y-41539062D01*
X115829500Y-43457440D01*
X115809815Y-43524479D01*
X115757011Y-43570234D01*
X115737539Y-43577229D01*
X115737038Y-43577363D01*
X115688686Y-43577378D01*
X115688292Y-43580374D01*
X115680237Y-43579313D01*
X115680236Y-43579313D01*
X115651271Y-43575499D01*
X115567727Y-43564500D01*
X115567720Y-43564500D01*
X115342280Y-43564500D01*
X115342272Y-43564500D01*
X115256448Y-43575800D01*
X115229764Y-43579313D01*
X115229762Y-43579313D01*
X115221708Y-43580374D01*
X115221316Y-43577399D01*
X115188684Y-43577399D01*
X115188292Y-43580374D01*
X115180237Y-43579313D01*
X115180236Y-43579313D01*
X115151271Y-43575499D01*
X115067727Y-43564500D01*
X115067720Y-43564500D01*
X114842280Y-43564500D01*
X114842272Y-43564500D01*
X114756448Y-43575800D01*
X114729764Y-43579313D01*
X114729762Y-43579313D01*
X114721708Y-43580374D01*
X114721316Y-43577399D01*
X114688684Y-43577399D01*
X114688292Y-43580374D01*
X114680237Y-43579313D01*
X114680236Y-43579313D01*
X114651271Y-43575499D01*
X114567727Y-43564500D01*
X114567720Y-43564500D01*
X114342280Y-43564500D01*
X114342272Y-43564500D01*
X114256448Y-43575800D01*
X114229764Y-43579313D01*
X114229762Y-43579313D01*
X114221708Y-43580374D01*
X114221316Y-43577399D01*
X114188684Y-43577399D01*
X114188292Y-43580374D01*
X114180237Y-43579313D01*
X114180236Y-43579313D01*
X114151271Y-43575499D01*
X114067727Y-43564500D01*
X114067720Y-43564500D01*
X113842280Y-43564500D01*
X113842272Y-43564500D01*
X113756448Y-43575800D01*
X113729764Y-43579313D01*
X113729762Y-43579313D01*
X113721708Y-43580374D01*
X113721316Y-43577399D01*
X113688684Y-43577399D01*
X113688292Y-43580374D01*
X113680237Y-43579313D01*
X113680236Y-43579313D01*
X113651271Y-43575499D01*
X113567727Y-43564500D01*
X113567720Y-43564500D01*
X113404500Y-43564500D01*
X113337461Y-43544815D01*
X113291706Y-43492011D01*
X113280500Y-43440500D01*
X113280500Y-43277286D01*
X113280500Y-43277280D01*
X113265687Y-43164764D01*
X113265686Y-43164763D01*
X113264626Y-43156705D01*
X113266406Y-43156470D01*
X113264196Y-43122729D01*
X113275088Y-43040000D01*
X113273198Y-43037845D01*
X113213498Y-43020315D01*
X113182162Y-42991488D01*
X113162211Y-42965488D01*
X113137016Y-42900319D01*
X113151054Y-42831874D01*
X113162211Y-42814512D01*
X113182162Y-42788512D01*
X113238590Y-42747310D01*
X113274105Y-42741120D01*
X113275088Y-42739999D01*
X113264196Y-42657270D01*
X113266409Y-42623529D01*
X113264626Y-42623295D01*
X113265687Y-42615236D01*
X113280500Y-42502720D01*
X113280500Y-42277280D01*
X113265687Y-42164764D01*
X113265686Y-42164763D01*
X113264626Y-42156705D01*
X113267689Y-42156301D01*
X113267689Y-42123698D01*
X113264626Y-42123295D01*
X113266645Y-42107962D01*
X113280500Y-42002720D01*
X113280500Y-41777280D01*
X113265687Y-41664764D01*
X113265686Y-41664763D01*
X113264626Y-41656705D01*
X113267689Y-41656301D01*
X113267689Y-41623698D01*
X113264626Y-41623295D01*
X113275715Y-41539062D01*
X113280500Y-41502720D01*
X113280500Y-41277280D01*
X113265687Y-41164764D01*
X113265686Y-41164763D01*
X113264626Y-41156705D01*
X113267689Y-41156301D01*
X113267689Y-41123698D01*
X113264626Y-41123295D01*
X113272694Y-41062011D01*
X113280500Y-41002720D01*
X113280500Y-40777280D01*
X113265687Y-40664764D01*
X113265686Y-40664763D01*
X113264626Y-40656705D01*
X113267689Y-40656301D01*
X113267689Y-40623698D01*
X113264626Y-40623295D01*
X113272858Y-40560764D01*
X113280500Y-40502720D01*
X113280500Y-40277280D01*
X113265687Y-40164764D01*
X113265686Y-40164763D01*
X113264626Y-40156705D01*
X113267689Y-40156301D01*
X113267689Y-40123698D01*
X113264626Y-40123295D01*
X113275142Y-40043415D01*
X113280500Y-40002720D01*
X113280500Y-39777280D01*
X113265687Y-39664764D01*
X113265686Y-39664763D01*
X113264626Y-39656705D01*
X113267671Y-39656304D01*
X113267668Y-39607840D01*
X113267802Y-39607341D01*
X113304199Y-39547700D01*
X113367063Y-39517206D01*
X113387559Y-39515500D01*
X113900257Y-39515500D01*
X113967296Y-39535185D01*
G37*
%TD.AperFunction*%
%TA.AperFunction,Conductor*%
G36*
X118729763Y-37700686D02*
G01*
X118729764Y-37700687D01*
X118842280Y-37715500D01*
X118842287Y-37715500D01*
X119005500Y-37715500D01*
X119072539Y-37735185D01*
X119118294Y-37787989D01*
X119129500Y-37839500D01*
X119129500Y-38002727D01*
X119145374Y-38123293D01*
X119143593Y-38123527D01*
X119145804Y-38157270D01*
X119134911Y-38239999D01*
X119136801Y-38242154D01*
X119196503Y-38259685D01*
X119227838Y-38288512D01*
X119247791Y-38314515D01*
X119272984Y-38379684D01*
X119258945Y-38448129D01*
X119247791Y-38465484D01*
X119227839Y-38491486D01*
X119171413Y-38532689D01*
X119135894Y-38538879D01*
X119134911Y-38540000D01*
X119145804Y-38622729D01*
X119143595Y-38656472D01*
X119145374Y-38656707D01*
X119129500Y-38777272D01*
X119129500Y-39002727D01*
X119145374Y-39123292D01*
X119142399Y-39123683D01*
X119142399Y-39156316D01*
X119145374Y-39156708D01*
X119129500Y-39277272D01*
X119129500Y-39502727D01*
X119135964Y-39551819D01*
X119143339Y-39607840D01*
X119145374Y-39623292D01*
X119142399Y-39623683D01*
X119142399Y-39656316D01*
X119145374Y-39656708D01*
X119144313Y-39664762D01*
X119144313Y-39664764D01*
X119140938Y-39690393D01*
X119129500Y-39777272D01*
X119129500Y-40002727D01*
X119145374Y-40123292D01*
X119142399Y-40123683D01*
X119142399Y-40156316D01*
X119145374Y-40156708D01*
X119144313Y-40164762D01*
X119144313Y-40164764D01*
X119143031Y-40174500D01*
X119129500Y-40277272D01*
X119129500Y-40502727D01*
X119145374Y-40623292D01*
X119142399Y-40623683D01*
X119142399Y-40656316D01*
X119145374Y-40656708D01*
X119129500Y-40777272D01*
X119129500Y-41002727D01*
X119145374Y-41123292D01*
X119142399Y-41123683D01*
X119142399Y-41156316D01*
X119145374Y-41156708D01*
X119129500Y-41277272D01*
X119129500Y-41502727D01*
X119145374Y-41623292D01*
X119142399Y-41623683D01*
X119142399Y-41656316D01*
X119145374Y-41656708D01*
X119129500Y-41777272D01*
X119129500Y-42002727D01*
X119138654Y-42072255D01*
X119143355Y-42107962D01*
X119145374Y-42123292D01*
X119142399Y-42123683D01*
X119142399Y-42156316D01*
X119145374Y-42156708D01*
X119144313Y-42164762D01*
X119144313Y-42164764D01*
X119143031Y-42174500D01*
X119129500Y-42277272D01*
X119129500Y-42502727D01*
X119145374Y-42623292D01*
X119142399Y-42623683D01*
X119142399Y-42656316D01*
X119145374Y-42656708D01*
X119129500Y-42777272D01*
X119129500Y-43002727D01*
X119145374Y-43123292D01*
X119142399Y-43123683D01*
X119142399Y-43156316D01*
X119145374Y-43156708D01*
X119129500Y-43277272D01*
X119129500Y-43440500D01*
X119109815Y-43507539D01*
X119057011Y-43553294D01*
X119005500Y-43564500D01*
X118842272Y-43564500D01*
X118756448Y-43575800D01*
X118729764Y-43579313D01*
X118729762Y-43579313D01*
X118721708Y-43580374D01*
X118721316Y-43577399D01*
X118688684Y-43577399D01*
X118688292Y-43580374D01*
X118680237Y-43579313D01*
X118680236Y-43579313D01*
X118651271Y-43575499D01*
X118567727Y-43564500D01*
X118567720Y-43564500D01*
X118342280Y-43564500D01*
X118342272Y-43564500D01*
X118256448Y-43575800D01*
X118229764Y-43579313D01*
X118229762Y-43579313D01*
X118221708Y-43580374D01*
X118221316Y-43577399D01*
X118188684Y-43577399D01*
X118188292Y-43580374D01*
X118180237Y-43579313D01*
X118180236Y-43579313D01*
X118151271Y-43575499D01*
X118067727Y-43564500D01*
X118067720Y-43564500D01*
X117842280Y-43564500D01*
X117842272Y-43564500D01*
X117756448Y-43575800D01*
X117729764Y-43579313D01*
X117729762Y-43579313D01*
X117721708Y-43580374D01*
X117721316Y-43577399D01*
X117688684Y-43577399D01*
X117688292Y-43580374D01*
X117680237Y-43579313D01*
X117680236Y-43579313D01*
X117651271Y-43575499D01*
X117567727Y-43564500D01*
X117567720Y-43564500D01*
X117342280Y-43564500D01*
X117342272Y-43564500D01*
X117256007Y-43575858D01*
X117229764Y-43579313D01*
X117229763Y-43579313D01*
X117221707Y-43580374D01*
X117221279Y-43577128D01*
X117166681Y-43575800D01*
X117108840Y-43536607D01*
X117081369Y-43472364D01*
X117080500Y-43457708D01*
X117080500Y-40972737D01*
X117082224Y-40957123D01*
X117081938Y-40957096D01*
X117082670Y-40949338D01*
X117082672Y-40949332D01*
X117080588Y-40883015D01*
X117086596Y-40840804D01*
X117090674Y-40828256D01*
X117110460Y-40640000D01*
X117090674Y-40451744D01*
X117032179Y-40271716D01*
X116937533Y-40107784D01*
X116919693Y-40087971D01*
X116889464Y-40024981D01*
X116898089Y-39955646D01*
X116919694Y-39922028D01*
X116928117Y-39912673D01*
X116937533Y-39902216D01*
X117032179Y-39738284D01*
X117090674Y-39558256D01*
X117110460Y-39370000D01*
X117100879Y-39278843D01*
X117113449Y-39210116D01*
X117161181Y-39159092D01*
X117193369Y-39145778D01*
X117197808Y-39144637D01*
X117197820Y-39144636D01*
X117241150Y-39127479D01*
X117246674Y-39125589D01*
X117254580Y-39123292D01*
X117291418Y-39112590D01*
X117308657Y-39102394D01*
X117326131Y-39093834D01*
X117344755Y-39086460D01*
X117344755Y-39086459D01*
X117344760Y-39086458D01*
X117382477Y-39059054D01*
X117387333Y-39055864D01*
X117427448Y-39032142D01*
X117427451Y-39032138D01*
X117433614Y-39027359D01*
X117435542Y-39029845D01*
X117484095Y-39003334D01*
X117510453Y-39000500D01*
X117569644Y-39000500D01*
X117569646Y-39000500D01*
X117754803Y-38961144D01*
X117927730Y-38884151D01*
X118080871Y-38772888D01*
X118207533Y-38632216D01*
X118302179Y-38468284D01*
X118360674Y-38288256D01*
X118380460Y-38100000D01*
X118360674Y-37911744D01*
X118353577Y-37889902D01*
X118349651Y-37877817D01*
X118347656Y-37807976D01*
X118383737Y-37748144D01*
X118446438Y-37717316D01*
X118467582Y-37715500D01*
X118567713Y-37715500D01*
X118567720Y-37715500D01*
X118680236Y-37700687D01*
X118680236Y-37700686D01*
X118688295Y-37699626D01*
X118688698Y-37702689D01*
X118721302Y-37702689D01*
X118721705Y-37699626D01*
X118729763Y-37700686D01*
G37*
%TD.AperFunction*%
%TA.AperFunction,Conductor*%
G36*
X110724305Y-37897797D02*
G01*
X110780238Y-37939669D01*
X110802334Y-37998910D01*
X110803970Y-37998695D01*
X110804500Y-38002720D01*
X110817748Y-38103351D01*
X110820374Y-38123292D01*
X110817399Y-38123683D01*
X110817399Y-38156316D01*
X110820374Y-38156708D01*
X110804500Y-38277272D01*
X110804500Y-38502727D01*
X110820374Y-38623292D01*
X110817399Y-38623683D01*
X110817399Y-38656316D01*
X110820374Y-38656708D01*
X110804500Y-38777272D01*
X110804500Y-39002727D01*
X110820374Y-39123292D01*
X110817399Y-39123683D01*
X110817399Y-39156316D01*
X110820374Y-39156708D01*
X110804500Y-39277272D01*
X110804500Y-39502727D01*
X110810964Y-39551819D01*
X110818339Y-39607840D01*
X110820374Y-39623292D01*
X110817399Y-39623683D01*
X110817399Y-39656316D01*
X110820374Y-39656708D01*
X110819313Y-39664762D01*
X110819313Y-39664764D01*
X110815938Y-39690393D01*
X110804500Y-39777272D01*
X110804500Y-40002727D01*
X110820374Y-40123292D01*
X110817399Y-40123683D01*
X110817399Y-40156316D01*
X110820374Y-40156708D01*
X110819313Y-40164762D01*
X110819313Y-40164764D01*
X110818031Y-40174500D01*
X110804500Y-40277272D01*
X110804500Y-40502727D01*
X110820374Y-40623292D01*
X110817370Y-40623687D01*
X110817379Y-40671978D01*
X110817245Y-40672480D01*
X110780937Y-40732175D01*
X110718119Y-40762764D01*
X110697440Y-40764500D01*
X109622230Y-40764500D01*
X109555191Y-40744815D01*
X109534549Y-40728181D01*
X109533695Y-40727327D01*
X109500210Y-40666004D01*
X109505194Y-40596312D01*
X109533695Y-40551964D01*
X109627317Y-40458342D01*
X109719356Y-40309124D01*
X109719358Y-40309119D01*
X109774505Y-40142697D01*
X109774506Y-40142690D01*
X109784999Y-40039986D01*
X109785000Y-40039973D01*
X109785000Y-39977500D01*
X108459000Y-39977500D01*
X108391961Y-39957815D01*
X108346206Y-39905011D01*
X108335000Y-39853500D01*
X108335000Y-39601500D01*
X108354685Y-39534461D01*
X108407489Y-39488706D01*
X108459000Y-39477500D01*
X109784999Y-39477500D01*
X109784999Y-39415028D01*
X109784998Y-39415013D01*
X109774505Y-39312302D01*
X109719358Y-39145880D01*
X109719353Y-39145869D01*
X109641215Y-39019188D01*
X109622774Y-38951796D01*
X109643696Y-38885132D01*
X109651207Y-38875054D01*
X109672334Y-38849514D01*
X109681299Y-38838676D01*
X109685212Y-38834376D01*
X110593292Y-37926296D01*
X110654613Y-37892813D01*
X110724305Y-37897797D01*
G37*
%TD.AperFunction*%
%TA.AperFunction,Conductor*%
G36*
X140736347Y-31125185D02*
G01*
X140782102Y-31177989D01*
X140792046Y-31247147D01*
X140776041Y-31292620D01*
X140748254Y-31339605D01*
X140748254Y-31339606D01*
X140702402Y-31497426D01*
X140702401Y-31497432D01*
X140699500Y-31534304D01*
X140699500Y-31965696D01*
X140702401Y-32002567D01*
X140702402Y-32002573D01*
X140748254Y-32160393D01*
X140748255Y-32160396D01*
X140831917Y-32301862D01*
X140836702Y-32308031D01*
X140834256Y-32309927D01*
X140860857Y-32358642D01*
X140855873Y-32428334D01*
X140835069Y-32460703D01*
X140836702Y-32461969D01*
X140831917Y-32468137D01*
X140748255Y-32609603D01*
X140748254Y-32609606D01*
X140702402Y-32767426D01*
X140702401Y-32767432D01*
X140699500Y-32804304D01*
X140699500Y-33235696D01*
X140702401Y-33272567D01*
X140702402Y-33272573D01*
X140748254Y-33430393D01*
X140748255Y-33430396D01*
X140748256Y-33430398D01*
X140772505Y-33471401D01*
X140831917Y-33571862D01*
X140836702Y-33578031D01*
X140834256Y-33579927D01*
X140860857Y-33628642D01*
X140855873Y-33698334D01*
X140835069Y-33730703D01*
X140836702Y-33731969D01*
X140831917Y-33738137D01*
X140748255Y-33879603D01*
X140748254Y-33879606D01*
X140702402Y-34037426D01*
X140702401Y-34037432D01*
X140699500Y-34074304D01*
X140699500Y-34505696D01*
X140702401Y-34542567D01*
X140702402Y-34542573D01*
X140748254Y-34700393D01*
X140748255Y-34700396D01*
X140748256Y-34700398D01*
X140751093Y-34705195D01*
X140831917Y-34841862D01*
X140831923Y-34841870D01*
X140948129Y-34958076D01*
X140948133Y-34958079D01*
X140948135Y-34958081D01*
X141089602Y-35041744D01*
X141131224Y-35053836D01*
X141247426Y-35087597D01*
X141247429Y-35087597D01*
X141247431Y-35087598D01*
X141259722Y-35088565D01*
X141284304Y-35090500D01*
X141284306Y-35090500D01*
X141425500Y-35090500D01*
X141492539Y-35110185D01*
X141538294Y-35162989D01*
X141549500Y-35214500D01*
X141549500Y-39759547D01*
X141529815Y-39826586D01*
X141513181Y-39847228D01*
X141222228Y-40138181D01*
X141160905Y-40171666D01*
X141134547Y-40174500D01*
X136713580Y-40174500D01*
X136646541Y-40154815D01*
X136608586Y-40116472D01*
X136537115Y-40002727D01*
X136516085Y-39969258D01*
X136434508Y-39887681D01*
X136401023Y-39826358D01*
X136406007Y-39756666D01*
X136434508Y-39712319D01*
X136467726Y-39679101D01*
X136516085Y-39630742D01*
X136614156Y-39474663D01*
X136675037Y-39300674D01*
X136675037Y-39300673D01*
X136675038Y-39300671D01*
X136683487Y-39225673D01*
X136690500Y-39163438D01*
X136690500Y-38436562D01*
X136682630Y-38366715D01*
X136675038Y-38299328D01*
X136654278Y-38239999D01*
X136614156Y-38125337D01*
X136516085Y-37969258D01*
X136434154Y-37887327D01*
X136400669Y-37826004D01*
X136405653Y-37756312D01*
X136434154Y-37711964D01*
X136515693Y-37630425D01*
X136613703Y-37474443D01*
X136674547Y-37300559D01*
X136674548Y-37300553D01*
X136689999Y-37163418D01*
X136690000Y-37163414D01*
X136690000Y-37050000D01*
X132740000Y-37050000D01*
X132740000Y-37163418D01*
X132755451Y-37300553D01*
X132755452Y-37300559D01*
X132816296Y-37474443D01*
X132914308Y-37630428D01*
X132995845Y-37711965D01*
X133029330Y-37773288D01*
X133024346Y-37842980D01*
X132995846Y-37887327D01*
X132913914Y-37969259D01*
X132821414Y-38116472D01*
X132769079Y-38162763D01*
X132716420Y-38174500D01*
X130937274Y-38174500D01*
X130870235Y-38154815D01*
X130845121Y-38133469D01*
X130832347Y-38119281D01*
X130802120Y-38056288D01*
X130800500Y-38036312D01*
X130800500Y-36550000D01*
X132740000Y-36550000D01*
X134465000Y-36550000D01*
X134465000Y-35665000D01*
X134965000Y-35665000D01*
X134965000Y-36550000D01*
X136690000Y-36550000D01*
X136690000Y-36436585D01*
X136689999Y-36436581D01*
X136674548Y-36299446D01*
X136674547Y-36299440D01*
X136613703Y-36125556D01*
X136515691Y-35969571D01*
X136385428Y-35839308D01*
X136229443Y-35741296D01*
X136055559Y-35680452D01*
X136055553Y-35680451D01*
X135918418Y-35665000D01*
X134965000Y-35665000D01*
X134465000Y-35665000D01*
X133511581Y-35665000D01*
X133374446Y-35680451D01*
X133374440Y-35680452D01*
X133200556Y-35741296D01*
X133044571Y-35839308D01*
X132914308Y-35969571D01*
X132816296Y-36125556D01*
X132755452Y-36299440D01*
X132755451Y-36299446D01*
X132740000Y-36436581D01*
X132740000Y-36550000D01*
X130800500Y-36550000D01*
X130800500Y-36505452D01*
X130820185Y-36438413D01*
X130836819Y-36417771D01*
X132714589Y-34540001D01*
X135752704Y-34540001D01*
X135752899Y-34542486D01*
X135798718Y-34700198D01*
X135882314Y-34841552D01*
X135882321Y-34841561D01*
X135998438Y-34957678D01*
X135998447Y-34957685D01*
X136139803Y-35041282D01*
X136139806Y-35041283D01*
X136297504Y-35087099D01*
X136297510Y-35087100D01*
X136334356Y-35090000D01*
X136975000Y-35090000D01*
X136975000Y-34540000D01*
X137475000Y-34540000D01*
X137475000Y-35090000D01*
X138115644Y-35090000D01*
X138152489Y-35087100D01*
X138152495Y-35087099D01*
X138310193Y-35041283D01*
X138310196Y-35041282D01*
X138451552Y-34957685D01*
X138451561Y-34957678D01*
X138567678Y-34841561D01*
X138567685Y-34841552D01*
X138651281Y-34700198D01*
X138697100Y-34542486D01*
X138697295Y-34540001D01*
X138697295Y-34540000D01*
X137475000Y-34540000D01*
X136975000Y-34540000D01*
X135752705Y-34540000D01*
X135752704Y-34540001D01*
X132714589Y-34540001D01*
X134842772Y-32411819D01*
X134904095Y-32378334D01*
X134930453Y-32375500D01*
X135719308Y-32375500D01*
X135786347Y-32395185D01*
X135832102Y-32447989D01*
X135842046Y-32517147D01*
X135826041Y-32562620D01*
X135798254Y-32609605D01*
X135798254Y-32609606D01*
X135752402Y-32767426D01*
X135752401Y-32767432D01*
X135749500Y-32804304D01*
X135749500Y-33235696D01*
X135752401Y-33272567D01*
X135752402Y-33272573D01*
X135798254Y-33430393D01*
X135798255Y-33430396D01*
X135798256Y-33430398D01*
X135822505Y-33471401D01*
X135881917Y-33571862D01*
X135886702Y-33578031D01*
X135884369Y-33579840D01*
X135911210Y-33628995D01*
X135906226Y-33698687D01*
X135885470Y-33731021D01*
X135887097Y-33732283D01*
X135882313Y-33738449D01*
X135798718Y-33879801D01*
X135752899Y-34037513D01*
X135752704Y-34039998D01*
X135752705Y-34040000D01*
X138697295Y-34040000D01*
X138697295Y-34039998D01*
X138697100Y-34037513D01*
X138651281Y-33879801D01*
X138567685Y-33738447D01*
X138562900Y-33732278D01*
X138565366Y-33730364D01*
X138538802Y-33681776D01*
X138543749Y-33612082D01*
X138564856Y-33579232D01*
X138563301Y-33578026D01*
X138568077Y-33571868D01*
X138568081Y-33571865D01*
X138651744Y-33430398D01*
X138695144Y-33281016D01*
X138697597Y-33272573D01*
X138697598Y-33272567D01*
X138700500Y-33235696D01*
X138700500Y-33050452D01*
X138720185Y-32983413D01*
X138736819Y-32962771D01*
X140557772Y-31141819D01*
X140619095Y-31108334D01*
X140645453Y-31105500D01*
X140669308Y-31105500D01*
X140736347Y-31125185D01*
G37*
%TD.AperFunction*%
%TA.AperFunction,Conductor*%
G36*
X113230050Y-34906274D02*
G01*
X113265981Y-34915500D01*
X113286016Y-34915500D01*
X113305414Y-34917026D01*
X113325194Y-34920159D01*
X113325195Y-34920160D01*
X113325195Y-34920159D01*
X113325196Y-34920160D01*
X113371584Y-34915775D01*
X113377422Y-34915500D01*
X113672984Y-34915500D01*
X113740023Y-34935185D01*
X113785778Y-34987989D01*
X113796304Y-35026536D01*
X113802669Y-35087099D01*
X113805767Y-35116574D01*
X113793197Y-35185303D01*
X113745464Y-35236327D01*
X113677724Y-35253444D01*
X113666261Y-35252473D01*
X113567730Y-35239501D01*
X113567725Y-35239500D01*
X113567720Y-35239500D01*
X113342280Y-35239500D01*
X113342272Y-35239500D01*
X113246792Y-35252071D01*
X113229764Y-35254313D01*
X113229763Y-35254313D01*
X113221707Y-35255374D01*
X113221471Y-35253584D01*
X113161732Y-35252157D01*
X113103873Y-35212989D01*
X113076375Y-35148758D01*
X113075499Y-35134048D01*
X113075499Y-35034986D01*
X113075382Y-35032690D01*
X113075499Y-35032200D01*
X113075499Y-35031836D01*
X113075586Y-35031836D01*
X113091629Y-34964736D01*
X113142037Y-34916353D01*
X113210599Y-34902903D01*
X113230050Y-34906274D01*
G37*
%TD.AperFunction*%
%TD*%
M02*
