%TF.GenerationSoftware,KiCad,Pcbnew,7.0.9*%
%TF.CreationDate,2023-12-31T17:17:44+01:00*%
%TF.ProjectId,power_switch,706f7765-725f-4737-9769-7463682e6b69,rev?*%
%TF.SameCoordinates,Original*%
%TF.FileFunction,Profile,NP*%
%FSLAX46Y46*%
G04 Gerber Fmt 4.6, Leading zero omitted, Abs format (unit mm)*
G04 Created by KiCad (PCBNEW 7.0.9) date 2023-12-31 17:17:44*
%MOMM*%
%LPD*%
G01*
G04 APERTURE LIST*
%TA.AperFunction,Profile*%
%ADD10C,0.100000*%
%TD*%
G04 APERTURE END LIST*
D10*
X114300000Y-73025000D02*
X119380000Y-73025000D01*
X136525000Y-90170000D02*
X119380000Y-90170000D01*
X100000000Y-112000000D02*
X156600000Y-112000000D01*
X118745000Y-73660000D02*
X118745000Y-90170000D01*
X114300000Y-73025000D02*
X105410000Y-73025000D01*
X137160000Y-90170000D02*
X137160000Y-90805000D01*
X119380000Y-90805000D02*
X118745000Y-90805000D01*
X128300000Y-26500000D02*
X156600000Y-30000000D01*
X137160000Y-90170000D02*
X137160000Y-67310000D01*
X156600000Y-30000000D02*
X156600000Y-112000000D01*
X100000000Y-30000000D02*
X100000000Y-112000000D01*
X137160000Y-67310000D02*
X151765000Y-67310000D01*
X151765000Y-66675000D02*
X136525000Y-66675000D01*
X105410000Y-73025000D02*
X105410000Y-73660000D01*
X136525000Y-66675000D02*
X136525000Y-90170000D01*
X119380000Y-90805000D02*
X137160000Y-90805000D01*
X118745000Y-90805000D02*
X118745000Y-90170000D01*
X105410000Y-73660000D02*
X118745000Y-73660000D01*
X100000000Y-30000000D02*
X128300000Y-26500000D01*
X119380000Y-90170000D02*
X119380000Y-73025000D01*
X131500000Y-31200000D02*
G75*
G03*
X131500000Y-31200000I-3200000J0D01*
G01*
X151765000Y-67310000D02*
X151765000Y-66675000D01*
M02*
